<svg xmlns="http://www.w3.org/2000/svg" xmlns:xlink="http://www.w3.org/1999/xlink" width="1070" height="450.156" viewBox="0 0 1070 450.156">
  <defs>
    <clipPath id="clip-path">
      <rect id="Rectángulo_42279" data-name="Rectángulo 42279" width="53.17" height="265.216" fill="#707070"/>
    </clipPath>
  </defs>
  <g id="Grupo_149728" data-name="Grupo 149728" transform="translate(-265 -434.499)">
    <g id="Grupo_142190" data-name="Grupo 142190" transform="translate(34.325 -140.501)">
      <g id="Grupo_142181" data-name="Grupo 142181" transform="translate(739.42 698.971)">
        <rect id="Rectángulo_41200" data-name="Rectángulo 41200" width="139.213" height="61.985" transform="translate(0)" fill="#1b3f5e"/>
        <text id="Compras" transform="translate(69.837 39.291)" fill="#fff" font-size="20" font-family="Roboto-Black, Roboto" font-weight="800"><tspan x="-40.493" y="0">Compras</tspan></text>
      </g>
      <g id="Grupo_142182" data-name="Grupo 142182" transform="translate(579.884 869.221)">
        <g id="Rectángulo_41215" data-name="Rectángulo 41215" transform="translate(0 0)" fill="#dde2e7" stroke="#1b3f5e" stroke-width="1">
          <rect width="112.793" height="45.727" stroke="none"/>
          <rect x="0.5" y="0.5" width="111.793" height="44.727" fill="none"/>
        </g>
        <text id="Incoterms" transform="translate(19.307 29.194)" fill="#12263f" font-size="16" font-family="Roboto-Bold, Roboto" font-weight="700"><tspan x="0" y="0">Incoterms</tspan></text>
      </g>
      <g id="Grupo_142183" data-name="Grupo 142183" transform="translate(560.577 624.791)">
        <g id="Rectángulo_41216" data-name="Rectángulo 41216" fill="#dde2e7" stroke="#1b3f5e" stroke-width="1">
          <rect width="132.1" height="45.727" stroke="none"/>
          <rect x="0.5" y="0.5" width="131.1" height="44.727" fill="none"/>
        </g>
        <text id="Negociación" transform="translate(19.307 29.194)" fill="#12263f" font-size="16" font-family="Roboto-Bold, Roboto" font-weight="700"><tspan x="0" y="0">Negociación</tspan></text>
      </g>
      <g id="Rectángulo_41217" data-name="Rectángulo 41217" transform="translate(357.347 678.648)" fill="#f0f8ff" stroke="#1b3f5e" stroke-width="1">
        <rect width="142.261" height="41.662" stroke="none"/>
        <rect x="0.5" y="0.5" width="141.261" height="40.662" fill="none"/>
      </g>
      <text id="Metodologías" transform="translate(377.67 704.793)" fill="#12263f" font-size="16" font-family="Roboto-Regular, Roboto"><tspan x="0" y="0">Metodologías</tspan></text>
      <g id="Rectángulo_41219" data-name="Rectángulo 41219" transform="translate(357.347 575)" fill="#f0f8ff" stroke="#1b3f5e" stroke-width="1">
        <rect width="142.261" height="41.662" stroke="none"/>
        <rect x="0.5" y="0.5" width="141.261" height="40.662" fill="none"/>
      </g>
      <text id="Influencia" transform="translate(392.912 601.145)" fill="#12263f" font-size="16" font-family="Roboto-Regular, Roboto"><tspan x="0" y="0">Influencia</tspan></text>
      <g id="Rectángulo_41220" data-name="Rectángulo 41220" transform="translate(357.347 626.824)" fill="#f0f8ff" stroke="#1b3f5e" stroke-width="1">
        <rect width="142.261" height="41.662" stroke="none"/>
        <rect x="0.5" y="0.5" width="141.261" height="40.662" fill="none"/>
      </g>
      <text id="Conocimiento" transform="translate(377.67 652.969)" fill="#12263f" font-size="16" font-family="Roboto-Regular, Roboto"><tspan x="0" y="0">Conocimiento</tspan></text>
      <g id="Rectángulo_41218" data-name="Rectángulo 41218" transform="translate(1158.075 760.956)" fill="#f0f8ff" stroke="#1b3f5e" stroke-width="1">
        <rect width="142.6" height="41.662" stroke="none"/>
        <rect x="0.5" y="0.5" width="141.6" height="40.662" fill="none"/>
      </g>
      <text id="Estándar_" data-name="Estándar " transform="translate(1196.689 787.101)" fill="#12263f" font-size="16" font-family="Roboto-Regular, Roboto"><tspan x="0" y="0">Estándar </tspan></text>
      <g id="Rectángulo_41221" data-name="Rectángulo 41221" transform="translate(1158.075 812.78)" fill="#f0f8ff" stroke="#1b3f5e" stroke-width="1">
        <rect width="142.6" height="41.662" stroke="none"/>
        <rect x="0.5" y="0.5" width="141.6" height="40.662" fill="none"/>
      </g>
      <text id="Planificada" transform="translate(1229.714 838.925)" fill="#12263f" font-size="16" font-family="Roboto-Regular, Roboto"><tspan x="-39.527" y="0">Planificada</tspan></text>
      <g id="Rectángulo_41222" data-name="Rectángulo 41222" transform="translate(1158.075 864.604)" fill="#f0f8ff" stroke="#1b3f5e" stroke-width="1">
        <rect width="142.6" height="41.662" stroke="none"/>
        <rect x="0.5" y="0.5" width="141.6" height="40.662" fill="none"/>
      </g>
      <g id="Rectángulo_42278" data-name="Rectángulo 42278" transform="translate(1158.075 916.427)" fill="#f0f8ff" stroke="#1b3f5e" stroke-width="1">
        <rect width="142.6" height="41.662" stroke="none"/>
        <rect x="0.5" y="0.5" width="141.6" height="40.662" fill="none"/>
      </g>
      <text id="Abierta" transform="translate(1229.206 890.749)" fill="#12263f" font-size="16" font-family="Roboto-Regular, Roboto"><tspan x="-25.754" y="0">Abierta</tspan></text>
      <text id="Por_contrato" data-name="Por contrato" transform="translate(1229.206 942.573)" fill="#12263f" font-size="16" font-family="Roboto-Regular, Roboto"><tspan x="-44.023" y="0">Por contrato</tspan></text>
      <g id="Rectángulo_42277" data-name="Rectángulo 42277" transform="translate(1158.075 575)" fill="#f0f8ff" stroke="#1b3f5e" stroke-width="1">
        <rect width="142.261" height="41.662" stroke="none"/>
        <rect x="0.5" y="0.5" width="141.261" height="40.662" fill="none"/>
      </g>
      <text id="Adquisición_" data-name="Adquisición " transform="translate(1229.206 601.145)" fill="#12263f" font-size="16" font-family="Roboto-Regular, Roboto"><tspan x="-43.781" y="0">Adquisición </tspan></text>
      <g id="Rectángulo_42276" data-name="Rectángulo 42276" transform="translate(1158.075 626.824)" fill="#f0f8ff" stroke="#1b3f5e" stroke-width="1">
        <rect width="142.261" height="41.662" stroke="none"/>
        <rect x="0.5" y="0.5" width="141.261" height="40.662" fill="none"/>
      </g>
      <text id="Almacenamiento" transform="translate(1167.22 652.969)" fill="#12263f" font-size="16" font-family="Roboto-Regular, Roboto"><tspan x="0" y="0">Almacenamiento</tspan></text>
      <g id="Rectángulo_42275" data-name="Rectángulo 42275" transform="translate(1158.075 678.648)" fill="#f0f8ff" stroke="#1b3f5e" stroke-width="1">
        <rect width="142.261" height="41.662" stroke="none"/>
        <rect x="0.5" y="0.5" width="141.261" height="40.662" fill="none"/>
      </g>
      <text id="Inventarios" transform="translate(1188.56 704.793)" fill="#12263f" font-size="16" font-family="Roboto-Regular, Roboto"><tspan x="0" y="0">Inventarios</tspan></text>
      <g id="Grupo_142184" data-name="Grupo 142184" transform="translate(926.392 836.704)">
        <g id="Rectángulo_41224" data-name="Rectángulo 41224" transform="translate(0)" fill="#dde2e7" stroke="#1b3f5e" stroke-width="1">
          <rect width="183.924" height="45.727" stroke="none"/>
          <rect x="0.5" y="0.5" width="182.924" height="44.727" fill="none"/>
        </g>
        <text id="Órdenes_de_compra" data-name="Órdenes de compra" transform="translate(19.307 29.194)" fill="#12263f" font-size="16" font-family="Roboto-Bold, Roboto" font-weight="700"><tspan x="0" y="0">Órdenes de compra</tspan></text>
      </g>
      <g id="Grupo_142180" data-name="Grupo 142180" transform="translate(926.054 624.791)">
        <g id="Rectángulo_41225" data-name="Rectángulo 41225" fill="#dde2e7" stroke="#1b3f5e" stroke-width="1">
          <rect width="177.827" height="45.727" stroke="none"/>
          <rect x="0.5" y="0.5" width="176.827" height="44.727" fill="none"/>
        </g>
        <text id="Aprovisionamiento" transform="translate(19.307 29.194)" fill="#12263f" font-size="16" font-family="Roboto-Bold, Roboto" font-weight="700"><tspan x="0" y="0">Aprovisionamiento</tspan></text>
      </g>
      <path id="Trazado_191298" data-name="Trazado 191298" d="M-12027.575-9382.5h-26.759" transform="translate(12766.995 10112.463)" fill="none" stroke="#707070" stroke-width="1"/>
      <path id="Trazado_191302" data-name="Trazado 191302" d="M-12054.333-9382.5h26.759" transform="translate(12933.306 10112.463)" fill="none" stroke="#707070" stroke-width="1"/>
      <text id="Cost_and_Freight_CFR_Cost_Insurance_and_Freight_CIF_Free_Alongside_Ship_FAS_Free_On_Board_FOB_Carriage_and_Insurance_Paid_To_CIP_Carriage_Paid_To_CPT_Delivered_At_Place_DAP_Delivered_Duty_Paid_DDP_Delivered_ar_Place_Unloaded_DPU_Ex-Work" data-name="Cost and Freight (CFR)
Cost, Insurance, and Freight (CIF)
Free Alongside Ship (FAS)
Free On Board (FOB)
Carriage and Insurance Paid To (CIP)
Carriage Paid To (CPT)
Delivered At Place (DAP)
Delivered Duty Paid (DDP)
Delivered ar Place Unloaded (DPU)
Ex-Work" transform="translate(230.675 759.94)" fill="#12263f" font-size="16" font-family="Roboto-Italic, Roboto" font-style="italic"><tspan x="0" y="17">Cost and Freight (CFR)</tspan><tspan x="0" y="41">Cost, Insurance, and Freight (CIF)</tspan><tspan x="0" y="65">Free Alongside Ship (FAS)</tspan><tspan x="0" y="89">Free On Board (FOB)</tspan><tspan x="0" y="113">Carriage and Insurance Paid To (CIP)</tspan><tspan x="0" y="137">Carriage Paid To (CPT)</tspan><tspan x="0" y="161">Delivered At Place (DAP)</tspan><tspan x="0" y="185">Delivered Duty Paid (DDP)</tspan><tspan x="0" y="209">Delivered ar Place Unloaded (DPU)</tspan><tspan x="0" y="233">Ex-Works (EXW)</tspan><tspan x="0" y="257">Free Carrier (FCA)</tspan></text>
      <g id="Grupo_142189" data-name="Grupo 142189" transform="translate(509.101 759.94)">
        <g id="Grupo_142188" data-name="Grupo 142188" transform="translate(0 0)" clip-path="url(#clip-path)">
          <path id="Trazado_191304" data-name="Trazado 191304" d="M53.17,132.823q-7.893,1.6-12.808,2.81a28.719,28.719,0,0,0-6.853,2.33q-9.553,4.982-10.662,18.15-.142,1.6-.209,5.377t-.071,9.717V226.3q0,20.558-5.12,27.945Q9.833,265.968,0,265.166l.276-4.82a1.522,1.522,0,0,0,.969,0q6.924-.809,11.634-7.387a27.934,27.934,0,0,0,5.4-14.135c.091-.854.158-2.33.2-4.418s.071-4.792.071-8.109V171.207q0-15.9,1.524-22.486,2.907-11.4,13.013-15.9-10.108-4.5-13.013-16.063-1.53-6.585-1.524-22.646V39.189q0-18.632-4.431-25.218Q7.755,4.658.276,4.816L0,.161a2.563,2.563,0,0,1,1.8,0q8.029.966,13.706,8.511a34.381,34.381,0,0,1,6.786,16.867c.091.859.161,2.408.209,4.655s.067,5.249.067,9V94.115q0,17.509,1.942,23.45,3.6,10.121,16.755,12.851Z" transform="translate(0 -0.002)" fill="#707070"/>
        </g>
      </g>
      <path id="Trazado_191305" data-name="Trazado 191305" d="M-12074.333-9463.5h20.322v244.893h-20.322" transform="translate(12766.671 10111.155)" fill="none" stroke="#707070" stroke-width="1"/>
      <path id="Trazado_191306" data-name="Trazado 191306" d="M-11844.009-9463.5h-20.323v211.913h20.323" transform="translate(12770.063 10111.155)" fill="none" stroke="#707070" stroke-width="1"/>
      <path id="Trazado_191307" data-name="Trazado 191307" d="M-11615.6-9409.916h-25.165v-103.14h25.165" transform="translate(12773.675 10109.395)" fill="none" stroke="#707070" stroke-width="1"/>
      <path id="Trazado_191308" data-name="Trazado 191308" d="M-11615.6-9357.075h-25.165v-155.98h25.165" transform="translate(12773.675 10294.843)" fill="none" stroke="#707070" stroke-width="1"/>
      <path id="Trazado_191309" data-name="Trazado 191309" d="M-11669.334-9463h54.9" transform="translate(12773.214 10111.163)" fill="none" stroke="#707070" stroke-width="1"/>
      <path id="Trazado_191310" data-name="Trazado 191310" d="M-11614.891-9280.5h-26.12" transform="translate(12773.671 10114.111)" fill="none" stroke="#707070" stroke-width="1"/>
      <path id="Trazado_191311" data-name="Trazado 191311" d="M-11615.6-9229.5h-25" transform="translate(12773.679 10114.935)" fill="none" stroke="#707070" stroke-width="1"/>
      <path id="Trazado_191312" data-name="Trazado 191312" d="M-11663-9254.75h21.845" transform="translate(12773.316 10114.527)" fill="none" stroke="#707070" stroke-width="1"/>
      <path id="Trazado_191313" data-name="Trazado 191313" d="M-12264.333-9417.382h33v-103.647h-33" transform="translate(12763.603 10116.86)" fill="none" stroke="#707070" stroke-width="1"/>
      <path id="Trazado_191314" data-name="Trazado 191314" d="M-12264.333-9463.5h61.1" transform="translate(12763.603 10111.155)" fill="none" stroke="#707070" stroke-width="1"/>
    </g>
  </g>
</svg>
