<svg xmlns="http://www.w3.org/2000/svg" width="190" height="90" viewBox="0 0 190 90"><g transform="translate(-180 -1539)"><rect width="190" height="90" transform="translate(180 1539)" fill="none"/><g transform="translate(179.813 1134.043)" opacity="0.2"><g transform="translate(174.724 459.748) rotate(180)"><path d="M12.041,0H0L9.126,19.4,0,38.791H12.041l9.126-19.4Z" transform="translate(0 0)" fill="#d84318"/><path d="M12.041,0H0L9.126,19.4,0,38.791H12.041l9.126-19.4Z" transform="translate(21.167 0)" fill="#d84318"/><path d="M12.041,0H0L9.126,19.4,0,38.791H12.041l9.126-19.4Z" transform="translate(42.335 0)" fill="#d84318"/></g><g transform="translate(16.187 440.353)"><path d="M12.041,0H0L9.126,19.4,0,38.791H12.041l9.126-19.4Z" transform="translate(0 0)" fill="#1b3f5e"/><path d="M12.041,0H0L9.126,19.4,0,38.791H12.041l9.126-19.4Z" transform="translate(21.167 0)" fill="#1b3f5e"/><path d="M12.041,0H0L9.126,19.4,0,38.791H12.041l9.126-19.4Z" transform="translate(42.335 0)" fill="#1b3f5e"/></g></g><g transform="translate(210.238 1540.03)"><g transform="translate(26.881 1.97)"><path d="M54.431,201.578l.819,4.773a2.075,2.075,0,0,1-3.014,2.187l-4.28-2.257a2.075,2.075,0,0,0-1.935,0l-4.3,2.262a2.075,2.075,0,0,1-3.012-2.187l.819-4.776a2.076,2.076,0,0,0-.6-1.837l-3.479-3.391a2.075,2.075,0,0,1,1.151-3.54l4.8-.7a2.075,2.075,0,0,0,1.563-1.135l2.155-4.361a2.075,2.075,0,0,1,3.723,0l2.145,4.356a2.075,2.075,0,0,0,1.564,1.137l4.8.695a2.075,2.075,0,0,1,1.151,3.54l-3.479,3.391a2.075,2.075,0,0,0-.6,1.837Z" transform="translate(-33.512 -155.126)" fill="#fff59d"/><g transform="translate(1.314 1.312)"><path d="M54.431,26.022l.819,4.773a2.075,2.075,0,0,1-3.014,2.187l-4.28-2.257a2.075,2.075,0,0,0-1.935,0l-4.3,2.262A2.075,2.075,0,0,1,38.711,30.8l.819-4.776a2.076,2.076,0,0,0-.6-1.837l-3.479-3.391a2.075,2.075,0,0,1,1.151-3.54l4.8-.7a2.076,2.076,0,0,0,1.563-1.135l2.155-4.361a2.075,2.075,0,0,1,3.723,0l2.145,4.356a2.075,2.075,0,0,0,1.564,1.137l4.8.695a2.075,2.075,0,0,1,1.151,3.54l-3.479,3.391a2.075,2.075,0,0,0-.6,1.837Z" transform="translate(-34.826 -9.908)" fill="#fff59d"/><path d="M54.431,377.134l.819,4.773a2.075,2.075,0,0,1-3.014,2.187l-4.28-2.257a2.075,2.075,0,0,0-1.935,0l-4.3,2.262a2.075,2.075,0,0,1-3.012-2.187l.819-4.776a2.076,2.076,0,0,0-.6-1.837l-3.479-3.391a2.075,2.075,0,0,1,1.151-3.54l4.8-.7a2.075,2.075,0,0,0,1.563-1.135l2.155-4.361a2.075,2.075,0,0,1,3.723,0l2.145,4.356a2.075,2.075,0,0,0,1.564,1.137l4.8.695a2.075,2.075,0,0,1,1.151,3.54L55.028,375.3a2.075,2.075,0,0,0-.6,1.837Z" transform="translate(-34.826 -302.969)" fill="#fff59d"/></g><g transform="translate(5.17 8.426)"><path d="M74.5,60.1a2.074,2.074,0,0,0-.591,1.838L74.72,66.7A2.08,2.08,0,0,1,71.7,68.892l-4.279-2.257a2.088,2.088,0,0,0-1.929,0l-4.3,2.257a2.068,2.068,0,0,1-3.005-2.179l.2-1.168,3.95-2.074a2.088,2.088,0,0,1,1.929,0l4.279,2.257a2.08,2.08,0,0,0,3.019-2.192l-.814-4.764a2.063,2.063,0,0,1,.591-1.838l3.478-3.4a2.008,2.008,0,0,0,.42-.6l1.588.236A2.068,2.068,0,0,1,77.975,56.7Z" transform="translate(-58.152 -52.932)" fill="#ccc47d"/><path d="M74.5,411.206a2.074,2.074,0,0,0-.591,1.838l.814,4.777A2.077,2.077,0,0,1,71.7,420l-4.279-2.258a2.088,2.088,0,0,0-1.929,0L61.189,420a2.065,2.065,0,0,1-3.005-2.179l.2-1.168,3.95-2.074a2.088,2.088,0,0,1,1.929,0l4.279,2.257a2.08,2.08,0,0,0,3.019-2.192l-.814-4.764a2.074,2.074,0,0,1,.591-1.838l3.478-3.386a1.568,1.568,0,0,0,.42-.617l1.588.236a2.077,2.077,0,0,1,1.155,3.544Z" transform="translate(-58.152 -345.99)" fill="#ccc47d"/></g><g transform="translate(0 0)"><path d="M50.912,9.331l-4.8-.695a.77.77,0,0,1-.577-.419L43.393,3.862a3.387,3.387,0,0,0-6.076-.005L35.162,8.218a.763.763,0,0,1-.575.416l-4.8.7a3.388,3.388,0,0,0-1.88,5.778L31.386,18.5a.764.764,0,0,1,.22.675l-.82,4.776A3.389,3.389,0,0,0,35.7,27.522L40,25.26a.762.762,0,0,1,.711,0l4.28,2.257a3.388,3.388,0,0,0,4.92-3.57l-.819-4.772a.762.762,0,0,1,.22-.675l3.478-3.391a3.388,3.388,0,0,0-1.879-5.778Zm.047,3.9-3.478,3.39a3.388,3.388,0,0,0-.975,3h0l.818,4.772a.762.762,0,0,1-1.108.8l-4.28-2.257a3.391,3.391,0,0,0-3.159,0l-4.3,2.262a.763.763,0,0,1-1.108-.8l.82-4.776a3.388,3.388,0,0,0-.975-3L29.74,13.23a.763.763,0,0,1,.424-1.3l4.8-.695a3.389,3.389,0,0,0,2.552-1.852L39.67,5.019a.763.763,0,0,1,1.368,0l2.145,4.357a3.389,3.389,0,0,0,2.554,1.856l4.8.695a.763.763,0,0,1,.423,1.3Z" transform="translate(-26.881 -1.97)"/><path d="M89.1,66.147,85.876,69.37l-.7-.7a1.312,1.312,0,0,0-1.856,1.856l1.624,1.624a1.312,1.312,0,0,0,1.856,0L90.955,68A1.312,1.312,0,0,0,89.1,66.147Z" transform="translate(-73.671 -55.215)"/><path d="M222.473,23.115H263.49a1.312,1.312,0,1,0,0-2.625H222.473a1.312,1.312,0,0,0,0,2.625Z" transform="translate(-189.04 -17.428)"/><path d="M263.49,72.5H222.473a1.312,1.312,0,0,0,0,2.625H263.49a1.312,1.312,0,1,0,0-2.625Z" transform="translate(-189.04 -60.837)"/><path d="M222.473,127.133h29.182a1.312,1.312,0,1,0,0-2.625H222.473a1.312,1.312,0,0,0,0,2.625Z" transform="translate(-189.04 -104.248)"/><path d="M50.914,184.886l-4.8-.695a.77.77,0,0,1-.577-.419l-2.145-4.355a3.387,3.387,0,0,0-6.076-.005l-2.155,4.362a.763.763,0,0,1-.575.416l-4.8.7a3.388,3.388,0,0,0-1.88,5.778l3.478,3.391a.764.764,0,0,1,.22.675l-.82,4.776a3.389,3.389,0,0,0,4.918,3.571l4.3-2.262a.762.762,0,0,1,.711,0l4.28,2.257a3.388,3.388,0,0,0,4.92-3.57l-.819-4.772a.762.762,0,0,1,.22-.675l3.478-3.391a3.388,3.388,0,0,0-1.879-5.778Zm.047,3.9-3.478,3.39a3.388,3.388,0,0,0-.975,3h0l.818,4.772a.762.762,0,0,1-1.108.8l-4.28-2.257a3.391,3.391,0,0,0-3.159,0l-4.3,2.262a.763.763,0,0,1-1.108-.8l.82-4.776a3.388,3.388,0,0,0-.975-3l-3.479-3.391a.763.763,0,0,1,.424-1.3l4.8-.695a3.389,3.389,0,0,0,2.552-1.852l2.155-4.36a.763.763,0,0,1,1.368,0l2.145,4.357a3.389,3.389,0,0,0,2.554,1.856l4.8.695A.763.763,0,0,1,50.961,188.785Z" transform="translate(-26.883 -148.5)"/><path d="M89.1,241.71l-3.223,3.224-.7-.7a1.313,1.313,0,0,0-1.857,1.856l1.624,1.625a1.313,1.313,0,0,0,1.857,0l4.151-4.151A1.312,1.312,0,0,0,89.1,241.71Z" transform="translate(-73.67 -201.752)"/><path d="M263.49,196.045H222.473a1.312,1.312,0,0,0,0,2.625H263.49a1.312,1.312,0,1,0,0-2.625Z" transform="translate(-189.04 -163.958)"/><path d="M263.49,248.054H222.473a1.312,1.312,0,0,0,0,2.625H263.49a1.312,1.312,0,1,0,0-2.625Z" transform="translate(-189.04 -207.368)"/><path d="M222.473,302.689h29.182a1.312,1.312,0,1,0,0-2.625H222.473a1.312,1.312,0,1,0,0,2.625Z" transform="translate(-189.04 -250.779)"/><path d="M50.914,360.441l-4.8-.695a.77.77,0,0,1-.577-.418l-2.145-4.357a3.387,3.387,0,0,0-6.076-.005l-2.155,4.362a.77.77,0,0,1-.574.418l-4.8.695a3.388,3.388,0,0,0-1.88,5.778l3.478,3.391a.764.764,0,0,1,.22.675l-.82,4.776a3.389,3.389,0,0,0,4.918,3.571L40,376.37a.758.758,0,0,1,.711,0l4.28,2.257a3.389,3.389,0,0,0,4.92-3.57l-.819-4.773h0a.762.762,0,0,1,.22-.675l3.478-3.391a3.387,3.387,0,0,0-1.879-5.778Zm.047,3.9-3.478,3.39a3.388,3.388,0,0,0-.975,3l.82,4.773a.763.763,0,0,1-1.109.8l-4.28-2.257a3.384,3.384,0,0,0-3.159,0l-4.3,2.262a.763.763,0,0,1-1.108-.8l.82-4.776a3.388,3.388,0,0,0-.975-3l-3.479-3.391a.763.763,0,0,1,.423-1.3l4.8-.695a3.388,3.388,0,0,0,2.55-1.852l2.155-4.36a.763.763,0,0,1,1.368,0l2.146,4.358a3.387,3.387,0,0,0,2.554,1.855l4.8.695A.763.763,0,0,1,50.961,364.34Z" transform="translate(-26.883 -295.03)"/><path d="M89.1,417.266l-3.223,3.224-.7-.7a1.313,1.313,0,0,0-1.857,1.856l1.624,1.625a1.313,1.313,0,0,0,1.857,0l4.151-4.151a1.312,1.312,0,0,0-1.856-1.856Z" transform="translate(-73.67 -348.282)"/><path d="M263.49,371.6H222.473a1.312,1.312,0,1,0,0,2.625H263.49a1.312,1.312,0,1,0,0-2.625Z" transform="translate(-189.04 -310.488)"/><path d="M263.49,423.61H222.473a1.312,1.312,0,1,0,0,2.625H263.49a1.312,1.312,0,1,0,0-2.625Z" transform="translate(-189.04 -353.898)"/><path d="M251.655,475.619H222.473a1.312,1.312,0,1,0,0,2.625h29.182a1.312,1.312,0,1,0,0-2.625Z" transform="translate(-189.04 -397.309)"/></g></g></g></g></svg>