<svg xmlns="http://www.w3.org/2000/svg" width="1240" height="305.718" viewBox="0 0 1240 305.718">
  <g id="Grupo_149712" data-name="Grupo 149712" transform="translate(1191 6799.718)">
    <g id="Grupo_149710" data-name="Grupo 149710" transform="translate(-1591 -12396.991)">
      <rect id="Rectángulo_33775" data-name="Rectángulo 33775" width="1240" height="40" transform="translate(400 5862.991)" fill="#e8e8e8"/>
      <text id="Fuente:_Elaboración_propia_del_experto." data-name="Fuente: Elaboración propia del experto." transform="translate(422 5873.991)" fill="#12263f" font-size="14" font-family="Roboto-Regular, Roboto"><tspan x="0" y="15">Fuente: Elaboración propia del experto.</tspan></text>
    </g>
    <g id="Grupo_149711" data-name="Grupo 149711" transform="translate(-1371 -8779.623)">
      <path id="Trazado_191041" data-name="Trazado 191041" d="M-1805-9237.416l35.25-51.953c.059-.5-35.25-51.236-35.25-51.236h153.3l32.591,51.236-32.591,51.953Z" transform="translate(1985.001 11320.601)" fill="#fff59d"/>
      <path id="Trazado_191047" data-name="Trazado 191047" d="M-1805-9237.416l35.25-51.953c.059-.5-35.25-51.236-35.25-51.236h153.3l32.591,51.236-32.591,51.953Z" transform="translate(1985.001 11458.882)" fill="#fff59d"/>
      <path id="Trazado_191043" data-name="Trazado 191043" d="M-1805-9237.416l35.25-51.953c.059-.5-35.25-51.236-35.25-51.236h153.3l32.591,51.236-32.591,51.953Z" transform="translate(2195.823 11320.601)" fill="#fff59d"/>
      <path id="Trazado_191048" data-name="Trazado 191048" d="M-1805-9237.416l35.25-51.953c.059-.5-35.25-51.236-35.25-51.236h153.3l32.591,51.236-32.591,51.953Z" transform="translate(2195.823 11458.882)" fill="#fff59d"/>
      <path id="Trazado_191042" data-name="Trazado 191042" d="M-1805-9237.416l35.25-51.953c.059-.5-35.25-51.236-35.25-51.236h153.3l32.591,51.236-32.591,51.953Z" transform="translate(2406.647 11320.601)" fill="#fff59d"/>
      <path id="Trazado_191049" data-name="Trazado 191049" d="M-1805-9237.416l35.25-51.953c.059-.5-35.25-51.236-35.25-51.236h153.3l32.591,51.236-32.591,51.953Z" transform="translate(2406.647 11458.882)" fill="#fff59d"/>
      <path id="Trazado_191044" data-name="Trazado 191044" d="M-1805-9237.416l35.25-51.953c.059-.5-35.25-51.236-35.25-51.236h153.3l32.591,51.236-32.591,51.953Z" transform="translate(2617.468 11320.601)" fill="#fff59d"/>
      <path id="Trazado_191050" data-name="Trazado 191050" d="M-1805-9237.416l35.25-51.953c.059-.5-35.25-51.236-35.25-51.236h153.3l32.591,51.236-32.591,51.953Z" transform="translate(2617.468 11458.882)" fill="#fff59d"/>
      <path id="Trazado_191045" data-name="Trazado 191045" d="M-1805-9237.416l35.25-51.953c.059-.5-35.25-51.236-35.25-51.236h153.3l32.591,51.236-32.591,51.953Z" transform="translate(2828.29 11320.601)" fill="#fff59d"/>
      <path id="Trazado_191051" data-name="Trazado 191051" d="M-1805-9237.416l35.25-51.953c.059-.5-35.25-51.236-35.25-51.236h153.3l32.591,51.236-32.591,51.953Z" transform="translate(2828.29 11458.882)" fill="#fff59d"/>
      <path id="Trazado_191046" data-name="Trazado 191046" d="M-1805-9237.416l35.25-51.953c.059-.5-35.25-51.236-35.25-51.236h153.3l32.591,51.236-32.591,51.953Z" transform="translate(3039.114 11320.601)" fill="#fff59d"/>
      <path id="Trazado_191052" data-name="Trazado 191052" d="M-1805-9237.416l35.25-51.953c.059-.5-35.25-51.236-35.25-51.236h153.3l32.591,51.236-32.591,51.953Z" transform="translate(3039.114 11458.882)" fill="#fff59d"/>
      <text id="Embalaje_Verificación_Control" data-name="Embalaje
Verificación 
Control" transform="translate(230 1997)" fill="#12263f" font-size="16" font-family="Roboto-Regular, Roboto"><tspan x="-32.84" y="17">Embalaje</tspan><tspan x="-42.051" y="41">Verificación </tspan><tspan x="-25.93" y="65">Control</tspan></text>
      <text id="Transporte_principal_internacional" data-name="Transporte principal internacional" transform="translate(225 2134)" fill="#12263f" font-size="16" font-family="Roboto-Regular, Roboto"><tspan x="-38.727" y="17">Transporte </tspan><tspan x="-30.461" y="41">principal </tspan><tspan x="-46.078" y="65">internacional</tspan></text>
      <text id="Licencias_Autorizaciones_Formalidades" data-name="Licencias Autorizaciones Formalidades" transform="translate(432 1997)" fill="#12263f" font-size="16" font-family="Roboto-Regular, Roboto"><tspan x="-33.691" y="17">Licencias </tspan><tspan x="-53.117" y="41">Autorizaciones </tspan><tspan x="-48.594" y="65">Formalidades</tspan></text>
      <text id="Seguro" transform="translate(459 2159)" fill="#12263f" font-size="16" font-family="Roboto-Regular, Roboto"><tspan x="-25.074" y="17">Seguro</tspan></text>
      <text id="Formalidades_aduaneras_de_exportación" data-name="Formalidades aduaneras de exportación" transform="translate(648 1997)" fill="#12263f" font-size="16" font-family="Roboto-Regular, Roboto"><tspan x="-48.594" y="17">Formalidades </tspan><tspan x="-48.035" y="41">aduaneras de </tspan><tspan x="-42.227" y="65">exportación</tspan></text>
      <text id="Costos_de_manipulación_en_destino" data-name="Costos de manipulación en destino" transform="translate(647 2135)" fill="#12263f" font-size="16" font-family="Roboto-Regular, Roboto"><tspan x="-35.848" y="17">Costos de </tspan><tspan x="-48.016" y="41">manipulación </tspan><tspan x="-37.039" y="65">en destino</tspan></text>
      <text id="Carga_en_fábrica_o_almacén" data-name="Carga en fábrica o almacén" transform="translate(874 1997)" fill="#12263f" font-size="16" font-family="Roboto-Regular, Roboto"><tspan x="-31.738" y="17">Carga en </tspan><tspan x="-31.348" y="41">fábrica o </tspan><tspan x="-30.496" y="65">almacén</tspan></text>
      <text id="Despacho_de_importación" data-name="Despacho de importación" transform="translate(861 2147)" fill="#12263f" font-size="16" font-family="Roboto-Regular, Roboto"><tspan x="-46.336" y="17">Despacho de </tspan><tspan x="-42.977" y="41">importación</tspan></text>
      <text id="Transporte_interior" data-name="Transporte interior" transform="translate(1079 2009)" fill="#12263f" font-size="16" font-family="Roboto-Regular, Roboto"><tspan x="-38.727" y="17">Transporte </tspan><tspan x="-25.125" y="41">interior</tspan></text>
      <text id="Transporte_interior_en_destino" data-name="Transporte interior en destino" transform="translate(1075 2135)" fill="#12263f" font-size="16" font-family="Roboto-Regular, Roboto"><tspan x="-38.727" y="17">Transporte </tspan><tspan x="-35.758" y="41">interior en </tspan><tspan x="-26.406" y="65">destino</tspan></text>
      <text id="Costos_de_manipulación_en_origen" data-name="Costos de manipulación en origen" transform="translate(1281 1997)" fill="#12263f" font-size="16" font-family="Roboto-Regular, Roboto"><tspan x="-35.848" y="17">Costos de </tspan><tspan x="-48.016" y="41">manipulación </tspan><tspan x="-32.984" y="65">en origen</tspan></text>
      <text id="Recepción_y_descarga" data-name="Recepción y descarga" transform="translate(1285 2147)" fill="#12263f" font-size="16" font-family="Roboto-Regular, Roboto"><tspan x="-42.949" y="17">Recepción y </tspan><tspan x="-32.961" y="41">descarga</tspan></text>
      <g id="Grupo_142101" data-name="Grupo 142101" opacity="0.51">
        <g id="Grupo_142091" data-name="Grupo 142091">
          <path id="Trazado_191053" data-name="Trazado 191053" d="M-1805-9237.416l35.25-51.953c.059-.5-35.25-51.236-35.25-51.236h10.3l32.591,51.236-32.591,51.953Z" transform="translate(2135.114 11458.882)" fill="#1b3f5e" opacity="0.9"/>
          <path id="Trazado_191054" data-name="Trazado 191054" d="M-1805-9237.416l35.25-51.953c.059-.5-35.25-51.236-35.25-51.236h10.3l32.591,51.236-32.591,51.953Z" transform="translate(2151.445 11458.882)" fill="#d84318" opacity="0.53"/>
          <path id="Trazado_191055" data-name="Trazado 191055" d="M-1805-9237.416l35.25-51.953c.059-.5-35.25-51.236-35.25-51.236h10.3l32.591,51.236-32.591,51.953Z" transform="translate(2167.445 11458.882)" fill="#1b3f5e" opacity="0.24"/>
          <path id="Trazado_191056" data-name="Trazado 191056" d="M-1805-9237.416l35.25-51.953c.059-.5-35.25-51.236-35.25-51.236h10.3l32.591,51.236-32.591,51.953Z" transform="translate(2183.445 11458.882)" fill="#1b3f5e" opacity="0.03"/>
        </g>
        <g id="Grupo_142092" data-name="Grupo 142092" transform="translate(0 -138.371)">
          <path id="Trazado_191053-2" data-name="Trazado 191053" d="M-1805-9237.416l35.25-51.953c.059-.5-35.25-51.236-35.25-51.236h10.3l32.591,51.236-32.591,51.953Z" transform="translate(2135.114 11458.882)" fill="#1b3f5e" opacity="0.9"/>
          <path id="Trazado_191054-2" data-name="Trazado 191054" d="M-1805-9237.416l35.25-51.953c.059-.5-35.25-51.236-35.25-51.236h10.3l32.591,51.236-32.591,51.953Z" transform="translate(2151.445 11458.882)" fill="#ac3513" opacity="0.53"/>
          <path id="Trazado_191055-2" data-name="Trazado 191055" d="M-1805-9237.416l35.25-51.953c.059-.5-35.25-51.236-35.25-51.236h10.3l32.591,51.236-32.591,51.953Z" transform="translate(2167.445 11458.882)" fill="#1b3f5e" opacity="0.24"/>
          <path id="Trazado_191056-2" data-name="Trazado 191056" d="M-1805-9237.416l35.25-51.953c.059-.5-35.25-51.236-35.25-51.236h10.3l32.591,51.236-32.591,51.953Z" transform="translate(2183.445 11458.882)" fill="#1b3f5e" opacity="0.03"/>
        </g>
        <g id="Grupo_142094" data-name="Grupo 142094" transform="translate(211)">
          <path id="Trazado_191053-3" data-name="Trazado 191053" d="M-1805-9237.416l35.25-51.953c.059-.5-35.25-51.236-35.25-51.236h10.3l32.591,51.236-32.591,51.953Z" transform="translate(2135.114 11458.882)" fill="#1b3f5e" opacity="0.9"/>
          <path id="Trazado_191054-3" data-name="Trazado 191054" d="M-1805-9237.416l35.25-51.953c.059-.5-35.25-51.236-35.25-51.236h10.3l32.591,51.236-32.591,51.953Z" transform="translate(2151.445 11458.882)" fill="#d84318" opacity="0.53"/>
          <path id="Trazado_191055-3" data-name="Trazado 191055" d="M-1805-9237.416l35.25-51.953c.059-.5-35.25-51.236-35.25-51.236h10.3l32.591,51.236-32.591,51.953Z" transform="translate(2167.445 11458.882)" fill="#1b3f5e" opacity="0.24"/>
          <path id="Trazado_191056-3" data-name="Trazado 191056" d="M-1805-9237.416l35.25-51.953c.059-.5-35.25-51.236-35.25-51.236h10.3l32.591,51.236-32.591,51.953Z" transform="translate(2183.445 11458.882)" fill="#1b3f5e" opacity="0.03"/>
        </g>
        <g id="Grupo_142093" data-name="Grupo 142093" transform="translate(211 -138.371)">
          <path id="Trazado_191053-4" data-name="Trazado 191053" d="M-1805-9237.416l35.25-51.953c.059-.5-35.25-51.236-35.25-51.236h10.3l32.591,51.236-32.591,51.953Z" transform="translate(2135.114 11458.882)" fill="#1b3f5e" opacity="0.9"/>
          <path id="Trazado_191054-4" data-name="Trazado 191054" d="M-1805-9237.416l35.25-51.953c.059-.5-35.25-51.236-35.25-51.236h10.3l32.591,51.236-32.591,51.953Z" transform="translate(2151.445 11458.882)" fill="#d84318" opacity="0.53"/>
          <path id="Trazado_191055-4" data-name="Trazado 191055" d="M-1805-9237.416l35.25-51.953c.059-.5-35.25-51.236-35.25-51.236h10.3l32.591,51.236-32.591,51.953Z" transform="translate(2167.445 11458.882)" fill="#1b3f5e" opacity="0.24"/>
          <path id="Trazado_191056-4" data-name="Trazado 191056" d="M-1805-9237.416l35.25-51.953c.059-.5-35.25-51.236-35.25-51.236h10.3l32.591,51.236-32.591,51.953Z" transform="translate(2183.445 11458.882)" fill="#1b3f5e" opacity="0.03"/>
        </g>
        <g id="Grupo_142096" data-name="Grupo 142096" transform="translate(422.278)">
          <path id="Trazado_191053-5" data-name="Trazado 191053" d="M-1805-9237.416l35.25-51.953c.059-.5-35.25-51.236-35.25-51.236h10.3l32.591,51.236-32.591,51.953Z" transform="translate(2135.114 11458.882)" fill="#1b3f5e" opacity="0.9"/>
          <path id="Trazado_191054-5" data-name="Trazado 191054" d="M-1805-9237.416l35.25-51.953c.059-.5-35.25-51.236-35.25-51.236h10.3l32.591,51.236-32.591,51.953Z" transform="translate(2151.445 11458.882)" fill="#d84318" opacity="0.53"/>
          <path id="Trazado_191055-5" data-name="Trazado 191055" d="M-1805-9237.416l35.25-51.953c.059-.5-35.25-51.236-35.25-51.236h10.3l32.591,51.236-32.591,51.953Z" transform="translate(2167.445 11458.882)" fill="#1b3f5e" opacity="0.24"/>
          <path id="Trazado_191056-5" data-name="Trazado 191056" d="M-1805-9237.416l35.25-51.953c.059-.5-35.25-51.236-35.25-51.236h10.3l32.591,51.236-32.591,51.953Z" transform="translate(2183.445 11458.882)" fill="#1b3f5e" opacity="0.03"/>
        </g>
        <g id="Grupo_142095" data-name="Grupo 142095" transform="translate(422.278 -138.371)">
          <path id="Trazado_191053-6" data-name="Trazado 191053" d="M-1805-9237.416l35.25-51.953c.059-.5-35.25-51.236-35.25-51.236h10.3l32.591,51.236-32.591,51.953Z" transform="translate(2135.114 11458.882)" fill="#1b3f5e" opacity="0.9"/>
          <path id="Trazado_191054-6" data-name="Trazado 191054" d="M-1805-9237.416l35.25-51.953c.059-.5-35.25-51.236-35.25-51.236h10.3l32.591,51.236-32.591,51.953Z" transform="translate(2151.445 11458.882)" fill="#d84318" opacity="0.53"/>
          <path id="Trazado_191055-6" data-name="Trazado 191055" d="M-1805-9237.416l35.25-51.953c.059-.5-35.25-51.236-35.25-51.236h10.3l32.591,51.236-32.591,51.953Z" transform="translate(2167.445 11458.882)" fill="#1b3f5e" opacity="0.24"/>
          <path id="Trazado_191056-6" data-name="Trazado 191056" d="M-1805-9237.416l35.25-51.953c.059-.5-35.25-51.236-35.25-51.236h10.3l32.591,51.236-32.591,51.953Z" transform="translate(2183.445 11458.882)" fill="#1b3f5e" opacity="0.03"/>
        </g>
        <g id="Grupo_142098" data-name="Grupo 142098" transform="translate(632.278)">
          <path id="Trazado_191053-7" data-name="Trazado 191053" d="M-1805-9237.416l35.25-51.953c.059-.5-35.25-51.236-35.25-51.236h10.3l32.591,51.236-32.591,51.953Z" transform="translate(2135.114 11458.882)" fill="#1b3f5e" opacity="0.9"/>
          <path id="Trazado_191054-7" data-name="Trazado 191054" d="M-1805-9237.416l35.25-51.953c.059-.5-35.25-51.236-35.25-51.236h10.3l32.591,51.236-32.591,51.953Z" transform="translate(2151.445 11458.882)" fill="#d84318" opacity="0.53"/>
          <path id="Trazado_191055-7" data-name="Trazado 191055" d="M-1805-9237.416l35.25-51.953c.059-.5-35.25-51.236-35.25-51.236h10.3l32.591,51.236-32.591,51.953Z" transform="translate(2167.445 11458.882)" fill="#1b3f5e" opacity="0.24"/>
          <path id="Trazado_191056-7" data-name="Trazado 191056" d="M-1805-9237.416l35.25-51.953c.059-.5-35.25-51.236-35.25-51.236h10.3l32.591,51.236-32.591,51.953Z" transform="translate(2183.445 11458.882)" fill="#1b3f5e" opacity="0.03"/>
        </g>
        <g id="Grupo_142097" data-name="Grupo 142097" transform="translate(632.278 -138.371)">
          <path id="Trazado_191053-8" data-name="Trazado 191053" d="M-1805-9237.416l35.25-51.953c.059-.5-35.25-51.236-35.25-51.236h10.3l32.591,51.236-32.591,51.953Z" transform="translate(2135.114 11458.882)" fill="#1b3f5e" opacity="0.9"/>
          <path id="Trazado_191054-8" data-name="Trazado 191054" d="M-1805-9237.416l35.25-51.953c.059-.5-35.25-51.236-35.25-51.236h10.3l32.591,51.236-32.591,51.953Z" transform="translate(2151.445 11458.882)" fill="#d84318" opacity="0.53"/>
          <path id="Trazado_191055-8" data-name="Trazado 191055" d="M-1805-9237.416l35.25-51.953c.059-.5-35.25-51.236-35.25-51.236h10.3l32.591,51.236-32.591,51.953Z" transform="translate(2167.445 11458.882)" fill="#1b3f5e" opacity="0.24"/>
          <path id="Trazado_191056-8" data-name="Trazado 191056" d="M-1805-9237.416l35.25-51.953c.059-.5-35.25-51.236-35.25-51.236h10.3l32.591,51.236-32.591,51.953Z" transform="translate(2183.445 11458.882)" fill="#1b3f5e" opacity="0.03"/>
        </g>
        <g id="Grupo_142100" data-name="Grupo 142100" transform="translate(843.278)">
          <path id="Trazado_191053-9" data-name="Trazado 191053" d="M-1805-9237.416l35.25-51.953c.059-.5-35.25-51.236-35.25-51.236h10.3l32.591,51.236-32.591,51.953Z" transform="translate(2135.114 11458.882)" fill="#1b3f5e" opacity="0.9"/>
          <path id="Trazado_191054-9" data-name="Trazado 191054" d="M-1805-9237.416l35.25-51.953c.059-.5-35.25-51.236-35.25-51.236h10.3l32.591,51.236-32.591,51.953Z" transform="translate(2151.445 11458.882)" fill="#d84318" opacity="0.53"/>
          <path id="Trazado_191055-9" data-name="Trazado 191055" d="M-1805-9237.416l35.25-51.953c.059-.5-35.25-51.236-35.25-51.236h10.3l32.591,51.236-32.591,51.953Z" transform="translate(2167.445 11458.882)" fill="#1b3f5e" opacity="0.24"/>
          <path id="Trazado_191056-9" data-name="Trazado 191056" d="M-1805-9237.416l35.25-51.953c.059-.5-35.25-51.236-35.25-51.236h10.3l32.591,51.236-32.591,51.953Z" transform="translate(2183.445 11458.882)" fill="#1b3f5e" opacity="0.03"/>
        </g>
        <g id="Grupo_142099" data-name="Grupo 142099" transform="translate(843.278 -138.371)">
          <path id="Trazado_191053-10" data-name="Trazado 191053" d="M-1805-9237.416l35.25-51.953c.059-.5-35.25-51.236-35.25-51.236h10.3l32.591,51.236-32.591,51.953Z" transform="translate(2135.114 11458.882)" fill="#1b3f5e" opacity="0.9"/>
          <path id="Trazado_191054-10" data-name="Trazado 191054" d="M-1805-9237.416l35.25-51.953c.059-.5-35.25-51.236-35.25-51.236h10.3l32.591,51.236-32.591,51.953Z" transform="translate(2151.445 11458.882)" fill="#d84318" opacity="0.53"/>
          <path id="Trazado_191055-10" data-name="Trazado 191055" d="M-1805-9237.416l35.25-51.953c.059-.5-35.25-51.236-35.25-51.236h10.3l32.591,51.236-32.591,51.953Z" transform="translate(2167.445 11458.882)" fill="#1b3f5e" opacity="0.24"/>
          <path id="Trazado_191056-10" data-name="Trazado 191056" d="M-1805-9237.416l35.25-51.953c.059-.5-35.25-51.236-35.25-51.236h10.3l32.591,51.236-32.591,51.953Z" transform="translate(2183.445 11458.882)" fill="#1b3f5e" opacity="0.03"/>
        </g>
      </g>
    </g>
  </g>
</svg>
