<svg xmlns="http://www.w3.org/2000/svg" width="1241" height="1070.806" viewBox="0 0 1241 1070.806">
  <g id="Grupo_149713" data-name="Grupo 149713" transform="translate(-179.5 -2665.194)">
    <g id="Grupo_142006" data-name="Grupo 142006" transform="translate(-1 -250)">
      <rect id="Rectángulo_42127" data-name="Rectángulo 42127" width="88" height="16" transform="translate(1240 3485)" fill="#e8e8e8"/>
      <rect id="Rectángulo_42128" data-name="Rectángulo 42128" width="88" height="16" transform="translate(1240 3501)" fill="#b0c0d2"/>
    </g>
    <g id="Grupo_142007" data-name="Grupo 142007" transform="translate(-1 -218)">
      <rect id="Rectángulo_42127-2" data-name="Rectángulo 42127" width="88" height="16" transform="translate(1240 3485)" fill="#e8e8e8"/>
      <rect id="Rectángulo_42128-2" data-name="Rectángulo 42128" width="88" height="16" transform="translate(1240 3501)" fill="#b0c0d2"/>
    </g>
    <g id="Grupo_142008" data-name="Grupo 142008" transform="translate(-1 -186)">
      <rect id="Rectángulo_42127-3" data-name="Rectángulo 42127" width="88" height="16" transform="translate(1240 3485)" fill="#e8e8e8"/>
      <rect id="Rectángulo_42128-3" data-name="Rectángulo 42128" width="88" height="16" transform="translate(1240 3501)" fill="#b0c0d2"/>
    </g>
    <g id="Grupo_142009" data-name="Grupo 142009" transform="translate(-1 -154)">
      <rect id="Rectángulo_42127-4" data-name="Rectángulo 42127" width="88" height="16" transform="translate(1240 3485)" fill="#e8e8e8"/>
      <rect id="Rectángulo_42128-4" data-name="Rectángulo 42128" width="88" height="16" transform="translate(1240 3501)" fill="#b0c0d2"/>
    </g>
    <g id="Grupo_142010" data-name="Grupo 142010" transform="translate(-1 -122)">
      <rect id="Rectángulo_42127-5" data-name="Rectángulo 42127" width="88" height="16" transform="translate(1240 3485)" fill="#e8e8e8"/>
      <rect id="Rectángulo_42128-5" data-name="Rectángulo 42128" width="88" height="16" transform="translate(1240 3501)" fill="#b0c0d2"/>
    </g>
    <g id="Grupo_142011" data-name="Grupo 142011" transform="translate(-1 -90)">
      <rect id="Rectángulo_42127-6" data-name="Rectángulo 42127" width="88" height="16" transform="translate(1240 3485)" fill="#e8e8e8"/>
      <rect id="Rectángulo_42128-6" data-name="Rectángulo 42128" width="88" height="16" transform="translate(1240 3501)" fill="#b0c0d2"/>
    </g>
    <rect id="Rectángulo_42063" data-name="Rectángulo 42063" width="98" height="256" transform="translate(272 2857)" fill="#e8e8e8"/>
    <rect id="Rectángulo_42069" data-name="Rectángulo 42069" width="98" height="448" transform="translate(272 3171)" fill="#e8e8e8"/>
    <rect id="Rectángulo_42065" data-name="Rectángulo 42065" width="58" height="256" transform="translate(370 2857)" fill="#e8e8e8"/>
    <rect id="Rectángulo_42070" data-name="Rectángulo 42070" width="58" height="448" transform="translate(370 3171)" fill="#e8e8e8"/>
    <rect id="Rectángulo_42067" data-name="Rectángulo 42067" width="108" height="256" transform="translate(487 2857)" fill="#e8e8e8"/>
    <rect id="Rectángulo_42075" data-name="Rectángulo 42075" width="85" height="256" transform="translate(595 2857)" fill="#e8e8e8"/>
    <rect id="Rectángulo_42084" data-name="Rectángulo 42084" width="86" height="256" transform="translate(680 2857)" fill="#e8e8e8"/>
    <rect id="Rectángulo_42091" data-name="Rectángulo 42091" width="106" height="128" transform="translate(766 2857)" fill="#e8e8e8"/>
    <rect id="Rectángulo_42099" data-name="Rectángulo 42099" width="101" height="32" transform="translate(872 2857)" fill="#e8e8e8"/>
    <rect id="Rectángulo_42103" data-name="Rectángulo 42103" width="101" height="32" transform="translate(872 3171)" fill="#e8e8e8"/>
    <rect id="Rectángulo_42108" data-name="Rectángulo 42108" width="101" height="32" transform="translate(872 3555)" fill="#e8e8e8"/>
    <rect id="Rectángulo_42105" data-name="Rectángulo 42105" width="101" height="192" transform="translate(872 3235)" fill="#e8e8e8"/>
    <rect id="Rectángulo_42101" data-name="Rectángulo 42101" width="101" height="32" transform="translate(872 2921)" fill="#e8e8e8"/>
    <rect id="Rectángulo_42100" data-name="Rectángulo 42100" width="101" height="32" transform="translate(872 2889)" fill="#b0c0d2"/>
    <rect id="Rectángulo_42104" data-name="Rectángulo 42104" width="101" height="32" transform="translate(872 3203)" fill="#b0c0d2"/>
    <rect id="Rectángulo_42107" data-name="Rectángulo 42107" width="101" height="32" transform="translate(872 3587)" fill="#b0c0d2"/>
    <rect id="Rectángulo_42106" data-name="Rectángulo 42106" width="101" height="128" transform="translate(872 3427)" fill="#b0c0d2"/>
    <rect id="Rectángulo_42102" data-name="Rectángulo 42102" width="101" height="160" transform="translate(872 2953)" fill="#b0c0d2"/>
    <rect id="Rectángulo_42085" data-name="Rectángulo 42085" width="86" height="32" transform="translate(680 3171)" fill="#e8e8e8"/>
    <rect id="Rectángulo_42094" data-name="Rectángulo 42094" width="106" height="32" transform="translate(766 3171)" fill="#e8e8e8"/>
    <rect id="Rectángulo_42097" data-name="Rectángulo 42097" width="106" height="32" transform="translate(766 3555)" fill="#e8e8e8"/>
    <rect id="Rectángulo_42095" data-name="Rectángulo 42095" width="106" height="192" transform="translate(766 3235)" fill="#e8e8e8"/>
    <rect id="Rectángulo_42087" data-name="Rectángulo 42087" width="86" height="192" transform="translate(680 3235)" fill="#e8e8e8"/>
    <rect id="Rectángulo_42086" data-name="Rectángulo 42086" width="86" height="32" transform="translate(680 3203)" fill="#b0c0d2"/>
    <rect id="Rectángulo_42093" data-name="Rectángulo 42093" width="106" height="32" transform="translate(766 3203)" fill="#b0c0d2"/>
    <rect id="Rectángulo_42098" data-name="Rectángulo 42098" width="106" height="32" transform="translate(766 3587)" fill="#b0c0d2"/>
    <rect id="Rectángulo_42096" data-name="Rectángulo 42096" width="106" height="128" transform="translate(766 3427)" fill="#b0c0d2"/>
    <rect id="Rectángulo_42092" data-name="Rectángulo 42092" width="106" height="128" transform="translate(766 2985)" fill="#b0c0d2"/>
    <rect id="Rectángulo_42090" data-name="Rectángulo 42090" width="86" height="32" transform="translate(680 3587)" fill="#b0c0d2"/>
    <rect id="Rectángulo_42088" data-name="Rectángulo 42088" width="86" height="64" transform="translate(680 3427)" fill="#b0c0d2"/>
    <rect id="Rectángulo_42089" data-name="Rectángulo 42089" width="86" height="96" transform="translate(680 3491)" fill="#e8e8e8"/>
    <rect id="Rectángulo_42076" data-name="Rectángulo 42076" width="85" height="256" transform="translate(595 3171)" fill="#e8e8e8"/>
    <rect id="Rectángulo_42072" data-name="Rectángulo 42072" width="108" height="256" transform="translate(487 3171)" fill="#e8e8e8"/>
    <rect id="Rectángulo_42073" data-name="Rectángulo 42073" width="108" height="128" transform="translate(487 3491)" fill="#e8e8e8"/>
    <rect id="Rectángulo_42078" data-name="Rectángulo 42078" width="85" height="64" transform="translate(595 3555)" fill="#e8e8e8"/>
    <rect id="Rectángulo_42080" data-name="Rectángulo 42080" width="85" height="16" transform="translate(595 3491)" fill="#e8e8e8"/>
    <rect id="Rectángulo_42083" data-name="Rectángulo 42083" width="85" height="16" transform="translate(595 3523)" fill="#e8e8e8"/>
    <rect id="Rectángulo_42081" data-name="Rectángulo 42081" width="85" height="16" transform="translate(595 3507)" fill="#b0c0d2"/>
    <rect id="Rectángulo_42082" data-name="Rectángulo 42082" width="85" height="16" transform="translate(595 3539)" fill="#b0c0d2"/>
    <rect id="Rectángulo_42074" data-name="Rectángulo 42074" width="108" height="64" transform="translate(487 3427)" fill="#b0c0d2"/>
    <rect id="Rectángulo_42077" data-name="Rectángulo 42077" width="85" height="64" transform="translate(595 3427)" fill="#b0c0d2"/>
    <rect id="Rectángulo_42066" data-name="Rectángulo 42066" width="59" height="256" transform="translate(428 2857)" fill="#b0c0d2"/>
    <rect id="Rectángulo_42071" data-name="Rectángulo 42071" width="59" height="448" transform="translate(428 3171)" fill="#b0c0d2"/>
    <rect id="Rectángulo_42068" data-name="Rectángulo 42068" width="60" height="64" transform="translate(973 2857)" fill="#b0c0d2"/>
    <rect id="Rectángulo_42117" data-name="Rectángulo 42117" width="104" height="256" transform="translate(1033 2857)" fill="#b0c0d2"/>
    <rect id="Rectángulo_42121" data-name="Rectángulo 42121" width="102" height="256" transform="translate(1137 2857)" fill="#b0c0d2"/>
    <rect id="Rectángulo_42125" data-name="Rectángulo 42125" width="88" height="256" transform="translate(1239 2857)" fill="#b0c0d2"/>
    <rect id="Rectángulo_42130" data-name="Rectángulo 42130" width="93" height="256" transform="translate(1327 2857)" fill="#b0c0d2"/>
    <rect id="Rectángulo_42131" data-name="Rectángulo 42131" width="93" height="448" transform="translate(1327 3171)" fill="#b0c0d2"/>
    <rect id="Rectángulo_42126" data-name="Rectángulo 42126" width="88" height="64" transform="translate(1239 3171)" fill="#b0c0d2"/>
    <rect id="Rectángulo_42129" data-name="Rectángulo 42129" width="88" height="192" transform="translate(1239 3427)" fill="#b0c0d2"/>
    <rect id="Rectángulo_42122" data-name="Rectángulo 42122" width="102" height="128" transform="translate(1137 3171)" fill="#b0c0d2"/>
    <rect id="Rectángulo_42124" data-name="Rectángulo 42124" width="102" height="256" transform="translate(1137 3363)" fill="#b0c0d2"/>
    <rect id="Rectángulo_42123" data-name="Rectángulo 42123" width="102" height="64" transform="translate(1137 3299)" fill="#e8e8e8"/>
    <rect id="Rectángulo_42118" data-name="Rectángulo 42118" width="104" height="128" transform="translate(1033 3171)" fill="#b0c0d2"/>
    <rect id="Rectángulo_42120" data-name="Rectángulo 42120" width="104" height="192" transform="translate(1033 3427)" fill="#b0c0d2"/>
    <rect id="Rectángulo_42119" data-name="Rectángulo 42119" width="104" height="128" transform="translate(1033 3299)" fill="#e8e8e8"/>
    <rect id="Rectángulo_42112" data-name="Rectángulo 42112" width="60" height="64" transform="translate(973 3171)" fill="#b0c0d2"/>
    <rect id="Rectángulo_42114" data-name="Rectángulo 42114" width="60" height="128" transform="translate(973 3427)" fill="#b0c0d2"/>
    <rect id="Rectángulo_42111" data-name="Rectángulo 42111" width="60" height="160" transform="translate(973 2953)" fill="#b0c0d2"/>
    <rect id="Rectángulo_42110" data-name="Rectángulo 42110" width="60" height="32" transform="translate(973 2921)" fill="#e8e8e8"/>
    <rect id="Rectángulo_42115" data-name="Rectángulo 42115" width="60" height="32" transform="translate(973 3555)" fill="#e8e8e8"/>
    <rect id="Rectángulo_42116" data-name="Rectángulo 42116" width="60" height="32" transform="translate(973 3587)" fill="#b0c0d2"/>
    <rect id="Rectángulo_42113" data-name="Rectángulo 42113" width="60" height="192" transform="translate(973 3235)" fill="#e8e8e8"/>
    <rect id="Rectángulo_42052" data-name="Rectángulo 42052" width="36" height="256" transform="translate(180 2857)" fill="#f0f8ff"/>
    <rect id="Rectángulo_42061" data-name="Rectángulo 42061" width="36" height="448" transform="translate(180 3171)" fill="#f0f8ff"/>
    <rect id="Rectángulo_42051" data-name="Rectángulo 42051" width="56" height="256" transform="translate(216 2857)" fill="#fff59d"/>
    <rect id="Rectángulo_42062" data-name="Rectángulo 42062" width="56" height="448" transform="translate(216 3171)" fill="#fff59d"/>
    <rect id="Rectángulo_42049" data-name="Rectángulo 42049" width="92" height="129" transform="translate(180 2670)" fill="#f0f8ff"/>
    <rect id="Rectángulo_675" data-name="Rectángulo 675" width="1148" height="128.809" transform="translate(272 2670.191)" fill="#fff59d"/>
    <text id="Incoterms_2020" data-name="Incoterms 2020" transform="translate(180 2700)" fill="#12263f" font-size="16" font-family="Roboto-Bold, Roboto" font-weight="700"><tspan x="-36.492" y="17">Incoterms </tspan><tspan x="-18.359" y="41">2020</tspan></text>
    <text id="Embalaje_Verificación_Control" data-name="Embalaje
Verificación
Control" transform="translate(278 2700)" fill="#12263f" font-size="16" font-family="Roboto-Bold, Roboto" font-weight="700"><tspan x="11.469" y="17">Embalaje</tspan><tspan x="1.281" y="41">Verificación</tspan><tspan x="18.137" y="65">Control</tspan></text>
    <text id="Licencias_Autorizaciones_Formalidades" data-name="Licencias
Autorizaciones
Formalidades" transform="translate(373 2700)" fill="#12263f" font-size="16" font-family="Roboto-Bold, Roboto" font-weight="700"><tspan x="-34.125" y="17">Licencias</tspan><tspan x="-54.059" y="41">Autorizaciones</tspan><tspan x="-48.941" y="65">Formalidades</tspan></text>
    <text id="Formalidades_aduaneras_de_exportación" data-name="Formalidades
aduaneras de
exportación" transform="translate(490 2700)" fill="#12263f" font-size="16" font-family="Roboto-Bold, Roboto" font-weight="700"><tspan x="-48.941" y="17">Formalidades</tspan><tspan x="-48.395" y="41">aduaneras de</tspan><tspan x="-42.824" y="65">exportación</tspan></text>
    <text id="Carga_en_fábrica_o_almacén" data-name="Carga
en fábrica
o almacén" transform="translate(598 2700)" fill="#12263f" font-size="16" font-family="Roboto-Bold, Roboto" font-weight="700"><tspan x="-21.297" y="17">Carga</tspan><tspan x="-35.957" y="41">en fábrica</tspan><tspan x="-37.117" y="65">o almacén</tspan></text>
    <text id="Transporte_interior" data-name="Transporte
interior" transform="translate(683 2700)" fill="#12263f" font-size="16" font-family="Roboto-Bold, Roboto" font-weight="700"><tspan x="-39.547" y="17">Transporte</tspan><tspan x="-26.109" y="41">interior</tspan></text>
    <text id="Costos_de_manipulación_en_origen" data-name="Costos de
manipulación en origen" transform="translate(769 2700)" fill="#12263f" font-size="16" font-family="Roboto-Bold, Roboto" font-weight="700"><tspan x="-35.918" y="17">Costos de</tspan><tspan x="-48.504" y="41">manipulación </tspan><tspan x="-33.73" y="65">en origen</tspan></text>
    <text id="Transporte_principal_internacional" data-name="Transporte principal internacional" transform="translate(875 2700)" fill="#12263f" font-size="16" font-family="Roboto-Bold, Roboto" font-weight="700"><tspan x="-39.547" y="17">Transporte </tspan><tspan x="-31.23" y="41">principal </tspan><tspan x="-47.023" y="65">internacional</tspan></text>
    <text id="Seguro" transform="translate(976 2700)" fill="#12263f" font-size="16" font-family="Roboto-Bold, Roboto" font-weight="700"><tspan x="-25.586" y="17">Seguro</tspan></text>
    <text id="Costos_de_manipulación_en_destino" data-name="Costos de manipulación en destino" transform="translate(1036 2700)" fill="#12263f" font-size="16" font-family="Roboto-Bold, Roboto" font-weight="700"><tspan x="-35.918" y="17">Costos de </tspan><tspan x="-48.504" y="41">manipulación </tspan><tspan x="-37.57" y="65">en destino</tspan></text>
    <text id="Despacho_de_importación" data-name="Despacho de importación" transform="translate(1140 2700)" fill="#12263f" font-size="16" font-family="Roboto-Bold, Roboto" font-weight="700"><tspan x="-46.426" y="17">Despacho de </tspan><tspan x="-43.477" y="41">importación</tspan></text>
    <text id="Transporte_interior_en_destino" data-name="Transporte interior en destino" transform="translate(1242 2700)" fill="#12263f" font-size="16" font-family="Roboto-Bold, Roboto" font-weight="700"><tspan x="-39.547" y="17">Transporte </tspan><tspan x="-36.906" y="41">interior en </tspan><tspan x="-26.773" y="65">destino</tspan></text>
    <text id="Recepción_y_descarga" data-name="Recepción y descarga" transform="translate(1330 2700)" fill="#12263f" font-size="16" font-family="Roboto-Bold, Roboto" font-weight="700"><tspan x="-43.734" y="17">Recepción y </tspan><tspan x="-33.18" y="41">descarga</tspan></text>
    <text id="Transporte_Marítimo" data-name="Transporte Marítimo" transform="translate(721 2818)" fill="#12263f" font-size="16" font-family="Roboto-Bold, Roboto" font-weight="700"><tspan x="-74.219" y="17">Transporte Marítimo</tspan></text>
    <text id="Cualquier_otro_medio_de_transporte" data-name="Cualquier otro medio de transporte" transform="translate(673 3132)" fill="#12263f" font-size="16" font-family="Roboto-Bold, Roboto" font-weight="700"><tspan x="-125.766" y="17">Cualquier otro medio de transporte</tspan></text>
    <text id="CFR" transform="translate(182 2878)" fill="#12263f" font-size="16" font-family="Roboto-Regular, Roboto"><tspan x="-14.555" y="17">CFR</tspan></text>
    <text id="CPT" transform="translate(182 3192)" fill="#12263f" font-size="16" font-family="Roboto-Regular, Roboto"><tspan x="-15.027" y="17">CPT</tspan></text>
    <text id="CIF" transform="translate(182 2942)" fill="#12263f" font-size="16" font-family="Roboto-Regular, Roboto"><tspan x="-11.805" y="17">CIF</tspan></text>
    <text id="DAP" transform="translate(182 3256)" fill="#12263f" font-size="16" font-family="Roboto-Regular, Roboto"><tspan x="-15.512" y="17">DAP</tspan></text>
    <text id="EXW" transform="translate(181 3448)" fill="#12263f" font-size="16" font-family="Roboto-Regular, Roboto"><tspan x="-16.66" y="17">EXW</tspan></text>
    <text id="FAS" transform="translate(182 3006)" fill="#12263f" font-size="16" font-family="Roboto-Regular, Roboto"><tspan x="-13.723" y="17">FAS</tspan></text>
    <text id="DDP" transform="translate(182 3320)" fill="#12263f" font-size="16" font-family="Roboto-Regular, Roboto"><tspan x="-15.539" y="17">DDP</tspan></text>
    <text id="FCA" transform="translate(182 3512)" fill="#12263f" font-size="16" font-family="Roboto-Regular, Roboto"><tspan x="-14.848" y="17">FCA</tspan></text>
    <text id="FOB" transform="translate(182 3070)" fill="#12263f" font-size="16" font-family="Roboto-Regular, Roboto"><tspan x="-14.902" y="17">FOB</tspan></text>
    <text id="DPU" transform="translate(182 3384)" fill="#12263f" font-size="16" font-family="Roboto-Regular, Roboto"><tspan x="-15.48" y="17">DPU</tspan></text>
    <text id="CIP" transform="translate(182 3576)" fill="#12263f" font-size="16" font-family="Roboto-Regular, Roboto"><tspan x="-12.43" y="17">CIP</tspan></text>
    <text id="Coste" transform="translate(219 2863)" fill="#12263f" font-size="16" font-family="Roboto-Regular, Roboto"><tspan x="-20.746" y="17">Coste</tspan></text>
    <text id="Coste-2" data-name="Coste" transform="translate(219 3177)" fill="#12263f" font-size="16" font-family="Roboto-Regular, Roboto"><tspan x="-20.746" y="17">Coste</tspan></text>
    <text id="Coste-3" data-name="Coste" transform="translate(219 2927)" fill="#12263f" font-size="16" font-family="Roboto-Regular, Roboto"><tspan x="-20.746" y="17">Coste</tspan></text>
    <text id="Coste-4" data-name="Coste" transform="translate(219 3241)" fill="#12263f" font-size="16" font-family="Roboto-Regular, Roboto"><tspan x="-20.746" y="17">Coste</tspan></text>
    <text id="Coste-5" data-name="Coste" transform="translate(219 3433)" fill="#12263f" font-size="16" font-family="Roboto-Regular, Roboto"><tspan x="-20.746" y="17">Coste</tspan></text>
    <text id="Coste-6" data-name="Coste" transform="translate(219 2991)" fill="#12263f" font-size="16" font-family="Roboto-Regular, Roboto"><tspan x="-20.746" y="17">Coste</tspan></text>
    <text id="Coste-7" data-name="Coste" transform="translate(219 3305)" fill="#12263f" font-size="16" font-family="Roboto-Regular, Roboto"><tspan x="-20.746" y="17">Coste</tspan></text>
    <text id="Coste-8" data-name="Coste" transform="translate(219 3497)" fill="#12263f" font-size="16" font-family="Roboto-Regular, Roboto"><tspan x="-20.746" y="17">Coste</tspan></text>
    <text id="Coste-9" data-name="Coste" transform="translate(219 3055)" fill="#12263f" font-size="16" font-family="Roboto-Regular, Roboto"><tspan x="-20.746" y="17">Coste</tspan></text>
    <text id="Coste-10" data-name="Coste" transform="translate(219 3369)" fill="#12263f" font-size="16" font-family="Roboto-Regular, Roboto"><tspan x="-20.746" y="17">Coste</tspan></text>
    <text id="Coste-11" data-name="Coste" transform="translate(219 3561)" fill="#12263f" font-size="16" font-family="Roboto-Regular, Roboto"><tspan x="-20.746" y="17">Coste</tspan></text>
    <text id="Riesgo" transform="translate(219 2895)" fill="#12263f" font-size="16" font-family="Roboto-Regular, Roboto"><tspan x="-24.281" y="17">Riesgo</tspan></text>
    <text id="Riesgo-2" data-name="Riesgo" transform="translate(219 3209)" fill="#12263f" font-size="16" font-family="Roboto-Regular, Roboto"><tspan x="-24.281" y="17">Riesgo</tspan></text>
    <text id="Riesgo-3" data-name="Riesgo" transform="translate(219 2959)" fill="#12263f" font-size="16" font-family="Roboto-Regular, Roboto"><tspan x="-24.281" y="17">Riesgo</tspan></text>
    <text id="Riesgo-4" data-name="Riesgo" transform="translate(219 3273)" fill="#12263f" font-size="16" font-family="Roboto-Regular, Roboto"><tspan x="-24.281" y="17">Riesgo</tspan></text>
    <text id="Riesgo-5" data-name="Riesgo" transform="translate(219 3465)" fill="#12263f" font-size="16" font-family="Roboto-Regular, Roboto"><tspan x="-24.281" y="17">Riesgo</tspan></text>
    <text id="Riesgo-6" data-name="Riesgo" transform="translate(219 3023)" fill="#12263f" font-size="16" font-family="Roboto-Regular, Roboto"><tspan x="-24.281" y="17">Riesgo</tspan></text>
    <text id="Riesgo-7" data-name="Riesgo" transform="translate(219 3337)" fill="#12263f" font-size="16" font-family="Roboto-Regular, Roboto"><tspan x="-24.281" y="17">Riesgo</tspan></text>
    <text id="Riesgo-8" data-name="Riesgo" transform="translate(219 3529)" fill="#12263f" font-size="16" font-family="Roboto-Regular, Roboto"><tspan x="-24.281" y="17">Riesgo</tspan></text>
    <text id="Riesgo-9" data-name="Riesgo" transform="translate(219 3087)" fill="#12263f" font-size="16" font-family="Roboto-Regular, Roboto"><tspan x="-24.281" y="17">Riesgo</tspan></text>
    <text id="Riesgo-10" data-name="Riesgo" transform="translate(219 3401)" fill="#12263f" font-size="16" font-family="Roboto-Regular, Roboto"><tspan x="-24.281" y="17">Riesgo</tspan></text>
    <text id="Riesgo-11" data-name="Riesgo" transform="translate(219 3593)" fill="#12263f" font-size="16" font-family="Roboto-Regular, Roboto"><tspan x="-24.281" y="17">Riesgo</tspan></text>
    <path id="Trazado_190815" data-name="Trazado 190815" d="M-2586-8587h1240" transform="translate(2766 11508)" fill="none" stroke="#707070" stroke-width="1"/>
    <path id="Trazado_190830" data-name="Trazado 190830" d="M-2586-8587h1240" transform="translate(2766 11822)" fill="none" stroke="#707070" stroke-width="1"/>
    <path id="Trazado_190818" data-name="Trazado 190818" d="M-2586-8587h1240" transform="translate(2766 11572)" fill="none" stroke="#707070" stroke-width="1"/>
    <path id="Trazado_190827" data-name="Trazado 190827" d="M-2586-8587h1240" transform="translate(2766 11886)" fill="none" stroke="#707070" stroke-width="1"/>
    <path id="Trazado_190837" data-name="Trazado 190837" d="M-2586-8587h1240" transform="translate(2766 12078)" fill="none" stroke="#707070" stroke-width="1"/>
    <path id="Trazado_190820" data-name="Trazado 190820" d="M-2586-8587h1240" transform="translate(2766 11636)" fill="none" stroke="#707070" stroke-width="1"/>
    <path id="Trazado_190825" data-name="Trazado 190825" d="M-2586-8587h1240" transform="translate(2766 11950)" fill="none" stroke="#707070" stroke-width="1"/>
    <path id="Trazado_190835" data-name="Trazado 190835" d="M-2586-8587h1240" transform="translate(2766 12142)" fill="none" stroke="#707070" stroke-width="1"/>
    <path id="Trazado_190822" data-name="Trazado 190822" d="M-2586-8587h1240" transform="translate(2766 11700)" fill="none" stroke="#707070" stroke-width="1"/>
    <path id="Trazado_190824" data-name="Trazado 190824" d="M-2586-8587h1240" transform="translate(2766 12014)" fill="none" stroke="#707070" stroke-width="1"/>
    <path id="Trazado_190833" data-name="Trazado 190833" d="M-2586-9540.806V-8587h1240v-953.8" transform="translate(2766 12206)" fill="none" stroke="#707070" stroke-width="1"/>
    <path id="Trazado_190817" data-name="Trazado 190817" d="M-2586-8587h1204" transform="translate(2802 11476)" fill="none" stroke="#707070" stroke-width="1"/>
    <path id="Trazado_190831" data-name="Trazado 190831" d="M-2586-8587h1204" transform="translate(2802 11790)" fill="none" stroke="#707070" stroke-width="1"/>
    <path id="Trazado_190819" data-name="Trazado 190819" d="M-2586-8587h1204" transform="translate(2802 11540)" fill="none" stroke="#707070" stroke-width="1"/>
    <path id="Trazado_190829" data-name="Trazado 190829" d="M-2586-8587h1204" transform="translate(2802 11854)" fill="none" stroke="#707070" stroke-width="1"/>
    <path id="Trazado_190838" data-name="Trazado 190838" d="M-2586-8587h1204" transform="translate(2802 12046)" fill="none" stroke="#707070" stroke-width="1"/>
    <path id="Trazado_190821" data-name="Trazado 190821" d="M-2586-8587h1204" transform="translate(2802 11604)" fill="none" stroke="#707070" stroke-width="1"/>
    <path id="Trazado_190828" data-name="Trazado 190828" d="M-2586-8587h1204" transform="translate(2802 11918)" fill="none" stroke="#707070" stroke-width="1"/>
    <path id="Trazado_190836" data-name="Trazado 190836" d="M-2586-8587h1204" transform="translate(2802 12110)" fill="none" stroke="#707070" stroke-width="1"/>
    <path id="Trazado_190823" data-name="Trazado 190823" d="M-2586-8587h1204" transform="translate(2802 11668)" fill="none" stroke="#707070" stroke-width="1"/>
    <path id="Trazado_190826" data-name="Trazado 190826" d="M-2586-8587h1204" transform="translate(2802 11982)" fill="none" stroke="#707070" stroke-width="1"/>
    <path id="Trazado_190834" data-name="Trazado 190834" d="M-2586-8587h1204" transform="translate(2802 12174)" fill="none" stroke="#707070" stroke-width="1"/>
    <path id="Trazado_190816" data-name="Trazado 190816" d="M-2586-8587h1240" transform="translate(2766 11444)" fill="none" stroke="#707070" stroke-width="1"/>
    <path id="Trazado_190839" data-name="Trazado 190839" d="M-2586-8587h1240" transform="translate(2766 11386)" fill="none" stroke="#707070" stroke-width="1"/>
    <path id="Trazado_190832" data-name="Trazado 190832" d="M-2586-8587h1240" transform="translate(2766 11758)" fill="none" stroke="#707070" stroke-width="1"/>
    <path id="Trazado_190840" data-name="Trazado 190840" d="M-2550-8337.755v-256" transform="translate(2766 11450.755)" fill="none" stroke="#707070" stroke-width="1"/>
    <path id="Trazado_190842" data-name="Trazado 190842" d="M-2550-8337.755v-256" transform="translate(2822 11450.755)" fill="none" stroke="#707070" stroke-width="1"/>
    <path id="Trazado_190844" data-name="Trazado 190844" d="M-2550-8464.755v-129" transform="translate(2822 11263.755)" fill="none" stroke="#707070" stroke-width="1"/>
    <path id="Trazado_190845" data-name="Trazado 190845" d="M-2550-8464.755v-129" transform="translate(2920 11263.755)" fill="none" stroke="#707070" stroke-width="1"/>
    <path id="Trazado_190856" data-name="Trazado 190856" d="M-2550-8337.755v-256" transform="translate(2920 11450.755)" fill="none" stroke="#707070" stroke-width="1"/>
    <path id="Trazado_190867" data-name="Trazado 190867" d="M-2550-8145.755v-448" transform="translate(2920 11764.755)" fill="none" stroke="#707070" stroke-width="1"/>
    <path id="Trazado_190846" data-name="Trazado 190846" d="M-2550-8464.755v-129" transform="translate(3037 11263.755)" fill="none" stroke="#707070" stroke-width="1"/>
    <path id="Trazado_190857" data-name="Trazado 190857" d="M-2550-8337.755v-256" transform="translate(3037 11450.755)" fill="none" stroke="#707070" stroke-width="1"/>
    <path id="Trazado_190868" data-name="Trazado 190868" d="M-2550-8145.755v-448" transform="translate(3037 11764.755)" fill="none" stroke="#707070" stroke-width="1"/>
    <path id="Trazado_190847" data-name="Trazado 190847" d="M-2550-8464.755v-129" transform="translate(3145 11263.755)" fill="none" stroke="#707070" stroke-width="1"/>
    <path id="Trazado_190858" data-name="Trazado 190858" d="M-2550-8337.755v-256" transform="translate(3145 11450.755)" fill="none" stroke="#707070" stroke-width="1"/>
    <path id="Trazado_190869" data-name="Trazado 190869" d="M-2550-8145.755v-448" transform="translate(3145 11764.755)" fill="none" stroke="#707070" stroke-width="1"/>
    <path id="Trazado_190848" data-name="Trazado 190848" d="M-2550-8464.755v-129" transform="translate(3230 11263.755)" fill="none" stroke="#707070" stroke-width="1"/>
    <path id="Trazado_190859" data-name="Trazado 190859" d="M-2550-8337.755v-256" transform="translate(3230 11450.755)" fill="none" stroke="#707070" stroke-width="1"/>
    <path id="Trazado_190870" data-name="Trazado 190870" d="M-2550-8145.755v-448" transform="translate(3230 11764.755)" fill="none" stroke="#707070" stroke-width="1"/>
    <path id="Trazado_190849" data-name="Trazado 190849" d="M-2550-8464.755v-129" transform="translate(3316 11263.755)" fill="none" stroke="#707070" stroke-width="1"/>
    <path id="Trazado_190860" data-name="Trazado 190860" d="M-2550-8337.755v-256" transform="translate(3316 11450.755)" fill="none" stroke="#707070" stroke-width="1"/>
    <path id="Trazado_190871" data-name="Trazado 190871" d="M-2550-8145.755v-448" transform="translate(3316 11764.755)" fill="none" stroke="#707070" stroke-width="1"/>
    <path id="Trazado_190850" data-name="Trazado 190850" d="M-2550-8464.755v-129" transform="translate(3422 11263.755)" fill="none" stroke="#707070" stroke-width="1"/>
    <path id="Trazado_190861" data-name="Trazado 190861" d="M-2550-8337.755v-256" transform="translate(3422 11450.755)" fill="none" stroke="#707070" stroke-width="1"/>
    <path id="Trazado_190872" data-name="Trazado 190872" d="M-2550-8145.755v-448" transform="translate(3422 11764.755)" fill="none" stroke="#707070" stroke-width="1"/>
    <path id="Trazado_190851" data-name="Trazado 190851" d="M-2550-8464.755v-129" transform="translate(3523 11263.755)" fill="none" stroke="#707070" stroke-width="1"/>
    <path id="Trazado_190862" data-name="Trazado 190862" d="M-2550-8337.755v-256" transform="translate(3523 11450.755)" fill="none" stroke="#707070" stroke-width="1"/>
    <path id="Trazado_190873" data-name="Trazado 190873" d="M-2550-8145.755v-448" transform="translate(3523 11764.755)" fill="none" stroke="#707070" stroke-width="1"/>
    <path id="Trazado_190852" data-name="Trazado 190852" d="M-2550-8464.755v-129" transform="translate(3583 11263.755)" fill="none" stroke="#707070" stroke-width="1"/>
    <path id="Trazado_190863" data-name="Trazado 190863" d="M-2550-8337.755v-256" transform="translate(3583 11450.755)" fill="none" stroke="#707070" stroke-width="1"/>
    <path id="Trazado_190874" data-name="Trazado 190874" d="M-2550-8145.755v-448" transform="translate(3583 11764.755)" fill="none" stroke="#707070" stroke-width="1"/>
    <path id="Trazado_190853" data-name="Trazado 190853" d="M-2550-8464.755v-129" transform="translate(3687 11263.755)" fill="none" stroke="#707070" stroke-width="1"/>
    <path id="Trazado_190864" data-name="Trazado 190864" d="M-2550-8337.755v-256" transform="translate(3687 11450.755)" fill="none" stroke="#707070" stroke-width="1"/>
    <path id="Trazado_190875" data-name="Trazado 190875" d="M-2550-8145.755v-448" transform="translate(3687 11764.755)" fill="none" stroke="#707070" stroke-width="1"/>
    <path id="Trazado_190854" data-name="Trazado 190854" d="M-2550-8464.755v-129" transform="translate(3789 11263.755)" fill="none" stroke="#707070" stroke-width="1"/>
    <path id="Trazado_190865" data-name="Trazado 190865" d="M-2550-8337.755v-256" transform="translate(3789 11450.755)" fill="none" stroke="#707070" stroke-width="1"/>
    <path id="Trazado_190876" data-name="Trazado 190876" d="M-2550-8145.755v-448" transform="translate(3789 11764.755)" fill="none" stroke="#707070" stroke-width="1"/>
    <path id="Trazado_190855" data-name="Trazado 190855" d="M-2550-8464.755v-129" transform="translate(3877 11263.755)" fill="none" stroke="#707070" stroke-width="1"/>
    <path id="Trazado_190866" data-name="Trazado 190866" d="M-2550-8337.755v-256" transform="translate(3877 11450.755)" fill="none" stroke="#707070" stroke-width="1"/>
    <path id="Trazado_190877" data-name="Trazado 190877" d="M-2550-8145.755v-448" transform="translate(3877 11764.755)" fill="none" stroke="#707070" stroke-width="1"/>
    <path id="Trazado_190841" data-name="Trazado 190841" d="M-2550-8145.755v-448" transform="translate(2766 11764.755)" fill="none" stroke="#707070" stroke-width="1"/>
    <path id="Trazado_190843" data-name="Trazado 190843" d="M-2550-8145.755v-448" transform="translate(2822 11764.755)" fill="none" stroke="#707070" stroke-width="1"/>
    <g id="Grupo_142014" data-name="Grupo 142014" transform="translate(0 -250)">
      <rect id="Rectángulo_42127-7" data-name="Rectángulo 42127" width="85" height="32" transform="translate(285 3893)" fill="#e8e8e8"/>
      <text id="Vendedor" transform="translate(390 3899)" fill="#12263f" font-size="16" font-family="Roboto-Regular, Roboto"><tspan x="-34.273" y="17">Vendedor</tspan></text>
    </g>
    <g id="Grupo_142015" data-name="Grupo 142015" transform="translate(0 -250)">
      <rect id="Rectángulo_42128-7" data-name="Rectángulo 42128" width="85" height="32" transform="translate(495 3893)" fill="#b0c0d2"/>
      <text id="Comprador" transform="translate(600 3899)" fill="#12263f" font-size="16" font-family="Roboto-Regular, Roboto"><tspan x="-39.953" y="17">Comprador</tspan></text>
    </g>
    <g id="Grupo_142016" data-name="Grupo 142016" transform="translate(0 -250)">
      <g id="Grupo_142013" data-name="Grupo 142013" transform="translate(-420 -39)">
        <rect id="Rectángulo_42133" data-name="Rectángulo 42133" width="43" height="32" transform="translate(1125 3932)" fill="#e8e8e8"/>
        <rect id="Rectángulo_42134" data-name="Rectángulo 42134" width="42" height="32" transform="translate(1168 3932)" fill="#b0c0d2"/>
      </g>
      <text id="El_vendedor_se_encarga_de_la_exportación_y_el_comprador_de_la_importación" data-name="El vendedor se encarga de la exportación y el comprador de la importación" transform="translate(810 3893)" fill="#12263f" font-size="16" font-family="Roboto-Regular, Roboto"><tspan x="0" y="17">El vendedor se encarga de </tspan><tspan x="0" y="41">la exportación y el </tspan><tspan x="0" y="65">comprador de la </tspan><tspan x="0" y="89">importación</tspan></text>
    </g>
    <g id="Grupo_142017" data-name="Grupo 142017" transform="translate(0 -250)">
      <g id="Grupo_142012" data-name="Grupo 142012" transform="translate(-220 408)">
        <rect id="Rectángulo_42127-8" data-name="Rectángulo 42127" width="85" height="16" transform="translate(1240 3485)" fill="#e8e8e8"/>
        <rect id="Rectángulo_42128-8" data-name="Rectángulo 42128" width="85" height="16" transform="translate(1240 3501)" fill="#b0c0d2"/>
      </g>
      <text id="Depende_del_lugar_de_entrega_acordado" data-name="Depende del lugar de entrega acordado" transform="translate(1125 3893)" fill="#12263f" font-size="16" font-family="Roboto-Regular, Roboto"><tspan x="0" y="17">Depende del lugar de </tspan><tspan x="0" y="41">entrega acordado</tspan></text>
    </g>
  </g>
</svg>
