<svg xmlns="http://www.w3.org/2000/svg" xmlns:xlink="http://www.w3.org/1999/xlink" width="1240" height="730.539" viewBox="0 0 1240 730.539">
  <defs>
    <clipPath id="clip-path">
      <rect id="Rectángulo_42136" data-name="Rectángulo 42136" width="96.625" height="71.165" fill="none"/>
    </clipPath>
    <clipPath id="clip-path-2">
      <rect id="Rectángulo_42145" data-name="Rectángulo 42145" width="80.841" height="80.841" fill="none"/>
    </clipPath>
    <clipPath id="clip-path-3">
      <rect id="Rectángulo_42155" data-name="Rectángulo 42155" width="87.36" height="87.36" fill="none"/>
    </clipPath>
  </defs>
  <g id="Grupo_149677" data-name="Grupo 149677" transform="translate(8768 6980.539)">
    <g id="Grupo_149672" data-name="Grupo 149672" transform="translate(-8948 -8003)">
      <circle id="Elipse_5127" data-name="Elipse 5127" cx="99.5" cy="99.5" r="99.5" transform="translate(701 1284)" fill="#fff59d"/>
      <text id="Aprovicionamiento" transform="translate(723 1390)" fill="#12263f" font-size="18" font-family="Roboto-Black, Roboto" font-weight="800"><tspan x="0" y="0">Aprovicionamiento</tspan></text>
      <g id="Grupo_142028" data-name="Grupo 142028" transform="translate(649.046 1022.461)">
        <path id="Trazado_189781" data-name="Trazado 189781" d="M268,42.012A317.142,317.142,0,0,0,115.365,80.906l69.1,119.688L196.835,222a155.963,155.963,0,0,1,142.329,0l12.368-21.406,69.1-119.688A317.142,317.142,0,0,0,268,42.012" transform="translate(-115.365 28.538)" fill="#fff59d"/>
        <path id="Trazado_189782" data-name="Trazado 189782" d="M240.047,124.253a179.554,179.554,0,0,0-83.532,20.477l12.368,21.407a155.963,155.963,0,0,1,142.329,0L323.58,144.73a179.554,179.554,0,0,0-83.532-20.477" transform="translate(-87.413 84.402)" fill="#1b3f5e"/>
        <path id="Trazado_189783" data-name="Trazado 189783" d="M234.794,141.087a70.544,70.544,0,1,1,70.543-70.545,70.624,70.624,0,0,1-70.543,70.545" transform="translate(-82.159 0)" fill="#d84318"/>
        <g id="Grupo_142025" data-name="Grupo 142025" transform="translate(87.503 5.411)">
          <path id="Trazado_189784" data-name="Trazado 189784" d="M297.737,68.354A65.132,65.132,0,1,1,232.6,3.222a65.132,65.132,0,0,1,65.132,65.132" transform="translate(-167.472 -3.222)" fill="#f0f8ff"/>
          <g id="Grupo_142020" data-name="Grupo 142020" transform="translate(16.819 29.791)">
            <path id="Trazado_190878" data-name="Trazado 190878" d="M127.272,125.318h65.5v34.018H124.528l2.744-24.517Z" transform="translate(-101.027 -101.668)" fill="#80b4fb" fill-rule="evenodd"/>
            <g id="Grupo_142019" data-name="Grupo 142019" transform="translate(0 0)">
              <g id="Grupo_142018" data-name="Grupo 142018" clip-path="url(#clip-path)">
                <path id="Trazado_190879" data-name="Trazado 190879" d="M32.339,204.554H8.978c-1.07,0-1.466-.514-1.466-1.466V192.726a2.057,2.057,0,0,1,1.359-2.011l6.264-2.536L26.68,175.661h5.66Z" transform="translate(-6.094 -142.51)" fill="#d57080" fill-rule="evenodd"/>
                <path id="Trazado_190880" data-name="Trazado 190880" d="M32.339,204.554H8.978c-1.07,0-1.466-.514-1.466-1.466v-3.113H24.1a3.674,3.674,0,0,0,3.665-3.665V175.661h4.579Z" transform="translate(-6.094 -142.51)" fill="#cb5769" fill-rule="evenodd"/>
                <path id="Trazado_190881" data-name="Trazado 190881" d="M199.985,132.773h4.585v31.21h-65.5V159.4h56.337a4.6,4.6,0,0,0,4.579-4.585V132.773Z" transform="translate(-112.824 -107.716)" fill="#61a2f9" fill-rule="evenodd"/>
                <path id="Trazado_190882" data-name="Trazado 190882" d="M206.571,298.148a1.472,1.472,0,0,1,1.466,1.466v2.846a1.472,1.472,0,0,1-1.466,1.466h-67.5v-5.777Z" transform="translate(-112.824 -241.882)" fill="#5490f9" fill-rule="evenodd"/>
                <path id="Trazado_190883" data-name="Trazado 190883" d="M164.61,27.526l18.472,1.648,18.681-1.648-17.52-16.851a1.35,1.35,0,0,0-2.113,0Z" transform="translate(-133.545 -8.247)" fill="#fff3be" fill-rule="evenodd"/>
                <path id="Trazado_190884" data-name="Trazado 190884" d="M303.283,49.9l14.192,1.557L329.624,49.9,317.513,38.245a1.357,1.357,0,0,0-2.113,0Z" transform="translate(-246.047 -30.617)" fill="#ffe07d" fill-rule="evenodd"/>
                <path id="Trazado_190885" data-name="Trazado 190885" d="M110.545,102.158h71.7a1.472,1.472,0,0,1,1.466,1.466v2.846a1.472,1.472,0,0,1-1.466,1.466h-71.7a1.468,1.468,0,0,1-1.466-1.466v-2.846a1.468,1.468,0,0,1,1.466-1.466" transform="translate(-88.494 -82.879)" fill="#5490f9" fill-rule="evenodd"/>
                <path id="Trazado_190886" data-name="Trazado 190886" d="M236.142,183.187l6.441-11.159a2.89,2.89,0,0,1,5.007,2.889l-6.447,11.159a2.888,2.888,0,1,1-5-2.889Zm-26.973,0,6.446-11.159a2.888,2.888,0,1,1,5,2.889l-6.441,11.159a2.89,2.89,0,1,1-5.007-2.889Zm13.486,0,6.441-11.159a2.89,2.89,0,0,1,5.007,2.889l-6.441,11.159a2.89,2.89,0,1,1-5.007-2.889Z" transform="translate(-169.384 -138.39)" fill="#61a2f9" fill-rule="evenodd"/>
                <path id="Trazado_190887" data-name="Trazado 190887" d="M47.906,188.179H57.985a1.292,1.292,0,0,0,1.466-1.466V175.661h-4.2a2.116,2.116,0,0,0-2.086,1.327Z" transform="translate(-38.865 -142.51)" fill="#b1e4f9" fill-rule="evenodd"/>
                <path id="Trazado_190888" data-name="Trazado 190888" d="M40.166,303.349a7.7,7.7,0,1,0-7.709-7.7,7.719,7.719,0,0,0,7.709,7.7" transform="translate(-26.332 -233.602)" fill="#0c5e7f" fill-rule="evenodd"/>
                <path id="Trazado_190889" data-name="Trazado 190889" d="M398.782,303.349a7.7,7.7,0,1,0-7.709-7.7A7.719,7.719,0,0,0,398.782,303.349Z" transform="translate(-317.27 -233.602)" fill="#0c5e7f" fill-rule="evenodd"/>
                <path id="Trazado_190890" data-name="Trazado 190890" d="M406.137,316.63a7.706,7.706,0,1,1-14.717,0,7.708,7.708,0,0,0,14.717,0" transform="translate(-317.27 -256.876)" fill="#174b67" fill-rule="evenodd"/>
                <path id="Trazado_190891" data-name="Trazado 190891" d="M286.5,303.349a7.7,7.7,0,1,0-7.709-7.7,7.719,7.719,0,0,0,7.709,7.7" transform="translate(-226.177 -233.602)" fill="#0c5e7f" fill-rule="evenodd"/>
                <path id="Trazado_190892" data-name="Trazado 190892" d="M293.855,316.63a7.706,7.706,0,1,1-14.717,0,7.708,7.708,0,0,0,14.717,0Z" transform="translate(-226.177 -256.876)" fill="#174b67" fill-rule="evenodd"/>
                <path id="Trazado_190893" data-name="Trazado 190893" d="M47.522,316.63a7.706,7.706,0,1,1-14.717,0,7.708,7.708,0,0,0,14.717,0" transform="translate(-26.333 -256.876)" fill="#174b67" fill-rule="evenodd"/>
                <path id="Trazado_190894" data-name="Trazado 190894" d="M61.806,319.939a2.675,2.675,0,1,0-2.675-2.675,2.678,2.678,0,0,0,2.675,2.675" transform="translate(-47.972 -255.221)" fill="#e0dbee" fill-rule="evenodd"/>
                <path id="Trazado_190895" data-name="Trazado 190895" d="M420.422,319.939a2.675,2.675,0,1,0-2.675-2.675,2.678,2.678,0,0,0,2.675,2.675" transform="translate(-338.91 -255.221)" fill="#e0dbee" fill-rule="evenodd"/>
                <path id="Trazado_190896" data-name="Trazado 190896" d="M308.141,319.939a2.675,2.675,0,1,0-2.675-2.675,2.678,2.678,0,0,0,2.675,2.675" transform="translate(-247.818 -255.221)" fill="#e0dbee" fill-rule="evenodd"/>
                <path id="Trazado_190897" data-name="Trazado 190897" d="M308.05,77.893l-4.766,4.579h26.341l-4.761-4.579H308.05Z" transform="translate(-246.047 -63.193)" fill="#ffd064" fill-rule="evenodd"/>
                <path id="Trazado_190898" data-name="Trazado 190898" d="M190.781,82.472l4.766-4.579H169.371l-4.761,4.579Z" transform="translate(-133.545 -63.193)" fill="#fff0af" fill-rule="evenodd"/>
                <path id="Trazado_190899" data-name="Trazado 190899" d="M60.692,14l-3.172-3.055a1.409,1.409,0,1,1,1.953-2.033l3.258,3.13,6.7-6.446a1.41,1.41,0,0,1,1.958,0L75.66,9.7A1.413,1.413,0,0,1,73.7,11.742l-3.3-3.172-9.661,9.293H80.068l-1.744-1.675a1.413,1.413,0,0,1,1.958-2.038l3.862,3.713H95.213a1.415,1.415,0,0,1,1.412,1.418v5.778a1.415,1.415,0,0,1-1.412,1.418H93.158V37.458a1.415,1.415,0,0,1-2.83,0V26.475H27.663V54.849H54.71a9.131,9.131,0,0,1,11.218,0h9.977a9.123,9.123,0,0,1,11.213,0h3.21V43.866a1.415,1.415,0,0,1,2.83,0V54.849h2.054a1.415,1.415,0,0,1,1.412,1.418v5.777a1.415,1.415,0,0,1-1.412,1.418H90.521a9.122,9.122,0,0,1-18.023,0H69.331a9.122,9.122,0,0,1-18.023,0H22.843a9.122,9.122,0,0,1-18.023,0h-3.4A1.42,1.42,0,0,1,0,62.044V58.6a1.415,1.415,0,1,1,2.83,0v2.022H4.82a9.122,9.122,0,0,1,18.023,0h1.99V34.563H22V45.669a1.416,1.416,0,0,1-1.412,1.418H9.3L2.83,49.7v2.488a1.415,1.415,0,1,1-2.83,0v-3.44A1.413,1.413,0,0,1,.984,47.4L8,44.567l5.644-12.015a1.42,1.42,0,0,1,1.279-.818h9.913V26.475H20.585a1.42,1.42,0,0,1-1.418-1.418V19.28a1.42,1.42,0,0,1,1.418-1.418H30.5L48.66.4a1.41,1.41,0,0,1,1.958,0l4.237,4.071A1.411,1.411,0,0,1,52.9,6.5L49.639,3.37,34.569,17.862h22.1Zm-.369,43.958a4.092,4.092,0,1,1-2.894,1.2,4.053,4.053,0,0,1,2.894-1.2m.888,3.2a1.253,1.253,0,1,0,.369.888,1.254,1.254,0,0,0-.369-.888m20.3-3.2a4.092,4.092,0,1,1-2.894,1.2,4.053,4.053,0,0,1,2.894-1.2m.888,3.2a1.257,1.257,0,1,0,0,1.776,1.252,1.252,0,0,0,0-1.776m-68.566-3.2a4.092,4.092,0,1,1-2.894,1.2,4.053,4.053,0,0,1,2.894-1.2m.888,3.2a1.252,1.252,0,1,0,.369.888,1.254,1.254,0,0,0-.369-.888m39.309.888a6.289,6.289,0,1,0,6.291-6.291,6.248,6.248,0,0,0-6.291,6.291m-1.723-4.365H27.663v2.948H51.308a9.113,9.113,0,0,1,1-2.948m16.022,0a9.11,9.11,0,0,1,1,2.948H72.5a9.111,9.111,0,0,1,1-2.948Zm21.19,0a9.111,9.111,0,0,1,1,2.948h3.274V57.679H89.52Zm-8.008-1.926A6.291,6.291,0,1,0,87.8,62.044a6.291,6.291,0,0,0-6.286-6.291M18.28,57.593a6.3,6.3,0,1,0,1.84,4.451,6.289,6.289,0,0,0-1.84-4.451M11.261,44.257h7.907V34.563H15.814Zm54.283-.182,6.382-11.057a4.376,4.376,0,0,1,2.664-2.092,4.305,4.305,0,0,1,4.825,6.329l-6.43,11.138a4.3,4.3,0,0,1-7.88-1.038A4.336,4.336,0,0,1,65.544,44.075Zm8.88-9.731L67.983,45.5a1.494,1.494,0,0,0,.535,2.022,1.484,1.484,0,0,0,1.123.145,1.508,1.508,0,0,0,.9-.685l6.441-11.159a1.469,1.469,0,0,0-1.658-2.161A1.453,1.453,0,0,0,74.424,34.344ZM38.565,44.086l6.441-11.159a4.311,4.311,0,0,1,5.906-1.557,4.3,4.3,0,0,1,1.974,2.6,4.345,4.345,0,0,1-.433,3.274L46.012,48.392a4.3,4.3,0,0,1-7.875-1.038,4.331,4.331,0,0,1,.428-3.269m8.886-9.742L41.01,45.5a1.494,1.494,0,0,0,.535,2.022,1.486,1.486,0,0,0,2.022-.54l6.446-11.159a1.479,1.479,0,1,0-2.562-1.477Zm4.611,9.72,6.43-11.138a4.344,4.344,0,0,1,2.611-2,4.3,4.3,0,0,1,4.836,6.3L59.5,48.392a4.3,4.3,0,1,1-7.436-4.328Zm8.827-9.635L54.5,45.5a1.444,1.444,0,0,0-.145,1.123,1.467,1.467,0,0,0,.706.915,1.484,1.484,0,0,0,1.1.129c.551-.15.674-.385.968-.8L63.5,35.826a1.494,1.494,0,0,0,.139-1.129,1.479,1.479,0,0,0-2.75-.268ZM93.795,20.692H22v2.953h71.8Z" transform="translate(0 0)"/>
                <path id="Trazado_190900" data-name="Trazado 190900" d="M481.465,183.144v13.035l-2.83.117V183.144Z" transform="translate(-388.307 -148.581)"/>
                <path id="Trazado_190901" data-name="Trazado 190901" d="M2.83,278.45v-8.143H0v8.742Z" transform="translate(0 -219.295)"/>
                <path id="Trazado_190902" data-name="Trazado 190902" d="M381.882,46.438l7.091,6.82,3.065-.973-7.883-7.579Z" transform="translate(-309.813 -36.268)"/>
                <path id="Trazado_190903" data-name="Trazado 190903" d="M282.759,23.342l-7.474-7.191-1.759,2.224,7.527,7.24Z" transform="translate(-221.905 -13.103)"/>
              </g>
            </g>
          </g>
        </g>
      </g>
      <g id="Grupo_142029" data-name="Grupo 142029" transform="translate(484.5 1370.5)">
        <path id="Trazado_189759" data-name="Trazado 189759" d="M179.582,236.174H16.675A318.251,318.251,0,0,0,169.259,500.5l69.1-119.688,12.351-21.406a155.511,155.511,0,0,1-71.131-123.237" transform="translate(11.327 -236.174)" fill="#fff59d"/>
        <path id="Trazado_189760" data-name="Trazado 189760" d="M123.684,236.174H98.965a180.151,180.151,0,0,0,83.5,144.643l12.351-21.406a155.511,155.511,0,0,1-71.131-123.237" transform="translate(67.225 -236.174)" fill="#1b3f5e"/>
        <path id="Trazado_189761" data-name="Trazado 189761" d="M70.635,425.559A70.8,70.8,0,0,1,9.481,390.276,70.563,70.563,0,0,1,70.514,284.45a70.8,70.8,0,0,1,61.153,35.283A70.562,70.562,0,0,1,70.635,425.559" transform="translate(0 -203.382)" fill="#d84318"/>
        <g id="Grupo_142027" data-name="Grupo 142027" transform="translate(5.43 86.48)">
          <path id="Trazado_189762" data-name="Trazado 189762" d="M35.811,296.41A65.133,65.133,0,1,1,11.97,385.383,65.133,65.133,0,0,1,35.811,296.41" transform="translate(-3.233 -287.673)" fill="#f0f8ff"/>
          <g id="Grupo_142022" data-name="Grupo 142022" transform="translate(24.879 24.131)">
            <g id="Grupo_142021" data-name="Grupo 142021" transform="translate(0 0)" clip-path="url(#clip-path-2)">
              <path id="Trazado_190904" data-name="Trazado 190904" d="M17.368,99.351v60.316h-6.7V99.351a3.351,3.351,0,0,1,6.7,0" transform="translate(-8.477 -80.992)" fill="#374f68"/>
              <path id="Trazado_190905" data-name="Trazado 190905" d="M35.351,99.351c0,58.942-.168,56.965,0,56.965A3.351,3.351,0,0,1,32,152.965V96a3.351,3.351,0,0,1,3.351,3.351" transform="translate(-26.46 -80.992)" fill="#425b72"/>
              <rect id="Rectángulo_42137" data-name="Rectángulo 42137" width="63.667" height="6.702" transform="translate(8.891 25.06)" fill="#7c7d7d"/>
              <path id="Trazado_190906" data-name="Trazado 190906" d="M131.631,160v3.351H78.017A3.351,3.351,0,0,1,74.666,160Z" transform="translate(-62.424 -134.94)" fill="#919191"/>
              <rect id="Rectángulo_42138" data-name="Rectángulo 42138" width="63.667" height="6.702" transform="translate(8.891 61.92)" fill="#7c7d7d"/>
              <path id="Trazado_190907" data-name="Trazado 190907" d="M131.631,394.667v3.351H78.017a3.351,3.351,0,0,1-3.351-3.351Z" transform="translate(-62.424 -332.747)" fill="#919191"/>
              <path id="Trazado_190908" data-name="Trazado 190908" d="M465.368,99.351v60.316h-6.7V99.351a3.351,3.351,0,0,1,6.7,0" transform="translate(-386.108 -80.992)" fill="#374f68"/>
              <path id="Trazado_190909" data-name="Trazado 190909" d="M482.937,99.98v56.664a4.76,4.76,0,0,1-1.876-1.173c-2.061-2.078-1.474.922-1.474-58.389a2.834,2.834,0,0,1,.838-.335A3.351,3.351,0,0,1,482.937,99.98Z" transform="translate(-403.677 -81.621)" fill="#425b72"/>
              <rect id="Rectángulo_42139" data-name="Rectángulo 42139" width="40.211" height="20.105" transform="translate(20.619 41.815)" fill="#a87e6b"/>
              <path id="Trazado_190910" data-name="Trazado 190910" d="M186.193,266.667v16.754H159.386a10.053,10.053,0,0,1-10.053-10.053v-6.7Z" transform="translate(-125.363 -224.852)" fill="#be927c"/>
              <rect id="Rectángulo_42140" data-name="Rectángulo 42140" width="23.456" height="23.456" transform="translate(15.593 1.604)" fill="#a87e6b"/>
              <path id="Trazado_190911" data-name="Trazado 190911" d="M137.438,10.667V30.772H127.386A10.053,10.053,0,0,1,117.333,20.72V10.667Z" transform="translate(-98.39 -9.063)" fill="#be927c"/>
              <rect id="Rectángulo_42141" data-name="Rectángulo 42141" width="19.558" height="19.558" transform="translate(45.636 5.216)" fill="#a87e6b"/>
              <path id="Trazado_190912" data-name="Trazado 190912" d="M326.088,32V48.755h-6.7A10.053,10.053,0,0,1,309.333,38.7V32Z" transform="translate(-260.232 -27.045)" fill="#be927c"/>
              <rect id="Rectángulo_42142" data-name="Rectángulo 42142" width="6.702" height="6.702" transform="translate(37.373 41.815)" fill="#f6ccaf"/>
              <path id="Trazado_190913" data-name="Trazado 190913" d="M250.359,266.667v5.026a5.026,5.026,0,0,1-5.026-5.026Z" transform="translate(-206.284 -224.852)" fill="#ffdec7"/>
              <rect id="Rectángulo_42143" data-name="Rectángulo 42143" width="6.702" height="6.702" transform="translate(23.97 1.604)" fill="#f6ccaf"/>
              <path id="Trazado_190914" data-name="Trazado 190914" d="M165.026,10.667v5.026A5.026,5.026,0,0,1,160,10.667Z" transform="translate(-134.355 -9.063)" fill="#ffdec7"/>
              <rect id="Rectángulo_42144" data-name="Rectángulo 42144" width="6.702" height="6.702" transform="translate(52.452 4.955)" fill="#f6ccaf"/>
              <path id="Trazado_190915" data-name="Trazado 190915" d="M346.359,32v5.026A5.026,5.026,0,0,1,341.333,32Z" transform="translate(-287.205 -27.045)" fill="#ffdec7"/>
              <path id="Trazado_190916" data-name="Trazado 190916" d="M75.4,13.4a5.026,5.026,0,0,0-5.026,5.026v5.026H67.018V5.026a1.675,1.675,0,0,0-1.676-1.675H45.237a1.675,1.675,0,0,0-1.675,1.675v18.43H40.211V1.675A1.675,1.675,0,0,0,38.535,0H15.079A1.675,1.675,0,0,0,13.4,1.675V23.456H10.053V18.43A5.026,5.026,0,0,0,0,18.43V78.746a1.675,1.675,0,0,0,1.676,1.675h6.7a1.675,1.675,0,0,0,1.675-1.675V70.369H70.369v8.377a1.675,1.675,0,0,0,1.675,1.675h6.7a1.675,1.675,0,0,0,1.675-1.675V18.43A5.026,5.026,0,0,0,75.4,13.4M38.535,43.562h3.351v3.351H38.535Zm-1.676,6.7h6.7a1.675,1.675,0,0,0,1.675-1.675V43.562h13.4V60.316H21.781V43.562h13.4v5.026a1.675,1.675,0,0,0,1.676,1.675M60.316,40.211H20.105a1.675,1.675,0,0,0-1.675,1.675v18.43H10.053V33.509H70.369V60.316H61.992V41.886a1.676,1.676,0,0,0-1.676-1.675M56.965,10.053H53.615V6.7h3.351ZM46.913,6.7h3.351v5.026A1.676,1.676,0,0,0,51.939,13.4h6.7a1.675,1.675,0,0,0,1.675-1.675V6.7h3.351V23.456H46.913Zm-18.43,0H25.132V3.351h3.351ZM16.755,3.351h5.026V8.377a1.675,1.675,0,0,0,1.676,1.675h6.7a1.675,1.675,0,0,0,1.676-1.675V3.351H36.86V23.456H16.755ZM70.369,30.158H10.053V26.807H70.369ZM6.7,77.071H3.351V18.43a1.675,1.675,0,1,1,3.351,0Zm3.351-13.4H70.369v3.351H10.053Zm67.018,13.4H73.72V18.43a1.675,1.675,0,1,1,3.351,0Z" transform="translate(0.513 -0.071)"/>
              <path id="Trazado_190917" data-name="Trazado 190917" d="M165.026,341.333h-3.351a1.675,1.675,0,1,0,0,3.351h3.351a1.675,1.675,0,1,0,0-3.351" transform="translate(-134.355 -287.79)"/>
              <path id="Trazado_190918" data-name="Trazado 190918" d="M133.026,106.667h-3.351a1.675,1.675,0,1,0,0,3.351h3.351a1.675,1.675,0,1,0,0-3.351" transform="translate(-107.381 -89.984)"/>
            </g>
          </g>
        </g>
      </g>
      <g id="Grupo_142030" data-name="Grupo 142030" transform="translate(855.005 1370.5)">
        <path id="Trazado_189770" data-name="Trazado 189770" d="M327.6,236.174a155.51,155.51,0,0,1-71.131,123.237l12.351,21.406,69.1,119.688A318.251,318.251,0,0,0,490.51,236.174Z" transform="translate(-256.473 -236.174)" fill="#fff59d"/>
        <path id="Trazado_189771" data-name="Trazado 189771" d="M327.6,236.174a155.51,155.51,0,0,1-71.131,123.237l12.351,21.406a180.15,180.15,0,0,0,83.5-144.643Z" transform="translate(-256.473 -236.174)" fill="#1b3f5e"/>
        <path id="Trazado_189772" data-name="Trazado 189772" d="M398.958,425.559a70.552,70.552,0,1,1,61.152-35.283,70.517,70.517,0,0,1-61.152,35.283" transform="translate(-207.554 -203.382)" fill="#d84318"/>
        <g id="Grupo_142026" data-name="Grupo 142026" transform="translate(126.321 86.481)">
          <path id="Trazado_189773" data-name="Trazado 189773" d="M364.274,409.223a65.133,65.133,0,1,1,88.973-23.841,65.134,65.134,0,0,1-88.973,23.841" transform="translate(-331.696 -287.673)" fill="#f0f8ff"/>
          <g id="Grupo_142024" data-name="Grupo 142024" transform="translate(20.932 20.217)">
            <g id="Grupo_142023" data-name="Grupo 142023" transform="translate(0 0)" clip-path="url(#clip-path-3)">
              <path id="Trazado_190919" data-name="Trazado 190919" d="M13.373,56H61.731A5.373,5.373,0,0,1,67.1,61.373v61.791a5.373,5.373,0,0,1-5.373,5.373H13.373A5.373,5.373,0,0,1,8,123.164V61.373A5.373,5.373,0,0,1,13.373,56" transform="translate(-6.516 -44.762)" fill="#bc6857"/>
              <path id="Trazado_190920" data-name="Trazado 190920" d="M286.776,272v30.9a5.373,5.373,0,0,1-5.373,5.373H272V272Z" transform="translate(-226.188 -224.494)" fill="#a14939"/>
              <path id="Trazado_190921" data-name="Trazado 190921" d="M61.731,437.373H13.373A5.373,5.373,0,0,1,8,432v4.03a5.373,5.373,0,0,0,5.373,5.373H61.731A5.373,5.373,0,0,0,67.1,436.03V432a5.373,5.373,0,0,1-5.373,5.373" transform="translate(-6.516 -357.628)" fill="#a14939"/>
              <path id="Trazado_190922" data-name="Trazado 190922" d="M44.328,123.223H6.716A6.716,6.716,0,0,1,0,116.507V54.716A6.716,6.716,0,0,1,6.716,48H55.074a6.716,6.716,0,0,1,6.716,6.716V84.268a1.343,1.343,0,0,1-2.687,0V54.716a4.03,4.03,0,0,0-4.03-4.03H6.716a4.03,4.03,0,0,0-4.03,4.03v61.791a4.03,4.03,0,0,0,4.03,4.03H44.328a1.343,1.343,0,0,1,0,2.687" transform="translate(0.141 -38.105)"/>
              <path id="Trazado_190923" data-name="Trazado 190923" d="M294.716,322.925h-5.373a1.343,1.343,0,0,1,0-2.687h5.373a4.03,4.03,0,0,0,4.03-4.03V289.343a1.343,1.343,0,1,1,2.687,0v26.865a6.717,6.717,0,0,1-6.716,6.716" transform="translate(-239.501 -237.807)"/>
              <rect id="Rectángulo_42146" data-name="Rectángulo 42146" width="49.548" height="62.586" transform="translate(6.519 15.647)" fill="#eaf2ff"/>
              <path id="Trazado_190924" data-name="Trazado 190924" d="M281.4,272v30.9H272V273.343A1.343,1.343,0,0,1,273.343,272Z" transform="translate(-226.188 -224.494)" fill="#c1d1f7"/>
              <rect id="Rectángulo_42147" data-name="Rectángulo 42147" width="49.548" height="3.912" transform="translate(6.519 74.321)" fill="#c1d1f7"/>
              <path id="Trazado_190925" data-name="Trazado 190925" d="M81.7,144.477H33.343A1.343,1.343,0,0,1,32,143.134V81.343A1.343,1.343,0,0,1,33.343,80H81.7a1.343,1.343,0,0,1,1.343,1.343v61.791a1.343,1.343,0,0,1-1.343,1.343m-47.015-2.687H80.358v-59.1H34.687Z" transform="translate(-26.486 -64.732)"/>
              <rect id="Rectángulo_42148" data-name="Rectángulo 42148" width="26.078" height="11.735" transform="translate(18.254 7.823)" fill="#e9a648"/>
              <rect id="Rectángulo_42149" data-name="Rectángulo 42149" width="26.078" height="3.912" transform="translate(18.254 15.647)" fill="#d08840"/>
              <path id="Trazado_190926" data-name="Trazado 190926" d="M124.209,45.433H97.343A1.343,1.343,0,0,1,96,44.089V33.343A1.343,1.343,0,0,1,97.343,32h26.866a1.343,1.343,0,0,1,1.343,1.343V44.089a1.343,1.343,0,0,1-1.343,1.343M98.687,42.746h24.179v-8.06H98.687Z" transform="translate(-79.74 -24.792)"/>
              <path id="Trazado_190927" data-name="Trazado 190927" d="M156.089,8.06H145.343A1.343,1.343,0,0,1,144,6.716a6.716,6.716,0,0,1,13.433,0,1.343,1.343,0,0,1-1.343,1.343m-9.173-2.687h7.6a4.03,4.03,0,0,0-7.6,0" transform="translate(-119.68 1.835)"/>
              <rect id="Rectángulo_42150" data-name="Rectángulo 42150" width="35.205" height="35.205" transform="translate(50.852 50.852)" fill="#e0c3aa"/>
              <rect id="Rectángulo_42151" data-name="Rectángulo 42151" width="35.205" height="3.912" transform="translate(50.852 82.145)" fill="#d0a37f"/>
              <path id="Trazado_190928" data-name="Trazado 190928" d="M324.268,325.612H289.343A1.343,1.343,0,0,1,288,324.268V289.343A1.343,1.343,0,0,1,289.343,288h34.925a1.343,1.343,0,0,1,1.343,1.343v34.925a1.343,1.343,0,0,1-1.343,1.343m-33.582-2.686h32.239V290.687H290.687Z" transform="translate(-239.501 -237.807)"/>
              <rect id="Rectángulo_42152" data-name="Rectángulo 42152" width="9.127" height="11.735" transform="translate(62.587 50.852)" fill="#f6edc8"/>
              <path id="Trazado_190929" data-name="Trazado 190929" d="M372.089,301.433H361.343A1.343,1.343,0,0,1,360,300.089V289.343A1.343,1.343,0,0,1,361.343,288h10.746a1.343,1.343,0,0,1,1.343,1.343v10.746a1.343,1.343,0,0,1-1.343,1.343m-9.4-2.687h8.06v-8.06h-8.06Z" transform="translate(-299.412 -237.807)"/>
              <rect id="Rectángulo_42153" data-name="Rectángulo 42153" width="7.823" height="6.519" transform="translate(57.371 73.018)" fill="#f6f6f6"/>
              <path id="Trazado_190930" data-name="Trazado 190930" d="M337.4,425.4h-8.06A1.343,1.343,0,0,1,328,424.06v-6.716A1.343,1.343,0,0,1,329.343,416h8.06a1.343,1.343,0,0,1,1.343,1.343v6.716A1.343,1.343,0,0,1,337.4,425.4m-6.716-2.686h5.373v-4.03h-5.373Z" transform="translate(-272.785 -344.314)"/>
              <path id="Trazado_190931" data-name="Trazado 190931" d="M437.373,458.686h-4.03a1.343,1.343,0,1,1,0-2.686h4.03a1.343,1.343,0,1,1,0,2.686" transform="translate(-359.322 -377.598)"/>
              <path id="Trazado_190932" data-name="Trazado 190932" d="M437.373,426.686h-4.03a1.343,1.343,0,1,1,0-2.686h4.03a1.343,1.343,0,1,1,0,2.686" transform="translate(-359.322 -350.971)"/>
              <path id="Trazado_190933" data-name="Trazado 190933" d="M83.076,159.663l-2.687-2.687a1.344,1.344,0,0,1,1.9-1.9l1.736,1.738,4.423-4.424a1.344,1.344,0,1,1,1.9,1.9l-5.373,5.373a1.343,1.343,0,0,1-1.9,0h0" transform="translate(-66.423 -124.639)"/>
              <path id="Trazado_190934" data-name="Trazado 190934" d="M186.806,178.687H169.343a1.343,1.343,0,1,1,0-2.687h17.463a1.343,1.343,0,1,1,0,2.687" transform="translate(-139.65 -144.613)"/>
              <path id="Trazado_190935" data-name="Trazado 190935" d="M83.076,231.663l-2.687-2.687a1.344,1.344,0,0,1,1.9-1.9l1.736,1.738,4.423-4.424a1.344,1.344,0,0,1,1.9,1.9l-5.373,5.373a1.343,1.343,0,0,1-1.9,0h0" transform="translate(-66.423 -184.549)"/>
              <path id="Trazado_190936" data-name="Trazado 190936" d="M186.806,250.687H169.343a1.343,1.343,0,1,1,0-2.687h17.463a1.343,1.343,0,1,1,0,2.687" transform="translate(-139.65 -204.523)"/>
              <path id="Trazado_190937" data-name="Trazado 190937" d="M83.076,303.663l-2.687-2.687a1.344,1.344,0,0,1,1.9-1.9l1.736,1.738,4.423-4.424a1.344,1.344,0,1,1,1.9,1.9l-5.373,5.373a1.343,1.343,0,0,1-1.9,0h0" transform="translate(-66.423 -244.46)"/>
              <path id="Trazado_190938" data-name="Trazado 190938" d="M182.776,322.686H169.343a1.343,1.343,0,1,1,0-2.687h13.433a1.343,1.343,0,1,1,0,2.687" transform="translate(-139.65 -264.434)"/>
              <path id="Trazado_190939" data-name="Trazado 190939" d="M83.076,375.663l-2.687-2.687a1.344,1.344,0,0,1,1.9-1.9l1.736,1.738,4.423-4.424a1.344,1.344,0,0,1,1.9,1.9l-5.373,5.373a1.343,1.343,0,0,1-1.9,0h0" transform="translate(-66.423 -304.37)"/>
              <path id="Trazado_190940" data-name="Trazado 190940" d="M182.776,394.687H169.343a1.343,1.343,0,1,1,0-2.687h13.433a1.343,1.343,0,1,1,0,2.687" transform="translate(-139.65 -324.344)"/>
              <path id="Trazado_190941" data-name="Trazado 190941" d="M354.686,240.84V249.4H352V240Z" transform="translate(-292.755 -197.867)"/>
              <rect id="Rectángulo_42154" data-name="Rectángulo 42154" width="10.431" height="2.608" transform="translate(40.421 82.145)"/>
            </g>
          </g>
        </g>
      </g>
      <text id="Almacenamiento" transform="translate(955 1412)" fill="#12263f" font-size="16" font-family="Roboto-Bold, Roboto" font-weight="700"><tspan x="0" y="0">Almacenamiento</tspan></text>
      <text id="Inventarios" transform="translate(546 1412)" fill="#12263f" font-size="16" font-family="Roboto-Bold, Roboto" font-weight="700"><tspan x="0" y="0">Inventarios</tspan></text>
      <text id="Adquisición_compras" data-name="Adquisición/compras" transform="translate(726 1206)" fill="#12263f" font-size="16" font-family="Roboto-Bold, Roboto" font-weight="700"><tspan x="0" y="0">Adquisición/compras</tspan></text>
      <g id="Grupo_142034" data-name="Grupo 142034" transform="translate(-130 35)">
        <g id="Grupo_142031" data-name="Grupo 142031">
          <circle id="Elipse_5128" data-name="Elipse 5128" cx="26" cy="26" r="26" transform="translate(1001 1090)" fill="#d84318"/>
          <circle id="Elipse_5129" data-name="Elipse 5129" cx="22.5" cy="22.5" r="22.5" transform="translate(1005 1094)" fill="#f0f8ff"/>
        </g>
        <text id="_1" data-name="1" transform="translate(1021 1103)" fill="#12263f" font-size="20" font-family="Roboto-Black, Roboto" font-weight="800"><tspan x="0" y="21">1</tspan></text>
      </g>
      <g id="Grupo_142035" data-name="Grupo 142035" transform="translate(-164 446)">
        <g id="Grupo_142032" data-name="Grupo 142032" transform="translate(78)">
          <circle id="Elipse_5128-2" data-name="Elipse 5128" cx="26" cy="26" r="26" transform="translate(1001 1090)" fill="#d84318"/>
          <circle id="Elipse_5129-2" data-name="Elipse 5129" cx="22.5" cy="22.5" r="22.5" transform="translate(1005 1094)" fill="#f0f8ff"/>
        </g>
        <text id="_2" data-name="2" transform="translate(1099 1103)" fill="#12263f" font-size="20" font-family="Roboto-Black, Roboto" font-weight="800"><tspan x="0" y="21">2</tspan></text>
      </g>
      <g id="Grupo_142036" data-name="Grupo 142036" transform="translate(-519 446)">
        <g id="Grupo_142033" data-name="Grupo 142033" transform="translate(151)">
          <circle id="Elipse_5128-3" data-name="Elipse 5128" cx="26" cy="26" r="26" transform="translate(1001 1090)" fill="#d84318"/>
          <circle id="Elipse_5129-3" data-name="Elipse 5129" cx="22.5" cy="22.5" r="22.5" transform="translate(1005 1094)" fill="#f0f8ff"/>
        </g>
        <text id="_3" data-name="3" transform="translate(1172 1103)" fill="#12263f" font-size="20" font-family="Roboto-Black, Roboto" font-weight="800"><tspan x="0" y="21">3</tspan></text>
      </g>
    </g>
    <g id="Grupo_149676" data-name="Grupo 149676" transform="translate(-9168 -12152.991)">
      <rect id="Rectángulo_33775" data-name="Rectángulo 33775" width="1240" height="40" transform="translate(400 5862.991)" fill="#e8e8e8"/>
      <text id="Fuente:_Elaboración_propia_del_experto" data-name="Fuente: Elaboración propia del experto" transform="translate(422 5873.991)" fill="#12263f" font-size="14" font-family="Roboto-Regular, Roboto"><tspan x="0" y="15">Fuente: Elaboración propia del experto</tspan></text>
    </g>
    <circle id="Elipse_5127-2" data-name="Elipse 5127" cx="99.5" cy="99.5" r="99.5" transform="translate(-8247 -6719)" fill="#fff59d"/>
    <text id="Aprovicionamiento-2" data-name="Aprovicionamiento" transform="translate(-8225 -6613)" fill="#12263f" font-size="18" font-family="Roboto-Black, Roboto" font-weight="800"><tspan x="0" y="0">Aprovicionamiento</tspan></text>
    <g id="Grupo_142028-2" data-name="Grupo 142028" transform="translate(-8298.954 -6980.539)">
      <path id="Trazado_189781-2" data-name="Trazado 189781" d="M268,42.012A317.142,317.142,0,0,0,115.365,80.906l69.1,119.688L196.835,222a155.963,155.963,0,0,1,142.329,0l12.368-21.406,69.1-119.688A317.142,317.142,0,0,0,268,42.012" transform="translate(-115.365 28.538)" fill="#fff59d"/>
      <path id="Trazado_189782-2" data-name="Trazado 189782" d="M240.047,124.253a179.554,179.554,0,0,0-83.532,20.477l12.368,21.407a155.963,155.963,0,0,1,142.329,0L323.58,144.73a179.554,179.554,0,0,0-83.532-20.477" transform="translate(-87.413 84.402)" fill="#1b3f5e"/>
      <path id="Trazado_189783-2" data-name="Trazado 189783" d="M234.794,141.087a70.544,70.544,0,1,1,70.543-70.545,70.624,70.624,0,0,1-70.543,70.545" transform="translate(-82.159 0)" fill="#d84318"/>
      <g id="Grupo_142025-2" data-name="Grupo 142025" transform="translate(87.503 5.411)">
        <path id="Trazado_189784-2" data-name="Trazado 189784" d="M297.737,68.354A65.132,65.132,0,1,1,232.6,3.222a65.132,65.132,0,0,1,65.132,65.132" transform="translate(-167.472 -3.222)" fill="#f0f8ff"/>
        <g id="Grupo_142020-2" data-name="Grupo 142020" transform="translate(16.819 29.791)">
          <path id="Trazado_190878-2" data-name="Trazado 190878" d="M127.272,125.318h65.5v34.018H124.528l2.744-24.517Z" transform="translate(-101.027 -101.668)" fill="#80b4fb" fill-rule="evenodd"/>
          <g id="Grupo_142019-2" data-name="Grupo 142019" transform="translate(0 0)">
            <g id="Grupo_142018-2" data-name="Grupo 142018" clip-path="url(#clip-path)">
              <path id="Trazado_190879-2" data-name="Trazado 190879" d="M32.339,204.554H8.978c-1.07,0-1.466-.514-1.466-1.466V192.726a2.057,2.057,0,0,1,1.359-2.011l6.264-2.536L26.68,175.661h5.66Z" transform="translate(-6.094 -142.51)" fill="#d57080" fill-rule="evenodd"/>
              <path id="Trazado_190880-2" data-name="Trazado 190880" d="M32.339,204.554H8.978c-1.07,0-1.466-.514-1.466-1.466v-3.113H24.1a3.674,3.674,0,0,0,3.665-3.665V175.661h4.579Z" transform="translate(-6.094 -142.51)" fill="#cb5769" fill-rule="evenodd"/>
              <path id="Trazado_190881-2" data-name="Trazado 190881" d="M199.985,132.773h4.585v31.21h-65.5V159.4h56.337a4.6,4.6,0,0,0,4.579-4.585V132.773Z" transform="translate(-112.824 -107.716)" fill="#61a2f9" fill-rule="evenodd"/>
              <path id="Trazado_190882-2" data-name="Trazado 190882" d="M206.571,298.148a1.472,1.472,0,0,1,1.466,1.466v2.846a1.472,1.472,0,0,1-1.466,1.466h-67.5v-5.777Z" transform="translate(-112.824 -241.882)" fill="#5490f9" fill-rule="evenodd"/>
              <path id="Trazado_190883-2" data-name="Trazado 190883" d="M164.61,27.526l18.472,1.648,18.681-1.648-17.52-16.851a1.35,1.35,0,0,0-2.113,0Z" transform="translate(-133.545 -8.247)" fill="#fff3be" fill-rule="evenodd"/>
              <path id="Trazado_190884-2" data-name="Trazado 190884" d="M303.283,49.9l14.192,1.557L329.624,49.9,317.513,38.245a1.357,1.357,0,0,0-2.113,0Z" transform="translate(-246.047 -30.617)" fill="#ffe07d" fill-rule="evenodd"/>
              <path id="Trazado_190885-2" data-name="Trazado 190885" d="M110.545,102.158h71.7a1.472,1.472,0,0,1,1.466,1.466v2.846a1.472,1.472,0,0,1-1.466,1.466h-71.7a1.468,1.468,0,0,1-1.466-1.466v-2.846a1.468,1.468,0,0,1,1.466-1.466" transform="translate(-88.494 -82.879)" fill="#5490f9" fill-rule="evenodd"/>
              <path id="Trazado_190886-2" data-name="Trazado 190886" d="M236.142,183.187l6.441-11.159a2.89,2.89,0,0,1,5.007,2.889l-6.447,11.159a2.888,2.888,0,1,1-5-2.889Zm-26.973,0,6.446-11.159a2.888,2.888,0,1,1,5,2.889l-6.441,11.159a2.89,2.89,0,1,1-5.007-2.889Zm13.486,0,6.441-11.159a2.89,2.89,0,0,1,5.007,2.889l-6.441,11.159a2.89,2.89,0,1,1-5.007-2.889Z" transform="translate(-169.384 -138.39)" fill="#61a2f9" fill-rule="evenodd"/>
              <path id="Trazado_190887-2" data-name="Trazado 190887" d="M47.906,188.179H57.985a1.292,1.292,0,0,0,1.466-1.466V175.661h-4.2a2.116,2.116,0,0,0-2.086,1.327Z" transform="translate(-38.865 -142.51)" fill="#b1e4f9" fill-rule="evenodd"/>
              <path id="Trazado_190888-2" data-name="Trazado 190888" d="M40.166,303.349a7.7,7.7,0,1,0-7.709-7.7,7.719,7.719,0,0,0,7.709,7.7" transform="translate(-26.332 -233.602)" fill="#0c5e7f" fill-rule="evenodd"/>
              <path id="Trazado_190889-2" data-name="Trazado 190889" d="M398.782,303.349a7.7,7.7,0,1,0-7.709-7.7A7.719,7.719,0,0,0,398.782,303.349Z" transform="translate(-317.27 -233.602)" fill="#0c5e7f" fill-rule="evenodd"/>
              <path id="Trazado_190890-2" data-name="Trazado 190890" d="M406.137,316.63a7.706,7.706,0,1,1-14.717,0,7.708,7.708,0,0,0,14.717,0" transform="translate(-317.27 -256.876)" fill="#174b67" fill-rule="evenodd"/>
              <path id="Trazado_190891-2" data-name="Trazado 190891" d="M286.5,303.349a7.7,7.7,0,1,0-7.709-7.7,7.719,7.719,0,0,0,7.709,7.7" transform="translate(-226.177 -233.602)" fill="#0c5e7f" fill-rule="evenodd"/>
              <path id="Trazado_190892-2" data-name="Trazado 190892" d="M293.855,316.63a7.706,7.706,0,1,1-14.717,0,7.708,7.708,0,0,0,14.717,0Z" transform="translate(-226.177 -256.876)" fill="#174b67" fill-rule="evenodd"/>
              <path id="Trazado_190893-2" data-name="Trazado 190893" d="M47.522,316.63a7.706,7.706,0,1,1-14.717,0,7.708,7.708,0,0,0,14.717,0" transform="translate(-26.333 -256.876)" fill="#174b67" fill-rule="evenodd"/>
              <path id="Trazado_190894-2" data-name="Trazado 190894" d="M61.806,319.939a2.675,2.675,0,1,0-2.675-2.675,2.678,2.678,0,0,0,2.675,2.675" transform="translate(-47.972 -255.221)" fill="#e0dbee" fill-rule="evenodd"/>
              <path id="Trazado_190895-2" data-name="Trazado 190895" d="M420.422,319.939a2.675,2.675,0,1,0-2.675-2.675,2.678,2.678,0,0,0,2.675,2.675" transform="translate(-338.91 -255.221)" fill="#e0dbee" fill-rule="evenodd"/>
              <path id="Trazado_190896-2" data-name="Trazado 190896" d="M308.141,319.939a2.675,2.675,0,1,0-2.675-2.675,2.678,2.678,0,0,0,2.675,2.675" transform="translate(-247.818 -255.221)" fill="#e0dbee" fill-rule="evenodd"/>
              <path id="Trazado_190897-2" data-name="Trazado 190897" d="M308.05,77.893l-4.766,4.579h26.341l-4.761-4.579H308.05Z" transform="translate(-246.047 -63.193)" fill="#ffd064" fill-rule="evenodd"/>
              <path id="Trazado_190898-2" data-name="Trazado 190898" d="M190.781,82.472l4.766-4.579H169.371l-4.761,4.579Z" transform="translate(-133.545 -63.193)" fill="#fff0af" fill-rule="evenodd"/>
              <path id="Trazado_190899-2" data-name="Trazado 190899" d="M60.692,14l-3.172-3.055a1.409,1.409,0,1,1,1.953-2.033l3.258,3.13,6.7-6.446a1.41,1.41,0,0,1,1.958,0L75.66,9.7A1.413,1.413,0,0,1,73.7,11.742l-3.3-3.172-9.661,9.293H80.068l-1.744-1.675a1.413,1.413,0,0,1,1.958-2.038l3.862,3.713H95.213a1.415,1.415,0,0,1,1.412,1.418v5.778a1.415,1.415,0,0,1-1.412,1.418H93.158V37.458a1.415,1.415,0,0,1-2.83,0V26.475H27.663V54.849H54.71a9.131,9.131,0,0,1,11.218,0h9.977a9.123,9.123,0,0,1,11.213,0h3.21V43.866a1.415,1.415,0,0,1,2.83,0V54.849h2.054a1.415,1.415,0,0,1,1.412,1.418v5.777a1.415,1.415,0,0,1-1.412,1.418H90.521a9.122,9.122,0,0,1-18.023,0H69.331a9.122,9.122,0,0,1-18.023,0H22.843a9.122,9.122,0,0,1-18.023,0h-3.4A1.42,1.42,0,0,1,0,62.044V58.6a1.415,1.415,0,1,1,2.83,0v2.022H4.82a9.122,9.122,0,0,1,18.023,0h1.99V34.563H22V45.669a1.416,1.416,0,0,1-1.412,1.418H9.3L2.83,49.7v2.488a1.415,1.415,0,1,1-2.83,0v-3.44A1.413,1.413,0,0,1,.984,47.4L8,44.567l5.644-12.015a1.42,1.42,0,0,1,1.279-.818h9.913V26.475H20.585a1.42,1.42,0,0,1-1.418-1.418V19.28a1.42,1.42,0,0,1,1.418-1.418H30.5L48.66.4a1.41,1.41,0,0,1,1.958,0l4.237,4.071A1.411,1.411,0,0,1,52.9,6.5L49.639,3.37,34.569,17.862h22.1Zm-.369,43.958a4.092,4.092,0,1,1-2.894,1.2,4.053,4.053,0,0,1,2.894-1.2m.888,3.2a1.253,1.253,0,1,0,.369.888,1.254,1.254,0,0,0-.369-.888m20.3-3.2a4.092,4.092,0,1,1-2.894,1.2,4.053,4.053,0,0,1,2.894-1.2m.888,3.2a1.257,1.257,0,1,0,0,1.776,1.252,1.252,0,0,0,0-1.776m-68.566-3.2a4.092,4.092,0,1,1-2.894,1.2,4.053,4.053,0,0,1,2.894-1.2m.888,3.2a1.252,1.252,0,1,0,.369.888,1.254,1.254,0,0,0-.369-.888m39.309.888a6.289,6.289,0,1,0,6.291-6.291,6.248,6.248,0,0,0-6.291,6.291m-1.723-4.365H27.663v2.948H51.308a9.113,9.113,0,0,1,1-2.948m16.022,0a9.11,9.11,0,0,1,1,2.948H72.5a9.111,9.111,0,0,1,1-2.948Zm21.19,0a9.111,9.111,0,0,1,1,2.948h3.274V57.679H89.52Zm-8.008-1.926A6.291,6.291,0,1,0,87.8,62.044a6.291,6.291,0,0,0-6.286-6.291M18.28,57.593a6.3,6.3,0,1,0,1.84,4.451,6.289,6.289,0,0,0-1.84-4.451M11.261,44.257h7.907V34.563H15.814Zm54.283-.182,6.382-11.057a4.376,4.376,0,0,1,2.664-2.092,4.305,4.305,0,0,1,4.825,6.329l-6.43,11.138a4.3,4.3,0,0,1-7.88-1.038A4.336,4.336,0,0,1,65.544,44.075Zm8.88-9.731L67.983,45.5a1.494,1.494,0,0,0,.535,2.022,1.484,1.484,0,0,0,1.123.145,1.508,1.508,0,0,0,.9-.685l6.441-11.159a1.469,1.469,0,0,0-1.658-2.161A1.453,1.453,0,0,0,74.424,34.344ZM38.565,44.086l6.441-11.159a4.311,4.311,0,0,1,5.906-1.557,4.3,4.3,0,0,1,1.974,2.6,4.345,4.345,0,0,1-.433,3.274L46.012,48.392a4.3,4.3,0,0,1-7.875-1.038,4.331,4.331,0,0,1,.428-3.269m8.886-9.742L41.01,45.5a1.494,1.494,0,0,0,.535,2.022,1.486,1.486,0,0,0,2.022-.54l6.446-11.159a1.479,1.479,0,1,0-2.562-1.477Zm4.611,9.72,6.43-11.138a4.344,4.344,0,0,1,2.611-2,4.3,4.3,0,0,1,4.836,6.3L59.5,48.392a4.3,4.3,0,1,1-7.436-4.328Zm8.827-9.635L54.5,45.5a1.444,1.444,0,0,0-.145,1.123,1.467,1.467,0,0,0,.706.915,1.484,1.484,0,0,0,1.1.129c.551-.15.674-.385.968-.8L63.5,35.826a1.494,1.494,0,0,0,.139-1.129,1.479,1.479,0,0,0-2.75-.268ZM93.795,20.692H22v2.953h71.8Z" transform="translate(0 0)"/>
              <path id="Trazado_190900-2" data-name="Trazado 190900" d="M481.465,183.144v13.035l-2.83.117V183.144Z" transform="translate(-388.307 -148.581)"/>
              <path id="Trazado_190901-2" data-name="Trazado 190901" d="M2.83,278.45v-8.143H0v8.742Z" transform="translate(0 -219.295)"/>
              <path id="Trazado_190902-2" data-name="Trazado 190902" d="M381.882,46.438l7.091,6.82,3.065-.973-7.883-7.579Z" transform="translate(-309.813 -36.268)"/>
              <path id="Trazado_190903-2" data-name="Trazado 190903" d="M282.759,23.342l-7.474-7.191-1.759,2.224,7.527,7.24Z" transform="translate(-221.905 -13.103)"/>
            </g>
          </g>
        </g>
      </g>
    </g>
    <g id="Grupo_142029-2" data-name="Grupo 142029" transform="translate(-8463.5 -6632.5)">
      <path id="Trazado_189759-2" data-name="Trazado 189759" d="M179.582,236.174H16.675A318.251,318.251,0,0,0,169.259,500.5l69.1-119.688,12.351-21.406a155.511,155.511,0,0,1-71.131-123.237" transform="translate(11.327 -236.174)" fill="#fff59d"/>
      <path id="Trazado_189760-2" data-name="Trazado 189760" d="M123.684,236.174H98.965a180.151,180.151,0,0,0,83.5,144.643l12.351-21.406a155.511,155.511,0,0,1-71.131-123.237" transform="translate(67.225 -236.174)" fill="#1b3f5e"/>
      <path id="Trazado_189761-2" data-name="Trazado 189761" d="M70.635,425.559A70.8,70.8,0,0,1,9.481,390.276,70.563,70.563,0,0,1,70.514,284.45a70.8,70.8,0,0,1,61.153,35.283A70.562,70.562,0,0,1,70.635,425.559" transform="translate(0 -203.382)" fill="#d84318"/>
      <g id="Grupo_142027-2" data-name="Grupo 142027" transform="translate(5.43 86.48)">
        <path id="Trazado_189762-2" data-name="Trazado 189762" d="M35.811,296.41A65.133,65.133,0,1,1,11.97,385.383,65.133,65.133,0,0,1,35.811,296.41" transform="translate(-3.233 -287.673)" fill="#f0f8ff"/>
        <g id="Grupo_142022-2" data-name="Grupo 142022" transform="translate(24.879 24.131)">
          <g id="Grupo_142021-2" data-name="Grupo 142021" transform="translate(0 0)" clip-path="url(#clip-path-2)">
            <path id="Trazado_190904-2" data-name="Trazado 190904" d="M17.368,99.351v60.316h-6.7V99.351a3.351,3.351,0,0,1,6.7,0" transform="translate(-8.477 -80.992)" fill="#374f68"/>
            <path id="Trazado_190905-2" data-name="Trazado 190905" d="M35.351,99.351c0,58.942-.168,56.965,0,56.965A3.351,3.351,0,0,1,32,152.965V96a3.351,3.351,0,0,1,3.351,3.351" transform="translate(-26.46 -80.992)" fill="#425b72"/>
            <rect id="Rectángulo_42137-2" data-name="Rectángulo 42137" width="63.667" height="6.702" transform="translate(8.891 25.06)" fill="#7c7d7d"/>
            <path id="Trazado_190906-2" data-name="Trazado 190906" d="M131.631,160v3.351H78.017A3.351,3.351,0,0,1,74.666,160Z" transform="translate(-62.424 -134.94)" fill="#919191"/>
            <rect id="Rectángulo_42138-2" data-name="Rectángulo 42138" width="63.667" height="6.702" transform="translate(8.891 61.92)" fill="#7c7d7d"/>
            <path id="Trazado_190907-2" data-name="Trazado 190907" d="M131.631,394.667v3.351H78.017a3.351,3.351,0,0,1-3.351-3.351Z" transform="translate(-62.424 -332.747)" fill="#919191"/>
            <path id="Trazado_190908-2" data-name="Trazado 190908" d="M465.368,99.351v60.316h-6.7V99.351a3.351,3.351,0,0,1,6.7,0" transform="translate(-386.108 -80.992)" fill="#374f68"/>
            <path id="Trazado_190909-2" data-name="Trazado 190909" d="M482.937,99.98v56.664a4.76,4.76,0,0,1-1.876-1.173c-2.061-2.078-1.474.922-1.474-58.389a2.834,2.834,0,0,1,.838-.335A3.351,3.351,0,0,1,482.937,99.98Z" transform="translate(-403.677 -81.621)" fill="#425b72"/>
            <rect id="Rectángulo_42139-2" data-name="Rectángulo 42139" width="40.211" height="20.105" transform="translate(20.619 41.815)" fill="#a87e6b"/>
            <path id="Trazado_190910-2" data-name="Trazado 190910" d="M186.193,266.667v16.754H159.386a10.053,10.053,0,0,1-10.053-10.053v-6.7Z" transform="translate(-125.363 -224.852)" fill="#be927c"/>
            <rect id="Rectángulo_42140-2" data-name="Rectángulo 42140" width="23.456" height="23.456" transform="translate(15.593 1.604)" fill="#a87e6b"/>
            <path id="Trazado_190911-2" data-name="Trazado 190911" d="M137.438,10.667V30.772H127.386A10.053,10.053,0,0,1,117.333,20.72V10.667Z" transform="translate(-98.39 -9.063)" fill="#be927c"/>
            <rect id="Rectángulo_42141-2" data-name="Rectángulo 42141" width="19.558" height="19.558" transform="translate(45.636 5.216)" fill="#a87e6b"/>
            <path id="Trazado_190912-2" data-name="Trazado 190912" d="M326.088,32V48.755h-6.7A10.053,10.053,0,0,1,309.333,38.7V32Z" transform="translate(-260.232 -27.045)" fill="#be927c"/>
            <rect id="Rectángulo_42142-2" data-name="Rectángulo 42142" width="6.702" height="6.702" transform="translate(37.373 41.815)" fill="#f6ccaf"/>
            <path id="Trazado_190913-2" data-name="Trazado 190913" d="M250.359,266.667v5.026a5.026,5.026,0,0,1-5.026-5.026Z" transform="translate(-206.284 -224.852)" fill="#ffdec7"/>
            <rect id="Rectángulo_42143-2" data-name="Rectángulo 42143" width="6.702" height="6.702" transform="translate(23.97 1.604)" fill="#f6ccaf"/>
            <path id="Trazado_190914-2" data-name="Trazado 190914" d="M165.026,10.667v5.026A5.026,5.026,0,0,1,160,10.667Z" transform="translate(-134.355 -9.063)" fill="#ffdec7"/>
            <rect id="Rectángulo_42144-2" data-name="Rectángulo 42144" width="6.702" height="6.702" transform="translate(52.452 4.955)" fill="#f6ccaf"/>
            <path id="Trazado_190915-2" data-name="Trazado 190915" d="M346.359,32v5.026A5.026,5.026,0,0,1,341.333,32Z" transform="translate(-287.205 -27.045)" fill="#ffdec7"/>
            <path id="Trazado_190916-2" data-name="Trazado 190916" d="M75.4,13.4a5.026,5.026,0,0,0-5.026,5.026v5.026H67.018V5.026a1.675,1.675,0,0,0-1.676-1.675H45.237a1.675,1.675,0,0,0-1.675,1.675v18.43H40.211V1.675A1.675,1.675,0,0,0,38.535,0H15.079A1.675,1.675,0,0,0,13.4,1.675V23.456H10.053V18.43A5.026,5.026,0,0,0,0,18.43V78.746a1.675,1.675,0,0,0,1.676,1.675h6.7a1.675,1.675,0,0,0,1.675-1.675V70.369H70.369v8.377a1.675,1.675,0,0,0,1.675,1.675h6.7a1.675,1.675,0,0,0,1.675-1.675V18.43A5.026,5.026,0,0,0,75.4,13.4M38.535,43.562h3.351v3.351H38.535Zm-1.676,6.7h6.7a1.675,1.675,0,0,0,1.675-1.675V43.562h13.4V60.316H21.781V43.562h13.4v5.026a1.675,1.675,0,0,0,1.676,1.675M60.316,40.211H20.105a1.675,1.675,0,0,0-1.675,1.675v18.43H10.053V33.509H70.369V60.316H61.992V41.886a1.676,1.676,0,0,0-1.676-1.675M56.965,10.053H53.615V6.7h3.351ZM46.913,6.7h3.351v5.026A1.676,1.676,0,0,0,51.939,13.4h6.7a1.675,1.675,0,0,0,1.675-1.675V6.7h3.351V23.456H46.913Zm-18.43,0H25.132V3.351h3.351ZM16.755,3.351h5.026V8.377a1.675,1.675,0,0,0,1.676,1.675h6.7a1.675,1.675,0,0,0,1.676-1.675V3.351H36.86V23.456H16.755ZM70.369,30.158H10.053V26.807H70.369ZM6.7,77.071H3.351V18.43a1.675,1.675,0,1,1,3.351,0Zm3.351-13.4H70.369v3.351H10.053Zm67.018,13.4H73.72V18.43a1.675,1.675,0,1,1,3.351,0Z" transform="translate(0.513 -0.071)"/>
            <path id="Trazado_190917-2" data-name="Trazado 190917" d="M165.026,341.333h-3.351a1.675,1.675,0,1,0,0,3.351h3.351a1.675,1.675,0,1,0,0-3.351" transform="translate(-134.355 -287.79)"/>
            <path id="Trazado_190918-2" data-name="Trazado 190918" d="M133.026,106.667h-3.351a1.675,1.675,0,1,0,0,3.351h3.351a1.675,1.675,0,1,0,0-3.351" transform="translate(-107.381 -89.984)"/>
          </g>
        </g>
      </g>
    </g>
    <g id="Grupo_142030-2" data-name="Grupo 142030" transform="translate(-8092.995 -6632.5)">
      <path id="Trazado_189770-2" data-name="Trazado 189770" d="M327.6,236.174a155.51,155.51,0,0,1-71.131,123.237l12.351,21.406,69.1,119.688A318.251,318.251,0,0,0,490.51,236.174Z" transform="translate(-256.473 -236.174)" fill="#fff59d"/>
      <path id="Trazado_189771-2" data-name="Trazado 189771" d="M327.6,236.174a155.51,155.51,0,0,1-71.131,123.237l12.351,21.406a180.15,180.15,0,0,0,83.5-144.643Z" transform="translate(-256.473 -236.174)" fill="#1b3f5e"/>
      <path id="Trazado_189772-2" data-name="Trazado 189772" d="M398.958,425.559a70.552,70.552,0,1,1,61.152-35.283,70.517,70.517,0,0,1-61.152,35.283" transform="translate(-207.554 -203.382)" fill="#d84318"/>
      <g id="Grupo_142026-2" data-name="Grupo 142026" transform="translate(126.321 86.481)">
        <path id="Trazado_189773-2" data-name="Trazado 189773" d="M364.274,409.223a65.133,65.133,0,1,1,88.973-23.841,65.134,65.134,0,0,1-88.973,23.841" transform="translate(-331.696 -287.673)" fill="#f0f8ff"/>
        <g id="Grupo_142024-2" data-name="Grupo 142024" transform="translate(20.932 20.217)">
          <g id="Grupo_142023-2" data-name="Grupo 142023" transform="translate(0 0)" clip-path="url(#clip-path-3)">
            <path id="Trazado_190919-2" data-name="Trazado 190919" d="M13.373,56H61.731A5.373,5.373,0,0,1,67.1,61.373v61.791a5.373,5.373,0,0,1-5.373,5.373H13.373A5.373,5.373,0,0,1,8,123.164V61.373A5.373,5.373,0,0,1,13.373,56" transform="translate(-6.516 -44.762)" fill="#bc6857"/>
            <path id="Trazado_190920-2" data-name="Trazado 190920" d="M286.776,272v30.9a5.373,5.373,0,0,1-5.373,5.373H272V272Z" transform="translate(-226.188 -224.494)" fill="#a14939"/>
            <path id="Trazado_190921-2" data-name="Trazado 190921" d="M61.731,437.373H13.373A5.373,5.373,0,0,1,8,432v4.03a5.373,5.373,0,0,0,5.373,5.373H61.731A5.373,5.373,0,0,0,67.1,436.03V432a5.373,5.373,0,0,1-5.373,5.373" transform="translate(-6.516 -357.628)" fill="#a14939"/>
            <path id="Trazado_190922-2" data-name="Trazado 190922" d="M44.328,123.223H6.716A6.716,6.716,0,0,1,0,116.507V54.716A6.716,6.716,0,0,1,6.716,48H55.074a6.716,6.716,0,0,1,6.716,6.716V84.268a1.343,1.343,0,0,1-2.687,0V54.716a4.03,4.03,0,0,0-4.03-4.03H6.716a4.03,4.03,0,0,0-4.03,4.03v61.791a4.03,4.03,0,0,0,4.03,4.03H44.328a1.343,1.343,0,0,1,0,2.687" transform="translate(0.141 -38.105)"/>
            <path id="Trazado_190923-2" data-name="Trazado 190923" d="M294.716,322.925h-5.373a1.343,1.343,0,0,1,0-2.687h5.373a4.03,4.03,0,0,0,4.03-4.03V289.343a1.343,1.343,0,1,1,2.687,0v26.865a6.717,6.717,0,0,1-6.716,6.716" transform="translate(-239.501 -237.807)"/>
            <rect id="Rectángulo_42146-2" data-name="Rectángulo 42146" width="49.548" height="62.586" transform="translate(6.519 15.647)" fill="#eaf2ff"/>
            <path id="Trazado_190924-2" data-name="Trazado 190924" d="M281.4,272v30.9H272V273.343A1.343,1.343,0,0,1,273.343,272Z" transform="translate(-226.188 -224.494)" fill="#c1d1f7"/>
            <rect id="Rectángulo_42147-2" data-name="Rectángulo 42147" width="49.548" height="3.912" transform="translate(6.519 74.321)" fill="#c1d1f7"/>
            <path id="Trazado_190925-2" data-name="Trazado 190925" d="M81.7,144.477H33.343A1.343,1.343,0,0,1,32,143.134V81.343A1.343,1.343,0,0,1,33.343,80H81.7a1.343,1.343,0,0,1,1.343,1.343v61.791a1.343,1.343,0,0,1-1.343,1.343m-47.015-2.687H80.358v-59.1H34.687Z" transform="translate(-26.486 -64.732)"/>
            <rect id="Rectángulo_42148-2" data-name="Rectángulo 42148" width="26.078" height="11.735" transform="translate(18.254 7.823)" fill="#e9a648"/>
            <rect id="Rectángulo_42149-2" data-name="Rectángulo 42149" width="26.078" height="3.912" transform="translate(18.254 15.647)" fill="#d08840"/>
            <path id="Trazado_190926-2" data-name="Trazado 190926" d="M124.209,45.433H97.343A1.343,1.343,0,0,1,96,44.089V33.343A1.343,1.343,0,0,1,97.343,32h26.866a1.343,1.343,0,0,1,1.343,1.343V44.089a1.343,1.343,0,0,1-1.343,1.343M98.687,42.746h24.179v-8.06H98.687Z" transform="translate(-79.74 -24.792)"/>
            <path id="Trazado_190927-2" data-name="Trazado 190927" d="M156.089,8.06H145.343A1.343,1.343,0,0,1,144,6.716a6.716,6.716,0,0,1,13.433,0,1.343,1.343,0,0,1-1.343,1.343m-9.173-2.687h7.6a4.03,4.03,0,0,0-7.6,0" transform="translate(-119.68 1.835)"/>
            <rect id="Rectángulo_42150-2" data-name="Rectángulo 42150" width="35.205" height="35.205" transform="translate(50.852 50.852)" fill="#e0c3aa"/>
            <rect id="Rectángulo_42151-2" data-name="Rectángulo 42151" width="35.205" height="3.912" transform="translate(50.852 82.145)" fill="#d0a37f"/>
            <path id="Trazado_190928-2" data-name="Trazado 190928" d="M324.268,325.612H289.343A1.343,1.343,0,0,1,288,324.268V289.343A1.343,1.343,0,0,1,289.343,288h34.925a1.343,1.343,0,0,1,1.343,1.343v34.925a1.343,1.343,0,0,1-1.343,1.343m-33.582-2.686h32.239V290.687H290.687Z" transform="translate(-239.501 -237.807)"/>
            <rect id="Rectángulo_42152-2" data-name="Rectángulo 42152" width="9.127" height="11.735" transform="translate(62.587 50.852)" fill="#f6edc8"/>
            <path id="Trazado_190929-2" data-name="Trazado 190929" d="M372.089,301.433H361.343A1.343,1.343,0,0,1,360,300.089V289.343A1.343,1.343,0,0,1,361.343,288h10.746a1.343,1.343,0,0,1,1.343,1.343v10.746a1.343,1.343,0,0,1-1.343,1.343m-9.4-2.687h8.06v-8.06h-8.06Z" transform="translate(-299.412 -237.807)"/>
            <rect id="Rectángulo_42153-2" data-name="Rectángulo 42153" width="7.823" height="6.519" transform="translate(57.371 73.018)" fill="#f6f6f6"/>
            <path id="Trazado_190930-2" data-name="Trazado 190930" d="M337.4,425.4h-8.06A1.343,1.343,0,0,1,328,424.06v-6.716A1.343,1.343,0,0,1,329.343,416h8.06a1.343,1.343,0,0,1,1.343,1.343v6.716A1.343,1.343,0,0,1,337.4,425.4m-6.716-2.686h5.373v-4.03h-5.373Z" transform="translate(-272.785 -344.314)"/>
            <path id="Trazado_190931-2" data-name="Trazado 190931" d="M437.373,458.686h-4.03a1.343,1.343,0,1,1,0-2.686h4.03a1.343,1.343,0,1,1,0,2.686" transform="translate(-359.322 -377.598)"/>
            <path id="Trazado_190932-2" data-name="Trazado 190932" d="M437.373,426.686h-4.03a1.343,1.343,0,1,1,0-2.686h4.03a1.343,1.343,0,1,1,0,2.686" transform="translate(-359.322 -350.971)"/>
            <path id="Trazado_190933-2" data-name="Trazado 190933" d="M83.076,159.663l-2.687-2.687a1.344,1.344,0,0,1,1.9-1.9l1.736,1.738,4.423-4.424a1.344,1.344,0,1,1,1.9,1.9l-5.373,5.373a1.343,1.343,0,0,1-1.9,0h0" transform="translate(-66.423 -124.639)"/>
            <path id="Trazado_190934-2" data-name="Trazado 190934" d="M186.806,178.687H169.343a1.343,1.343,0,1,1,0-2.687h17.463a1.343,1.343,0,1,1,0,2.687" transform="translate(-139.65 -144.613)"/>
            <path id="Trazado_190935-2" data-name="Trazado 190935" d="M83.076,231.663l-2.687-2.687a1.344,1.344,0,0,1,1.9-1.9l1.736,1.738,4.423-4.424a1.344,1.344,0,0,1,1.9,1.9l-5.373,5.373a1.343,1.343,0,0,1-1.9,0h0" transform="translate(-66.423 -184.549)"/>
            <path id="Trazado_190936-2" data-name="Trazado 190936" d="M186.806,250.687H169.343a1.343,1.343,0,1,1,0-2.687h17.463a1.343,1.343,0,1,1,0,2.687" transform="translate(-139.65 -204.523)"/>
            <path id="Trazado_190937-2" data-name="Trazado 190937" d="M83.076,303.663l-2.687-2.687a1.344,1.344,0,0,1,1.9-1.9l1.736,1.738,4.423-4.424a1.344,1.344,0,1,1,1.9,1.9l-5.373,5.373a1.343,1.343,0,0,1-1.9,0h0" transform="translate(-66.423 -244.46)"/>
            <path id="Trazado_190938-2" data-name="Trazado 190938" d="M182.776,322.686H169.343a1.343,1.343,0,1,1,0-2.687h13.433a1.343,1.343,0,1,1,0,2.687" transform="translate(-139.65 -264.434)"/>
            <path id="Trazado_190939-2" data-name="Trazado 190939" d="M83.076,375.663l-2.687-2.687a1.344,1.344,0,0,1,1.9-1.9l1.736,1.738,4.423-4.424a1.344,1.344,0,0,1,1.9,1.9l-5.373,5.373a1.343,1.343,0,0,1-1.9,0h0" transform="translate(-66.423 -304.37)"/>
            <path id="Trazado_190940-2" data-name="Trazado 190940" d="M182.776,394.687H169.343a1.343,1.343,0,1,1,0-2.687h13.433a1.343,1.343,0,1,1,0,2.687" transform="translate(-139.65 -324.344)"/>
            <path id="Trazado_190941-2" data-name="Trazado 190941" d="M354.686,240.84V249.4H352V240Z" transform="translate(-292.755 -197.867)"/>
            <rect id="Rectángulo_42154-2" data-name="Rectángulo 42154" width="10.431" height="2.608" transform="translate(40.421 82.145)"/>
          </g>
        </g>
      </g>
    </g>
    <text id="Almacenamiento-2" data-name="Almacenamiento" transform="translate(-7993 -6591)" fill="#12263f" font-size="16" font-family="Roboto-Bold, Roboto" font-weight="700"><tspan x="0" y="0">Almacenamiento</tspan></text>
    <text id="Inventarios-2" data-name="Inventarios" transform="translate(-8402 -6591)" fill="#12263f" font-size="16" font-family="Roboto-Bold, Roboto" font-weight="700"><tspan x="0" y="0">Inventarios</tspan></text>
    <text id="Adquisición_compras-2" data-name="Adquisición/compras" transform="translate(-8222 -6797)" fill="#12263f" font-size="16" font-family="Roboto-Bold, Roboto" font-weight="700"><tspan x="0" y="0">Adquisición/compras</tspan></text>
    <g id="Grupo_142031-2" data-name="Grupo 142031" transform="translate(-9078 -7968)">
      <circle id="Elipse_5128-4" data-name="Elipse 5128" cx="26" cy="26" r="26" transform="translate(1001 1090)" fill="#d84318"/>
      <circle id="Elipse_5129-4" data-name="Elipse 5129" cx="22.5" cy="22.5" r="22.5" transform="translate(1005 1094)" fill="#f0f8ff"/>
    </g>
    <g id="Grupo_142032-2" data-name="Grupo 142032" transform="translate(-9034 -7557)">
      <circle id="Elipse_5128-5" data-name="Elipse 5128" cx="26" cy="26" r="26" transform="translate(1001 1090)" fill="#d84318"/>
      <circle id="Elipse_5129-5" data-name="Elipse 5129" cx="22.5" cy="22.5" r="22.5" transform="translate(1005 1094)" fill="#f0f8ff"/>
    </g>
    <g id="Grupo_142033-2" data-name="Grupo 142033" transform="translate(-9316 -7557)">
      <circle id="Elipse_5128-6" data-name="Elipse 5128" cx="26" cy="26" r="26" transform="translate(1001 1090)" fill="#d84318"/>
      <circle id="Elipse_5129-6" data-name="Elipse 5129" cx="22.5" cy="22.5" r="22.5" transform="translate(1005 1094)" fill="#f0f8ff"/>
    </g>
  </g>
</svg>
