<svg xmlns="http://www.w3.org/2000/svg" width="1240" height="342" viewBox="0 0 1240 342">
  <g id="Grupo_149681" data-name="Grupo 149681" transform="translate(8471 7382)">
    <g id="Grupo_149679" data-name="Grupo 149679" transform="translate(-8651 -9953)">
      <path id="Polígono_5" data-name="Polígono 5" d="M124.368,21.064a14,14,0,0,1,24.263,0L260.912,216.013A14,14,0,0,1,248.781,237H24.219a14,14,0,0,1-12.132-20.987Z" transform="translate(1210 2808) rotate(180)" fill="#fff59d"/>
      <path id="Polígono_6" data-name="Polígono 6" d="M124.879,20.968a14,14,0,0,1,24.241,0L261.857,215.994A14,14,0,0,1,249.736,237H24.264a14,14,0,0,1-12.121-21.006Z" transform="translate(937 2808) rotate(180)" fill="#fff59d"/>
      <path id="Polígono_9" data-name="Polígono 9" d="M124.368,21.064a14,14,0,0,1,24.263,0L260.912,216.013A14,14,0,0,1,248.781,237H24.219a14,14,0,0,1-12.132-20.987Z" transform="translate(527 2612)" fill="#d2e1f1"/>
      <path id="Polígono_7" data-name="Polígono 7" d="M124.368,21.064a14,14,0,0,1,24.263,0L260.912,216.013A14,14,0,0,1,248.781,237H24.219a14,14,0,0,1-12.132-20.987Z" transform="translate(663 2808) rotate(180)" fill="#fff59d"/>
      <path id="Polígono_8" data-name="Polígono 8" d="M124.879,20.968a14,14,0,0,1,24.241,0L261.857,215.994A14,14,0,0,1,249.736,237H24.264a14,14,0,0,1-12.121-21.006Z" transform="translate(800 2612)" fill="#d2e1f1"/>
      <text id="Establecer" transform="translate(448 2615)" fill="#12263f" font-size="32" font-family="Roboto-Black, Roboto" font-weight="800"><tspan x="0" y="34">Establecer</tspan></text>
      <text id="Ejecutar" transform="translate(604 2762)" fill="#12263f" font-size="32" font-family="Roboto-Black, Roboto" font-weight="800"><tspan x="0" y="34">Ejecutar</tspan></text>
      <text id="Evaluar" transform="translate(884 2762)" fill="#12263f" font-size="32" font-family="Roboto-Black, Roboto" font-weight="800"><tspan x="0" y="34">Evaluar</tspan></text>
      <text id="Comunicar" transform="translate(720 2615)" fill="#12263f" font-size="32" font-family="Roboto-Black, Roboto" font-weight="800"><tspan x="0" y="34">Comunicar</tspan></text>
      <text id="Direccionar" transform="translate(990 2615)" fill="#12263f" font-size="32" font-family="Roboto-Black, Roboto" font-weight="800"><tspan x="0" y="34">Direccionar</tspan></text>
    </g>
    <g id="Grupo_149680" data-name="Grupo 149680" transform="translate(-8871 -12942.991)">
      <rect id="Rectángulo_33775" data-name="Rectángulo 33775" width="1240" height="40" transform="translate(400 5862.991)" fill="#e8e8e8"/>
      <text id="Fuente:_Elaboración_propia_del_experto" data-name="Fuente: Elaboración propia del experto" transform="translate(422 5873.991)" fill="#12263f" font-size="14" font-family="Roboto-Regular, Roboto"><tspan x="0" y="15">Fuente: Elaboración propia del experto</tspan></text>
    </g>
  </g>
</svg>
