<svg xmlns="http://www.w3.org/2000/svg" width="400.341" height="93.685" viewBox="0 0 400.341 93.685">
  <g id="Grupo_149960" data-name="Grupo 149960" transform="translate(-3753.659 6121.101)">
    <g id="Grupo_149959" data-name="Grupo 149959" transform="translate(4162.626 -6027.416) rotate(180)">
      <path id="Trazado_114972" data-name="Trazado 114972" d="M749.446,386.057H729.855s-.709,18.846-.523,18.685-.175,0-.175,0L742.405,432.9l-13.414,28.509h.341l-.16,18.333h20.274l22.04-46.842Z" transform="translate(-720.365 -386.057)" fill="#e8e8e8"/>
      <path id="Trazado_114973" data-name="Trazado 114973" d="M765.732,386.057H736.651L758.69,432.9l-22.04,46.842h29.081l22.04-46.842Z" transform="translate(-685.53 -386.057)" fill="#e8e8e8"/>
      <path id="Trazado_114974" data-name="Trazado 114974" d="M782.017,386.057H752.936l22.04,46.842-22.04,46.842h29.081l22.04-46.842Z" transform="translate(-650.694 -386.057)" fill="#e8e8e8"/>
      <path id="Trazado_114975" data-name="Trazado 114975" d="M798.3,386.057H769.221l22.04,46.842-22.04,46.842H798.3l22.04-46.842Z" transform="translate(-615.858 -386.057)" fill="#e8e8e8"/>
      <path id="Trazado_114976" data-name="Trazado 114976" d="M814.587,386.057H785.506l22.04,46.842-22.04,46.842h29.081l22.04-46.842Z" transform="translate(-581.022 -386.057)" fill="#e8e8e8"/>
      <path id="Trazado_114977" data-name="Trazado 114977" d="M830.872,386.057H801.791l22.04,46.842-22.04,46.842h29.081l22.04-46.842Z" transform="translate(-546.187 -386.057)" fill="#e8e8e8"/>
      <path id="Trazado_114978" data-name="Trazado 114978" d="M847.158,386.057H818.076l22.04,46.842-22.04,46.842h29.082L869.2,432.9Z" transform="translate(-511.351 -386.057)" fill="#e8e8e8"/>
      <path id="Trazado_114979" data-name="Trazado 114979" d="M863.443,386.057H834.362L856.4,432.9l-22.04,46.842h29.081l22.04-46.842Z" transform="translate(-476.516 -386.057)" fill="#e8e8e8"/>
    </g>
  </g>
</svg>
