<?xml version="1.0" encoding="utf-8"?>
<!-- Generator: Adobe Illustrator 25.4.1, SVG Export Plug-In . SVG Version: 6.00 Build 0)  -->
<svg version="1.1" id="Capa_1" xmlns="http://www.w3.org/2000/svg" xmlns:xlink="http://www.w3.org/1999/xlink" x="0px" y="0px"
	 viewBox="0 0 692.9 274.8" style="enable-background:new 0 0 692.9 274.8;" xml:space="preserve">
<style type="text/css">
	.st0{fill:#FFF59D;}
	.st1{fill:#12263F;}
	.st2{font-family:'Roboto-Bold';}
	.st3{font-size:24px;}
	.st4{fill:none;}
	.st5{clip-path:url(#SVGID_00000115473387370142864240000015562693818925281673_);}
	.st6{fill-rule:evenodd;clip-rule:evenodd;fill:#A79BA7;}
	.st7{fill-rule:evenodd;clip-rule:evenodd;fill:#837683;}
	.st8{fill-rule:evenodd;clip-rule:evenodd;fill:#ECEFF1;}
	.st9{fill-rule:evenodd;clip-rule:evenodd;fill:#D1D1D6;}
	.st10{fill-rule:evenodd;clip-rule:evenodd;fill:#ECBA78;}
	.st11{fill-rule:evenodd;clip-rule:evenodd;fill:#E3A76F;}
	.st12{fill-rule:evenodd;clip-rule:evenodd;fill:#FE646F;}
	.st13{fill-rule:evenodd;clip-rule:evenodd;fill:#FD4755;}
	.st14{fill-rule:evenodd;clip-rule:evenodd;fill:#FFE177;}
	.st15{fill-rule:evenodd;clip-rule:evenodd;fill:#FFD064;}
	.st16{fill-rule:evenodd;clip-rule:evenodd;fill:#FFC338;}
	.st17{fill-rule:evenodd;clip-rule:evenodd;fill:#F5B829;}
	.st18{fill-rule:evenodd;clip-rule:evenodd;}
	.st19{fill:#FFFFFF;}
	.st20{clip-path:url(#SVGID_00000124879465524362723120000014338171477561078913_);}
	.st21{clip-path:url(#SVGID_00000171705900327284385760000012862256830449337514_);}
	.st22{fill:#39B54A;}
	.st23{fill:#F7931E;}
	.st24{fill:#5ABDE0;}
	.st25{fill:#EA4E5A;}
	.st26{fill:#E6E6E6;}
	.st27{fill:#736357;}
	.st28{opacity:0.1;}
	.st29{clip-path:url(#SVGID_00000127021843002509627790000015090670041875702661_);}
	.st30{fill:#EDBA94;}
	.st31{clip-path:url(#SVGID_00000135677499004669032230000007911625345647111318_);}
	.st32{fill:#E5A87F;}
	.st33{fill:#9DC6FB;}
	.st34{fill:#80B4FB;}
	.st35{fill:#F1F6F7;}
	.st36{fill:#FD6930;}
	.st37{fill:#FFCEBF;}
	.st38{fill:#FFB09E;}
	.st39{fill:#ADE194;}
	.st40{fill:#7DCE6F;}
	.st41{clip-path:url(#SVGID_00000031174064225912966180000000212047994329740427_);}
	.st42{fill:#F6F6F6;}
	.st43{fill:#DCDCDC;}
	.st44{fill:#A8EDFD;}
	.st45{fill:#8BD4DE;}
	.st46{fill:#E0C3AA;}
	.st47{fill:#6FC3E2;}
	.st48{fill:#A6806F;}
	.st49{fill:#D0A37F;}
	.st50{fill:#5F79A5;}
	.st51{fill:#EAD590;}
	.st52{fill:#F1CB66;}
</style>
<g id="Grupo_149718" transform="translate(-312.315 7517)">
	<g id="Grupo_142132" transform="translate(312.315 -7517)">
		<path id="Trazado_190805" class="st0" d="M51,0L0,88.4l51,88.4h102.1l51-88.4L153.1,0H51z"/>
		<text transform="matrix(1 0 0 1 53.71 96.861)" class="st1 st2 st3">Estándar</text>
		<g id="Grupo_142115" transform="translate(78.769 109.773)">
			<rect id="Rectángulo_42205" x="0" y="0" class="st4" width="47.4" height="47.4"/>
			<g id="Grupo_142114" transform="translate(1.183)">
				<g>
					<defs>
						<rect id="SVGID_1_" x="0" y="0" width="44.1" height="47.4"/>
					</defs>
					<clipPath id="SVGID_00000084519333849522129670000011174111550115738554_">
						<use xlink:href="#SVGID_1_"  style="overflow:visible;"/>
					</clipPath>
					<g id="Grupo_142113" style="clip-path:url(#SVGID_00000084519333849522129670000011174111550115738554_);">
						<path id="Trazado_191072" class="st6" d="M29.9,4.2c1,0,1.8,0.8,1.8,1.8v32.7c0,1-0.8,1.8-1.8,1.8H2.5c-1,0-1.8-0.8-1.8-1.8
							V5.9c0-1,0.8-1.8,1.8-1.8L29.9,4.2L29.9,4.2z"/>
						<path id="Trazado_191073" class="st7" d="M29.9,4.2c1,0,1.8,0.8,1.8,1.8v32.7c0,1-0.8,1.8-1.8,1.8h-3.3V4.2H29.9z"/>
						<path id="Trazado_191074" class="st8" d="M28.4,6.6H4C3.6,6.6,3.2,7,3.2,7.5v29.7C3.2,37.6,3.6,38,4,38h24.3
							c0.5,0,0.8-0.4,0.8-0.8V7.5C29.2,7,28.8,6.6,28.4,6.6"/>
						<path id="Trazado_191075" class="st9" d="M28.4,6.6h-1.8V38h1.8c0.5,0,0.8-0.4,0.8-0.8V7.5C29.2,7,28.8,6.6,28.4,6.6z"/>
						<path id="Trazado_191076" class="st10" d="M10.2,3.1h3.1c0.4-1.6,2-2.6,3.7-2.2c1.1,0.3,2,1.1,2.2,2.2h3.1
							c0.5,0,0.8,0.4,0.8,0.8v3c0,0.5-0.4,0.8-0.8,0.8h-12c-0.5,0-0.8-0.4-0.8-0.8v-3C9.4,3.4,9.7,3.1,10.2,3.1z"/>
						<path id="Trazado_191077" class="st11" d="M22.2,3.1c0.5,0,0.8,0.4,0.8,0.8v3c0,0.5-0.4,0.8-0.8,0.8h-12
							c-0.5,0-0.8-0.4-0.8-0.8h12c0.5,0,0.8-0.4,0.8-0.8L22.2,3.1L22.2,3.1z"/>
						<path id="Trazado_191078" class="st12" d="M26.1,36.9c1.7,1.1,3.5,2,5.4,2.9l-3.1,6.6c-0.1,0.2-0.3,0.3-0.5,0.2
							c-0.1,0-0.1-0.1-0.2-0.2l-1.5-2.6l-3,0.5c-0.2,0-0.4-0.1-0.4-0.3c0-0.1,0-0.2,0-0.2L26.1,36.9z"/>
						<path id="Trazado_191079" class="st13" d="M26.1,36.9c0.3,0.1,0.5,0.3,0.7,0.4l-3,6.5c-0.1,0.1,0,0.3,0,0.4c0,0,0,0,0,0
							l-0.6,0.1c-0.2,0-0.4-0.1-0.4-0.3c0-0.1,0-0.2,0-0.2L26.1,36.9z M28.6,46.2l-1.4-2.5l-0.8,0.1l1.5,2.6
							c0.1,0.2,0.3,0.2,0.5,0.1c0.1,0,0.1-0.1,0.2-0.2L28.6,46.2z"/>
						<path id="Trazado_191080" class="st12" d="M39.2,35.8c-1.7,1.1-3.5,2-5.4,2.9l3,6.6c0.1,0.2,0.3,0.3,0.5,0.2
							c0.1,0,0.1-0.1,0.2-0.2l1.5-2.6l3,0.5c0.2,0,0.4-0.1,0.4-0.3c0-0.1,0-0.2,0-0.2L39.2,35.8z"/>
						<path id="Trazado_191081" class="st13" d="M39.2,35.8c-0.3,0.1-0.5,0.3-0.7,0.4l3,6.5c0.1,0.1,0,0.3,0,0.4c0,0,0,0,0,0
							l0.6,0.1c0.2,0,0.4-0.1,0.4-0.3c0-0.1,0-0.2,0-0.2L39.2,35.8z M36.8,45.1l1.4-2.5l0.8,0.1l-1.5,2.6c-0.1,0.2-0.3,0.2-0.5,0.1
							c-0.1,0-0.1-0.1-0.2-0.2L36.8,45.1z"/>
						<path id="Trazado_191082" class="st14" d="M43.4,30.3c-0.1-0.5-0.7-1-0.8-1.6c-0.1-0.6,0.3-1.4,0.2-1.9s-1-0.8-1.3-1.4
							s-0.1-1.4-0.5-1.9s-1.3-0.4-1.7-0.8s-0.6-1.3-1.1-1.6s-1.3,0-1.9-0.2s-1-1-1.6-1.1s-1.2,0.5-1.9,0.5s-1.3-0.6-1.9-0.5
							s-1,0.9-1.6,1.1s-1.4-0.1-1.9,0.2s-0.6,1.2-1.1,1.6s-1.4,0.4-1.7,0.8s-0.2,1.3-0.5,1.9s-1.1,0.8-1.3,1.4s0.3,1.3,0.1,1.9
							c-0.1,0.6-0.9,1.2-0.8,1.9c0.1,0.5,0.7,1,0.8,1.6c0.1,0.6-0.3,1.4-0.2,1.9s1,0.8,1.3,1.4s0.1,1.4,0.5,1.9s1.3,0.4,1.7,0.8
							s0.6,1.3,1.1,1.6s1.3,0,1.9,0.2s1,1,1.6,1.1s1.2-0.5,1.9-0.5s1.3,0.6,1.9,0.5s1-0.9,1.6-1.1s1.4,0.1,1.9-0.2s0.6-1.2,1.1-1.6
							s1.4-0.4,1.7-0.8s0.2-1.3,0.5-1.9s1.1-0.8,1.3-1.4s-0.3-1.3-0.1-1.9C42.7,31.5,43.5,30.9,43.4,30.3z"/>
						<path id="Trazado_191083" class="st15" d="M43.4,30.3c-0.1-0.5-0.7-1-0.8-1.6c-0.1-0.6,0.3-1.4,0.2-1.9s-1-0.8-1.3-1.4
							s-0.1-1.4-0.5-1.9s-1.3-0.4-1.7-0.8s-0.6-1.3-1.1-1.6c-0.4-0.1-0.8-0.2-1.3-0.1c0.1,0,0.2,0.1,0.3,0.1
							c0.5,0.3,0.6,1.2,1.1,1.6s1.4,0.4,1.7,0.8s0.2,1.3,0.5,1.9s1.1,0.8,1.3,1.4s-0.3,1.3-0.2,1.9c0.1,0.6,0.7,1.1,0.8,1.6
							c0.1,0.7-0.7,1.2-0.8,1.9c-0.1,0.6,0.3,1.4,0.1,1.9s-1,0.8-1.3,1.4s-0.1,1.4-0.5,1.9s-1.3,0.4-1.7,0.8s-0.6,1.3-1.1,1.6
							c-0.1,0.1-0.2,0.1-0.3,0.1c0.4,0.1,0.8,0,1.2-0.1c0.5-0.3,0.6-1.2,1.1-1.6s1.4-0.4,1.7-0.8s0.2-1.3,0.5-1.9s1.1-0.8,1.3-1.4
							s-0.3-1.3-0.1-1.9C42.7,31.5,43.5,30.9,43.4,30.3 M36.3,21c-0.1,0-0.2,0-0.2-0.1c-0.6-0.2-1-1-1.6-1.1c-0.2,0-0.4,0-0.7,0.1
							c0.5,0.2,0.8,0.8,1.3,1C35.5,21,35.9,21,36.3,21L36.3,21z M32.2,20.2c-0.4-0.2-0.9-0.4-1.4-0.4c-0.1,0-0.2,0-0.3,0.1
							c0.4,0.2,0.8,0.3,1.2,0.4C31.9,20.3,32,20.3,32.2,20.2L32.2,20.2z M28.1,21c-0.1,0-0.3,0-0.4,0C27.8,21,27.9,21,28.1,21
							 M27.6,39.8c0.1,0,0.3,0,0.4,0C27.9,39.8,27.8,39.8,27.6,39.8 M30.5,40.9c0.1,0,0.2,0.1,0.3,0.1c0.4,0.1,0.9-0.2,1.4-0.4
							c-0.1-0.1-0.3-0.1-0.5-0.1C31.3,40.5,30.9,40.7,30.5,40.9 M33.9,40.9c0.2,0.1,0.4,0.1,0.7,0.1c0.6-0.1,1-0.9,1.6-1.1
							c0.1,0,0.1,0,0.2-0.1c-0.4,0-0.8,0-1.1,0.1C34.7,40.1,34.3,40.6,33.9,40.9"/>
						<path id="Trazado_191084" class="st16" d="M30.2,23.9c3.5-1.5,7.5,0.2,9,3.7c1.5,3.5-0.2,7.5-3.7,9c-3.5,1.5-7.5-0.2-9-3.7
							c0,0,0,0,0,0C25,29.4,26.7,25.3,30.2,23.9"/>
						<path id="Trazado_191085" class="st17" d="M32.8,23.4c-0.2,0-0.3,0-0.5,0c3.8,0.3,6.6,3.6,6.3,7.4c-0.3,3.4-2.9,6.1-6.3,6.3
							c0.2,0,0.3,0,0.5,0c3.8,0,6.9-3.1,6.9-6.9C39.7,26.4,36.6,23.4,32.8,23.4L32.8,23.4z"/>
						<path id="Trazado_191086" class="st8" d="M28.6,31.5c-0.4-0.4-0.5-1.1-0.1-1.6c0.4-0.4,1.1-0.5,1.6-0.1c0,0,0,0,0.1,0.1
							l1.6,1.6l3.8-3.8c0.5-0.4,1.2-0.3,1.6,0.1c0.3,0.4,0.4,1,0,1.4c-2.1,2.1-2.4,2.5-4.6,4.6c-0.4,0.4-1.1,0.4-1.6,0L28.6,31.5z"
							/>
						<path id="Trazado_191087" class="st18" d="M36.1,28.3l-3.8,3.8c-0.1,0.1-0.3,0.2-0.5,0.2l0,0c-0.2,0-0.4-0.1-0.5-0.2l-1.6-1.6
							c-0.1-0.1-0.3-0.1-0.5,0c-0.1,0.1-0.1,0.1-0.1,0.2c0,0.1,0,0.2,0.1,0.2l2.4,2.4c0.1,0.1,0.3,0.1,0.5,0
							c1.2-1.2,1.8-1.8,2.5-2.6c0.5-0.5,1.1-1.1,2-2.1c0.1-0.1,0.1-0.1,0.1-0.2c0-0.1,0-0.2-0.1-0.2C36.4,28.1,36.2,28.1,36.1,28.3
							C36.1,28.3,36.1,28.3,36.1,28.3z M37.6,27.2c0.4,0.3,0.6,0.8,0.5,1.3c0,0.5-0.2,1-0.5,1.3c-0.9,0.9-1.5,1.5-2,2.1
							c-0.7,0.7-1.3,1.4-2.5,2.6c-0.7,0.7-1.9,0.7-2.6,0l-2.4-2.4c-0.7-0.7-0.7-1.9,0-2.6c0.7-0.7,1.9-0.7,2.6,0l1,1l3.2-3.3
							C35.7,26.5,36.9,26.5,37.6,27.2C37.6,27.2,37.6,27.2,37.6,27.2 M39,30.2c0,3.4-2.7,6.1-6.1,6.1c-3.4,0-6.1-2.7-6.1-6.1
							c0-3.4,2.7-6.1,6.1-6.1l0,0C36.2,24.1,38.9,26.9,39,30.2 M40.5,30.2c0,4.2-3.4,7.6-7.6,7.6c-4.2,0-7.6-3.4-7.6-7.6
							s3.4-7.6,7.6-7.6c0,0,0,0,0,0C37.1,22.6,40.5,26,40.5,30.2 M42.7,30.2c-0.1,0.2-0.2,0.4-0.3,0.5c-0.2,0.3-0.4,0.7-0.5,1.1
							c0,0.4,0,0.8,0.1,1.2c0.1,0.2,0.1,0.4,0.1,0.6c-0.1,0.2-0.3,0.3-0.4,0.4c-0.3,0.2-0.6,0.5-0.8,0.8c-0.2,0.4-0.3,0.7-0.3,1.1
							c0,0.2-0.1,0.4-0.1,0.6c-0.2,0.1-0.4,0.2-0.5,0.2c-0.4,0.1-0.7,0.3-1.1,0.5c-0.3,0.3-0.5,0.6-0.7,1c-0.1,0.2-0.2,0.4-0.3,0.5
							c-0.2,0-0.4,0-0.6,0c-0.4,0-0.8,0-1.2,0.1c-0.4,0.2-0.7,0.4-1,0.7c-0.1,0.2-0.3,0.3-0.5,0.4c-0.2,0-0.4-0.1-0.6-0.2
							c-0.3-0.2-0.7-0.3-1.1-0.3l0,0c-0.4,0-0.8,0.1-1.1,0.3c-0.2,0.1-0.4,0.2-0.6,0.2c-0.2-0.1-0.3-0.2-0.5-0.4
							c-0.3-0.3-0.6-0.5-1-0.7c-0.3-0.1-0.5-0.1-0.8-0.1c-0.1,0-0.3,0-0.4,0c-0.2,0-0.4,0-0.6,0c-0.1-0.1-0.2-0.3-0.3-0.5
							c-0.2-0.4-0.4-0.7-0.7-1c-0.3-0.2-0.7-0.4-1.1-0.5c-0.2,0-0.4-0.1-0.6-0.2c-0.1-0.2-0.1-0.4-0.1-0.6c0-0.8-0.4-1.6-1.1-2
							c-0.2-0.1-0.3-0.2-0.5-0.4c0-0.1,0-0.2,0-0.2c0.1-0.1,0.1-0.3,0.1-0.4c0,0,0-0.1,0-0.1c0.1-0.3,0.1-0.7,0.1-1
							c-0.1-0.4-0.3-0.8-0.5-1.1c-0.1-0.1-0.2-0.3-0.3-0.5c0.1-0.1,0.1-0.2,0.1-0.3c0.1-0.1,0.1-0.2,0.2-0.3
							c0.2-0.3,0.4-0.7,0.5-1.1c0-0.4,0-0.8-0.1-1.2c-0.1-0.2-0.1-0.4-0.1-0.6c0.1-0.2,0.3-0.3,0.4-0.4c0.3-0.2,0.6-0.5,0.8-0.8
							c0.1-0.2,0.2-0.4,0.2-0.6c0.1-0.1,0.1-0.3,0.1-0.4c0-0.1,0-0.1,0-0.2c0-0.2,0.1-0.4,0.1-0.5c0.2-0.1,0.4-0.2,0.5-0.2
							c0.4-0.1,0.8-0.3,1.1-0.5c0.3-0.3,0.5-0.6,0.7-1c0.1-0.2,0.2-0.4,0.3-0.5c0.2,0,0.4,0,0.6,0c0.2,0,0.3,0,0.5,0
							c0.1,0,0.1,0,0.2,0c0.2,0,0.3,0,0.4-0.1c0,0,0,0,0,0c0.4-0.2,0.7-0.4,1-0.7c0.1-0.2,0.3-0.3,0.5-0.4c0,0,0.1,0,0.1,0
							c0.1,0.1,0.3,0.2,0.5,0.2c0,0,0,0,0,0c0.4,0.2,0.7,0.3,1.1,0.3c0.4,0,0.8-0.1,1.1-0.3c0.2-0.1,0.4-0.2,0.6-0.2
							c0.2,0.1,0.3,0.2,0.5,0.4c0.3,0.3,0.6,0.5,1,0.7c0.4,0.1,0.8,0.2,1.2,0.1c0.2,0,0.4,0,0.6,0c0.1,0.1,0.2,0.3,0.3,0.5
							c0.2,0.4,0.4,0.7,0.7,1c0.3,0.2,0.7,0.4,1.1,0.5c0.2,0,0.4,0.1,0.6,0.2c0.1,0.2,0.1,0.4,0.1,0.6c0,0.4,0.1,0.8,0.3,1.1
							c0.2,0.3,0.5,0.6,0.8,0.8c0.2,0.1,0.3,0.2,0.4,0.4c0,0.2,0,0.4-0.1,0.6c-0.1,0.4-0.1,0.8-0.1,1.2c0.1,0.4,0.3,0.8,0.5,1.1
							C42.5,29.9,42.6,30.1,42.7,30.2L42.7,30.2z M41.5,42.1l-1.6-3.8c-0.1,0-0.1,0-0.1,0.1c-0.1,0.2-0.2,0.3-0.3,0.5
							c-0.2,0.4-0.5,0.8-0.9,1.1c-0.4,0.2-0.9,0.3-1.4,0.2c-0.2,0-0.4,0-0.6,0c-0.2,0.1-0.3,0.2-0.5,0.4l-0.1,0.1l1.4,3.2l1.2-1.9
							c0.2-0.3,0.5-0.4,0.8-0.3L41.5,42.1z M30.2,41c-0.2-0.1-0.3-0.3-0.5-0.4c-0.1-0.1-0.3-0.3-0.5-0.4c-0.2,0-0.4-0.1-0.6,0
							c-0.5,0.1-1,0-1.4-0.2c-0.4-0.3-0.7-0.6-0.9-1.1c0,0,0-0.1-0.1-0.1l-2,4.3l2.2-0.4c0.3-0.1,0.6,0.1,0.8,0.4l1.1,1.9L30.2,41z
							 M24.2,39.7l0.4-0.9H3.2c-0.4,0-0.8-0.3-0.8-0.8V6.6c0-0.4,0.3-0.8,0.8-0.8c0,0,0,0,0,0h5.4V4.9H2.5c-0.6,0-1,0.5-1,1v32.7
							c0,0.6,0.5,1,1,1c0,0,0,0,0,0L24.2,39.7L24.2,39.7z M10.2,6.9V3.8h3.1c0.4,0,0.7-0.2,0.7-0.6c0.3-1.2,1.5-2,2.7-1.7
							c0.8,0.2,1.5,0.8,1.7,1.7c0.1,0.3,0.4,0.6,0.7,0.6h3.1v3.1H10.2z M26.1,21.6c0,0.3-0.2,0.6-0.5,0.7c0.1,0,0.2-0.1,0.3-0.2
							c0.1-0.2,0.2-0.3,0.3-0.5c0.2-0.4,0.5-0.8,0.9-1.1c0.4-0.2,0.8-0.3,1.3-0.2V7.4h-4.6v0.3c0,0.4-0.3,0.8-0.8,0.8c0,0,0,0,0,0
							H9.4C9,8.5,8.6,8.1,8.6,7.7c0,0,0,0,0,0V7.4H4v29.8h20c-0.1-0.3-0.2-0.7-0.3-1c0-0.2-0.1-0.4-0.1-0.6
							c-0.1-0.2-0.3-0.3-0.5-0.4c-0.4-0.3-0.7-0.6-0.9-1.1c0-0.1-0.1-0.3-0.1-0.4h-6.9c-0.4,0-0.8-0.3-0.8-0.7s0.3-0.8,0.7-0.8
							c0,0,0,0,0.1,0h7.1c0,0,0-0.1,0-0.1c-0.1-0.2-0.2-0.4-0.3-0.6c-0.2-0.3-0.3-0.6-0.4-0.9h-6.4c-0.4,0-0.8-0.3-0.8-0.7
							c0-0.4,0.3-0.8,0.7-0.8c0,0,0,0,0.1,0H22c0-0.1,0.1-0.1,0.1-0.2c0.1-0.2,0.2-0.3,0.3-0.5c0-0.2,0-0.4-0.1-0.6
							c-0.1-0.5-0.2-0.9,0-1.4c0.2-0.4,0.5-0.8,0.9-1h-7.9c-0.4,0-0.8-0.3-0.8-0.7c0-0.4,0.3-0.8,0.7-0.8c0,0,0,0,0.1,0h8.6
							c0.1-0.3,0.2-0.6,0.4-0.8c0.3-0.3,0.8-0.6,1.2-0.7l0.1,0c-0.1,0-0.1,0-0.2,0H15.3c-0.4,0-0.8-0.3-0.8-0.8
							c0-0.4,0.3-0.8,0.8-0.8h10.1C25.8,20.8,26.1,21.1,26.1,21.6C26.1,21.5,26.1,21.6,26.1,21.6z M23.9,4.9h6.1c0.6,0,1,0.5,1,1
							v13.2c0,0,0,0-0.1,0c-0.3,0.1-0.6,0.2-0.9,0.4v-13c0-0.4-0.3-0.8-0.8-0.8c0,0,0,0,0,0h-5.4V4.9z M43.3,32.1
							c0,0.2,0,0.4,0.1,0.6c0.1,0.5,0.2,0.9,0,1.4c-0.2,0.4-0.5,0.8-0.9,1.1c-0.2,0.1-0.3,0.3-0.5,0.4c-0.1,0.2-0.1,0.4-0.1,0.6
							c0,0.5-0.2,0.9-0.5,1.3c-0.1,0.1-0.2,0.2-0.2,0.2l2.2,5.1c0.2,0.4,0,0.8-0.4,1c-0.1,0.1-0.3,0.1-0.5,0l-3.1-0.6l-1.7,2.7
							c-0.1,0.2-0.4,0.4-0.7,0.4h-0.1c-0.3,0-0.5-0.2-0.6-0.5l-1.9-4.5c-0.4,0-0.8-0.1-1.2-0.3c-0.2-0.1-0.4-0.2-0.6-0.2
							c-0.2,0-0.4,0.1-0.6,0.2c-0.1,0.1-0.3,0.1-0.5,0.2L29.1,47c-0.1,0.3-0.4,0.4-0.7,0.4h0c-0.3,0-0.5-0.1-0.7-0.4l-1.6-2.7
							l-3.1,0.5c-0.4,0.1-0.8-0.2-0.9-0.6c0-0.2,0-0.3,0.1-0.5l1.2-2.6H2.5c-1.4,0-2.5-1.1-2.5-2.5V5.9c0-1.4,1.1-2.5,2.5-2.5h6.1
							V3.1c0-0.4,0.3-0.8,0.8-0.8c0,0,0,0,0,0h3.4c0.8-1.9,3-2.8,5-2c0.9,0.4,1.6,1.1,2,2h3.4c0.4,0,0.8,0.3,0.8,0.8c0,0,0,0,0,0
							v0.3h6.1c1.4,0,2.5,1.1,2.5,2.5v13.6c0.1,0.1,0.2,0.1,0.4,0.1c0.2,0,0.4-0.1,0.6-0.2c0.4-0.2,0.9-0.3,1.4-0.3
							c0.5,0.1,0.9,0.4,1.2,0.7c0.1,0.1,0.3,0.3,0.5,0.4c0.2,0,0.4,0,0.6,0c0.5-0.1,1,0,1.4,0.2c0.4,0.3,0.7,0.6,0.9,1.1
							c0.1,0.2,0.2,0.4,0.3,0.5c0.2,0.1,0.4,0.2,0.6,0.2c0.5,0.1,0.9,0.3,1.2,0.7c0.3,0.4,0.4,0.8,0.5,1.3c0,0.2,0.1,0.4,0.1,0.6
							c0.1,0.2,0.3,0.3,0.4,0.4c0.4,0.3,0.7,0.6,0.9,1.1c0.1,0.5,0.1,0.9,0,1.4c-0.1,0.2-0.1,0.4-0.1,0.6c0.1,0.2,0.2,0.4,0.3,0.6
							c0.2,0.3,0.4,0.7,0.5,1c0.1,0.6-0.1,1.1-0.5,1.6C43.5,31.7,43.4,31.9,43.3,32.1 M11.3,29.3c0.3-0.3,0.8-0.3,1.1,0.1
							c0.3,0.3,0.3,0.8-0.1,1.1L9,33.5c-0.1,0.1-0.3,0.2-0.5,0.2c-0.2,0-0.4-0.1-0.5-0.2l-1.4-1.4c-0.3-0.3-0.3-0.8,0-1.1
							c0.3-0.3,0.8-0.3,1.1,0c0,0,0,0,0,0l0.9,0.9L11.3,29.3z M11.3,21c0.3-0.3,0.8-0.3,1.1,0.1c0.3,0.3,0.3,0.8-0.1,1.1l0,0L9,25.2
							c-0.1,0.1-0.3,0.2-0.5,0.2c-0.2,0-0.4-0.1-0.5-0.2l-1.4-1.4c-0.3-0.3-0.3-0.8,0-1.1c0.3-0.3,0.7-0.3,1,0l0.9,0.9L11.3,21z
							 M25.4,15.5c0.4,0,0.8,0.3,0.8,0.7c0,0.4-0.3,0.8-0.7,0.8c0,0,0,0-0.1,0H15.3c-0.4,0-0.8-0.3-0.8-0.7c0-0.4,0.3-0.8,0.7-0.8
							c0,0,0,0,0.1,0L25.4,15.5z M15.3,14c-0.4,0-0.8-0.3-0.8-0.7c0-0.4,0.3-0.8,0.7-0.8c0,0,0,0,0.1,0h10.1c0.4,0,0.8,0.3,0.8,0.7
							c0,0.4-0.3,0.8-0.7,0.8c0,0,0,0-0.1,0H15.3z M11.3,12.7c0.3-0.3,0.8-0.3,1.1,0c0.3,0.3,0.3,0.8,0,1.1c0,0,0,0,0,0L9,16.9
							c-0.1,0.1-0.3,0.2-0.5,0.2c-0.2,0-0.4-0.1-0.5-0.2l-1.4-1.4c-0.3-0.3-0.3-0.8,0-1.1c0.3-0.3,0.7-0.3,1,0l0.9,0.9L11.3,12.7z
							 M15.4,3.2c0,0.4,0.4,0.8,0.8,0.8C16.7,4,17,3.7,17,3.2s-0.4-0.8-0.8-0.8l0,0C15.8,2.4,15.4,2.8,15.4,3.2L15.4,3.2"/>
					</g>
				</g>
			</g>
		</g>
	</g>
	<circle id="Elipse_5131" class="st19" cx="377.5" cy="-7492.6" r="17.6"/>
	<rect id="Rectángulo_42011" x="593.9" y="-7334" width="8.8" height="2.9"/>
	<rect id="Rectángulo_42010" x="553.4" y="-7334" width="8.8" height="2.9"/>
	<g id="Grupo_142138" transform="translate(474.586 -7419.053)">
		<path id="Trazado_190807" class="st0" d="M51,176.8L0,88.4L51,0h102.1l51,88.4l-51,88.4H51z"/>
		<text transform="matrix(1 0 0 1 40.442 96.235)" class="st1 st2 st3">Planificada</text>
		<g id="Grupo_142123" transform="translate(77.692 109.454)">
			<rect id="Rectángulo_42206" x="0" y="0" class="st4" width="47.4" height="47.4"/>
			<g id="Grupo_142122" transform="translate(4.064 0)">
				<g>
					<defs>
						<rect id="SVGID_00000026147531264774742580000008690907934247680940_" x="0" y="0" width="39.7" height="47.4"/>
					</defs>
					<clipPath id="SVGID_00000054223729333653691240000003355183373867460749_">
						<use xlink:href="#SVGID_00000026147531264774742580000008690907934247680940_"  style="overflow:visible;"/>
					</clipPath>
					<g id="Grupo_142121" style="clip-path:url(#SVGID_00000054223729333653691240000003355183373867460749_);">
						<g id="Grupo_142120">
							<g>
								<defs>
									<rect id="SVGID_00000080178905987171151580000000760361160302086585_" x="0" y="0" width="39.7" height="47.4"/>
								</defs>
								<clipPath id="SVGID_00000065779715632240951460000006488859994796342699_">
									<use xlink:href="#SVGID_00000080178905987171151580000000760361160302086585_"  style="overflow:visible;"/>
								</clipPath>
								<g id="Grupo_142119" style="clip-path:url(#SVGID_00000065779715632240951460000006488859994796342699_);">
									<path id="Trazado_191088" class="st22" d="M29.6,18.6h9.2c0.2,0,0.4,0.2,0.4,0.4v3.5c0,0.2-0.2,0.4-0.4,0.4h-9.2V18.6z"/>
									<path id="Trazado_191089" d="M38.7,23.4h-9.7v-5.3h9.7c0.5,0,0.9,0.4,0.9,0.9v3.5C39.6,23,39.2,23.4,38.7,23.4L38.7,23.4z
										 M30.1,22.3h8.5v-3.2h-8.5V22.3z"/>
									<path id="Trazado_191090" class="st23" d="M29.6,8.8h9.6v3.8c0,0.2-0.2,0.4-0.4,0.4h-9.2L29.6,8.8z"/>
									<path id="Trazado_191091" d="M38.7,13.6h-9.7V8.3h10.6v4.4C39.7,13.2,39.2,13.6,38.7,13.6C38.7,13.6,38.7,13.6,38.7,13.6z
										 M30.1,12.6h8.5V9.3h-8.5V12.6z"/>
									<path id="Trazado_191092" class="st24" d="M29.6,5.7h9.2c0.2,0,0.4,0.2,0.4,0.4V10h-9.6L29.6,5.7z"/>
									<path id="Trazado_191093" d="M39.7,10.5H29.1V5.2h9.7c0.5,0,0.9,0.4,0.9,0.9L39.7,10.5z M30.1,9.5h8.5V6.3h-8.5V9.5z"/>
									<path id="Trazado_191094" class="st25" d="M1.9,0.5h31.2c0.8,0,1.4,0.6,1.4,1.4v43.5c0,0.8-0.6,1.4-1.4,1.4H1.9
										c-0.8,0-1.4-0.6-1.4-1.4V1.9C0.5,1.1,1.2,0.5,1.9,0.5"/>
									<path id="Trazado_191095" d="M33.1,47.3H1.9c-1.1,0-1.9-0.9-1.9-1.9V1.9C0,0.9,0.9,0,1.9,0h31.2C34.2,0,35,0.9,35,1.9v43.5
										C35,46.5,34.2,47.3,33.1,47.3C33.1,47.3,33.1,47.3,33.1,47.3z M1.9,1C1.5,1,1,1.4,1,1.9l0,0v43.5c0,0.5,0.4,0.9,0.9,0.9
										c0,0,0,0,0,0h31.2c0.5,0,0.9-0.4,0.9-0.9v0V1.9C34,1.4,33.6,1,33.1,1l0,0H1.9z"/>
									<path id="Trazado_191096" class="st26" d="M10.3,33.9h20.6c0.2,0,0.4,0.2,0.4,0.4l0,0v6.4c0,0.2-0.2,0.4-0.4,0.4
										c0,0,0,0,0,0H10.3c-0.2,0-0.4-0.2-0.4-0.4l0,0v-6.4C9.9,34,10.1,33.9,10.3,33.9C10.3,33.9,10.3,33.9,10.3,33.9"/>
									<path id="Trazado_191097" d="M30.9,41.5H10.3c-0.5,0-0.9-0.4-0.9-0.9l0,0v-6.4c0-0.5,0.4-0.9,0.9-0.9h20.6
										c0.5,0,0.9,0.4,0.9,0.9c0,0,0,0,0,0v6.4C31.7,41.1,31.3,41.5,30.9,41.5 M10.5,40.5h20.2v-6.1H10.5L10.5,40.5z"/>
									<path id="Trazado_191098" class="st26" d="M10.3,4.4h20.6c0.2,0,0.4,0.2,0.4,0.4v0v10.2c0,0.2-0.2,0.4-0.4,0.4l0,0H10.3
										c-0.2,0-0.4-0.2-0.4-0.4v0V4.8C9.9,4.6,10.1,4.4,10.3,4.4L10.3,4.4"/>
									<path id="Trazado_191099" d="M30.9,15.8H10.3c-0.5,0-0.9-0.4-0.9-0.9V4.8c0-0.5,0.4-0.9,0.9-0.9h20.6
										c0.5,0,0.9,0.4,0.9,0.9v10.2C31.7,15.4,31.3,15.8,30.9,15.8 M10.5,14.8h20.2V4.9H10.5L10.5,14.8z"/>
									<path id="Trazado_191100" class="st27" d="M1.9,0.6H7v46.3H1.9c-0.8,0-1.4-0.6-1.4-1.4V2C0.5,1.2,1.1,0.6,1.9,0.6
										C1.9,0.6,1.9,0.6,1.9,0.6z"/>
									<path id="Trazado_191101" d="M7.5,47.4H1.9c-1.1,0-1.9-0.9-1.9-1.9V2c0-1.1,0.9-1.9,1.9-1.9h5.6V47.4z M1.9,1.1
										C1.4,1.1,1,1.5,1,2v43.5c0,0.5,0.4,0.9,0.9,0.9c0,0,0,0,0,0h4.6V1.1H1.9z"/>
									<g id="Grupo_142118" transform="translate(0.54 0.514)" class="st28">
										<g id="Grupo_142117">
											<g>
												<defs>
													<rect id="SVGID_00000127729302438781231060000005898321112491183794_" x="0" y="0" width="33.2" height="46.3"/>
												</defs>
												<clipPath id="SVGID_00000119078891914496544290000014362159556624715950_">
													<use xlink:href="#SVGID_00000127729302438781231060000005898321112491183794_"  style="overflow:visible;"/>
												</clipPath>
												<g id="Grupo_142116" style="clip-path:url(#SVGID_00000119078891914496544290000014362159556624715950_);">
													<path id="Trazado_191102" d="M33.2,46.2c-0.2,0.1-0.4,0.1-0.6,0.1H1.4c-0.8,0-1.4-0.6-1.4-1.4V1.4C0,0.6,0.6,0,1.4,0H5
														C4.2,0,3.6,0.6,3.6,1.4v12.3C3.6,30.6,16.4,44.6,33.2,46.2"/>
												</g>
											</g>
										</g>
									</g>
								</g>
							</g>
						</g>
					</g>
				</g>
			</g>
		</g>
	</g>
	<circle id="Elipse_5132" class="st19" cx="540.1" cy="-7394.9" r="17.6"/>
	<g id="Grupo_142136" transform="translate(636.837 -7517)">
		<path id="Trazado_190810" class="st0" d="M51,176.8L0,88.4L51,0h102.1l51,88.4l-51,88.4H51z"/>
		<text transform="matrix(1 0 0 1 61.493 96.863)" class="st1 st2 st3">Abierta</text>
		<g id="Grupo_142127" transform="translate(80.575 110.709)">
			<rect id="Rectángulo_42208" x="0" y="0" class="st4" width="47.4" height="47.4"/>
			<g id="Grupo_142126" transform="translate(2.57)">
				<rect id="Rectángulo_42212" x="12.2" y="6.4" class="st30" width="25.9" height="28.8"/>
				<g id="Grupo_142125">
					<g>
						<defs>
							<rect id="SVGID_00000173842235390815689370000015590814155670886556_" x="0" y="0" width="42.5" height="47.4"/>
						</defs>
						<clipPath id="SVGID_00000013897633504140838710000009102086382110190504_">
							<use xlink:href="#SVGID_00000173842235390815689370000015590814155670886556_"  style="overflow:visible;"/>
						</clipPath>
						<g id="Grupo_142124" style="clip-path:url(#SVGID_00000013897633504140838710000009102086382110190504_);">
							<path id="Trazado_191103" class="st32" d="M20.2,7.9c0-0.5,0-1-0.1-1.4h-7.9v10.4C16.8,16.3,20.2,12.5,20.2,7.9"/>
							<rect id="Rectángulo_42213" x="0.7" y="30.9" class="st33" width="5.8" height="15.8"/>
							<rect id="Rectángulo_42214" x="0.7" y="30.9" class="st34" width="1.9" height="15.8"/>
							<rect id="Rectángulo_42215" x="12.2" y="6.4" class="st32" width="1.9" height="28.8"/>
							<rect id="Rectángulo_42216" x="6.5" y="32.3" class="st35" width="2.9" height="14.4"/>
							<path id="Trazado_191104" class="st36" d="M28,14.1l-2.9-1.3l-2.9,1.3V6.4H28V14.1z"/>
							<path id="Trazado_191105" class="st35" d="M22.7,23.2L19,19.5l-3.7,3.7h2.2v6.2h2.9v-6.2H22.7z"/>
							<rect id="Rectángulo_42217" x="29.5" y="26.5" class="st32" width="5.8" height="2.9"/>
							<path id="Trazado_191106" class="st37" d="M9.3,35.2c0,0,2.8-2.8,8.3-2.8c1.1,0,2.1,0.2,3.1,0.6l2.2,0.9h4.4
								c1,0,1.8,0.8,1.8,1.9l0,0c0,0.2,0,0.4-0.1,0.5l0,0l3.5-2l6.4-3.7c0.9-0.5,2-0.2,2.5,0.7c0,0,0,0,0,0c0.5,0.9,0.2,2-0.7,2.5
								l-11.7,9.2c-0.8,0.6-1.8,1-2.8,1h-17V35.2z"/>
							<path id="Trazado_191107" class="st38" d="M18.4,32.4c-0.3,0-0.5,0-0.8,0c-5.6,0-8.3,2.8-8.3,2.8v8.6h1.9v-8.6
								C13.2,33.5,15.8,32.5,18.4,32.4"/>
							<path id="Trazado_191108" d="M3.6,35.9c-0.4,0-0.7-0.3-0.7-0.7c0-0.4,0.3-0.7,0.7-0.7c0.4,0,0.7,0.3,0.7,0.7S4,35.9,3.6,35.9
								C3.6,35.9,3.6,35.9,3.6,35.9"/>
							<path id="Trazado_191109" class="st39" d="M11.2,0.7c4,0,7.2,3.2,7.2,7.2s-3.2,7.2-7.2,7.2c-4,0-7.2-3.2-7.2-7.2
								S7.2,0.7,11.2,0.7L11.2,0.7"/>
							<path id="Trazado_191110" class="st40" d="M5.8,7.9c0-3.6,2.7-6.7,6.3-7.1C8.2,0.2,4.5,3,4,6.9c-0.5,3.9,2.2,7.6,6.2,8.1
								c0.6,0.1,1.3,0.1,1.9,0C8.5,14.5,5.8,11.5,5.8,7.9"/>
							<path id="Trazado_191111" d="M17.5,30.1h2.9c0.4,0,0.7-0.3,0.7-0.7v-5.5h1.5c0.7,0,1.1-0.6,0.5-1.2L19.5,19
								c-0.3-0.3-0.7-0.3-1,0l-3.7,3.7c-0.4,0.6-0.2,1.1,0.5,1.2h1.5v5.5C16.8,29.8,17.2,30.1,17.5,30.1 M19,20.5l2,2h-0.6
								c-0.4,0-0.7,0.3-0.7,0.7v5.5h-1.5v-5.5c0-0.4-0.3-0.7-0.7-0.7H17L19,20.5z"/>
							<path id="Trazado_191112" d="M35.2,25.8h-5.8c-0.4,0-0.7,0.3-0.7,0.7v2.9c0,0.4,0.3,0.7,0.7,0.7h5.8c0.4,0,0.7-0.3,0.7-0.7
								v-2.9C35.9,26.2,35.6,25.8,35.2,25.8 M34.5,28.8h-4.4v-1.6h4.4V28.8z"/>
							<path id="Trazado_191113" d="M35.2,23h-5.8c-0.4,0-0.7,0.3-0.7,0.7c0,0.4,0.3,0.7,0.7,0.7h5.8c0.4,0,0.7-0.3,0.7-0.7
								C35.9,23.3,35.6,23,35.2,23"/>
							<path id="Trazado_191114" d="M42.2,30.8c-0.7-1.2-2.2-1.6-3.4-1V19c0-0.4-0.3-0.7-0.7-0.7c-0.4,0-0.7,0.3-0.7,0.7v11.6
								l-6.7,3.9h-1.1c-0.4-0.8-1.3-1.4-2.3-1.4h-4.2c-1.7-0.8-3.6-1.3-5.4-1.4c-1.6,0-3.2,0.2-4.8,0.7V15.6
								c3.9-0.9,6.5-4.5,6.1-8.4h2.5v7c0,0.4,0.3,0.7,0.7,0.7c0.1,0,0.2,0,0.3-0.1l2.6-1.2l2.6,1.2c0.4,0.2,0.8,0,0.9-0.4
								c0-0.1,0.1-0.2,0.1-0.3v-7h8.7V16c0,0.4,0.3,0.7,0.7,0.7c0.4,0,0.7-0.3,0.7-0.7c0,0,0,0,0,0V6.4c0-0.4-0.3-0.7-0.7-0.7H18.8
								c-0.8-2.8-3.1-4.9-5.9-5.6c-0.4-0.1-0.7,0.1-0.8,0.5s0.1,0.7,0.5,0.8c0,0,0,0,0,0c3.5,0.8,5.7,4.2,5,7.7
								c-0.8,3.5-4.2,5.7-7.7,5c-3.5-0.8-5.7-4.2-5-7.7c0.5-2.5,2.5-4.4,5-5c0.4-0.1,0.6-0.4,0.5-0.8c-0.1-0.4-0.4-0.6-0.8-0.5
								c0,0,0,0,0,0C5.9,1,3.3,4.2,3.3,7.9c0.1,4.4,3.7,8,8.1,7.9c0,0,0.1,0,0.1,0V33c-0.5,0.2-1,0.5-1.5,0.8v-1.5
								c0-0.4-0.3-0.7-0.7-0.7H7.1v-0.7c0-0.4-0.3-0.7-0.7-0.7H0.7c-0.4,0-0.7,0.3-0.7,0.7v15.8c0,0.4,0.3,0.7,0.7,0.7h8.6
								c0.4,0,0.7-0.3,0.7-0.7v-2.2h7.4c0.4,0,0.7-0.3,0.7-0.7c0-0.4-0.3-0.7-0.7-0.7H10v-7.6c2.2-1.7,4.9-2.5,7.6-2.4
								c1.9,0,5.1,1.4,5.3,1.4h4.4c1.3,0,1.7,2.3,0,2.3H19c-0.4,0-0.7,0.3-0.7,0.7c0,0.4,0.3,0.7,0.7,0.7h8.4c1,0,1.9-0.6,2.3-1.5
								l9.7-5.6c0.6-0.3,1.3-0.1,1.6,0.5c0.3,0.5,0.1,1.2-0.4,1.5c0,0-11.8,9.2-11.8,9.2c-0.7,0.5-1.5,0.8-2.4,0.8h-5.8
								c-0.4,0-0.7,0.3-0.7,0.7c0,0.4,0.3,0.7,0.7,0.7c0,0,0,0,0,0h5.9c1.2,0,2.3-0.4,3.3-1.1l11.7-9.1C42.4,33.5,42.8,32,42.2,30.8
								L42.2,30.8z M27.3,13l-1.9-0.9c-0.2-0.1-0.4-0.1-0.6,0L22.9,13V7.1h4.4L27.3,13z M1.4,31.6h4.4V46H1.4V31.6z M7.1,46V33h1.5
								v13H7.1z"/>
							<path id="Trazado_191115" d="M8.1,7.7c-0.2-0.3-0.7-0.4-1-0.1c-0.3,0.2-0.4,0.7-0.1,1c0,0,0,0,0,0l2.2,2.5
								c0.1,0.2,0.3,0.2,0.5,0.2h0c0.2,0,0.4-0.1,0.5-0.3l4.3-5.4c0.2-0.3,0.2-0.7-0.1-1c-0.3-0.2-0.7-0.2-1,0.1L9.8,9.6L8.1,7.7z"
								/>
							<rect id="Rectángulo_42218" x="37.4" y="15.1" width="1.4" height="5.8"/>
							<path id="Trazado_191116" d="M15.3,44.5h7v-1.4h-6.1L15.3,44.5z"/>
							<path id="Trazado_191117" d="M13.1,1.7c-1.4-0.4-2.9-0.4-4.3,0.1L8,0.7c1.9-0.8,4.1-0.9,6.1-0.2L13.1,1.7z"/>
						</g>
					</g>
				</g>
			</g>
		</g>
	</g>
	<circle id="Elipse_5133" class="st19" cx="702.5" cy="-7493" r="17.6"/>
	<g id="Grupo_142137" transform="translate(801.037 -7419.053)">
		<path id="Trazado_190812" class="st0" d="M51,176.8L0,88.4L51,0h102.1l51,88.4l-51,88.4H51z"/>
		<text transform="matrix(1 0 0 1 33.679 96.48)" class="st1 st2 st3">Por contrato</text>
		<g id="Grupo_142130" transform="translate(77.99 109.699)">
			<rect id="Rectángulo_42207" x="0" y="0" class="st4" width="47.4" height="47.4"/>
			<g id="Grupo_142129" transform="translate(0)">
				<g>
					<defs>
						<rect id="SVGID_00000088812434109615684480000011836590177433833129_" x="0" y="0" width="47.4" height="47.4"/>
					</defs>
					<clipPath id="SVGID_00000015352864260064099250000015176814325635146677_">
						<use xlink:href="#SVGID_00000088812434109615684480000011836590177433833129_"  style="overflow:visible;"/>
					</clipPath>
					
						<g id="Grupo_142128" transform="translate(0 0)" style="clip-path:url(#SVGID_00000015352864260064099250000015176814325635146677_);">
						<path id="Trazado_191118" class="st42" d="M2.2,0.9h29.5c0.8,0,1.5,0.7,1.5,1.5v0v42.8c0,0.8-0.7,1.5-1.5,1.5c0,0,0,0,0,0H2.2
							c-0.8,0-1.5-0.7-1.5-1.5l0,0V2.4C0.7,1.6,1.4,0.9,2.2,0.9L2.2,0.9"/>
						<path id="Trazado_191119" class="st43" d="M31.7,44.5H2.2c-0.8,0-1.5-0.7-1.5-1.5v2.2c0,0.8,0.7,1.5,1.5,1.5h29.5
							c0.8,0,1.5-0.7,1.5-1.5V43C33.2,43.8,32.6,44.5,31.7,44.5"/>
						<path id="Trazado_191120" d="M31.7,47.4H2.2c-1.2,0-2.2-1-2.2-2.2c0,0,0,0,0,0V2.4c0-1.2,1-2.2,2.2-2.2h29.5
							c1.2,0,2.2,1,2.2,2.2V12c0,0.4-0.3,0.7-0.7,0.7c-0.4,0-0.7-0.3-0.7-0.7V2.4c0-0.4-0.3-0.7-0.7-0.7l0,0H2.2
							C1.8,1.6,1.5,2,1.5,2.4v42.8c0,0.4,0.3,0.7,0.7,0.7h29.5c0.4,0,0.7-0.3,0.7-0.7v-5.9c0-0.4,0.3-0.7,0.7-0.7
							c0.4,0,0.7,0.3,0.7,0.7v5.9C34,46.4,33,47.4,31.7,47.4L31.7,47.4"/>
						<path id="Trazado_191121" d="M33.2,36.3c-0.4,0-0.7-0.3-0.7-0.7v0V16.4c0-0.4,0.3-0.7,0.7-0.7S34,16,34,16.4v19.2
							C34,36,33.6,36.3,33.2,36.3L33.2,36.3"/>
						<path id="Trazado_191122" d="M28.8,19.4H5.2c-0.4,0-0.7-0.3-0.7-0.7c0-0.4,0.3-0.7,0.7-0.7h23.6c0.4,0,0.7,0.3,0.7,0.7
							C29.5,19,29.2,19.4,28.8,19.4"/>
						<path id="Trazado_191123" d="M28.8,23H5.2c-0.4,0-0.7-0.3-0.7-0.7c0-0.4,0.3-0.7,0.7-0.7h23.6c0.4,0,0.7,0.3,0.7,0.7
							C29.5,22.7,29.2,23,28.8,23"/>
						<path id="Trazado_191124" d="M28.8,26.7H5.2c-0.4,0-0.7-0.3-0.7-0.7s0.3-0.7,0.7-0.7h23.6c0.4,0,0.7,0.3,0.7,0.7
							S29.2,26.7,28.8,26.7"/>
						<path id="Trazado_191125" d="M28.8,30.4H5.2c-0.4,0-0.7-0.3-0.7-0.7S4.8,29,5.2,29h23.6c0.4,0,0.7,0.3,0.7,0.7
							S29.2,30.4,28.8,30.4"/>
						<path id="Trazado_191126" d="M28.8,34.1H5.2c-0.4,0-0.7-0.3-0.7-0.7s0.3-0.7,0.7-0.7h23.6c0.4,0,0.7,0.3,0.7,0.7
							S29.2,34.1,28.8,34.1"/>
						<rect id="Rectángulo_42220" x="42" y="24.4" class="st44" width="4.1" height="12.2"/>
						<rect id="Rectángulo_42221" x="42" y="33.9" class="st45" width="4.1" height="2.7"/>
						<path id="Trazado_191127" d="M46.5,37.1h-3.7c-0.4,0-0.7-0.3-0.7-0.7l0,0V23.8c0-0.4,0.3-0.7,0.7-0.7l0,0h3.7
							c0.4,0,0.7,0.3,0.7,0.7v0v12.6C47.3,36.7,46.9,37.1,46.5,37.1L46.5,37.1 M43.6,35.6h2.2V24.5h-2.2V35.6z"/>
						<path id="Trazado_191128" class="st46" d="M23.2,24.9c-4.1,8.7-4,8.5-4,8.5c1.3,0.4,2.8,0,3.6-1.2l1.7-2.4
							c1.3-1.9,3.5-3,5.8-3c1.2,0,2.2,1,2.2,2.2c0,1.2-1,2.2-2.2,2.2h-3c-2,0-3.7,1.7-3.7,3.7l0,0h7.1c0.7,0,1.3,0.3,1.8,0.7
							s1.1,0.7,1.8,0.7h5c0.4,0,0.8-0.1,1.1-0.3l2.4-1.2v-9.6H42c-1.3,0-2.6-0.5-3.6-1.5c-0.9-0.9-2.2-1.5-3.6-1.5h-7.6
							C25.5,22.3,23.9,23.3,23.2,24.9"/>
						<path id="Trazado_191129" d="M19,34.1c-0.4-0.1-0.6-0.5-0.5-0.9c0,0,0,0,0,0c0,0,0-0.1,0-0.1l4-8.5c0.9-1.8,2.7-3,4.7-3h7.6
							c1.5,0,3,0.6,4.1,1.7c0.8,0.8,1.9,1.3,3,1.3h0.9c0.4,0,0.7,0.3,0.7,0.7v0v4.4c0,0.4-0.3,0.7-0.7,0.7c-0.4,0-0.7-0.3-0.7-0.7
							V26H42c-1.5,0-3-0.6-4.1-1.7c-0.8-0.8-1.9-1.3-3-1.3h-7.6c-1.4,0-2.7,0.8-3.3,2.1l-3.6,7.6c0.7,0,1.4-0.4,1.9-1l1.7-2.4
							c1.5-2.1,3.9-3.3,6.4-3.3c1.6,0,3,1.3,3,3l0,0c0,0.4-0.3,0.7-0.7,0.7c-0.4,0-0.7-0.3-0.7-0.7l0,0c0-0.8-0.7-1.5-1.5-1.5
							c0,0,0,0,0,0c-2.1,0-4,1-5.2,2.7l-1.7,2.4C22.4,34,20.6,34.6,19,34.1z"/>
						
							<rect id="Rectángulo_42222" x="16.1" y="26" transform="matrix(0.5158 -0.8567 0.8567 0.5158 -10.9672 36.9727)" class="st47" width="22.2" height="4.4"/>
						<path id="Trazado_191130" d="M23,39.4l-3.8-2.3c-0.3-0.2-0.5-0.7-0.3-1c0,0,0,0,0,0l0,0l11.4-19c0.2-0.3,0.7-0.5,1-0.3
							c0,0,0,0,0,0l0,0l3.8,2.3c0.3,0.2,0.5,0.7,0.3,1c0,0,0,0,0,0l0,0L24,39.2C23.8,39.5,23.4,39.6,23,39.4z M20.6,36.3l2.5,1.5
							l10.7-17.7l-2.5-1.5L20.6,36.3z"/>
						<path id="Trazado_191131" class="st48" d="M19.6,36.5l-0.4,4.9l4.2-2.7L19.6,36.5z"/>
						<path id="Trazado_191132" d="M18.5,41.4l0.4-4.9c0-0.4,0.4-0.7,0.8-0.7c0.1,0,0.2,0,0.3,0.1l3.8,2.3c0.3,0.2,0.5,0.7,0.3,1
							c-0.1,0.1-0.1,0.2-0.2,0.2l-4.2,2.7c-0.3,0.2-0.8,0.1-1-0.2C18.5,41.7,18.5,41.6,18.5,41.4L18.5,41.4z M20.3,37.8L20.1,40
							l1.9-1.2L20.3,37.8z"/>
						<path id="Trazado_191133" class="st46" d="M32.5,29c0,1.2-1,2.2-2.2,2.2h-3c-2,0-3.7,1.7-3.7,3.7h7.1c0.7,0,1.3,0.3,1.8,0.7
							s1.1,0.7,1.8,0.7h5c0.4,0,0.8-0.1,1.1-0.3l2.4-1.2v-5.2"/>
						<path id="Trazado_191134" class="st49" d="M39.3,34.1h-5c-0.7,0-1.3-0.3-1.8-0.7c-0.5-0.5-1.1-0.7-1.8-0.7h-6.3
							c-0.5,0.6-0.7,1.4-0.7,2.2h7.1c0.7,0,1.3,0.3,1.8,0.7s1.1,0.7,1.8,0.7h5c0.4,0,0.8-0.1,1.1-0.3l2.4-1.2v-2.2l-2.4,1.2
							C40.1,34,39.7,34.1,39.3,34.1"/>
						<path id="Trazado_191135" d="M39.3,37.1h-5c-0.9,0-1.7-0.3-2.3-1c-0.3-0.3-0.8-0.5-1.3-0.5h-7.1c-0.4,0-0.7-0.3-0.7-0.7l0,0
							c0-2.4,2-4.4,4.4-4.4h3c0.8,0,1.5-0.7,1.5-1.5c0-0.4,0.3-0.7,0.7-0.7s0.7,0.3,0.7,0.7c0,1.6-1.3,3-3,3l0,0h-3
							c-1.3,0-2.5,0.9-2.9,2.2h6.2c0.9,0,1.7,0.3,2.3,1c0.3,0.3,0.8,0.5,1.3,0.5h5c0.3,0,0.6-0.1,0.8-0.2l2-1v-4.7
							c0-0.4,0.3-0.7,0.7-0.7s0.7,0.3,0.7,0.7v5.2c0,0.3-0.2,0.5-0.4,0.7l-2.4,1.2C40.3,37,39.8,37.1,39.3,37.1"/>
						<path id="Trazado_191136" class="st50" d="M34.8,15.5c-1-0.6-2.4-0.3-3,0.8c0,0,0,0,0,0l0,0L31,17.5l3.8,2.3l0.8-1.3
							C36.2,17.5,35.9,16.2,34.8,15.5C34.8,15.5,34.8,15.5,34.8,15.5L34.8,15.5"/>
						<path id="Trazado_191137" d="M34.5,20.5l-3.8-2.3c-0.3-0.2-0.5-0.7-0.3-1c0,0,0,0,0,0l0,0l0.8-1.3c0.8-1.4,2.7-1.8,4.1-1
							c0,0,0,0,0,0l0,0c1.4,0.8,1.8,2.7,1,4.1c0,0,0,0,0,0l0,0l-0.8,1.3C35.3,20.6,34.8,20.7,34.5,20.5
							C34.5,20.5,34.5,20.5,34.5,20.5L34.5,20.5 M32.1,17.3l2.5,1.5l0.4-0.6c0.4-0.7,0.2-1.6-0.5-2l0,0c-0.7-0.4-1.6-0.2-2,0.5l0,0
							L32.1,17.3z"/>
						<path id="Trazado_191138" d="M11.1,43.7c-0.4,0-0.7-0.3-0.7-0.7c0-0.2,0.1-0.3,0.1-0.4l0.6-0.8c0.8-1.1,2.3-1.3,3.3-0.5
							c0.2,0.1,0.3,0.3,0.5,0.5c1-0.7,2.4-0.5,3.2,0.5h9.9c0.4,0,0.7,0.3,0.7,0.7s-0.3,0.7-0.7,0.7H17.7c-0.3,0-0.5-0.2-0.7-0.4
							c-0.2-0.5-0.8-0.6-1.2-0.4c-0.2,0.1-0.3,0.2-0.4,0.4c-0.2,0.4-0.6,0.5-1,0.3c-0.1-0.1-0.3-0.2-0.3-0.3l-0.3-0.6
							c-0.2-0.5-0.8-0.6-1.2-0.4c-0.1,0.1-0.2,0.2-0.3,0.3l-0.6,0.8C11.5,43.6,11.3,43.7,11.1,43.7z"/>
						<rect id="Rectángulo_42223" x="5.4" y="5.4" class="st51" width="24.4" height="5.4"/>
						<rect id="Rectángulo_42224" x="5.4" y="8.1" class="st52" width="24.4" height="2.7"/>
						<path id="Trazado_191139" d="M28.8,12H5.2c-0.4,0-0.7-0.3-0.7-0.7V5.3c0-0.4,0.3-0.7,0.7-0.7h23.6c0.4,0,0.7,0.3,0.7,0.7v5.9
							C29.5,11.6,29.2,12,28.8,12 M5.9,10.5h22.1V6.1H5.9V10.5z"/>
						<path id="Trazado_191140" d="M15.5,15.7H5.2c-0.4,0-0.7-0.3-0.7-0.7c0-0.4,0.3-0.7,0.7-0.7h10.3c0.4,0,0.7,0.3,0.7,0.7
							C16.2,15.3,15.9,15.7,15.5,15.7"/>
						<path id="Trazado_191141" d="M32.5,9.4v5.8H34V9L32.5,9.4z"/>
						<path id="Trazado_191142" d="M32.5,42.2v-6.6l1.4,0.7l0,5.1L32.5,42.2z"/>
					</g>
				</g>
			</g>
		</g>
	</g>
	<circle id="Elipse_5134" class="st19" cx="865.5" cy="-7394.7" r="17.6"/>
</g>
</svg>
