<svg xmlns="http://www.w3.org/2000/svg" width="130.281" height="29.845" viewBox="0 0 130.281 29.845">
  <g id="Grupo_149830" data-name="Grupo 149830" transform="translate(10349.934 12624.505)">
    <g id="Grupo_149824" data-name="Grupo 149824" transform="translate(-11220.519 -13042.571)">
      <path id="Trazado_191494" data-name="Trazado 191494" d="M991.6,447.911h9.264l-7.021-14.922,7.021-14.922H991.6l-7.021,14.922Z" fill="#fff59d"/>
      <path id="Trazado_191495" data-name="Trazado 191495" d="M975.317,447.911h9.264l-7.021-14.922,7.021-14.922h-9.264L968.3,432.989Z" fill="#fff59d"/>
      <path id="Trazado_191496" data-name="Trazado 191496" d="M959.032,447.911H968.3l-7.021-14.922,7.021-14.922h-9.264l-7.021,14.922Z" fill="#fff59d"/>
      <path id="Trazado_191497" data-name="Trazado 191497" d="M942.746,447.911h9.264l-7.021-14.922,7.021-14.922h-9.264l-7.021,14.922Z" fill="#fff59d"/>
      <path id="Trazado_191498" data-name="Trazado 191498" d="M926.461,447.911h9.264L928.7,432.989l7.021-14.922h-9.264l-7.021,14.922Z" fill="#fff59d"/>
      <path id="Trazado_191499" data-name="Trazado 191499" d="M910.176,447.911h9.264l-7.021-14.922,7.021-14.922h-9.264l-7.021,14.922Z" fill="#fff59d"/>
      <path id="Trazado_191500" data-name="Trazado 191500" d="M893.891,447.911h9.264l-7.021-14.922,7.021-14.922h-9.264l-7.021,14.922Z" fill="#fff59d"/>
      <path id="Trazado_191501" data-name="Trazado 191501" d="M877.606,447.911h9.264l-7.021-14.922,7.021-14.922h-9.264l-7.021,14.922Z" fill="#fff59d"/>
    </g>
  </g>
</svg>
