<svg xmlns="http://www.w3.org/2000/svg" width="85" height="85" viewBox="0 0 85 85">
  <g id="c18" transform="translate(-48 -966)">
    <rect id="Rectangle_90118" data-name="Rectangle 90118" width="85" height="85" transform="translate(48 966)" fill="none"/>
    <g id="tarjeta-de-debito" transform="translate(48 966)">
      <g id="Group_149764" data-name="Group 149764">
        <g id="filled_outline_8_">
          <path id="Path_215103" data-name="Path 215103" d="M472.078,85.978,457.258,71.13v59.5h19.833v-32.6A17,17,0,0,0,472.078,85.978Z" transform="translate(-393.508 -61.213)" fill="#ffb782"/>
          <path id="Path_215104" data-name="Path 215104" d="M21.741,67.325l-11.2-29.084a5.666,5.666,0,0,1,3.251-7.324l52.88-20.369A5.666,5.666,0,0,1,73.993,13.8L85.2,42.883a5.666,5.666,0,0,1-3.251,7.324L29.066,70.576A5.669,5.669,0,0,1,21.741,67.325Z" transform="translate(-8.741 -8.75)" fill="#fff59d"/>
          <path id="Path_215105" data-name="Path 215105" d="M105.615,111.368l-63.4,24.576L46.432,146.9l63.407-24.565Z" transform="translate(-36.325 -95.841)" fill="#1b3f5e"/>
          <path id="Path_215106" data-name="Path 215106" d="M10.161,46.994V15.828a5.667,5.667,0,0,1,5.667-5.667H72.495a5.667,5.667,0,0,1,5.667,5.667V46.994a5.667,5.667,0,0,1-5.667,5.667H15.828A5.667,5.667,0,0,1,10.161,46.994Z" transform="translate(-8.744 -8.744)" fill="#dee4f0"/>
          <path id="Path_215107" data-name="Path 215107" d="M157.755,10.161h-6.021l-42.5,42.5h48.521a5.667,5.667,0,0,0,5.667-5.667V15.828A5.667,5.667,0,0,0,157.755,10.161Z" transform="translate(-94.005 -8.744)" fill="#b0c0d2"/>
          <rect id="Rectangle_90086" data-name="Rectangle 90086" width="5.667" height="2.833" transform="translate(7.083 24.083)" fill="#5eb3d1"/>
          <rect id="Rectangle_90087" data-name="Rectangle 90087" width="5.667" height="2.833" transform="translate(7.083 32.583)" fill="#5eb3d1"/>
          <rect id="Rectangle_90088" data-name="Rectangle 90088" width="5.667" height="2.833" transform="translate(32.583 32.583)" fill="#5eb3d1"/>
          <rect id="Rectangle_90089" data-name="Rectangle 90089" width="5.667" height="2.833" transform="translate(15.583 24.083)" fill="#5eb3d1"/>
          <rect id="Rectangle_90090" data-name="Rectangle 90090" width="5.667" height="2.833" transform="translate(24.083 24.083)" fill="#5eb3d1"/>
          <rect id="Rectangle_90091" data-name="Rectangle 90091" width="5.667" height="2.833" transform="translate(32.583 24.083)" fill="#5eb3d1"/>
          <rect id="Rectangle_90092" data-name="Rectangle 90092" width="2.833" height="4.25" transform="translate(59.5 7.083)" fill="#5eb3d1"/>
          <rect id="Rectangle_90093" data-name="Rectangle 90093" width="2.833" height="4.25" transform="translate(53.833 7.083)" fill="#5eb3d1"/>
          <rect id="Rectangle_90094" data-name="Rectangle 90094" width="2.833" height="4.25" transform="translate(48.167 7.083)" fill="#5eb3d1"/>
          <rect id="Rectangle_90095" data-name="Rectangle 90095" width="2.833" height="4.25" transform="translate(42.5 7.083)" fill="#5eb3d1"/>
          <rect id="Rectangle_90096" data-name="Rectangle 90096" width="25.5" height="14.167" transform="translate(58.083 69.417)" fill="#d84318"/>
          <path id="Path_215108" data-name="Path 215108" d="M322.122,182.669a6.141,6.141,0,0,0-8.868,8.493l11.61,12.665a19.106,19.106,0,0,0,.387,19.6l1.03,1.648H344.7V205.244Z" transform="translate(-268.197 -155.661)" fill="#ffb782"/>
          <rect id="Rectangle_90097" data-name="Rectangle 90097" width="2.833" height="2.833" transform="translate(62.334 73.667)" fill="#6b962a"/>
          <path id="Path_215109" data-name="Path 215109" d="M50.806,59.874v-6.8a2.266,2.266,0,0,1,2.267-2.267h6.8a2.266,2.266,0,0,1,2.267,2.267v6.8a2.266,2.266,0,0,1-2.267,2.267h-6.8A2.266,2.266,0,0,1,50.806,59.874Z" transform="translate(-43.723 -43.724)" fill="#fdb62f"/>
          <rect id="Rectangle_90098" data-name="Rectangle 90098" width="4.25" height="2.833" transform="translate(7.083 11.333)" fill="#fd7b2f"/>
          <rect id="Rectangle_90099" data-name="Rectangle 90099" width="4.25" height="2.833" transform="translate(14.167 11.333)" fill="#fd7b2f"/>
          <path id="Path_215110" data-name="Path 215110" d="M494.931,303.287a1.413,1.413,0,0,1-1-.415l-5.667-5.667a1.417,1.417,0,0,1,2-2l5.667,5.667a1.417,1.417,0,0,1-1,2.418Z" transform="translate(-419.847 -253.704)" fill="#f2a46f"/>
          <path id="Path_215111" data-name="Path 215111" d="M70.834,15.008V7.083A7.091,7.091,0,0,0,63.75,0H7.083A7.091,7.091,0,0,0,0,7.083V38.25a7.068,7.068,0,0,0,6.352,7.01l5.325,13.824a7.082,7.082,0,0,0,9.156,4.063L54.088,50.337A20.474,20.474,0,0,0,55.853,68.52l.813,1.3V83.584A1.417,1.417,0,0,0,58.083,85h25.5A1.417,1.417,0,0,0,85,83.584V36.821a18.536,18.536,0,0,0-5.427-13.058Zm0,8.472,4.3,11.162a4.25,4.25,0,0,1-2.44,5.492l-2.458.949a7.064,7.064,0,0,0,.6-2.833Zm-68,14.77V7.083a4.25,4.25,0,0,1,4.25-4.25H63.75A4.25,4.25,0,0,1,68,7.083v9h-.013L68,16.12V38.25a4.266,4.266,0,0,1-.1.734L54.927,26.006A7.558,7.558,0,0,0,44.019,36.458L49.551,42.5H7.083a4.25,4.25,0,0,1-4.25-4.25Zm18.149,7.083L10.908,49.212l-1.49-3.879ZM19.815,60.5a4.25,4.25,0,0,1-5.494-2.438h0l-2.39-6.215,16.911-6.517v-.008H52.148l1.842,2.007ZM82.167,82.167H59.5V70.834H82.167Zm0-14.167H58.87l-.615-.982A17.667,17.667,0,0,1,57.9,48.875a1.416,1.416,0,0,0-.186-1.66L46.1,34.55a4.725,4.725,0,0,1,6.823-6.534L75.5,50.585l2-2L72.26,43.34l1.454-.567a7.082,7.082,0,0,0,4.062-9.152l-4.8-12.451,4.59,4.6a15.687,15.687,0,0,1,4.6,11.051V68Z"/>
          <path id="Path_215112" data-name="Path 215112" d="M51.129,54.813a3.683,3.683,0,0,0,3.683-3.683h0v-6.8a3.683,3.683,0,0,0-3.683-3.683h-6.8a3.683,3.683,0,0,0-3.683,3.683h0v6.8a3.683,3.683,0,0,0,3.683,3.683h6.8Zm-7.65-3.683V49.146h2.833V46.313H43.479V44.329a.851.851,0,0,1,.85-.85h6.8a.851.851,0,0,1,.85.85h0v1.983H49.146v2.833h2.833v1.983a.851.851,0,0,1-.85.85h-6.8a.851.851,0,0,1-.85-.85Z" transform="translate(-34.979 -34.979)"/>
          <rect id="Rectangle_90100" data-name="Rectangle 90100" width="5.667" height="2.833" transform="translate(7.083 24.083)"/>
          <rect id="Rectangle_90101" data-name="Rectangle 90101" width="5.667" height="2.833" transform="translate(7.083 32.583)"/>
          <rect id="Rectangle_90102" data-name="Rectangle 90102" width="5.667" height="2.833" transform="translate(32.583 32.583)"/>
          <rect id="Rectangle_90103" data-name="Rectangle 90103" width="5.667" height="2.833" transform="translate(15.583 24.083)"/>
          <rect id="Rectangle_90104" data-name="Rectangle 90104" width="5.667" height="2.833" transform="translate(24.083 24.083)"/>
          <rect id="Rectangle_90105" data-name="Rectangle 90105" width="5.667" height="2.833" transform="translate(32.583 24.083)"/>
          <rect id="Rectangle_90106" data-name="Rectangle 90106" width="2.833" height="4.25" transform="translate(59.5 7.083)"/>
          <rect id="Rectangle_90107" data-name="Rectangle 90107" width="2.833" height="4.25" transform="translate(53.833 7.083)"/>
          <rect id="Rectangle_90108" data-name="Rectangle 90108" width="2.833" height="4.25" transform="translate(48.167 7.083)"/>
          <rect id="Rectangle_90109" data-name="Rectangle 90109" width="2.833" height="4.25" transform="translate(42.5 7.083)"/>
          <rect id="Rectangle_90110" data-name="Rectangle 90110" width="2.833" height="2.833" transform="translate(62.334 73.667)"/>
        </g>
      </g>
    </g>
  </g>
</svg>
