<svg xmlns="http://www.w3.org/2000/svg" width="85" height="85" viewBox="0 0 85 85">
  <g id="c19" transform="translate(-48 -1505)">
    <rect id="Rectangle_90117" data-name="Rectangle 90117" width="85" height="85" transform="translate(48 1505)" fill="none"/>
    <g id="certificacion" transform="translate(30.307 1505)">
      <path id="Path_215229" data-name="Path 215229" d="M129.164,90.01H70.8a1.677,1.677,0,0,1-1.677-1.677V9.177A1.677,1.677,0,0,1,70.8,7.5h58.361a1.677,1.677,0,0,1,1.677,1.677V88.333A1.677,1.677,0,0,1,129.164,90.01Z" transform="translate(-39.956 -6.255)" fill="#f3f9ff"/>
      <path id="Path_215230" data-name="Path 215230" d="M412.231,90.01h-3.69V7.5h3.69a1.677,1.677,0,0,1,1.677,1.677V88.333A1.677,1.677,0,0,1,412.231,90.01Z" transform="translate(-323.023 -6.255)" fill="#d2e1f1"/>
      <path id="Path_215231" data-name="Path 215231" d="M186.179,44.857H155.322a1.342,1.342,0,0,1-1.342-1.342V41.168a1.342,1.342,0,0,1,1.342-1.342h30.857a1.342,1.342,0,0,1,1.342,1.342v2.348A1.341,1.341,0,0,1,186.179,44.857Z" transform="translate(-110.723 -33.214)" fill="#fff59d"/>
      <path id="Path_215232" data-name="Path 215232" d="M320.972,39.825h-5.366a1.342,1.342,0,0,1,1.342,1.342v2.348a1.342,1.342,0,0,1-1.342,1.342h5.366a1.342,1.342,0,0,0,1.342-1.342V41.167A1.341,1.341,0,0,0,320.972,39.825Z" transform="translate(-245.517 -33.213)" fill="#fff59d"/>
      <g id="Group_149782" data-name="Group 149782" transform="translate(67.74 34.248)">
        <path id="Path_215233" data-name="Path 215233" d="M398.768,371.538l-1.73-1.442a1.006,1.006,0,0,0-1.288,0l-1.73,1.442a1.006,1.006,0,0,1-1.65-.773V357.82h8.05v12.945A1.006,1.006,0,0,1,398.768,371.538Z" transform="translate(-377.276 -332.665)" fill="#fff59d"/>
        <path id="Path_215234" data-name="Path 215234" d="M345.531,376.569l1.73-1.442a1.006,1.006,0,0,1,1.288,0l1.73,1.442a1.006,1.006,0,0,0,1.65-.773V357.82h-8.05V375.8A1.006,1.006,0,0,0,345.531,376.569Z" transform="translate(-336.838 -332.665)" fill="#ffd15b"/>
        <path id="Path_215235" data-name="Path 215235" d="M345.531,376.569l1.73-1.442a1.006,1.006,0,0,1,1.288,0l1.73,1.442a1.006,1.006,0,0,0,1.65-.773V357.82h-8.05V375.8A1.006,1.006,0,0,0,345.531,376.569Z" transform="translate(-336.838 -332.665)" fill="#fff59d"/>
        <path id="Path_215236" data-name="Path 215236" d="M343.881,357.82v6.735c.309.029.62.045.934.045h.14a9.775,9.775,0,0,0,6.975,2.948V357.82Z" transform="translate(-336.838 -332.665)" fill="#fff59d"/>
        <path id="Path_215237" data-name="Path 215237" d="M392.369,367.547a9.775,9.775,0,0,0,6.975-2.948h.14c.314,0,.625-.015.934-.045V357.82h-8.05Z" transform="translate(-377.276 -332.665)" fill="#fff59d"/>
        <path id="Path_215238" data-name="Path 215238" d="M331.642,221.39a5.015,5.015,0,0,0-1.543-3.625,4.592,4.592,0,0,1-1.405-3.393,5.03,5.03,0,0,0-5.127-5.127,4.593,4.593,0,0,1-3.393-1.405,5.03,5.03,0,0,0-7.251,0,4.592,4.592,0,0,1-3.393,1.405,5.03,5.03,0,0,0-5.127,5.127A4.593,4.593,0,0,1,303,217.765a5.03,5.03,0,0,0,0,7.251,4.592,4.592,0,0,1,1.405,3.393,5.03,5.03,0,0,0,5.127,5.127,4.593,4.593,0,0,1,3.393,1.405,5.03,5.03,0,0,0,7.251,0,4.592,4.592,0,0,1,3.393-1.405,5.03,5.03,0,0,0,5.127-5.127,4.593,4.593,0,0,1,1.405-3.393A5.015,5.015,0,0,0,331.642,221.39Z" transform="translate(-301.456 -206.297)" fill="#d84318"/>
        <path id="Path_215239" data-name="Path 215239" d="M345.327,232.992a4.592,4.592,0,0,1-1.405-3.393,5.03,5.03,0,0,0-4.115-5.044,5.049,5.049,0,0,1,.083,1.012,4.593,4.593,0,0,0,1.405,3.393,5.03,5.03,0,0,1,0,7.251,4.592,4.592,0,0,0-1.405,3.393,5.03,5.03,0,0,1-5.127,5.127,4.592,4.592,0,0,0-3.393,1.405,5.03,5.03,0,0,1-7.251,0,4.592,4.592,0,0,0-3.393-1.405,5.065,5.065,0,0,1-1.012-.083,5.03,5.03,0,0,0,5.044,4.115,4.593,4.593,0,0,1,3.393,1.405,5.03,5.03,0,0,0,7.251,0,4.592,4.592,0,0,1,3.393-1.405,5.03,5.03,0,0,0,5.127-5.127,4.593,4.593,0,0,1,1.405-3.393,5.03,5.03,0,0,0,0-7.251Z" transform="translate(-316.684 -221.524)" fill="#d84318"/>
        <circle id="Ellipse_5143" data-name="Ellipse 5143" cx="8.385" cy="8.385" r="8.385" transform="translate(6.708 6.708)" fill="#fff59d"/>
        <path id="Path_215240" data-name="Path 215240" d="M359.852,253.266a8.384,8.384,0,0,1-11.427,11.427,8.384,8.384,0,1,0,11.427-11.427Z" transform="translate(-340.627 -245.468)" fill="#fff59d"/>
      </g>
      <g id="Group_149783" data-name="Group 149783" transform="translate(22.462 52.897)">
        <path id="Path_215241" data-name="Path 215241" d="M57.52,349.487H30.777a2.057,2.057,0,0,1-2.057-2.057V320.687a2.057,2.057,0,0,1,2.057-2.057H57.52a2.057,2.057,0,0,1,2.057,2.057V347.43A2.057,2.057,0,0,1,57.52,349.487Z" transform="translate(-28.72 -318.63)" fill="#fff59d"/>
        <path id="Path_215242" data-name="Path 215242" d="M175.24,318.63h-5.366a2.057,2.057,0,0,1,2.057,2.057V347.43a2.057,2.057,0,0,1-2.057,2.057h5.366a2.057,2.057,0,0,0,2.057-2.057V320.687A2.057,2.057,0,0,0,175.24,318.63Z" transform="translate(-146.44 -318.63)" fill="#fff59d"/>
        <path id="Path_215243" data-name="Path 215243" d="M104.536,327.85l-1.688-1.125a1.029,1.029,0,0,0-1.141,0l-1.688,1.125a1.029,1.029,0,0,1-1.6-.856V318.63h7.714v8.364A1.029,1.029,0,0,1,104.536,327.85Z" transform="translate(-86.85 -318.63)" fill="#d84318"/>
      </g>
      <path id="Línea_145" data-name="Línea 145" d="M-6.255,8.615A1.245,1.245,0,0,1-7.5,7.37V-6.255A1.245,1.245,0,0,1-6.255-7.5,1.245,1.245,0,0,1-5.01-6.255V7.37A1.245,1.245,0,0,1-6.255,8.615Z" transform="translate(97.139 29.912)"/>
      <path id="Trazado_215244" data-name="Trazado 215244" d="M62.871,40.453a1.245,1.245,0,0,1-1.245-1.245V2.922A2.925,2.925,0,0,1,64.548,0h58.361a2.925,2.925,0,0,1,2.922,2.922V17.847a1.245,1.245,0,1,1-2.49,0V2.922a.432.432,0,0,0-.432-.432H64.548a.432.432,0,0,0-.432.432V39.208A1.245,1.245,0,0,1,62.871,40.453Z" transform="translate(-33.701)"/>
      <path id="Línea_146" data-name="Línea 146" d="M-6.255,2.869A1.245,1.245,0,0,1-7.5,1.624V-6.255A1.245,1.245,0,0,1-6.255-7.5,1.245,1.245,0,0,1-5.01-6.255V1.624A1.245,1.245,0,0,1-6.255,2.869Z" transform="translate(35.425 51.273)"/>
      <path id="Trazado_215245" data-name="Trazado 215245" d="M233.885,442.191H195.939a1.245,1.245,0,1,1,0-2.49h37.946a.432.432,0,0,0,.432-.432V429.54a1.245,1.245,0,0,1,2.49,0v9.729A2.926,2.926,0,0,1,233.885,442.191Z" transform="translate(-144.678 -357.192)"/>
      <path id="Trazado_215246" data-name="Trazado 215246" d="M179.924,39.847H149.067a2.59,2.59,0,0,1-2.587-2.587V34.913a2.59,2.59,0,0,1,2.587-2.587h30.857a2.59,2.59,0,0,1,2.587,2.587V37.26a2.586,2.586,0,0,1-2.587,2.587Zm-30.857-5.031-.1,2.444,30.954.1a.108.108,0,0,0,.1-.1V34.913Z" transform="translate(-104.468 -26.959)"/>
      <path id="Trazado_215247" data-name="Trazado 215247" d="M387.125,376.8a2.26,2.26,0,0,1-.96-.216,2.231,2.231,0,0,1-1.3-2.039V366.63a1.245,1.245,0,0,1,2.49,0v7.4l1.339-1.116a2.251,2.251,0,0,1,2.882,0l1.339,1.116V363.6a1.245,1.245,0,0,1,2.49,0v10.948a2.251,2.251,0,0,1-3.693,1.729l-1.577-1.314-1.578,1.315A2.236,2.236,0,0,1,387.125,376.8Z" transform="translate(-303.281 -302.195)"/>
      <path id="Trazado_215248" data-name="Trazado 215248" d="M338.637,381.831a2.259,2.259,0,0,1-.96-.216,2.231,2.231,0,0,1-1.3-2.039V363.6a1.245,1.245,0,0,1,2.49,0v15.469l1.339-1.116a2.251,2.251,0,0,1,2.882,0l1.339,1.116V366.631a1.245,1.245,0,0,1,2.49,0v12.945a2.251,2.251,0,0,1-3.693,1.729l-1.577-1.314-1.578,1.315A2.236,2.236,0,0,1,338.637,381.831Z" transform="translate(-262.843 -302.196)"/>
      <path id="Trazado_215249" data-name="Trazado 215249" d="M310.294,198.8a6.223,6.223,0,0,1,4.523,1.925,3.357,3.357,0,0,0,2.407,1.024l.187,0a6.275,6.275,0,0,1,6.274,6.4,3.349,3.349,0,0,0,1.023,2.471,6.275,6.275,0,0,1,0,9.045,3.349,3.349,0,0,0-1.024,2.471,6.275,6.275,0,0,1-6.274,6.4l-.186-1.247v1.245a3.357,3.357,0,0,0-2.407,1.024,6.275,6.275,0,0,1-9.045,0,3.357,3.357,0,0,0-2.407-1.024l-.186,0a6.275,6.275,0,0,1-6.274-6.4,3.349,3.349,0,0,0-1.023-2.471,6.275,6.275,0,0,1,0-9.045,3.349,3.349,0,0,0,1.023-2.471,6.275,6.275,0,0,1,6.274-6.4l.187,0a3.356,3.356,0,0,0,2.407-1.024A6.222,6.222,0,0,1,310.294,198.8Zm6.929,5.44a5.859,5.859,0,0,1-4.2-1.788,3.785,3.785,0,0,0-5.456,0,5.859,5.859,0,0,1-4.2,1.788l-.187,0a3.785,3.785,0,0,0-3.784,3.859,5.847,5.847,0,0,1-1.787,4.314,3.784,3.784,0,0,0,0,5.456,5.846,5.846,0,0,1,1.787,4.314,3.785,3.785,0,0,0,3.784,3.859l.186,1.243v-1.245a5.859,5.859,0,0,1,4.2,1.788,3.785,3.785,0,0,0,5.456,0,5.859,5.859,0,0,1,4.2-1.788l.187,0a3.785,3.785,0,0,0,3.784-3.859,5.847,5.847,0,0,1,1.787-4.314,3.785,3.785,0,0,0,0-5.456,5.847,5.847,0,0,1-1.787-4.314,3.785,3.785,0,0,0-3.784-3.859l-.186-1.243Z" transform="translate(-227.461 -165.794)"/>
      <path id="Elipse_5144" data-name="Elipse 5144" d="M2.13-7.5a9.641,9.641,0,0,1,9.63,9.63,9.641,9.641,0,0,1-9.63,9.63A9.641,9.641,0,0,1-7.5,2.13,9.641,9.641,0,0,1,2.13-7.5Zm0,16.77A7.14,7.14,0,1,0-5.01,2.13,7.148,7.148,0,0,0,2.13,9.27Z" transform="translate(80.703 47.211)"/>
      <path id="Trazado_215250" data-name="Trazado 215250" d="M93.2,323.013a2.275,2.275,0,0,1-2.274-2.274v-8.364a1.245,1.245,0,1,1,2.49,0v7.959l1.351-.9a2.268,2.268,0,0,1,2.522,0l1.351.9v-7.959a1.245,1.245,0,1,1,2.49,0v8.364a2.274,2.274,0,0,1-3.535,1.892l-1.567-1.045-1.567,1.045A2.271,2.271,0,0,1,93.2,323.013Z" transform="translate(-58.134 -259.478)"/>
      <path id="Trazado_215251" data-name="Trazado 215251" d="M51.261,344.477H24.518a3.306,3.306,0,0,1-3.3-3.3v-8.9a1.245,1.245,0,0,1,2.49,0v8.9a.813.813,0,0,0,.812.812H51.261a.813.813,0,0,0,.812-.812V314.432a.813.813,0,0,0-.812-.812H24.518a.813.813,0,0,0-.812.812v12.033a1.245,1.245,0,1,1-2.49,0V314.432a3.306,3.306,0,0,1,3.3-3.3H51.261a3.306,3.306,0,0,1,3.3,3.3v26.743A3.306,3.306,0,0,1,51.261,344.477Z" transform="translate(0 -259.478)"/>
      <path id="Línea_147" data-name="Línea 147" d="M-1.112-5.01H-6.255A1.245,1.245,0,0,1-7.5-6.255,1.245,1.245,0,0,1-6.255-7.5h5.143A1.245,1.245,0,0,1,.133-6.255,1.245,1.245,0,0,1-1.112-5.01Z" transform="translate(47.745 83.324)"/>
      <path id="Línea_148" data-name="Línea 148" d="M26.95-5.01H-6.255A1.245,1.245,0,0,1-7.5-6.255,1.245,1.245,0,0,1-6.255-7.5H26.95A1.245,1.245,0,0,1,28.2-6.255,1.245,1.245,0,0,1,26.95-5.01Z" transform="translate(57.226 24.606)"/>
      <path id="Línea_149" data-name="Línea 149" d="M.453-5.01H-6.255A1.245,1.245,0,0,1-7.5-6.255,1.245,1.245,0,0,1-6.255-7.5H.453A1.245,1.245,0,0,1,1.7-6.255,1.245,1.245,0,0,1,.453-5.01Z" transform="translate(45.487 24.606)"/>
      <path id="Línea_150" data-name="Línea 150" d="M35.335-5.01H-6.255A1.245,1.245,0,0,1-7.5-6.255,1.245,1.245,0,0,1-6.255-7.5h41.59A1.245,1.245,0,0,1,36.58-6.255,1.245,1.245,0,0,1,35.335-5.01Z" transform="translate(42.133 34.668)"/>
      <path id="Línea_151" data-name="Línea 151" d="M42.043-5.01h-48.3A1.245,1.245,0,0,1-7.5-6.255,1.245,1.245,0,0,1-6.255-7.5h48.3a1.245,1.245,0,0,1,1.245,1.245A1.245,1.245,0,0,1,42.043-5.01Z" transform="translate(42.133 29.637)"/>
      <g id="Group_149784" data-name="Group 149784" transform="translate(34.633 32.199)">
        <path id="Línea_152" data-name="Línea 152" d="M8.838-5.01H-6.255A1.245,1.245,0,0,1-7.5-6.255,1.245,1.245,0,0,1-6.255-7.5H8.838a1.245,1.245,0,0,1,1.245,1.245A1.245,1.245,0,0,1,8.838-5.01Z" transform="translate(17.562 7.5)"/>
        <path id="Línea_153" data-name="Línea 153" d="M-1.224-5.01H-6.255A1.245,1.245,0,0,1-7.5-6.255,1.245,1.245,0,0,1-6.255-7.5h5.031A1.245,1.245,0,0,1,.021-6.255,1.245,1.245,0,0,1-1.224-5.01Z" transform="translate(7.5 7.5)"/>
        <path id="Línea_154" data-name="Línea 154" d="M10.515-5.01H-6.255A1.245,1.245,0,0,1-7.5-6.255,1.245,1.245,0,0,1-6.255-7.5h16.77A1.245,1.245,0,0,1,11.76-6.255,1.245,1.245,0,0,1,10.515-5.01Z" transform="translate(7.5 17.562)"/>
        <path id="Línea_155" data-name="Línea 155" d="M18.9-5.01H-6.255A1.245,1.245,0,0,1-7.5-6.255,1.245,1.245,0,0,1-6.255-7.5H18.9a1.245,1.245,0,0,1,1.245,1.245A1.245,1.245,0,0,1,18.9-5.01Z" transform="translate(7.5 12.531)"/>
      </g>
    </g>
  </g>
</svg>
