<svg xmlns="http://www.w3.org/2000/svg" xmlns:xlink="http://www.w3.org/1999/xlink" width="85" height="85" viewBox="0 0 85 85">
  <defs>
    <clipPath id="clip-path">
      <rect id="Rect치ngulo_42161" data-name="Rect치ngulo 42161" width="68.448" height="85" fill="none"/>
    </clipPath>
  </defs>
  <g id="Grupo_149665" data-name="Grupo 149665" transform="translate(-180 -408)">
    <g id="Grupo_142044" data-name="Grupo 142044" transform="translate(0 23)">
      <rect id="Rect치ngulo_42162" data-name="Rect치ngulo 42162" width="85" height="85" transform="translate(180 385)" fill="none"/>
      <g id="Grupo_142043" data-name="Grupo 142043" transform="translate(187.875 385)">
        <g id="Grupo_142042" data-name="Grupo 142042" clip-path="url(#clip-path)">
          <path id="Trazado_190942" data-name="Trazado 190942" d="M54.033,255.426l2.107,1.159a3.658,3.658,0,0,0,4.953-1.438c.967-1.757.641-3.8-.791-4.594a3.635,3.635,0,0,0,5.027-4.778l.547-.228L41.184,225.892c-7.043-4.75-11.951,1.371-16.793-1.354l-6.415-2.959a2.18,2.18,0,0,0-2.882,1.051L8.206,237.284A2.177,2.177,0,0,0,9.282,240.2c2.288,1.031,5.8,2.609,6.514,2.888,2.195.852,1.471,4.282,2.673,5.847,1.849,2.41,2.151,4.167,3.724,5.071l22.293,12.8a3.634,3.634,0,0,0,4.953-1.438,3.677,3.677,0,0,0-1.433-4.961l2.511,1.41a3.647,3.647,0,0,0,3.516-6.391Z" transform="translate(-6.666 -184.624)" fill="#ffece4" fill-rule="evenodd"/>
          <path id="Trazado_190943" data-name="Trazado 190943" d="M69.941,226.477l-.736-.586c-7.043-4.75-11.951,1.371-16.793-1.354L46,221.578a2.18,2.18,0,0,0-2.882,1.051l-1.523,3.24c1.515-.76,3.32-.3,5.322.9,9.594,5.752,12.89-.479,20.415,2.181q.453-.429.888-.867C68.766,227.532,69.342,226.99,69.941,226.477Zm17.123,23.37,1.259.705a3.647,3.647,0,0,0,4.818-1.213l-11.8-6.708a1.733,1.733,0,0,0-1.7,3.021C82.148,247.087,87.13,249.884,87.064,249.847Zm-5.591,5.262-8.091-4.595a1.733,1.733,0,1,1,1.7-3.021l13.881,7.9a3.661,3.661,0,0,1-4.8,1.189Zm-11.221,1.864a2.465,2.465,0,0,0,1.006.716l5.661,3.23,1.655.918a3.654,3.654,0,0,0,4.831-1.232l-10.928-6.2a1.733,1.733,0,0,0-2.226,2.566Zm-.078,8.493,1.651-3.139,5.562,3.167a3.632,3.632,0,0,1-4.881,1.312Z" transform="translate(-34.688 -184.624)" fill="#ffcbbe" fill-rule="evenodd"/>
          <path id="Trazado_190944" data-name="Trazado 190944" d="M80.418,379.289a3.772,3.772,0,0,1,4.565-.8,3.718,3.718,0,0,1,1.246,1.078,3.775,3.775,0,0,1,.295,4.005L84.3,387.721a3.755,3.755,0,0,1-7.008-2.431,3.755,3.755,0,0,1-6.765-2.75,3.756,3.756,0,1,1-6.632-3.527l.7-1.309a3.755,3.755,0,0,1-5.839-4.549l2.316-4.33a3.756,3.756,0,0,1,6.729,3.33,3.755,3.755,0,0,1,6.181,3.693,3.755,3.755,0,0,1,6.432,3.44Z" transform="translate(-48.637 -305.939)" fill="#f6dccd" fill-rule="evenodd"/>
          <path id="Trazado_190945" data-name="Trazado 190945" d="M70.321,378.847a3.771,3.771,0,0,1-4.3.534,3.733,3.733,0,0,1-.843-.616c1.152.051,1.668-.857,2.192-1.78l3.934-6.922a2.143,2.143,0,0,0,.1-1.85,3.75,3.75,0,0,1,2.123,5.084Zm5.932,4.836,3.456-6.694a3.75,3.75,0,0,0-2.436-4.486,2.115,2.115,0,0,1,.088,1.442l-5.2,10.079a2.273,2.273,0,0,1-1.514.88,3.755,3.755,0,0,0,5.611-1.221Zm14.031-4.247a3.758,3.758,0,0,1,1.962,5.276l-2.221,4.152a3.767,3.767,0,0,1-5.083,1.541l-.061-.033a1.314,1.314,0,0,0,.747-.572l4.635-8.976a1.744,1.744,0,0,0,.02-1.388m-7.267,7a3.769,3.769,0,0,1-4.824,1.124,3.833,3.833,0,0,1-.353-.214,3.12,3.12,0,0,0,1.547-1.472l4.319-8.365a1.559,1.559,0,0,0-.015-1.567,3.751,3.751,0,0,1,2.448,4.493Z" transform="translate(-54.359 -307.082)" fill="#f1cbbc" fill-rule="evenodd"/>
          <path id="Trazado_190946" data-name="Trazado 190946" d="M153.869,246.561l12.614,7.189a3.728,3.728,0,0,1,1.512,1.614l7.118-2.97a2.178,2.178,0,0,0,1.191-2.8l-5.941-15.325a2.177,2.177,0,0,0-3.057-1.133l-4.258,2.279c-5.086,2.645-9.982-6.257-19.191.06a23.131,23.131,0,0,0-3.34,2.83,44.318,44.318,0,0,1-9.205,6.949.436.436,0,0,0-.124.644C138.494,255.3,147.385,242.866,153.869,246.561Z" transform="translate(-109.331 -194.214)" fill="#f6dccd" fill-rule="evenodd"/>
          <path id="Trazado_190947" data-name="Trazado 190947" d="M169.082,308.192l2.83,1.613a3.728,3.728,0,0,1,1.512,1.614l7.118-2.97a2.178,2.178,0,0,0,1.192-2.794l-1.742-4.495c.081,1.429-.251,2.686-1.721,3.285Zm-31.475-5.1c7.107,7.188,15.5-4,21.692-.474C149.49,295.972,145.836,304.727,137.607,303.09Z" transform="translate(-114.761 -250.268)" fill="#f1cbbc" fill-rule="evenodd"/>
          <path id="Trazado_190948" data-name="Trazado 190948" d="M133.661,37.066a16.3,16.3,0,0,1-18.782,0l-5.488,2.419a.5.5,0,0,1-.663-.642L111,33.212a16.3,16.3,0,1,1,26.534,0l2.274,5.631a.5.5,0,0,1-.663.642Z" transform="translate(-90.046 -6.211)" fill="#a2e19f" fill-rule="evenodd"/>
          <path id="Trazado_190949" data-name="Trazado 190949" d="M211.281,33.213l2.233,5.527,1.693.746a.5.5,0,0,0,.663-.643L213.6,33.213A16.3,16.3,0,0,0,200.328,7.448q-.583,0-1.157.04a16.3,16.3,0,0,1,12.11,25.724Z" transform="translate(-166.104 -6.211)" fill="#97cf92" fill-rule="evenodd"/>
          <path id="Trazado_190950" data-name="Trazado 190950" d="M19.247,17.626a14.974,14.974,0,0,1,29.948,0,14.837,14.837,0,0,1-2.788,8.695,1.317,1.317,0,0,0-.149,1.27l1.5,3.735-3.618-1.593a1.323,1.323,0,0,0-1.3.129,14.964,14.964,0,0,1-17.245,0,1.34,1.34,0,0,0-1.308-.129l-3.61,1.593,1.5-3.735a1.317,1.317,0,0,0-.149-1.27A14.838,14.838,0,0,1,19.247,17.626ZM16.992,33.363a1.325,1.325,0,0,0,1.762,1.712L24.7,32.459a17.625,17.625,0,0,0,19.046,0l5.944,2.616a1.325,1.325,0,0,0,1.762-1.712l-2.467-6.108a17.457,17.457,0,0,0,2.866-9.629,17.629,17.629,0,0,0-35.258,0,17.457,17.457,0,0,0,2.866,9.629Zm8.615-15.737a1.574,1.574,0,1,0,1.574-1.577,1.575,1.575,0,0,0-1.574,1.577m14.081,0a1.574,1.574,0,1,0,1.574-1.577,1.575,1.575,0,0,0-1.574,1.577m-7.064,0a1.578,1.578,0,1,0,1.582-1.577A1.582,1.582,0,0,0,32.624,17.626ZM58.765,60.032A5.065,5.065,0,0,0,57.4,58.888L45.037,51.844a6.66,6.66,0,0,0-3.368-.871,18.7,18.7,0,0,0-6.68,1.813c-4.135,1.672-7.745,3.137-11.121-.467a43.713,43.713,0,0,0,8.372-6.473,22.216,22.216,0,0,1,3.031-2.577c4.793-3.314,8.113-1.957,11.324-.644,2.373.97,4.824,1.971,7.409.628l4.973-2.663,6.438,16.606Zm-1.778,4.224a2.287,2.287,0,0,0-.9-3.06L43.721,54.151c-2.083-1.19-4.707-.131-7.738,1.1-4.6,1.865-10.338,4.186-15.193-2.505a1.343,1.343,0,0,1-.227-1.059,1.321,1.321,0,0,1,.642-.873,42.588,42.588,0,0,0,9.147-6.832c.6-.6,1.2-1.157,1.8-1.666-2.663-1.164-4.934-.628-7.322-.065-2.365.56-4.816,1.139-7.33-.249l-6.962-3.214L3.1,54.61l.352.158c2.1.945,6,2.7,6.712,2.982,1.817.7,2.295,2.409,2.569,3.82a4.9,4.9,0,0,1,8.129,2.064,5.536,5.536,0,0,1,.18.861A4.881,4.881,0,0,1,26.7,67.868a1.183,1.183,0,0,1,.047.161,5.69,5.69,0,0,1,3.884.314,5.27,5.27,0,0,1,2.42,3.057,5.013,5.013,0,0,1,1.715-.262,4.909,4.909,0,0,1,3.61,1.742l5.412,2.992a2.245,2.245,0,0,0,3.047-.887,2.268,2.268,0,0,0-.893-3.055l-7.636-4.3a1.329,1.329,0,0,1,1.308-2.315l9.648,5.394a2.239,2.239,0,0,0,1.707.184A2.2,2.2,0,0,0,52.3,69.828a2.261,2.261,0,0,0-.893-3.055l-7.628-4.315a1.329,1.329,0,0,1,1.308-2.314l8.858,5.005a2.161,2.161,0,0,0,1.668.191A2.238,2.238,0,0,0,56.988,64.256ZM42.366,80.685a2.255,2.255,0,0,1-3.054.885l-1.621-.89,1.253-2.333a4.807,4.807,0,0,0,.548-1.8l1.981,1.086v0A2.259,2.259,0,0,1,42.366,80.685Zm-9.273,1.564a2.219,2.219,0,0,1-1.707-.164,2.248,2.248,0,0,1-.924-3.038s2.177-4.067,2.177-4.069A2.247,2.247,0,0,1,36.6,77.1l-2.177,4.067a2.22,2.22,0,0,1-1.331,1.086m-6.61-2.789a2.24,2.24,0,0,1-2.631-3.2s2.483-4.648,2.483-4.65a2.28,2.28,0,0,1,3.047-.92,2.256,2.256,0,0,1,.916,3.038l-2.49,4.65a2.215,2.215,0,0,1-1.324,1.086m-6.892-2.272a2.242,2.242,0,0,1-2.631-3.2s3.078-5.754,3.078-5.756a2.245,2.245,0,0,1,3.955,2.125L20.916,76.1A2.212,2.212,0,0,1,19.592,77.189Zm-6.743-5.905a2.243,2.243,0,0,1-.924-3.04S14.188,64,14.2,64a2.243,2.243,0,1,1,3.955,2.118L15.88,70.368a2.25,2.25,0,0,1-3.031.915Zm55.51-13.85-7.448-19.2a1.326,1.326,0,0,0-1.864-.691L52.766,40.9c-1.41.734-2.811.226-5.169-.736-3.164-1.295-7.456-3.043-13.04.4C30.5,38.182,27.04,39,24.22,39.662c-2.146.506-3.837.906-5.459-.007a.6.6,0,0,0-.1-.048l-8.207-3.787a1.323,1.323,0,0,0-1.754.641S.131,54.692.123,54.7a1.342,1.342,0,0,0,.7,1.8c.11.048,7.659,3.445,8.38,3.724.564.219.744.9.995,2.281a9.733,9.733,0,0,0,.6,2.22L9.583,66.991A4.9,4.9,0,0,0,13.891,74.2c.071,0,.149,0,.219-.008a4.913,4.913,0,0,0,2.514,5.168,4.989,4.989,0,0,0,4.73-.059c-.118.068.861,1.311.979,1.429a4.962,4.962,0,0,0,1.637,1.1,4.909,4.909,0,0,0,3.869-.051c-.345.154,1.645,2.238,1.856,2.381a4.925,4.925,0,0,0,4.166.631A4.857,4.857,0,0,0,36.4,83l1.637.9a4.833,4.833,0,0,0,2.349.606,4.891,4.891,0,0,0,4.84-5.716,4.887,4.887,0,0,0,3.931-2.522,4.793,4.793,0,0,0,.587-2.655,4.82,4.82,0,0,0,1.966-.163,4.863,4.863,0,0,0,3.477-5.371,4.935,4.935,0,0,0,1.159-.183,4.877,4.877,0,0,0,3.509-5.439l7.785-3.32A1.332,1.332,0,0,0,68.359,57.434Z" transform="translate(0 -0.001)" fill-rule="evenodd"/>
        </g>
      </g>
    </g>
  </g>
</svg>
