<svg xmlns="http://www.w3.org/2000/svg" width="1240" height="331" viewBox="0 0 1240 331">
  <g id="Grupo_149698" data-name="Grupo 149698" transform="translate(7696 6698)">
    <g id="Grupo_149696" data-name="Grupo 149696" transform="translate(-7876 -10814)">
      <path id="Polígono_5" data-name="Polígono 5" d="M111.872,21.028a14,14,0,0,1,24.255,0l99.764,172.978A14,14,0,0,1,223.764,215H24.236a14,14,0,0,1-12.128-20.994Z" transform="translate(305 4153)" fill="#d84318"/>
      <path id="Polígono_6" data-name="Polígono 6" d="M111.872,21.028a14,14,0,0,1,24.255,0l99.764,172.978A14,14,0,0,1,223.764,215H24.236a14,14,0,0,1-12.128-20.994Z" transform="translate(553 4153)" fill="#d84318"/>
      <path id="Polígono_9" data-name="Polígono 9" d="M111.36,21.134a14,14,0,0,1,24.279,0l99.313,172.893A14,14,0,0,1,222.813,215H24.187a14,14,0,0,1-12.14-20.973Z" transform="translate(924 4331) rotate(180)" fill="#1b3f5e"/>
      <path id="Polígono_7" data-name="Polígono 7" d="M111.36,21.134a14,14,0,0,1,24.279,0l99.313,172.893A14,14,0,0,1,222.813,215H24.187a14,14,0,0,1-12.14-20.973Z" transform="translate(801 4153)" fill="#d84318"/>
      <path id="Polígono_12" data-name="Polígono 12" d="M111.872,21.028a14,14,0,0,1,24.255,0l99.764,172.978A14,14,0,0,1,223.764,215H24.236a14,14,0,0,1-12.128-20.994Z" transform="translate(1048 4153)" fill="#d84318"/>
      <path id="Polígono_8" data-name="Polígono 8" d="M112.385,20.922a14,14,0,0,1,24.231,0L236.83,193.984A14,14,0,0,1,224.715,215H24.285A14,14,0,0,1,12.17,193.984Z" transform="translate(677 4331) rotate(180)" fill="#1b3f5e"/>
      <path id="Polígono_10" data-name="Polígono 10" d="M111.872,21.028a14,14,0,0,1,24.255,0l99.764,172.978A14,14,0,0,1,223.764,215H24.236a14,14,0,0,1-12.128-20.994Z" transform="translate(428 4331) rotate(180)" fill="#1b3f5e"/>
      <path id="Polígono_11" data-name="Polígono 11" d="M112.385,20.922a14,14,0,0,1,24.231,0L236.83,193.984A14,14,0,0,1,224.715,215H24.285A14,14,0,0,1,12.17,193.984Z" transform="translate(1173 4331) rotate(180)" fill="#1b3f5e"/>
      <path id="Polígono_13" data-name="Polígono 13" d="M111.872,21.028a14,14,0,0,1,24.255,0l99.764,172.978A14,14,0,0,1,223.764,215H24.236a14,14,0,0,1-12.128-20.994Z" transform="translate(1420 4331) rotate(180)" fill="#1b3f5e"/>
      <text id="Método_de_pago" data-name="Método de pago" transform="translate(354 4302)" fill="#fff" font-size="20" font-family="Roboto-Black, Roboto" font-weight="800"><tspan x="-72.705" y="21">Método de pago</tspan></text>
      <text id="Datos_del_cliente" data-name="Datos del cliente" transform="translate(473 4156)" fill="#fff" font-size="20" font-family="Roboto-Black, Roboto" font-weight="800"><tspan x="-75.249" y="21">Datos del cliente</tspan></text>
      <text id="Detalles_de_la_cotización_" data-name="Detalles de la cotización " transform="translate(735 4156)" fill="#fff" font-size="20" font-family="Roboto-Black, Roboto" font-weight="800"><tspan x="-60.82" y="21">Detalles de la </tspan><tspan x="-46.646" y="48">cotización </tspan></text>
      <text id="Producto_o_servicio" data-name="Producto o servicio" transform="translate(996 4156)" fill="#fff" font-size="20" font-family="Roboto-Black, Roboto" font-weight="800"><tspan x="-49.204" y="21">Producto o </tspan><tspan x="-35.918" y="48">servicio</tspan></text>
      <text id="Precio_" data-name="Precio " transform="translate(1263 4156)" fill="#fff" font-size="20" font-family="Roboto-Black, Roboto" font-weight="800"><tspan x="-29.302" y="21">Precio </tspan></text>
      <text id="Información_de_la_empresa" data-name="Información de la empresa" transform="translate(249 4156)" fill="#fff" font-size="20" font-family="Roboto-Black, Roboto" font-weight="800"><tspan x="-54.805" y="21">Información </tspan><tspan x="-21.616" y="48">de la </tspan><tspan x="-39.351" y="75">empresa</tspan></text>
      <text id="Entrega" transform="translate(641 4302)" fill="#fff" font-size="20" font-family="Roboto-Black, Roboto" font-weight="800"><tspan x="-34.961" y="21">Entrega</tspan></text>
      <text id="Garantía_" data-name="Garantía " transform="translate(884 4302)" fill="#fff" font-size="20" font-family="Roboto-Black, Roboto" font-weight="800"><tspan x="-38.306" y="21">Garantía </tspan></text>
      <text id="Términos_legales_" data-name="Términos legales " transform="translate(1093 4302)" fill="#fff" font-size="20" font-family="Roboto-Black, Roboto" font-weight="800"><tspan x="0" y="21">Términos legales </tspan></text>
    </g>
    <g id="Grupo_149697" data-name="Grupo 149697" transform="translate(-8096 -12269.991)">
      <rect id="Rectángulo_33775" data-name="Rectángulo 33775" width="1240" height="40" transform="translate(400 5862.991)" fill="#e8e8e8"/>
      <text id="Fuente:_Elaboración_propia_del_experto" data-name="Fuente: Elaboración propia del experto" transform="translate(422 5873.991)" fill="#12263f" font-size="14" font-family="Roboto-Regular, Roboto"><tspan x="0" y="15">Fuente: Elaboración propia del experto</tspan></text>
    </g>
  </g>
</svg>
