<svg xmlns="http://www.w3.org/2000/svg" xmlns:xlink="http://www.w3.org/1999/xlink" width="130.281" height="29.844" viewBox="0 0 130.281 29.844">
  <defs>
    <radialGradient id="radial-gradient" cx="0.5" cy="0.5" r="0.403" gradientTransform="translate(-0.416) scale(1.833 1)" gradientUnits="objectBoundingBox">
      <stop offset="0" stop-color="#102538"/>
      <stop offset="1" stop-color="#1b3f5e"/>
    </radialGradient>
    <radialGradient id="radial-gradient-2" cx="0.5" r="0.403" xlink:href="#radial-gradient"/>
    <radialGradient id="radial-gradient-3" cx="0.5" r="0.403" xlink:href="#radial-gradient"/>
    <radialGradient id="radial-gradient-4" cx="0.5" r="0.403" xlink:href="#radial-gradient"/>
    <radialGradient id="radial-gradient-6" cx="0.5" r="0.403" xlink:href="#radial-gradient"/>
    <radialGradient id="radial-gradient-7" cx="0.5" r="0.403" xlink:href="#radial-gradient"/>
  </defs>
  <g id="Grupo_149829" data-name="Grupo 149829" transform="translate(10219.652 13439.566)">
    <g id="Grupo_149825" data-name="Grupo 149825" transform="translate(-11243.969 -13493.615)">
      <path id="Trazado_191502" data-name="Trazado 191502" d="M1033.581,54.049h-9.264l7.021,14.922-7.021,14.922h9.264l7.021-14.922Z" fill="url(#radial-gradient)"/>
      <path id="Trazado_191503" data-name="Trazado 191503" d="M1049.866,54.049H1040.6l7.021,14.922L1040.6,83.893h9.264l7.021-14.922Z" fill="url(#radial-gradient-2)"/>
      <path id="Trazado_191504" data-name="Trazado 191504" d="M1066.151,54.049h-9.264l7.021,14.922-7.021,14.922h9.264l7.021-14.922Z" fill="url(#radial-gradient-3)"/>
      <path id="Trazado_191505" data-name="Trazado 191505" d="M1082.436,54.049h-9.264l7.021,14.922-7.021,14.922h9.264l7.021-14.922Z" fill="url(#radial-gradient-4)"/>
      <path id="Trazado_191506" data-name="Trazado 191506" d="M1098.721,54.049h-9.264l7.021,14.922-7.021,14.922h9.264l7.021-14.922Z" fill="url(#radial-gradient-2)"/>
      <path id="Trazado_191507" data-name="Trazado 191507" d="M1115.007,54.049h-9.264l7.021,14.922-7.021,14.922h9.264l7.021-14.922Z" fill="url(#radial-gradient-6)"/>
      <path id="Trazado_191508" data-name="Trazado 191508" d="M1131.292,54.049h-9.264l7.021,14.922-7.021,14.922h9.264l7.021-14.922Z" fill="url(#radial-gradient-7)"/>
      <path id="Trazado_191509" data-name="Trazado 191509" d="M1147.577,54.049h-9.264l7.021,14.922-7.021,14.922h9.264l7.021-14.922Z" fill="url(#radial-gradient-2)"/>
    </g>
  </g>
</svg>
