<svg xmlns="http://www.w3.org/2000/svg" xmlns:xlink="http://www.w3.org/1999/xlink" width="465" height="255" viewBox="0 0 465 255">
  <defs>
    <clipPath id="clip-path">
      <rect id="Rectangle_43028" data-name="Rectangle 43028" width="138.616" height="121.772" fill="none"/>
    </clipPath>
  </defs>
  <g id="c1" transform="translate(-850 -1586)">
    <rect id="Image_Place_Holder" data-name="Image Place Holder" width="465" height="255" transform="translate(850 1586)" fill="#e8e8e8"/>
    <g id="Group_144279" data-name="Group 144279" transform="translate(-72 -176)">
      <g id="Group_144277" data-name="Group 144277" transform="translate(1147 1828)">
        <g id="Group_144276" data-name="Group 144276" clip-path="url(#clip-path)">
          <path id="Path_195581" data-name="Path 195581" d="M77.313,141.833a15.161,15.161,0,0,0-15.161-15.161H40.494L25.306,149.454a14.376,14.376,0,0,1-17.3,5.374L27.5,113.677,61.47,100.465a28.673,28.673,0,0,1,24.62,1.841l17.755,10.139a15.313,15.313,0,0,0,12.454,1.232v38.985" transform="translate(-5.839 -71.847)" fill="#ffcebf"/>
          <rect id="Rectangle_43021" data-name="Rectangle 43021" width="17.327" height="56.312" transform="translate(119.124 33.166)" fill="#9dc6fb"/>
          <rect id="Rectangle_43022" data-name="Rectangle 43022" width="17.327" height="6.498" transform="translate(119.124 82.98)" fill="#80b4fb"/>
          <path id="Path_195582" data-name="Path 195582" d="M451.5,175.148H434.172a2.166,2.166,0,0,1-2.166-2.166V116.67a2.166,2.166,0,0,1,2.166-2.166H451.5a2.166,2.166,0,1,1,0,4.332H436.338v51.981H451.5a2.166,2.166,0,1,1,0,4.332" transform="translate(-315.048 -83.504)"/>
          <rect id="Rectangle_43023" data-name="Rectangle 43023" width="8.663" height="47.649" transform="translate(110.46 37.497)" fill="#eaf2ff"/>
          <rect id="Rectangle_43024" data-name="Rectangle 43024" width="8.663" height="6.498" transform="translate(110.46 78.649)" fill="#c1d1f7"/>
          <path id="Path_195583" data-name="Path 195583" d="M410.835,182.485h-8.663a2.166,2.166,0,0,1-2.166-2.166V132.67a2.166,2.166,0,0,1,2.166-2.166h8.663A2.166,2.166,0,0,1,413,132.67v47.649a2.166,2.166,0,0,1-2.166,2.166m-6.5-4.332h4.332V134.836h-4.332Z" transform="translate(-291.712 -95.172)"/>
          <path id="Path_195584" data-name="Path 195584" d="M232.9,148.981a2.166,2.166,0,0,1-2.166-2.166v-36.24a17.5,17.5,0,0,1-11.352-2.1L201.62,98.327a26.51,26.51,0,0,0-22.76-1.689l-7.981,3.1a2.166,2.166,0,1,1-1.628-4.014l.057-.022,7.981-3.1a30.842,30.842,0,0,1,26.48,1.963l17.763,10.152a13.163,13.163,0,0,0,10.686,1.059,2.166,2.166,0,0,1,2.851,2.055v38.985a2.166,2.166,0,0,1-2.166,2.166" transform="translate(-122.442 -66)"/>
          <path id="Path_195585" data-name="Path 195585" d="M1.356,175.95a2.166,2.166,0,0,1-1.2-2.819c.016-.04.033-.079.052-.118L19.7,131.862a2.166,2.166,0,0,1,1.172-1.083l15.161-5.894a2.166,2.166,0,0,1,1.628,4.014l-.057.022L23.258,134.5,5.208,172.585a12.275,12.275,0,0,0,12.454-5.214L32.85,144.586a2.166,2.166,0,0,1,1.806-.969H56.314a17.346,17.346,0,0,1,17.327,17.327,2.166,2.166,0,1,1-4.332,0,13.009,13.009,0,0,0-13-13h-20.5L21.268,169.767A16.618,16.618,0,0,1,1.356,175.95" transform="translate(0 -90.958)"/>
          <rect id="Rectangle_43025" data-name="Rectangle 43025" width="97.436" height="12.992" transform="translate(6.188 103.204) rotate(-60.255)" fill="#fd6930"/>
          <path id="Path_195586" data-name="Path 195586" d="M78.31,83.634l-48.2,84.325-7.055-4.034-.165.292,11.281,6.449L82.536,86.052Z" transform="translate(-16.69 -60.992)" fill="#d45829"/>
          <path id="Path_195587" data-name="Path 195587" d="M27.246,155.836l-11.281-6.449a2.166,2.166,0,0,1-.812-2.953h0L63.527,61.819A2.166,2.166,0,0,1,66.479,61l0,0,11.281,6.449a2.166,2.166,0,0,1,.814,2.953l0,0L30.2,155.032a2.166,2.166,0,0,1-2.955.8h0M19.993,146.7l7.524,4.3L73.736,70.139l-7.524-4.3Z" transform="translate(-10.843 -44.283)"/>
          <path id="Path_195588" data-name="Path 195588" d="M17.81,381.284l-1.884,16.385,13.166-9.936Z" transform="translate(-11.614 -278.058)" fill="#a6806f"/>
          <path id="Path_195589" data-name="Path 195589" d="M7.97,391.6l1.9-16.387a2.166,2.166,0,0,1,3.227-1.624l11.281,6.449a2.166,2.166,0,0,1,.211,3.606L11.419,393.58A2.166,2.166,0,0,1,7.97,391.6Zm5.81-12.63-.937,8.1,6.5-4.914Z" transform="translate(-5.802 -272.24)"/>
          <path id="Path_195590" data-name="Path 195590" d="M229.517,8.891a6.5,6.5,0,0,0-8.866,2.414h0l-3.224,5.642L228.707,23.4l3.224-5.642A6.5,6.5,0,0,0,229.517,8.891Z" transform="translate(-158.562 -5.858)" fill="#596060"/>
          <path id="Path_195591" data-name="Path 195591" d="M244.354,8.059a6.5,6.5,0,0,1,1.316,8.073l-2.724,4.754,4.372,2.5,3.224-5.631a6.5,6.5,0,0,0-6.189-9.7" transform="translate(-177.173 -5.859)" fill="#4c5657"/>
          <path id="Path_195592" data-name="Path 195592" d="M221.786,19.418,210.5,12.969a2.166,2.166,0,0,1-.812-2.953h0l3.227-5.642a8.671,8.671,0,0,1,15.061,8.6l-3.249,5.642a2.166,2.166,0,0,1-2.946.8m-7.25-9.135,7.521,4.3,2.15-3.76a4.328,4.328,0,1,0-7.519-4.29l0,0Z" transform="translate(-152.715 0)"/>
          <rect id="Rectangle_43026" data-name="Rectangle 43026" width="8.661" height="12.992" transform="matrix(0.496, -0.868, 0.868, 0.496, 54.567, 18.59)" fill="#f6f6f6"/>
          <path id="Path_195593" data-name="Path 195593" d="M216.077,40.964l-.5.874,6.909,3.95-3.8,6.646,4.372,2.5,4.3-7.521Z" transform="translate(-157.213 -29.874)" fill="#c1d1f7"/>
          <path id="Path_195594" data-name="Path 195594" d="M197.977,269.333h-6.5l-7.283,5.2a30.21,30.21,0,0,1-22.953,5.144c-3.376-.612-4.556-1.194-13.737-4.635a21.7,21.7,0,0,0-7.6-1.378h-19.9v-4.332A10.829,10.829,0,0,1,130.835,258.5h28.156" transform="translate(-87.517 -188.519)" fill="#ffcebf"/>
          <path id="Path_195595" data-name="Path 195595" d="M195.792,282.5v4.332H191.46l-7.283,5.2a30.208,30.208,0,0,1-28.156,3.7l-8.52-3.195a21.7,21.7,0,0,0-7.618-1.378h-19.9c0-4.47-.068-5.082.217-6.5h19.68a21.7,21.7,0,0,1,7.6,1.378l8.52,3.195a30.2,30.2,0,0,0,28.17-3.7l2.312-2.38a2.166,2.166,0,0,1,1.554-.655Z" transform="translate(-87.498 -206.021)" fill="#ffb09e"/>
          <path id="Path_195596" data-name="Path 195596" d="M205.906,50.962l-11.281-6.449a2.166,2.166,0,0,1-.812-2.953h0l4.3-7.521a2.166,2.166,0,0,1,2.953-.814l0,0,11.281,6.449a2.166,2.166,0,0,1,.814,2.953l0,0-4.3,7.518a2.166,2.166,0,0,1-2.953.814l0,0m-7.253-9.135,7.524,4.3,2.15-3.76-7.521-4.3Z" transform="translate(-141.134 -24.024)"/>
          <path id="Path_195597" data-name="Path 195597" d="M149.432,274.434l-8.52-3.2a19.431,19.431,0,0,0-6.844-1.24h-19.9a2.166,2.166,0,0,1-2.166-2.166V263.5a13.009,13.009,0,0,1,13-13h28.156a2.166,2.166,0,0,1,0,4.332H125a8.663,8.663,0,0,0-8.663,8.663v2.166h17.73a23.789,23.789,0,0,1,8.366,1.516l8.52,3.195a28.009,28.009,0,0,0,26.15-3.438l7.283-5.2a2.167,2.167,0,0,1,1.259-.4h6.5a2.166,2.166,0,1,1,0,4.332h-5.8l-6.717,4.8A32.344,32.344,0,0,1,149.432,274.434Z" transform="translate(-81.682 -182.685)"/>
          <path id="Path_195598" data-name="Path 195598" d="M138.914,120.16l-4.181,1.445-1.628-4.014,8.916-2.867Z" transform="translate(-97.07 -83.664)"/>
          <rect id="Rectangle_43027" data-name="Rectangle 43027" width="4.332" height="56.312" transform="translate(134.285 33.166)"/>
        </g>
      </g>
      <rect id="Rectangle_43030" data-name="Rectangle 43030" width="139" height="139" transform="translate(1147 1820)" fill="none"/>
    </g>
  </g>
</svg>
