<svg xmlns="http://www.w3.org/2000/svg" xmlns:xlink="http://www.w3.org/1999/xlink" width="190" height="90" viewBox="0 0 190 90">
  <defs>
    <clipPath id="clip-path">
      <rect id="Rectangle_42161" data-name="Rectangle 42161" width="67.643" height="84" fill="none"/>
    </clipPath>
  </defs>
  <g id="c1" transform="translate(-180 -1539)">
    <rect id="Rectangle_36775" data-name="Rectangle 36775" width="190" height="90" transform="translate(180 1539)" fill="none"/>
    <g id="Group_129487" data-name="Group 129487" transform="translate(179.813 1134.043)" opacity="0.2">
      <g id="Group_129451" data-name="Group 129451" transform="translate(174.724 459.748) rotate(180)">
        <path id="Path_114977" data-name="Path 114977" d="M12.041,0H0L9.126,19.4,0,38.791H12.041l9.126-19.4Z" transform="translate(0 0)" fill="#d84318"/>
        <path id="Path_114978" data-name="Path 114978" d="M12.041,0H0L9.126,19.4,0,38.791H12.041l9.126-19.4Z" transform="translate(21.167 0)" fill="#d84318"/>
        <path id="Path_114979" data-name="Path 114979" d="M12.041,0H0L9.126,19.4,0,38.791H12.041l9.126-19.4Z" transform="translate(42.335 0)" fill="#d84318"/>
      </g>
      <g id="Group_129486" data-name="Group 129486" transform="translate(16.187 440.353)">
        <path id="Path_114977-2" data-name="Path 114977" d="M12.041,0H0L9.126,19.4,0,38.791H12.041l9.126-19.4Z" transform="translate(0 0)" fill="#1b3f5e"/>
        <path id="Path_114978-2" data-name="Path 114978" d="M12.041,0H0L9.126,19.4,0,38.791H12.041l9.126-19.4Z" transform="translate(21.167 0)" fill="#1b3f5e"/>
        <path id="Path_114979-2" data-name="Path 114979" d="M12.041,0H0L9.126,19.4,0,38.791H12.041l9.126-19.4Z" transform="translate(42.335 0)" fill="#1b3f5e"/>
      </g>
    </g>
    <g id="Group_149678" data-name="Group 149678" transform="translate(53.405 1157)">
      <rect id="Rectangle_42162" data-name="Rectangle 42162" width="83.726" height="83.726" transform="translate(180 385)" fill="none"/>
      <g id="Group_142043" data-name="Group 142043" transform="translate(187.782 385)">
        <g id="Group_142042" data-name="Group 142042" clip-path="url(#clip-path)">
          <path id="Path_190942" data-name="Path 190942" d="M53.491,255.025l2.082,1.145a3.615,3.615,0,0,0,4.895-1.421c.956-1.737.633-3.753-.781-4.54a3.593,3.593,0,0,0,4.968-4.722l.541-.225-24.4-19.424c-6.96-4.694-11.81,1.354-16.6-1.338l-6.339-2.925a2.155,2.155,0,0,0-2.848,1.038L8.2,237.1a2.151,2.151,0,0,0,1.063,2.876c2.262,1.019,5.727,2.578,6.438,2.854,2.169.842,1.454,4.232,2.641,5.779,1.827,2.382,2.125,4.118,3.68,5.011l22.031,12.654a3.592,3.592,0,0,0,4.895-1.421,3.633,3.633,0,0,0-1.416-4.9l2.481,1.393a3.6,3.6,0,0,0,3.474-6.316Z" transform="translate(-6.681 -185.056)" fill="#ffece4" fill-rule="evenodd"/>
          <path id="Path_190943" data-name="Path 190943" d="M69.608,226.417l-.727-.579c-6.96-4.694-11.81,1.354-16.6-1.338l-6.339-2.925a2.155,2.155,0,0,0-2.848,1.038l-1.505,3.2c1.5-.751,3.281-.294,5.259.893,9.481,5.684,12.738-.474,20.175,2.155q.448-.424.877-.857C68.446,227.459,69.015,226.924,69.608,226.417ZM86.53,249.512l1.245.7a3.6,3.6,0,0,0,4.762-1.2l-11.66-6.629a1.713,1.713,0,0,0-1.681,2.985C81.671,246.785,86.594,249.548,86.53,249.512ZM81,254.712l-8-4.541a1.713,1.713,0,1,1,1.681-2.985L88.407,255a3.618,3.618,0,0,1-4.747,1.175Zm-11.089,1.842a2.436,2.436,0,0,0,.995.708l5.594,3.192,1.636.907a3.611,3.611,0,0,0,4.774-1.218l-10.8-6.125a1.713,1.713,0,0,0-2.2,2.535Zm-.077,8.393,1.632-3.1,5.5,3.13a3.59,3.59,0,0,1-4.823,1.3Z" transform="translate(-34.769 -185.056)" fill="#ffcbbe" fill-rule="evenodd"/>
          <path id="Path_190944" data-name="Path 190944" d="M80.158,379.142a3.728,3.728,0,0,1,4.512-.793,3.674,3.674,0,0,1,1.231,1.065,3.73,3.73,0,0,1,.291,3.958L84,387.476a3.711,3.711,0,0,1-6.926-2.4,3.711,3.711,0,0,1-6.685-2.718,3.712,3.712,0,1,1-6.554-3.485l.692-1.294a3.711,3.711,0,0,1-5.77-4.5l2.289-4.279a3.712,3.712,0,0,1,6.65,3.291,3.71,3.71,0,0,1,6.109,3.65,3.711,3.711,0,0,1,6.356,3.4Z" transform="translate(-48.751 -306.656)" fill="#f6dccd" fill-rule="evenodd"/>
          <path id="Path_190945" data-name="Path 190945" d="M70.26,378.722a3.708,3.708,0,0,1-5.08-.081c1.138.051,1.648-.847,2.167-1.759l3.888-6.84a2.118,2.118,0,0,0,.1-1.828,3.706,3.706,0,0,1,2.1,5.024Zm5.862,4.779,3.415-6.615a3.706,3.706,0,0,0-2.407-4.434,2.091,2.091,0,0,1,.087,1.425l-5.143,9.961a2.246,2.246,0,0,1-1.5.87,3.71,3.71,0,0,0,5.545-1.206Zm13.866-4.2a3.686,3.686,0,0,1,1.648,1.255,3.731,3.731,0,0,1,.291,3.958l-2.194,4.1a3.723,3.723,0,0,1-5.024,1.522l-.06-.033a1.3,1.3,0,0,0,.738-.565l4.58-8.87a1.723,1.723,0,0,0,.02-1.371m-7.181,6.915a3.725,3.725,0,0,1-4.767,1.111,3.791,3.791,0,0,1-.349-.212,3.084,3.084,0,0,0,1.529-1.455l4.268-8.266a1.541,1.541,0,0,0-.015-1.548,3.706,3.706,0,0,1,2.419,4.44Z" transform="translate(-54.486 -307.801)" fill="#f1cbbc" fill-rule="evenodd"/>
          <path id="Path_190946" data-name="Path 190946" d="M153.6,246.4l12.465,7.1a3.684,3.684,0,0,1,1.495,1.595l7.034-2.935a2.153,2.153,0,0,0,1.177-2.763L169.9,234.257a2.151,2.151,0,0,0-3.021-1.119l-4.208,2.252c-5.026,2.614-9.865-6.183-18.965.059a22.856,22.856,0,0,0-3.3,2.8,43.8,43.8,0,0,1-9.1,6.867.431.431,0,0,0-.123.636C138.407,255.039,147.193,242.748,153.6,246.4Z" transform="translate(-109.587 -194.669)" fill="#f6dccd" fill-rule="evenodd"/>
          <path id="Path_190947" data-name="Path 190947" d="M168.712,308.1l2.8,1.594A3.684,3.684,0,0,1,173,311.286l7.034-2.935a2.153,2.153,0,0,0,1.178-2.761l-1.722-4.442c.08,1.412-.248,2.654-1.7,3.247Zm-31.105-5.042c7.023,7.1,15.316-3.957,21.437-.468C149.35,296.021,145.74,304.672,137.607,303.055Z" transform="translate(-115.03 -250.854)" fill="#f1cbbc" fill-rule="evenodd"/>
          <path id="Path_190948" data-name="Path 190948" d="M133.359,36.718a16.11,16.11,0,0,1-18.561,0l-5.424,2.39a.492.492,0,0,1-.655-.635l2.248-5.564a16.106,16.106,0,1,1,26.222,0l2.248,5.564a.492.492,0,0,1-.655.635Z" transform="translate(-90.257 -6.225)" fill="#fff59d" fill-rule="evenodd"/>
          <path id="Path_190949" data-name="Path 190949" d="M211.139,32.91l2.206,5.462,1.673.737a.492.492,0,0,0,.655-.635l-2.248-5.564A16.107,16.107,0,0,0,200.314,7.448q-.577,0-1.143.04A16.107,16.107,0,0,1,211.139,32.91Z" transform="translate(-166.493 -6.226)" fill="#ccc47d" fill-rule="evenodd"/>
          <path id="Path_190950" data-name="Path 190950" d="M19.021,17.419a14.8,14.8,0,0,1,29.6,0,14.663,14.663,0,0,1-2.755,8.593,1.3,1.3,0,0,0-.147,1.255L47.2,30.958l-3.576-1.575a1.308,1.308,0,0,0-1.285.128,14.788,14.788,0,0,1-17.042,0A1.324,1.324,0,0,0,24,29.383l-3.568,1.575,1.486-3.691a1.3,1.3,0,0,0-.147-1.255A14.664,14.664,0,0,1,19.021,17.419ZM16.792,32.971a1.31,1.31,0,0,0,1.741,1.692l5.874-2.586a17.417,17.417,0,0,0,18.822,0L49.1,34.662a1.31,1.31,0,0,0,1.741-1.692l-2.438-6.036a17.252,17.252,0,0,0,2.833-9.516,17.421,17.421,0,0,0-34.843,0,17.252,17.252,0,0,0,2.833,9.516Zm8.513-15.552a1.556,1.556,0,1,0,1.556-1.559,1.557,1.557,0,0,0-1.556,1.559m13.915,0a1.556,1.556,0,1,0,1.556-1.559,1.557,1.557,0,0,0-1.556,1.559m-6.981,0A1.559,1.559,0,1,0,33.8,15.86,1.563,1.563,0,0,0,32.24,17.419ZM58.074,59.325a5.006,5.006,0,0,0-1.347-1.13l-12.22-6.962a6.582,6.582,0,0,0-3.328-.861,18.481,18.481,0,0,0-6.6,1.791c-4.086,1.652-7.654,3.1-10.99-.461a43.2,43.2,0,0,0,8.273-6.4,21.955,21.955,0,0,1,3-2.547c4.737-3.275,8.018-1.934,11.191-.636,2.345.958,4.767,1.948,7.321.62l4.915-2.632,6.362,16.41ZM56.317,63.5a2.26,2.26,0,0,0-.89-3.024l-12.22-6.962c-2.059-1.176-4.651-.13-7.647,1.083-4.551,1.843-10.216,4.136-15.014-2.476a1.327,1.327,0,0,1-.224-1.047,1.306,1.306,0,0,1,.635-.863A42.087,42.087,0,0,0,30,43.46c.588-.594,1.184-1.144,1.78-1.646-2.631-1.15-4.876-.62-7.236-.064-2.337.553-4.76,1.125-7.244-.246l-6.88-3.176L3.062,53.967l.348.156c2.074.934,5.928,2.671,6.633,2.947,1.8.694,2.268,2.381,2.539,3.775a4.84,4.84,0,0,1,8.034,2.04,5.471,5.471,0,0,1,.178.851,4.823,4.823,0,0,1,5.588,3.334,1.169,1.169,0,0,1,.046.159,5.623,5.623,0,0,1,3.839.31,5.208,5.208,0,0,1,2.391,3.021,4.955,4.955,0,0,1,1.695-.259,4.851,4.851,0,0,1,3.568,1.721l5.348,2.956a2.218,2.218,0,0,0,3.011-.876,2.241,2.241,0,0,0-.882-3.019l-7.546-4.245a1.314,1.314,0,0,1,1.293-2.287l9.535,5.331a2.213,2.213,0,0,0,1.687.182,2.176,2.176,0,0,0,1.323-1.058,2.234,2.234,0,0,0-.882-3.019l-7.538-4.264a1.314,1.314,0,0,1,1.292-2.287l8.753,4.946a2.136,2.136,0,0,0,1.648.189A2.212,2.212,0,0,0,56.317,63.5ZM41.868,79.736a2.228,2.228,0,0,1-3.018.874l-1.6-.879,1.238-2.305a4.751,4.751,0,0,0,.542-1.781l1.958,1.073v0A2.233,2.233,0,0,1,41.868,79.736ZM32.7,81.282a2.193,2.193,0,0,1-1.687-.162,2.222,2.222,0,0,1-.913-3s2.152-4.02,2.152-4.021a2.22,2.22,0,0,1,3.916,2.094l-2.152,4.02A2.194,2.194,0,0,1,32.7,81.282m-6.532-2.756a2.214,2.214,0,0,1-2.6-3.167s2.453-4.594,2.453-4.6a2.253,2.253,0,0,1,3.011-.909,2.229,2.229,0,0,1,.906,3l-2.461,4.6a2.189,2.189,0,0,1-1.308,1.073M19.361,76.28a2.216,2.216,0,0,1-2.6-3.166S19.8,67.427,19.8,67.426a2.218,2.218,0,0,1,3.908,2.1L20.67,75.208A2.186,2.186,0,0,1,19.361,76.28ZM12.7,70.444a2.217,2.217,0,0,1-.913-3s2.237-4.19,2.244-4.192a2.217,2.217,0,1,1,3.908,2.094l-2.244,4.2a2.224,2.224,0,0,1-3,.9ZM67.555,56.758,60.195,37.78a1.31,1.31,0,0,0-1.842-.683L52.146,40.42c-1.393.725-2.778.223-5.108-.727-3.127-1.28-7.368-3.007-12.886.394-4.009-2.354-7.43-1.549-10.216-.891-2.121.5-3.792.9-5.394-.007a.6.6,0,0,0-.1-.047L10.33,35.4a1.307,1.307,0,0,0-1.734.633S.129,54.049.121,54.061a1.326,1.326,0,0,0,.7,1.775c.108.048,7.569,3.4,8.281,3.68.557.217.735.886.983,2.254a9.619,9.619,0,0,0,.588,2.193L9.471,66.2a4.84,4.84,0,0,0,4.257,7.129c.07,0,.147,0,.217-.008a4.855,4.855,0,0,0,2.484,5.107,4.93,4.93,0,0,0,4.675-.059c-.116.067.851,1.3.967,1.413a4.9,4.9,0,0,0,1.618,1.084,4.852,4.852,0,0,0,3.823-.051c-.341.152,1.625,2.212,1.834,2.353a4.867,4.867,0,0,0,4.117.623,4.8,4.8,0,0,0,2.508-1.772l1.618.887a4.776,4.776,0,0,0,2.322.6,4.833,4.833,0,0,0,4.783-5.649,4.829,4.829,0,0,0,3.885-2.492,4.737,4.737,0,0,0,.58-2.623,4.764,4.764,0,0,0,1.943-.161,4.805,4.805,0,0,0,3.436-5.308,4.876,4.876,0,0,0,1.145-.18,4.82,4.82,0,0,0,3.467-5.375l7.693-3.281A1.316,1.316,0,0,0,67.555,56.758Z" transform="translate(0 -0.001)" fill-rule="evenodd"/>
        </g>
      </g>
    </g>
  </g>
</svg>
