<svg xmlns="http://www.w3.org/2000/svg" width="85" height="85" viewBox="0 0 85 85">
  <g id="c10" transform="translate(2964 7888)">
    <rect id="Rectangle_90112" data-name="Rectangle 90112" width="85" height="85" transform="translate(-2964 -7888)" fill="none"/>
    <g id="contrato" transform="translate(-2964 -7887.322)">
      <g id="Group_149775" data-name="Group 149775" transform="translate(1.232 1.554)">
        <g id="Group_149772" data-name="Group 149772">
          <g id="Group_149766" data-name="Group 149766" transform="translate(5.034)">
            <path id="Path_215126" data-name="Path 215126" d="M39.678,80.839,88.21,84.085a1.643,1.643,0,0,0,1.749-1.529l4.664-69.735a1.643,1.643,0,0,0-1.529-1.749L44.561,7.826a1.643,1.643,0,0,0-1.749,1.529L38.148,79.091A1.643,1.643,0,0,0,39.678,80.839Z" transform="translate(-38.144 -7.822)" fill="#fff59d"/>
          </g>
          <g id="Group_149771" data-name="Group 149771" transform="translate(0 8.36)">
            <g id="Group_149770" data-name="Group 149770">
              <g id="Group_149769" data-name="Group 149769">
                <g id="Group_149768" data-name="Group 149768">
                  <g id="Group_149767" data-name="Group 149767" transform="translate(0 0)">
                    <path id="Path_215127" data-name="Path 215127" d="M9.143,131.888H46.291l13.135-13.077V60.355a1.643,1.643,0,0,0-1.643-1.643H9.143A1.643,1.643,0,0,0,7.5,60.355v69.891A1.643,1.643,0,0,0,9.143,131.888Z" transform="translate(-7.5 -58.712)" fill="#fff"/>
                  </g>
                  <path id="Path_215128" data-name="Path 215128" d="M280.172,58.712H273.6a1.643,1.643,0,0,1,1.643,1.643v58.457L275.2,125.4l6.613-6.584V60.355a1.643,1.643,0,0,0-1.643-1.643Z" transform="translate(-229.889 -58.712)" fill="#fff"/>
                </g>
              </g>
            </g>
            <path id="Path_215129" data-name="Path 215129" d="M243.64,437.107v-11.54a1.643,1.643,0,0,1,1.643-1.643h11.492Z" transform="translate(-204.849 -363.931)" fill="#d2e1f1"/>
          </g>
        </g>
        <g id="Group_149774" data-name="Group 149774" transform="translate(65.533 28.482)">
          <path id="Path_215130" data-name="Path 215130" d="M440.746,192.278l-5.482.027v-8.349A2.751,2.751,0,0,1,438,181.211h0a2.722,2.722,0,0,1,2.742,2.721v8.346Z" transform="translate(-430.528 -181.211)" fill="#d84318"/>
          <path id="Path_215131" data-name="Path 215131" d="M438.363,408.777a9,9,0,0,1-2.662-6.383l-.01-12.151a.193.193,0,0,1,.192-.193l4.934-.024a.191.191,0,0,1,.192.191l.01,12.169a9,9,0,0,1-2.631,6.366Z" transform="translate(-430.884 -355.723)" fill="#1b3f5e"/>
          <path id="Path_215132" data-name="Path 215132" d="M430.1,258.8h0a4.263,4.263,0,0,1-4.294-4.26V219.464a2.023,2.023,0,0,1,2.013-2.023l4.538-.023a2.023,2.023,0,0,1,2.033,2.023V254.5A4.308,4.308,0,0,1,430.1,258.8Z" transform="translate(-422.626 -211.47)" fill="#fff59d"/>
          <path id="Path_215133" data-name="Path 215133" d="M443.486,217.417l-3.9.019a2.022,2.022,0,0,1,1.759,2V254.5a4.3,4.3,0,0,1-2.219,3.757,4.264,4.264,0,0,0,2.107.541h0a4.308,4.308,0,0,0,4.289-4.3V219.44A2.023,2.023,0,0,0,443.486,217.417Z" transform="translate(-433.752 -211.469)" fill="#faee6e"/>
          <path id="Path_215134" data-name="Path 215134" d="M420.37,247.925l-11.764.058a2.182,2.182,0,0,0-2.173,2.176,2.156,2.156,0,0,0,2.173,2.155l9.592-.048V265a2.156,2.156,0,0,0,2.173,2.155,2.182,2.182,0,0,0,2.173-2.176V250.079A2.156,2.156,0,0,0,420.37,247.925Z" transform="translate(-406.433 -236.966)" fill="#d84318"/>
          <g id="Group_149773" data-name="Group 149773" transform="translate(7.595 10.959)">
            <path id="Path_215135" data-name="Path 215135" d="M459.008,247.925l-6.315.031-.027,4.322,4.169-.011V265a2.156,2.156,0,0,0,2.173,2.155,2.182,2.182,0,0,0,2.173-2.176V250.08a2.156,2.156,0,0,0-2.172-2.155Z" transform="translate(-452.666 -247.925)" fill="#d84318"/>
          </g>
        </g>
      </g>
      <g id="Group_149776" data-name="Group 149776" transform="translate(0 0.322)">
        <path id="Path_215136" data-name="Path 215136" d="M61.3,3.575,12.765.329A2.878,2.878,0,0,0,9.7,3.005l-.38,5.677H2.875A2.878,2.878,0,0,0,0,11.556V81.448a2.878,2.878,0,0,0,2.875,2.875H40.023a1.245,1.245,0,0,0,.869-.359L46.5,78.38a1.224,1.224,0,0,0,.175.026l9.574.64a2.946,2.946,0,0,0,3.06-2.676L63.973,6.635A2.9,2.9,0,0,0,61.3,3.575ZM41.255,80.108V71.55a.411.411,0,0,1,.411-.411h8.526Zm15.6-3.9a.411.411,0,0,1-.437.382l-7.6-.509,5.216-5.193a1.232,1.232,0,0,0,.363-.873V11.557a2.878,2.878,0,0,0-2.875-2.875H38.7a1.233,1.233,0,0,0,0,2.464H51.515a.411.411,0,0,1,.411.411V68.675H41.666a2.878,2.878,0,0,0-2.875,2.875V81.858H2.875a.411.411,0,0,1-.411-.411V11.557a.411.411,0,0,1,.411-.411H32.142a1.233,1.233,0,0,0,0-2.464H11.795l.369-5.512a.41.41,0,0,1,.437-.382L61.132,6.033a.411.411,0,0,1,.382.437Z" transform="translate(0 -0.322)" fill="#060606"/>
        <path id="Path_215137" data-name="Path 215137" d="M90.608,237.047h-33.6a1.232,1.232,0,0,0,0,2.464h33.6a1.232,1.232,0,0,0,0-2.464Z" transform="translate(-46.612 -198.16)" fill="#060606"/>
        <path id="Path_215138" data-name="Path 215138" d="M90.608,289.332h-33.6a1.232,1.232,0,0,0,0,2.464h33.6a1.232,1.232,0,0,0,0-2.464Z" transform="translate(-46.612 -241.856)" fill="#060606"/>
        <path id="Path_215139" data-name="Path 215139" d="M55.774,185.994a1.232,1.232,0,0,0,1.232,1.232h33.6a1.232,1.232,0,0,0,0-2.464h-33.6A1.232,1.232,0,0,0,55.774,185.994Z" transform="translate(-46.612 -154.464)" fill="#060606"/>
        <path id="Path_215140" data-name="Path 215140" d="M91.807,133.709a1.232,1.232,0,0,0,1.232,1.232H114.8a1.232,1.232,0,0,0,0-2.464H93.039a1.232,1.232,0,0,0-1.232,1.232Z" transform="translate(-76.726 -110.768)" fill="#060606"/>
        <path id="Path_215141" data-name="Path 215141" d="M76.588,395.4q-3.324.009-6.647.014l-2.234,0c-1.349,0-2.259-.27-2.561-1.754-.256-1.255-2.031-1.086-2.376,0-.853,2.684-2.263,1.632-3.052-.173a25.273,25.273,0,0,1-1.334-5.733c-.253-1.408-2.383-1.014-2.42.328A22.957,22.957,0,0,1,55.3,393.3a41.861,41.861,0,0,1-1.843,5.154c-.6,1.472,1.785,2.105,2.376.655a47.572,47.572,0,0,0,1.674-4.553c.844,2.03,2.591,4.327,5.08,2.973a4.962,4.962,0,0,0,1.275-1.027c1.294,1.5,3.221,1.378,5.024,1.376q3.851,0,7.7-.016a1.233,1.233,0,0,0,0-2.464Z" transform="translate(-44.595 -323.373)" fill="#060606"/>
        <path id="Path_215142" data-name="Path 215142" d="M417.035,186.352a3.544,3.544,0,0,0-2.414-.988l-.931,0v-1.761a3.411,3.411,0,0,0-1.55-2.77v-2.48c0-5.1-7.946-5.082-7.946.024v2.48a3.256,3.256,0,0,0-1.553,2.768v1.8c-4.1.279-4.113,6.529,0,6.773.026,5.515.025,10.94,0,16.548a1.233,1.233,0,0,0,2.464.013c.03-5.612.031-11.042,0-16.562l6.113-.03s-.008,18.209-.008,26.412c0,4-6.114,4.025-6.114-.042l0-2.247a1.233,1.233,0,0,0-2.46-.148v2.108a6.051,6.051,0,0,0,1.641,4.414,10.3,10.3,0,0,0,3.017,6.892,1.306,1.306,0,0,0,1.765-.03,10.16,10.16,0,0,0,2.985-6.967c.813-.81,1.628-1.626,1.628-4.418V206.922a3.452,3.452,0,0,0,4.352-3.277V188.75a3.361,3.361,0,0,0-1-2.4Zm-11.93-.941V183.63a.791.791,0,0,1,.587-.761l4.932-.024a.778.778,0,0,1,.6.763v1.773Zm3.067-8.542a1.6,1.6,0,0,1,1.5,1.489v2l-3.018.015v-1.989A1.52,1.52,0,0,1,408.172,176.869Zm0,49.922a7.86,7.86,0,0,1-1.218-2.7,5.358,5.358,0,0,0,2.442-.032A7.682,7.682,0,0,1,408.17,226.791Zm7.4-23.145a.942.942,0,0,1-1.881.022s0-11.659,0-12.728a1.242,1.242,0,0,0-1.242-1.234l-9.592.048a.935.935,0,0,1,.012-1.867l11.764-.058a.924.924,0,0,1,.934.923v14.895Z" transform="translate(-333.926 -145.922)" fill="#060606"/>
      </g>
    </g>
  </g>
</svg>
