<svg xmlns="http://www.w3.org/2000/svg" xmlns:xlink="http://www.w3.org/1999/xlink" width="85" height="85" viewBox="0 0 85 85">
  <defs>
    <clipPath id="clip-path">
      <rect id="Rectangle_42230" data-name="Rectangle 42230" width="83.32" height="84.709" fill="none"/>
    </clipPath>
  </defs>
  <g id="c14" transform="translate(-390 9292)">
    <rect id="Rectangle_42232" data-name="Rectangle 42232" width="85" height="85" transform="translate(390 -9292)" fill="none"/>
    <g id="Group_142140" data-name="Group 142140" transform="translate(390.361 -9291.709)">
      <g id="Group_142139" data-name="Group 142139" clip-path="url(#clip-path)">
        <path id="Path_191143" data-name="Path 191143" d="M8,160v41.665A8.333,8.333,0,0,0,16.333,210H55.512a19.437,19.437,0,0,1,27.1-27.868q.194.189.383.383V160Z" transform="translate(-6.611 -132.223)" fill="#f6f6f6"/>
        <path id="Path_191144" data-name="Path 191144" d="M16.333,214.888V176H8v38.888a8.333,8.333,0,0,0,8.333,8.333h8.333a8.333,8.333,0,0,1-8.333-8.333" transform="translate(-6.611 -145.445)" fill="#e8e4da"/>
        <path id="Path_191145" data-name="Path 191145" d="M74.665,40H16.333A8.333,8.333,0,0,0,8,48.333v12.5H83v-12.5A8.333,8.333,0,0,0,74.665,40M20.5,51.111a2.778,2.778,0,1,1,2.778-2.778A2.778,2.778,0,0,1,20.5,51.111m12.5,0a2.778,2.778,0,1,1,2.778-2.778A2.778,2.778,0,0,1,33,51.111m12.5,0a2.778,2.778,0,1,1,2.778-2.778A2.778,2.778,0,0,1,45.5,51.111m12.5,0a2.778,2.778,0,1,1,2.778-2.778A2.778,2.778,0,0,1,58,51.111m12.5,0a2.778,2.778,0,1,1,2.778-2.778A2.778,2.778,0,0,1,70.5,51.111" transform="translate(-6.611 -33.056)" fill="#c7ffd8"/>
        <path id="Path_191146" data-name="Path 191146" d="M20.5,53.955A5.555,5.555,0,0,1,14.944,48.4V44.233a8.249,8.249,0,0,1,1.111-4.153A8.333,8.333,0,0,0,8,48.4v9.722H83V53.955Z" transform="translate(-6.611 -33.122)" fill="#a6edbc"/>
        <path id="Path_191147" data-name="Path 191147" d="M281.328,261.847A19.437,19.437,0,1,1,267.439,256a19.437,19.437,0,0,1,13.888,5.847m0,13.6a13.888,13.888,0,1,0-13.888,13.888,13.888,13.888,0,0,0,13.888-13.888" transform="translate(-204.941 -211.557)" fill="#ffee93"/>
        <rect id="Rectangle_42226" data-name="Rectangle 42226" width="75.294" height="6.217" transform="translate(1.382 24.655)" fill="#e8e4da"/>
        <rect id="Rectangle_42227" data-name="Rectangle 42227" width="8.289" height="6.217" transform="translate(1.382 24.655)" fill="#e0dbcc"/>
        <path id="Path_191148" data-name="Path 191148" d="M293.888,288A13.888,13.888,0,1,1,280,301.888,13.888,13.888,0,0,1,293.888,288" transform="translate(-231.39 -238.002)" fill="#f6f6f6"/>
        <path id="Path_191149" data-name="Path 191149" d="M49.389,208h5.555a1.389,1.389,0,0,1,1.389,1.389v5.555a1.389,1.389,0,0,1-1.389,1.389H49.389A1.389,1.389,0,0,1,48,214.944v-5.555A1.389,1.389,0,0,1,49.389,208" transform="translate(-39.667 -171.89)" fill="#98ded9"/>
        <path id="Path_191150" data-name="Path 191150" d="M52.167,214.944v-5.555A1.389,1.389,0,0,1,53.555,208H49.389A1.389,1.389,0,0,0,48,209.389v5.555a1.389,1.389,0,0,0,1.389,1.389h4.167a1.389,1.389,0,0,1-1.389-1.389" transform="translate(-39.667 -171.89)" fill="#87d4ce"/>
        <path id="Path_191151" data-name="Path 191151" d="M137.389,208h5.555a1.389,1.389,0,0,1,1.389,1.389v5.555a1.389,1.389,0,0,1-1.389,1.389h-5.555A1.389,1.389,0,0,1,136,214.944v-5.555A1.389,1.389,0,0,1,137.389,208" transform="translate(-112.39 -171.89)" fill="#98ded9"/>
        <path id="Path_191152" data-name="Path 191152" d="M140.167,214.944v-5.555A1.389,1.389,0,0,1,141.555,208h-4.167A1.389,1.389,0,0,0,136,209.389v5.555a1.389,1.389,0,0,0,1.389,1.389h4.167a1.389,1.389,0,0,1-1.389-1.389" transform="translate(-112.39 -171.89)" fill="#87d4ce"/>
        <path id="Path_191153" data-name="Path 191153" d="M49.389,288h5.555a1.389,1.389,0,0,1,1.389,1.389v5.555a1.389,1.389,0,0,1-1.389,1.389H49.389A1.389,1.389,0,0,1,48,294.944v-5.555A1.389,1.389,0,0,1,49.389,288" transform="translate(-39.667 -238.002)" fill="#98ded9"/>
        <path id="Path_191154" data-name="Path 191154" d="M52.167,294.944v-5.555A1.389,1.389,0,0,1,53.555,288H49.389A1.389,1.389,0,0,0,48,289.389v5.555a1.389,1.389,0,0,0,1.389,1.389h4.167a1.389,1.389,0,0,1-1.389-1.389" transform="translate(-39.667 -238.002)" fill="#87d4ce"/>
        <path id="Path_191155" data-name="Path 191155" d="M137.389,288h5.555a1.389,1.389,0,0,1,1.389,1.389v5.555a1.389,1.389,0,0,1-1.389,1.389h-5.555A1.389,1.389,0,0,1,136,294.944v-5.555A1.389,1.389,0,0,1,137.389,288" transform="translate(-112.39 -238.002)" fill="#98ded9"/>
        <path id="Path_191156" data-name="Path 191156" d="M140.167,294.944v-5.555A1.389,1.389,0,0,1,141.555,288h-4.167A1.389,1.389,0,0,0,136,289.389v5.555a1.389,1.389,0,0,0,1.389,1.389h4.167a1.389,1.389,0,0,1-1.389-1.389" transform="translate(-112.39 -238.002)" fill="#87d4ce"/>
        <path id="Path_191157" data-name="Path 191157" d="M49.389,368h5.555a1.389,1.389,0,0,1,1.389,1.389v5.555a1.389,1.389,0,0,1-1.389,1.389H49.389A1.389,1.389,0,0,1,48,374.944v-5.555A1.389,1.389,0,0,1,49.389,368" transform="translate(-39.667 -304.113)" fill="#98ded9"/>
        <path id="Path_191158" data-name="Path 191158" d="M52.167,374.944v-5.555A1.389,1.389,0,0,1,53.555,368H49.389A1.389,1.389,0,0,0,48,369.389v5.555a1.389,1.389,0,0,0,1.389,1.389h4.167a1.389,1.389,0,0,1-1.389-1.389" transform="translate(-39.667 -304.113)" fill="#87d4ce"/>
        <path id="Path_191159" data-name="Path 191159" d="M137.389,368h5.555a1.389,1.389,0,0,1,1.389,1.389v5.555a1.389,1.389,0,0,1-1.389,1.389h-5.555A1.389,1.389,0,0,1,136,374.944v-5.555A1.389,1.389,0,0,1,137.389,368" transform="translate(-112.39 -304.113)" fill="#98ded9"/>
        <path id="Path_191160" data-name="Path 191160" d="M140.167,374.944v-5.555A1.389,1.389,0,0,1,141.555,368h-4.167A1.389,1.389,0,0,0,136,369.389v5.555a1.389,1.389,0,0,0,1.389,1.389h4.167a1.389,1.389,0,0,1-1.389-1.389" transform="translate(-112.39 -304.113)" fill="#87d4ce"/>
        <path id="Path_191161" data-name="Path 191161" d="M225.389,208h5.555a1.389,1.389,0,0,1,1.389,1.389v5.555a1.389,1.389,0,0,1-1.389,1.389h-5.555A1.389,1.389,0,0,1,224,214.944v-5.555A1.389,1.389,0,0,1,225.389,208" transform="translate(-185.112 -171.89)" fill="#98ded9"/>
        <path id="Path_191162" data-name="Path 191162" d="M228.167,214.944v-5.555A1.389,1.389,0,0,1,229.555,208h-4.167A1.389,1.389,0,0,0,224,209.389v5.555a1.389,1.389,0,0,0,1.389,1.389h4.167a1.389,1.389,0,0,1-1.389-1.389" transform="translate(-185.112 -171.89)" fill="#87d4ce"/>
        <path id="Path_191163" data-name="Path 191163" d="M77.775,148.5a1.389,1.389,0,0,0-2.778,0v11.15a20.794,20.794,0,0,0-29.127,29.127H9.722a6.953,6.953,0,0,1-6.944-6.944V138.778H70.831a1.389,1.389,0,0,0,0-2.778H1.389A1.389,1.389,0,0,0,0,137.389v44.443a9.733,9.733,0,0,0,9.722,9.722h38.66A20.8,20.8,0,0,0,77.775,162.16ZM62.5,194.331a18.055,18.055,0,1,1,18.055-18.055A18.055,18.055,0,0,1,62.5,194.331" transform="translate(0 -112.39)"/>
        <path id="Path_191164" data-name="Path 191164" d="M1.389,20.833a1.389,1.389,0,0,0,1.389-1.389V15.277A6.953,6.953,0,0,1,9.722,8.333H12.5v3.033a4.166,4.166,0,1,0,2.778,0V8.333H25v3.033a4.166,4.166,0,1,0,2.778,0V8.333H37.5v3.033a4.166,4.166,0,1,0,2.778,0V8.333H50v3.033a4.166,4.166,0,1,0,2.778,0V8.333H62.5v3.033a4.166,4.166,0,1,0,2.778,0V8.333h2.778A6.953,6.953,0,0,1,75,15.277V29.166H6.944a1.389,1.389,0,0,0,0,2.778H76.386a1.389,1.389,0,0,0,1.389-1.389V15.277a9.733,9.733,0,0,0-9.722-9.722H65.276V1.389a1.389,1.389,0,0,0-2.778,0V5.555H52.776V1.389a1.389,1.389,0,0,0-2.778,0V5.555H40.276V1.389a1.389,1.389,0,1,0-2.778,0V5.555H27.777V1.389a1.389,1.389,0,0,0-2.778,0V5.555H15.277V1.389a1.389,1.389,0,0,0-2.778,0V5.555H9.722A9.733,9.733,0,0,0,0,15.277v4.167a1.389,1.389,0,0,0,1.389,1.389m12.5-4.167a1.389,1.389,0,1,1,1.389-1.389,1.389,1.389,0,0,1-1.389,1.389m12.5,0a1.389,1.389,0,1,1,1.389-1.389,1.389,1.389,0,0,1-1.389,1.389m12.5,0a1.389,1.389,0,1,1,1.389-1.389,1.389,1.389,0,0,1-1.389,1.389m12.5,0a1.389,1.389,0,1,1,1.389-1.389,1.389,1.389,0,0,1-1.389,1.389m12.5,0a1.389,1.389,0,1,1,1.389-1.389,1.389,1.389,0,0,1-1.389,1.389"/>
        <path id="Path_191165" data-name="Path 191165" d="M287.277,280a15.277,15.277,0,1,0,15.277,15.277A15.277,15.277,0,0,0,287.277,280m0,27.777a12.5,12.5,0,1,1,12.5-12.5,12.5,12.5,0,0,1-12.5,12.5" transform="translate(-224.779 -231.39)"/>
        <path id="Path_191166" data-name="Path 191166" d="M354.778,321.027v-7.639a1.389,1.389,0,0,0-2.778,0v8.333a1.5,1.5,0,0,0,.556,1.111L358.111,327a1.41,1.41,0,0,0,1.944-.278,1.389,1.389,0,0,0-.278-1.944Z" transform="translate(-290.891 -257.835)"/>
        <path id="Path_191167" data-name="Path 191167" d="M139.111,202.778A2.778,2.778,0,0,0,136.333,200h-5.555A2.778,2.778,0,0,0,128,202.778v5.555a2.778,2.778,0,0,0,2.778,2.778h5.555a2.778,2.778,0,0,0,2.778-2.778Zm-8.333,0h5.555v5.555h-5.555Z" transform="translate(-105.778 -165.279)"/>
        <path id="Path_191168" data-name="Path 191168" d="M218.778,200A2.778,2.778,0,0,0,216,202.778v5.555a2.778,2.778,0,0,0,2.778,2.778h5.555a2.778,2.778,0,0,0,2.778-2.778v-5.555A2.778,2.778,0,0,0,224.333,200Zm0,2.778h5.555v5.555h-5.555Z" transform="translate(-178.501 -165.279)"/>
        <path id="Path_191169" data-name="Path 191169" d="M51.111,202.778A2.778,2.778,0,0,0,48.333,200H42.778A2.778,2.778,0,0,0,40,202.778v5.555a2.778,2.778,0,0,0,2.778,2.778h5.555a2.778,2.778,0,0,0,2.778-2.778Zm-8.333,0h5.555v5.555H42.778Z" transform="translate(-33.056 -165.279)"/>
        <path id="Path_191170" data-name="Path 191170" d="M139.111,282.778A2.778,2.778,0,0,0,136.333,280h-5.555A2.778,2.778,0,0,0,128,282.778v5.555a2.778,2.778,0,0,0,2.778,2.778h5.555a2.778,2.778,0,0,0,2.778-2.778Zm-8.333,0h5.555v5.555h-5.555Z" transform="translate(-105.778 -231.39)"/>
        <path id="Path_191171" data-name="Path 191171" d="M51.111,282.778A2.778,2.778,0,0,0,48.333,280H42.778A2.778,2.778,0,0,0,40,282.778v5.555a2.778,2.778,0,0,0,2.778,2.778h5.555a2.778,2.778,0,0,0,2.778-2.778Zm-8.333,0h5.555v5.555H42.778Z" transform="translate(-33.056 -231.39)"/>
        <path id="Path_191172" data-name="Path 191172" d="M136.333,360h-5.555A2.778,2.778,0,0,0,128,362.778v5.555a2.778,2.778,0,0,0,2.778,2.778h5.555a2.778,2.778,0,0,0,2.778-2.778v-5.555A2.778,2.778,0,0,0,136.333,360m-5.555,2.778h5.555v5.555h-5.555Z" transform="translate(-105.778 -297.502)"/>
        <path id="Path_191173" data-name="Path 191173" d="M48.333,360H42.778A2.778,2.778,0,0,0,40,362.778v5.555a2.778,2.778,0,0,0,2.778,2.778h5.555a2.778,2.778,0,0,0,2.778-2.778v-5.555A2.778,2.778,0,0,0,48.333,360m-5.555,2.778h5.555v5.555H42.778Z" transform="translate(-33.056 -297.502)"/>
        <rect id="Rectangle_42228" data-name="Rectangle 42228" width="2.778" height="7.597" transform="translate(0 17.361)"/>
        <rect id="Rectangle_42229" data-name="Rectangle 42229" width="9" height="2.778" transform="translate(67.241 23.61)"/>
        <path id="Path_191174" data-name="Path 191174" d="M13.368,168H0v2.778H12.5Z" transform="translate(0 -138.834)"/>
        <path id="Path_191175" data-name="Path 191175" d="M432,182.879V172.56h2.778v11.125Z" transform="translate(-357.002 -142.603)"/>
      </g>
    </g>
  </g>
</svg>
