<svg xmlns="http://www.w3.org/2000/svg" width="85" height="85" viewBox="0 0 85 85">
  <g id="c16" transform="translate(-48 -432)">
    <rect id="Rectangle_90116" data-name="Rectangle 90116" width="85" height="85" transform="translate(48 432)" fill="none"/>
    <g id="_Group_2" data-name=" Group 2" transform="translate(39 409.263)">
      <path id="Path_215214" data-name="Path 215214" d="M344.331,235.071v34.774a3.973,3.973,0,0,1-3.971,3.973H316.781a3.972,3.972,0,0,1-3.971-3.972V235.071a3.971,3.971,0,0,1,3.972-3.971h5.363v.012a2.952,2.952,0,0,0,2.953,2.953h6.946A2.952,2.952,0,0,0,335,231.111V231.1h5.363a3.972,3.972,0,0,1,3.971,3.971Zm-20.49,22.016v-5.675h-5.673v5.675Z" transform="translate(-251.535 -170.116)" fill="#f0f8ff"/>
      <path id="Path_215215" data-name="Path 215215" d="M367.06,216.023v-.181a2.952,2.952,0,0,1,2.953-2.953h6.946a2.952,2.952,0,0,1,2.953,2.953v.192a2.952,2.952,0,0,1-2.953,2.953h-6.946a2.952,2.952,0,0,1-2.953-2.953Z" transform="translate(-296.45 -155.039)" fill="#1b3f5e"/>
      <path id="Path_215216" data-name="Path 215216" d="M235.94,140.972v12.373h-1.22a2.952,2.952,0,0,0-2.953,2.953v.18H226.4a3.971,3.971,0,0,0-3.971,3.972v25.6L203.65,196.9V159.61l32.286-18.64Z" transform="translate(-161.158 -95.494)" fill="#ccc47d"/>
      <path id="Path_215217" data-name="Path 215217" d="M124.45,113.875l-16.46-9.5L140.275,85.73h0l16.46,9.5Z" transform="translate(-81.957 -49.759)" fill="#fff59d"/>
      <rect id="Rectangle_90114" data-name="Rectangle 90114" width="5.673" height="5.675" transform="translate(66.633 81.296)" fill="#d84318"/>
      <path id="Path_215218" data-name="Path 215218" d="M64.129,41.767,31.845,60.408,16.02,51.272,48.3,32.63Z" transform="translate(-5.812 -5.796)" fill="#fff59d"/>
      <path id="Path_215219" data-name="Path 215219" d="M48.288,159.61V196.9L16,178.255V140.972l0,0,15.825,9.137Z" transform="translate(-5.796 -95.494)" fill="#ffffc4"/>
      <path id="Path_215220" data-name="Path 215220" d="M88.824,59.762H84.538a4.221,4.221,0,0,0-4.029-3.1H75.933V45.477a1.186,1.186,0,0,0-.582-1.047l-16.443-9.5-.564,1.044h.039v0l.569-1.042L43.111,25.791a1.219,1.219,0,0,0-1.213,0L9.627,44.423A1.208,1.208,0,0,0,9,45.477V82.76A1.2,1.2,0,0,0,9.6,83.8L41.89,102.445a1.2,1.2,0,0,0,.6.161,1.263,1.263,0,0,0,.619-.161l16.991-9.8v7.086a5.1,5.1,0,0,0,5.143,5.114H88.824A5.128,5.128,0,0,0,94,99.729V64.955A5.2,5.2,0,0,0,88.824,59.762ZM82.3,60.8V61a1.74,1.74,0,0,1-1.791,1.691H73.562a1.714,1.714,0,0,1-1.759-1.7V60.8a1.743,1.743,0,0,1,1.758-1.729h6.946A1.772,1.772,0,0,1,82.3,60.8ZM72.37,45.476,42.492,62.725,28.441,54.612,58.318,37.361ZM42.492,28.225l13.416,7.746L26.033,53.222,12.617,45.476ZM11.409,47.56,41.348,64.811V99.316L11.409,82.065ZM43.757,99.316v-34.5L73.524,47.56v9.105h.038a4.221,4.221,0,0,0-4.03,3.1H65.246A5.168,5.168,0,0,0,60.1,64.955V89.863Zm47.834.413a2.717,2.717,0,0,1-2.767,2.706H65.246a2.689,2.689,0,0,1-2.734-2.7V64.955a2.757,2.757,0,0,1,2.734-2.784H69.58A4.12,4.12,0,0,0,73.562,65.1h6.946a4.119,4.119,0,0,0,3.982-2.925h4.334a2.785,2.785,0,0,1,2.767,2.784Z" transform="translate(0 0)"/>
      <path id="Path_215221" data-name="Path 215221" d="M338.2,286.087h1.261a1.2,1.2,0,0,0,0-2.409h-.048v-3.269h3.321a1.16,1.16,0,0,0,1.145.813,1.208,1.208,0,0,0,1.212-1.2v-.81a1.221,1.221,0,0,0-1.218-1.21H338.2a1.2,1.2,0,0,0-1.2,1.21v5.675a1.2,1.2,0,0,0,1.2,1.2Z" transform="translate(-271.563 -208.946)"/>
      <path id="Path_215222" data-name="Path 215222" d="M345.087,343.2a1.2,1.2,0,0,0-1.2-1.2H338.2a1.2,1.2,0,0,0-1.2,1.2v5.678a1.2,1.2,0,0,0,1.2,1.2h5.678a1.2,1.2,0,0,0,1.2-1.2Zm-5.678,1.2h3.269v3.269h-3.269Z" transform="translate(-271.563 -261.934)"/>
      <path id="Path_215223" data-name="Path 215223" d="M339.457,411.678h-.048v-3.269h3.256a1.211,1.211,0,0,0,2.422,0v-1.16A1.256,1.256,0,0,0,343.868,406H338.2a1.238,1.238,0,0,0-1.2,1.251v5.673a1.162,1.162,0,0,0,1.2,1.163h1.261a1.2,1.2,0,0,0,0-2.409Z" transform="translate(-271.562 -314.922)"/>
      <path id="Path_215224" data-name="Path 215224" d="M361.006,284.888l-3.527,3.527-1.074-1.073a1.2,1.2,0,0,0-1.7,1.7l1.926,1.924a1.2,1.2,0,0,0,1.7,0l4.379-4.379a1.2,1.2,0,1,0-1.7-1.7Z" transform="translate(-285.926 -214.357)"/>
      <path id="Path_215225" data-name="Path 215225" d="M361.006,414.138l-3.527,3.527-1.074-1.073a1.2,1.2,0,0,0-1.7,1.7l1.926,1.924a1.2,1.2,0,0,0,1.7,0l4.379-4.379a1.2,1.2,0,1,0-1.7-1.7Z" transform="translate(-285.926 -321.367)"/>
      <path id="Path_215226" data-name="Path 215226" d="M422.66,295h-7.566a1.2,1.2,0,1,0,0,2.409h7.566a1.2,1.2,0,1,0,0-2.409Z" transform="translate(-335.223 -223.021)"/>
      <path id="Path_215227" data-name="Path 215227" d="M422.66,359h-7.566a1.2,1.2,0,1,0,0,2.409h7.566a1.2,1.2,0,1,0,0-2.409Z" transform="translate(-335.223 -276.009)"/>
      <path id="Path_215228" data-name="Path 215228" d="M422.66,423h-7.566a1.2,1.2,0,1,0,0,2.409h7.566a1.2,1.2,0,1,0,0-2.409Z" transform="translate(-335.223 -328.997)"/>
    </g>
  </g>
</svg>
