<svg xmlns="http://www.w3.org/2000/svg" width="85" height="85" viewBox="0 0 85 85">
  <g id="c18" transform="translate(-54 -971)">
    <rect id="Rectangle_90111" data-name="Rectangle 90111" width="85" height="85" transform="translate(54 971)" fill="none"/>
    <g id="entrega-de-paquetes" transform="translate(43.561 958.36)">
      <path id="Path_215113" data-name="Path 215113" d="M35.618,66.723a20.336,20.336,0,0,0-4.638,5.262,11.968,11.968,0,0,1-1.125,1.529,4.311,4.311,0,0,1-2.884.793,8.192,8.192,0,0,1-1.209-.084.813.813,0,0,0-.122-.01v5.22h2.427V82.8a.793.793,0,0,0,.714.793c.022,0,.136.012.326.012a11.4,11.4,0,0,0,6.867-2.676V66.583A.776.776,0,0,0,35.618,66.723Z" transform="translate(-3.146 -9.509)" fill="#fdcba0"/>
      <path id="Path_215114" data-name="Path 215114" d="M46.632,21.749,37.75,31.476a1.586,1.586,0,0,0-.415,1.07v37.68l9.77,6.418H98.79a1.586,1.586,0,0,0,1.586-1.586V22.819a1.586,1.586,0,0,0-1.586-1.586H47.8a1.586,1.586,0,0,0-1.172.517Z" transform="translate(-5.567 -0.123)" fill="#fff59d"/>
      <path id="Path_215115" data-name="Path 215115" d="M98.538,21.233h-.349V72.4A1.586,1.586,0,0,1,96.6,73.982H44.917l-7.835-5.147v1.39l9.768,6.418H98.535a1.586,1.586,0,0,0,1.586-1.586V22.819a1.586,1.586,0,0,0-1.584-1.586Z" transform="translate(-5.515 -0.123)" fill="#f5a92d"/>
      <path id="Path_215116" data-name="Path 215116" d="M46.632,21.793,37.75,31.52a1.586,1.586,0,0,0-.415,1.07V70.27l9.77,6.418V21.446A1.58,1.58,0,0,0,46.632,21.793Z" transform="translate(-5.567 -0.167)" fill="#ccc47d"/>
      <path id="Path_215117" data-name="Path 215117" d="M74.64,21.233V38.854a.793.793,0,0,0,.793.793H87.2A.793.793,0,0,0,88,38.854V21.233Z" transform="translate(-13.288 -0.123)" fill="#d84318"/>
      <path id="Path_215118" data-name="Path 215118" d="M15.367,80.479a.83.83,0,0,1-.861-.793v-7.27a.83.83,0,0,1,.861-.793h7.9a.83.83,0,0,1,.861.793v7.27a.83.83,0,0,1-.861.793Z" transform="translate(-0.842 -10.553)" fill="#1b3f5e"/>
      <path id="Path_215119" data-name="Path 215119" d="M74.066,85.452H63.552c-3.155,0-5.63-.5-7.172-1.443a2.617,2.617,0,0,1-1.245-2.423,2.826,2.826,0,0,1,1.644-2.44c5.813-2.714,8.961-5.313,9.358-7.722a3.338,3.338,0,0,0-1.1-2.994,2.866,2.866,0,0,0-2.186-.736c-1.93,0-4.821.941-8.593,2.794a14.148,14.148,0,0,1-3.891,1.292c-5.99,1-9.722,4.163-12.722,6.707-2.12,1.8-4.531,3.713-7.454,3.753L30.18,95.2l7.078,1.994a40.969,40.969,0,0,0,10,1.487,21.417,21.417,0,0,0,9.492-2.157C61.067,94.506,74.321,87,74.321,87a.793.793,0,0,0-.255-1.544Z" transform="translate(-4.086 -9.737)" fill="#fdddb6"/>
      <path id="Path_215120" data-name="Path 215120" d="M63.292,77.753a2.826,2.826,0,0,0-1.644,2.44,2.734,2.734,0,0,0,.177,1.138,2.809,2.809,0,0,1,1.468-1.6c5.813-2.714,8.961-5.313,9.358-7.722a3.093,3.093,0,0,0-.122-1.487c-.72,2.269-3.82,4.7-9.236,7.226Z" transform="translate(-10.598 -10.326)" fill="#fdcba0"/>
      <path id="Path_215121" data-name="Path 215121" d="M74.067,90.09h-.52c-2.891,1.63-13.1,7.364-16.79,9.086a21.417,21.417,0,0,1-9.492,2.157,40.969,40.969,0,0,1-10-1.487l-7.076-1.994v1.983l7.078,1.994a40.968,40.968,0,0,0,10,1.487,21.417,21.417,0,0,0,9.492-2.157c4.313-2.014,17.567-9.524,17.567-9.524a.793.793,0,0,0-.259-1.544Z" transform="translate(-4.087 -14.375)" fill="#fdcba0"/>
      <path id="Path_215122" data-name="Path 215122" d="M14.505,78.791V81.17a.83.83,0,0,0,.861.793h7.9a.83.83,0,0,0,.861-.793V78.791Z" transform="translate(-0.842 -12.036)" fill="#3492bc"/>
      <path id="Path_215123" data-name="Path 215123" d="M11.755,100.951a.862.862,0,0,1-.916-.793V81.584a.862.862,0,0,1,.916-.793H25.672a.862.862,0,0,1,.916.793v18.574a.862.862,0,0,1-.916.793Z" transform="translate(-0.083 -12.45)" fill="#1b3f5e"/>
      <path id="Path_215124" data-name="Path 215124" d="M25.672,80.791H24.8V98.258a.862.862,0,0,1-.916.793H10.839v1.11a.862.862,0,0,0,.916.793H25.672a.862.862,0,0,0,.916-.793V81.584a.862.862,0,0,0-.916-.793Z" transform="translate(-0.083 -12.45)" fill="#4dabca"/>
      <path id="Path_215125" data-name="Path 215125" d="M93.853,20.64H42.129a1.576,1.576,0,0,0-1.182.537L31.472,31.542a1.586,1.586,0,0,0-.415,1.07V56.6a22.37,22.37,0,0,0-4.184,4.944,12.148,12.148,0,0,1-1.031,1.412,3.373,3.373,0,0,1-2.07.56V61.378a1.586,1.586,0,0,0-1.586-1.586H14.75a1.587,1.587,0,0,0,0,3.172H20.6v4.1h-8.63a1.587,1.587,0,0,0,0,3.172H23.824V85.756H11.974a1.587,1.587,0,0,0,0,3.172H25.41A1.586,1.586,0,0,0,27,87.342V86.287l5.69,1.6a41.877,41.877,0,0,0,10.2,1.511,22.324,22.324,0,0,0,9.827-2.232c4.186-1.955,15.147-8.291,17.335-9.561H93.853a1.586,1.586,0,0,0,1.586-1.586v-53.8A1.586,1.586,0,0,0,93.853,20.64Zm-30.16,3.172h8.6v13.64h-8.6Zm-23.151,2.5V62.368a27.76,27.76,0,0,0-6.313,4.044V33.227ZM23.776,67.065v-.377A6.309,6.309,0,0,0,28.092,65.2a12.893,12.893,0,0,0,1.42-1.887c.448-.667.952-1.416,1.55-2.169V69c0,.017,0,.033,0,.05A10.23,10.23,0,0,1,27,71.066V68.651a1.586,1.586,0,0,0-1.586-1.586ZM51.373,84.3c-5.178,2.418-9.863,2.554-17.864.53L27,82.995V74.288a13.112,13.112,0,0,0,6.155-2.841c.533-.427,1.077-.887,1.642-1.367,2.921-2.477,6.232-5.285,11.573-6.174a16.5,16.5,0,0,0,4.55-1.507A25.422,25.422,0,0,1,56.7,60.354c.888-.193,2.9-.721,3.1.624.134.91-1.427,1.918-2.264,2.458a59.194,59.194,0,0,1-6.173,3.342,5.322,5.322,0,0,0-2.981,4.52,4.941,4.941,0,0,0,2.37,4.511C52.686,77,55.518,77.6,59.164,77.6h4.514c-4.144,2.367-9.695,5.473-12.308,6.694Zm40.9-9.859H59.164c-3.008,0-5.344-.458-6.757-1.326a1.8,1.8,0,0,1-.861-1.656,2.153,2.153,0,0,1,1.207-1.824,61.692,61.692,0,0,0,6.5-3.527c1.335-.862,4.113-2.656,3.681-5.585a3.918,3.918,0,0,0-1.63-2.766c-1.217-.842-2.944-1-5.281-.495a28.584,28.584,0,0,0-6.5,2.3,13.355,13.355,0,0,1-3.672,1.221c-.744.124-1.451.281-2.129.463V23.812h16.8V39.038a1.586,1.586,0,0,0,1.586,1.586H73.878a1.586,1.586,0,0,0,1.586-1.586V23.812h16.8Zm-4.464-4.594a1.586,1.586,0,0,1-1.586,1.586H71.742a1.586,1.586,0,0,1,0-3.172H86.221A1.586,1.586,0,0,1,87.807,69.845ZM80.8,58.975a1.586,1.586,0,0,1-.085-2.241l3.045-3.286a1.634,1.634,0,0,1,2.327,0l3.045,3.286a1.586,1.586,0,0,1-.085,2.241A1.605,1.605,0,0,1,86.8,58.89l-.3-.317v5.58a1.586,1.586,0,0,1-3.172,0V58.571l-.3.317a1.586,1.586,0,0,1-2.241.087ZM78.36,56.734a1.586,1.586,0,0,1-2.327,2.156l-.3-.317v5.58a1.586,1.586,0,1,1-3.172,0V58.571l-.3.317a1.586,1.586,0,0,1-2.327-2.156l3.045-3.286a1.634,1.634,0,0,1,2.327,0Z"/>
    </g>
  </g>
</svg>
