<svg xmlns="http://www.w3.org/2000/svg" width="85" height="85" viewBox="0 0 85 85">
  <g id="c20" transform="translate(-43 -1805)">
    <rect id="Rectangle_90119" data-name="Rectangle 90119" width="85" height="85" transform="translate(43 1805)" fill="none"/>
    <g id="sistema-legal" transform="translate(17.909 1805)">
      <g id="Group_149787" data-name="Group 149787" transform="translate(30.417 1.328)">
        <g id="Group_149785" data-name="Group 149785">
          <path id="Path_215252" data-name="Path 215252" d="M90.955,8l52.082.272a1.623,1.623,0,0,1,1.612,1.62V78.074a1.624,1.624,0,0,1-1.62,1.62H90.946a1.624,1.624,0,0,1-1.62-1.62V9.62A1.621,1.621,0,0,1,90.955,8Z" transform="translate(-80.652 -8)" fill="#d2e1f1" fill-rule="evenodd"/>
          <path id="Path_215253" data-name="Path 215253" d="M90.955,8l3.114.016V79.695H90.946a1.624,1.624,0,0,1-1.62-1.62V9.62A1.621,1.621,0,0,1,90.955,8Z" transform="translate(-80.652 -8)" fill="#b0c0d2" fill-rule="evenodd"/>
          <path id="Path_215254" data-name="Path 215254" d="M38.706,60.249l52.082.272a1.623,1.623,0,0,1,1.612,1.62v68.182a1.624,1.624,0,0,1-1.62,1.62H38.7a1.624,1.624,0,0,1-1.62-1.62V61.869a1.621,1.621,0,0,1,1.629-1.62Z" transform="translate(-37.077 -51.575)" fill="#fff" fill-rule="evenodd"/>
          <path id="Path_215255" data-name="Path 215255" d="M38.706,60.249l3.114.016v71.679H38.7a1.624,1.624,0,0,1-1.62-1.62V61.869a1.621,1.621,0,0,1,1.629-1.62Z" transform="translate(-37.077 -51.575)" fill="#dee4f0" fill-rule="evenodd"/>
          <path id="Path_215256" data-name="Path 215256" d="M262.778,60.2h10.459V72.091a.486.486,0,0,1-.758.4L268.5,69.808a.478.478,0,0,0-.532-.008l-4.44,2.806a.486.486,0,0,1-.746-.411v-12Z" transform="translate(-225.308 -51.532)" fill="#d84318" fill-rule="evenodd"/>
          <path id="Path_215257" data-name="Path 215257" d="M316.021,60.439V71.912l.863.582a.486.486,0,0,0,.758-.4V60.2h-1.621Z" transform="translate(-269.712 -51.531)" fill="#ffc338" fill-rule="evenodd"/>
        </g>
        <g id="Group_149786" data-name="Group 149786" transform="translate(24.393 38.503)">
          <path id="Path_215258" data-name="Path 215258" d="M203.936,463.454l-1.058-4.7a1.34,1.34,0,0,0-1.344-1.006H186.411a1.34,1.34,0,0,0-1.344,1.006l-1.058,4.7Z" transform="translate(-184.009 -421.589)" fill="#d84318" fill-rule="evenodd"/>
          <path id="Path_215259" data-name="Path 215259" d="M283.832,463.454l-1.058-4.7a1.34,1.34,0,0,0-1.344-1.006h-1.621a1.34,1.34,0,0,1,1.344,1.006l1.058,4.7Z" transform="translate(-263.905 -421.589)" fill="#685e68" fill-rule="evenodd"/>
          <path id="Path_215260" data-name="Path 215260" d="M306.079,331.281l-3.876,3.876,23.017,24.148a2,2,0,0,0,1.372.647,1.682,1.682,0,0,0,1.338-.5l2.448-2.448a1.683,1.683,0,0,0,.5-1.338,2,2,0,0,0-.647-1.372Z" transform="translate(-282.581 -316.115)" fill="#fff59d" fill-rule="evenodd"/>
          <path id="Path_215261" data-name="Path 215261" d="M319.792,331.28l-1.146,1.146,24.149,23.017a2,2,0,0,1,.647,1.372,1.683,1.683,0,0,1-.5,1.338l1.146-1.146a1.682,1.682,0,0,0,.5-1.338,2,2,0,0,0-.647-1.372Z" transform="translate(-296.294 -316.114)" fill="#c48958" fill-rule="evenodd"/>
          <path id="Path_215262" data-name="Path 215262" d="M251.2,276.35c1.4-1.189,3.1-2.478,5.462-4.237l-8.265-8.265c-5.4,7.257-6.365,8.223-13.622,13.622l8.265,8.265c1.76-2.365,3.048-4.062,4.237-5.462A32.268,32.268,0,0,1,251.2,276.35Z" transform="translate(-226.344 -259.877)" fill="#d84318" fill-rule="evenodd"/>
          <path id="Path_215263" data-name="Path 215263" d="M249.539,264.994l-1.146-1.146c-5.4,7.257-6.365,8.223-13.622,13.622l1.146,1.146c7.257-5.4,8.223-6.365,13.622-13.622Z" transform="translate(-226.344 -259.877)" fill="#ab7448" fill-rule="evenodd"/>
          <path id="Path_215264" data-name="Path 215264" d="M307.255,240.33l-1.959,1.959a1.389,1.389,0,0,0,0,1.958l9.492,9.492a1.389,1.389,0,0,0,1.958,0l1.959-1.959a1.389,1.389,0,0,0,0-1.958l-9.492-9.492a1.388,1.388,0,0,0-1.958,0Z" transform="translate(-284.823 -239.926)" fill="#fff59d" fill-rule="evenodd"/>
          <path id="Path_215265" data-name="Path 215265" d="M313.368,240.33l-1.146,1.146a1.389,1.389,0,0,1,1.958,0l9.492,9.492a1.389,1.389,0,0,1,0,1.958l1.146-1.146a1.389,1.389,0,0,0,0-1.958l-9.492-9.492A1.388,1.388,0,0,0,313.368,240.33Z" transform="translate(-290.937 -239.926)" fill="#c48958" fill-rule="evenodd"/>
          <path id="Path_215266" data-name="Path 215266" d="M213.213,334.372l-1.959,1.959a1.389,1.389,0,0,0,0,1.958l9.492,9.492a1.389,1.389,0,0,0,1.958,0l1.959-1.959a1.389,1.389,0,0,0,0-1.958l-9.492-9.492A1.389,1.389,0,0,0,213.213,334.372Z" transform="translate(-206.394 -318.356)" fill="#fff59d" fill-rule="evenodd"/>
          <path id="Path_215267" data-name="Path 215267" d="M222.7,353.893l1.146-1.146a1.388,1.388,0,0,1-1.958,0l-9.492-9.492a1.389,1.389,0,0,1,0-1.958l-1.146,1.146a1.389,1.389,0,0,0,0,1.958l9.492,9.492A1.388,1.388,0,0,0,222.7,353.893Z" transform="translate(-206.394 -324.468)" fill="#c48958" fill-rule="evenodd"/>
        </g>
      </g>
      <path id="Path_215268" data-name="Path 215268" d="M101.772,79.462a.72.72,0,0,0-.235-.485L79.675,58.158c-.731.678-1.417,1.365-2.1,2.1L98.405,82.107a.673.673,0,0,0,.485.236.352.352,0,0,0,.321-.108l2.451-2.448A.364.364,0,0,0,101.772,79.462ZM84.407,71.27v9.1H75.8l-.824-3.661a2.656,2.656,0,0,0-2.639-2.042H57.21a2.659,2.659,0,0,0-2.64,2.042l-.823,3.661h-22V11.337l34.81.181v11.36A1.329,1.329,0,0,0,68.593,24l4.722-2.983L77.6,23.908a1.329,1.329,0,0,0,2.072-1.1V11.586l4.735.025V43.572L80.135,39.3a2.715,2.715,0,0,0-3.836,0L74.339,41.26a2.715,2.715,0,0,0-.06,3.77,39.767,39.767,0,0,1-9.822,9.822,2.714,2.714,0,0,0-3.77.06L58.729,56.87a2.716,2.716,0,0,0,0,3.837L68.22,70.2a2.716,2.716,0,0,0,3.837,0l1.959-1.959a2.715,2.715,0,0,0,.062-3.768c.608-.8,1.185-1.527,1.748-2.2Zm-11.334,9.1-.684-3.038a.16.16,0,0,0-.056-.008H57.21a.16.16,0,0,0-.056.008l-.684,3.038Zm-3.86-59.9,3.415-2.158a1.333,1.333,0,0,1,1.453.021l2.935,1.979V11.573l-7.8-.042ZM81.684,56.4c.682-.564,1.413-1.142,2.215-1.755a2.744,2.744,0,0,0,.508.374V59ZM78.256,41.178a.054.054,0,0,0-.041-.015.056.056,0,0,0-.039.015l-1.958,1.959a.061.061,0,0,0,0,.08l9.491,9.491a.06.06,0,0,0,.08,0l1.957-1.959a.059.059,0,0,0,0-.08ZM62.646,56.79a.062.062,0,0,0-.08,0l-1.958,1.957a.063.063,0,0,0,0,.08L70.1,68.319a.061.061,0,0,0,.08,0l1.959-1.957a.064.064,0,0,0,0-.081ZM82,52.756a47.11,47.11,0,0,0-9.816,9.817l-5.827-5.829a41.351,41.351,0,0,0,9.815-9.815ZM40.419,8.726V2.656H93.081v64.6l-6.017-5.731V55.039a2.647,2.647,0,0,0,.6-.453l1.958-1.957a2.717,2.717,0,0,0,0-3.837l-2.563-2.563V10.291a1.326,1.326,0,0,0-1.319-1.328Zm63.123,72.939-2.451,2.447A2.971,2.971,0,0,1,98.938,85c-.063,0-.133,0-.2,0a3.329,3.329,0,0,1-2.259-1.058l-9.419-9.881V81.7a1.329,1.329,0,0,1-1.328,1.328H30.418A1.328,1.328,0,0,1,29.091,81.7V10a1.328,1.328,0,0,1,1.327-1.328h.007l7.338.038V1.328A1.328,1.328,0,0,1,39.091,0H94.41a1.327,1.327,0,0,1,1.327,1.328v68.46l7.625,7.265a3.344,3.344,0,0,1,1.065,2.261A3.022,3.022,0,0,1,103.542,81.665Zm-61.835-57.8H55.123a1.328,1.328,0,0,0,0-2.657H41.708a1.328,1.328,0,0,0,0,2.657ZM55.123,69.454H41.708a1.328,1.328,0,1,0,0,2.656H55.123a1.328,1.328,0,1,0,0-2.656Zm0-9.647H41.708a1.328,1.328,0,0,0,0,2.657H55.123a1.328,1.328,0,0,0,0-2.657Zm0-9.649H41.708a1.328,1.328,0,0,0,0,2.656H55.123a1.328,1.328,0,0,0,0-2.656Zm12.569-8.321a1.328,1.328,0,0,0-1.328-1.328H41.708a1.328,1.328,0,0,0,0,2.657H66.364a1.328,1.328,0,0,0,1.328-1.328ZM40.38,32.189a1.328,1.328,0,0,0,1.328,1.328h32.74a1.328,1.328,0,0,0,0-2.657H41.708a1.328,1.328,0,0,0-1.328,1.328Z" fill-rule="evenodd"/>
    </g>
  </g>
</svg>
