<svg xmlns="http://www.w3.org/2000/svg" width="85" height="85" viewBox="0 0 85 85">
  <g id="c3" transform="translate(-95 -3184)">
    <rect id="Rectangle_90083" data-name="Rectangle 90083" width="85" height="85" transform="translate(95 3184)" fill="none"/>
    <g id="tienda" transform="translate(95 3162.318)">
      <g id="Group_149751" data-name="Group 149751" transform="translate(1.66 27.658)">
        <path id="Path_215014" data-name="Path 215014" d="M72.267,42.639h52.275V36H59.2v6.641Z" transform="translate(-51.03 -35.998)" fill="#fff59d"/>
        <path id="Path_215015" data-name="Path 215015" d="M26.336,92.1l4.9-16.1H18.168L10,92.1v4.084a8.168,8.168,0,0,0,16.336,0Z" transform="translate(-10 -69.36)" fill="#d84318"/>
        <path id="Path_215016" data-name="Path 215016" d="M113.3,76l-4.9,16.1v4.084a8.168,8.168,0,0,0,16.336,0V92.1L126.37,76Z" transform="translate(-92.064 -69.36)" fill="#d2e1f1"/>
        <path id="Path_215017" data-name="Path 215017" d="M208.433,76,206.8,92.1v4.084a8.168,8.168,0,0,0,16.336,0V92.1L221.5,76Z" transform="translate(-174.127 -69.36)" fill="#d84318"/>
        <path id="Path_215018" data-name="Path 215018" d="M295.359,76l1.633,16.1v4.084a8.168,8.168,0,0,0,16.336,0V92.1l-4.9-16.1Z" transform="translate(-247.985 -69.36)" fill="#d2e1f1"/>
        <path id="Path_215019" data-name="Path 215019" d="M374.08,76l4.9,16.1v4.084a8.168,8.168,0,0,0,16.336,0V92.1L387.148,76Z" transform="translate(-313.637 -69.36)" fill="#d84318"/>
        <path id="Path_215020" data-name="Path 215020" d="M108.207,205.722a8.168,8.168,0,0,1-8.168-8.168,8.168,8.168,0,0,1-16.336,0,8.168,8.168,0,0,1-16.336,0,8.168,8.168,0,0,1-8.168,8.168v38.059h45.422V237.14H65.84V213.9H117.9v29.883h6.641V205.722a8.167,8.167,0,0,1-8.168-8.168A8.168,8.168,0,0,1,108.207,205.722Z" transform="translate(-51.031 -170.733)" fill="#fff59d"/>
        <path id="Path_215021" data-name="Path 215021" d="M137.98,296H99.2v23.242H137.98V296Z" transform="translate(-84.391 -252.835)" fill="#d2e1f1"/>
        <path id="Path_215022" data-name="Path 215022" d="M332.8,296v29.883h13.281V296Z" transform="translate(-279.208 -252.835)" fill="#afafaf"/>
      </g>
      <g id="Group_149752" data-name="Group 149752" transform="translate(0 25.998)">
        <path id="Path_215023" data-name="Path 215023" d="M84.82,49.644,76.832,33.9V27.658A1.66,1.66,0,0,0,75.172,26H9.828a1.66,1.66,0,0,0-1.66,1.66V33.9L.18,49.644a1.661,1.661,0,0,0-.18.751v4.084a9.842,9.842,0,0,0,8.168,9.685V99.045h-1.7a1.66,1.66,0,1,0,0,3.32H78.531a1.66,1.66,0,1,0,0-3.32h-1.7V64.164A9.842,9.842,0,0,0,85,54.479V50.395A1.659,1.659,0,0,0,84.82,49.644ZM11.488,29.318H73.512v3.321H11.488ZM65.344,54.479a6.508,6.508,0,0,1-13.016,0V50.395a1.665,1.665,0,0,0-.008-.168L50.872,35.959h10l4.47,14.682Zm-16.336,0a6.508,6.508,0,0,1-13.015,0v-4l1.474-14.519H47.534l1.473,14.519v4ZM32.672,50.395v4.084a6.508,6.508,0,0,1-13.015,0V50.642l4.47-14.682h10L32.68,50.227A1.614,1.614,0,0,0,32.672,50.395ZM3.32,54.479V50.792l7.527-14.833h9.809L16.408,49.911a1.663,1.663,0,0,0-.072.484v4.084a6.508,6.508,0,0,1-13.016,0Zm8.168,9.685A9.846,9.846,0,0,0,18,59.938a9.82,9.82,0,0,0,16.336,0,9.82,9.82,0,0,0,16.336,0,9.82,9.82,0,0,0,16.336,0,9.845,9.845,0,0,0,6.508,4.226V99.045h-3.32V70.823a1.66,1.66,0,0,0-1.66-1.66H16.469a1.66,1.66,0,0,0-1.66,1.66V94.065a1.66,1.66,0,0,0,1.66,1.66H53.59v3.321h-42.1Zm6.641,24.511L34.321,72.483H40.1l-3.157,3.156A1.66,1.66,0,1,0,39.3,77.987l5.5-5.5H53.59V92.4H18.129Zm0-4.7v-11.5h11.5ZM56.91,99.045V87.424h1.66a1.66,1.66,0,1,0,0-3.32H56.91V72.483h9.961V99.045ZM81.68,54.479a6.508,6.508,0,0,1-13.016,0V50.395a1.658,1.658,0,0,0-.072-.484L64.344,35.959h9.809L81.68,50.792Z" transform="translate(0 -25.998)" fill="#000001"/>
        <path id="Path_215024" data-name="Path 215024" d="M199.661,342.883l-.028.028a1.66,1.66,0,0,0,2.341,2.355l.028-.028a1.66,1.66,0,1,0-2.341-2.355Z" transform="translate(-166.082 -289.872)" fill="#000001"/>
        <path id="Path_215025" data-name="Path 215025" d="M1.7,466H1.66a1.66,1.66,0,1,0,0,3.32H1.7a1.66,1.66,0,1,0,0-3.32Z" transform="translate(0 -392.949)" fill="#000001"/>
        <path id="Path_215026" data-name="Path 215026" d="M493.461,466h-.039a1.66,1.66,0,0,0,0,3.32h.039a1.66,1.66,0,0,0,0-3.32Z" transform="translate(-410.121 -392.953)" fill="#000001"/>
      </g>
    </g>
  </g>
</svg>
