<svg xmlns="http://www.w3.org/2000/svg" width="85" height="85" viewBox="0 0 85 85">
  <g id="c4" transform="translate(0 0)">
    <g id="Group_149754" data-name="Group 149754" transform="translate(1.328 1.328)">
      <path id="Path_215029" data-name="Path 215029" d="M67.726,11.4h0A37.773,37.773,0,0,0,30.148,45.361l9.971-.467A27.987,27.987,0,0,1,67.726,21.239l-.044.016v3.818l9.64-7.789L67.681,8v3.419" transform="translate(-26.471 -8)" fill="#fff59d"/>
      <path id="Path_215030" data-name="Path 215030" d="M116.063,76.57l7.261-5.867a27.949,27.949,0,0,0-35.163,25.7l.34-.016a27.987,27.987,0,0,1,27.607-23.655l-.044.016Z" transform="translate(-74.853 -59.497)" fill="#fff59d"/>
      <path id="Path_215031" data-name="Path 215031" d="M180.1,159.866l-3.158-.475a14.737,14.737,0,0,0-2.323-5.605l1.9-2.57a1.13,1.13,0,0,0-.11-1.471l-1.635-1.635A1.13,1.13,0,0,0,173.3,148l-2.57,1.9a14.737,14.737,0,0,0-5.605-2.323l-.475-3.158a1.13,1.13,0,0,0-1.117-.962h-2.312a1.13,1.13,0,0,0-1.117.962l-.475,3.158a14.736,14.736,0,0,0-5.605,2.323l-2.57-1.9a1.13,1.13,0,0,0-1.47.11l-1.635,1.635a1.13,1.13,0,0,0-.11,1.471l1.9,2.57a14.736,14.736,0,0,0-2.323,5.605l-3.158.475a1.13,1.13,0,0,0-.962,1.117V163.3a1.13,1.13,0,0,0,.962,1.118l3.158.475a14.737,14.737,0,0,0,2.323,5.605l-1.9,2.57a1.13,1.13,0,0,0,.11,1.471l1.635,1.635a1.13,1.13,0,0,0,1.47.11l2.57-1.9a14.737,14.737,0,0,0,5.605,2.323l.475,3.158a1.13,1.13,0,0,0,1.117.962h2.312a1.13,1.13,0,0,0,1.117-.962l.475-3.158a14.736,14.736,0,0,0,5.605-2.323l2.57,1.9a1.13,1.13,0,0,0,1.471-.11l1.635-1.635a1.13,1.13,0,0,0,.11-1.471l-1.9-2.57a14.737,14.737,0,0,0,2.323-5.605l3.158-.475a1.13,1.13,0,0,0,.962-1.118v-2.312A1.13,1.13,0,0,0,180.1,159.866Zm-17.722,9.752a7.479,7.479,0,1,1,7.479-7.479A7.478,7.478,0,0,1,162.375,169.619Z" transform="translate(-121.165 -120.968)" fill="#b0c0d2"/>
      <path id="Path_215032" data-name="Path 215032" d="M11.443,207.34c0,.013,0,.026,0,.039A37.773,37.773,0,0,0,45.4,244.957l-.585-9.991a27.939,27.939,0,0,1-23.538-27.587c0-.013,0-.026,0-.039h3.794l-7.789-9.64L8,207.34h3.419" transform="translate(-8 -166.207)" fill="#f0f8ff"/>
      <path id="Path_215033" data-name="Path 215033" d="M207.34,302.63h.077A27.939,27.939,0,0,0,235,279.1l10-.68a37.772,37.772,0,0,1-37.586,34.046h-.077v3.4l-9.64-9.284,9.64-7.789v3.818Z" transform="translate(-166.207 -233.527)" fill="#1b3f5e"/>
      <path id="Path_215034" data-name="Path 215034" d="M226.142,266.494a7.509,7.509,0,0,0-.15-1.494,7.48,7.48,0,0,1-14.658,0,7.479,7.479,0,1,0,14.807,1.494Z" transform="translate(-177.453 -222.334)" fill="#727997"/>
      <path id="Path_215035" data-name="Path 215035" d="M218.626,309.48a37.941,37.941,0,0,1-7.486-.743l7.409,7.135v-3.4h.077a37.772,37.772,0,0,0,37.586-34.046l-.514.534A37.779,37.779,0,0,1,218.626,309.48Z" transform="translate(-177.416 -233.528)" fill="#1b3f5e"/>
      <path id="Path_215036" data-name="Path 215036" d="M59.015,289.843a37.787,37.787,0,0,1-30.167-34.075h-.115c0,.013,0,.026,0,.039a37.773,37.773,0,0,0,33.96,37.578Z" transform="translate(-25.291 -214.635)" fill="#f0f8ff"/>
      <path id="Path_215037" data-name="Path 215037" d="M312.708,67.226c0-.013,0-.026,0-.039A37.772,37.772,0,0,0,278.664,29.6l5.916,5.7-5.31,4.29a27.939,27.939,0,0,1,23.6,27.6c0,.013,0,.026,0,.039H299l7.789,9.64,9.284-9.64Z" transform="translate(-233.73 -26.016)" fill="#d84318"/>
      <g id="Group_149753" data-name="Group 149753" transform="translate(45.541 11.206)">
        <path id="Path_215038" data-name="Path 215038" d="M285.246,75.5l-2.93,2.368a27.941,27.941,0,0,1,23.562,26.111q.04-.746.04-1.5A27.943,27.943,0,0,0,285.246,75.5Z" transform="translate(-282.316 -75.501)" fill="#d84318"/>
      </g>
    </g>
    <g id="Group_149755" data-name="Group 149755" transform="translate(0 0)">
      <path id="Path_215039" data-name="Path 215039" d="M212.312,203.347a8.746,8.746,0,0,0-8.211,11.744,1.248,1.248,0,1,0,2.343-.857,6.246,6.246,0,1,1,2.65,3.209,1.248,1.248,0,0,0-1.288,2.137,8.742,8.742,0,1,0,4.506-16.233Z" transform="translate(-169.775 -169.588)"/>
      <path id="Path_215040" data-name="Path 215040" d="M173.854,152.171l-2.313-.348a15.893,15.893,0,0,0-1.849-4.462l1.391-1.883a2.366,2.366,0,0,0-.231-3.1l-1.638-1.638a2.366,2.366,0,0,0-3.1-.231l-1.883,1.391a15.886,15.886,0,0,0-4.462-1.849l-.348-2.313a2.366,2.366,0,0,0-2.354-2.026h-2.317a2.366,2.366,0,0,0-2.354,2.026l-.348,2.313a15.887,15.887,0,0,0-4.462,1.849l-1.883-1.391a2.366,2.366,0,0,0-3.1.232l-1.638,1.638a2.365,2.365,0,0,0-.232,3.1l1.39,1.882a15.877,15.877,0,0,0-1.849,4.462l-2.313.348a2.365,2.365,0,0,0-2.026,2.354v2.317a2.365,2.365,0,0,0,2.026,2.354l2.313.348A15.888,15.888,0,0,0,142.132,164l-1.39,1.882a2.365,2.365,0,0,0,.231,3.1l1.638,1.638a2.366,2.366,0,0,0,3.1.231l1.882-1.391a15.885,15.885,0,0,0,4.462,1.849l.348,2.313a2.366,2.366,0,0,0,2.354,2.026h2.316a2.366,2.366,0,0,0,2.354-2.026l.348-2.313a15.886,15.886,0,0,0,4.462-1.849l1.883,1.391a2.366,2.366,0,0,0,3.1-.231l1.638-1.638a2.366,2.366,0,0,0,.231-3.1L169.691,164a15.881,15.881,0,0,0,1.849-4.462l2.313-.348a2.365,2.365,0,0,0,2.026-2.354v-2.317a2.365,2.365,0,0,0-2.026-2.354Zm-.469,4.571-3.067.461a1.247,1.247,0,0,0-1.041,1,13.451,13.451,0,0,1-2.131,5.143,1.247,1.247,0,0,0,.027,1.445l1.843,2.5-1.5,1.5-2.5-1.843a1.248,1.248,0,0,0-1.445-.026,13.451,13.451,0,0,1-5.142,2.131,1.248,1.248,0,0,0-1,1.041l-.461,3.067h-2.118l-.461-3.067a1.247,1.247,0,0,0-1-1.041,13.451,13.451,0,0,1-5.142-2.131,1.247,1.247,0,0,0-1.445.027l-2.5,1.843-1.5-1.5,1.843-2.5a1.247,1.247,0,0,0,.026-1.445,13.449,13.449,0,0,1-2.131-5.142,1.247,1.247,0,0,0-1.041-1l-3.067-.461v-2.118l3.067-.461a1.247,1.247,0,0,0,1.041-1,13.45,13.45,0,0,1,2.131-5.142,1.247,1.247,0,0,0-.026-1.445l-1.843-2.5,1.5-1.5,2.5,1.843a1.248,1.248,0,0,0,1.445.027,13.454,13.454,0,0,1,5.142-2.131,1.247,1.247,0,0,0,1-1.041l.461-3.067h2.118l.461,3.067a1.248,1.248,0,0,0,1,1.041,13.449,13.449,0,0,1,5.142,2.131,1.247,1.247,0,0,0,1.445-.026l2.5-1.843,1.5,1.5-1.843,2.5a1.248,1.248,0,0,0-.027,1.445,13.45,13.45,0,0,1,2.131,5.143,1.247,1.247,0,0,0,1.041,1l3.067.461Z" transform="translate(-113.374 -113.183)"/>
      <path id="Path_215041" data-name="Path 215041" d="M84.9,42.05a1.247,1.247,0,0,0-1.148-.759H81.609A39.091,39.091,0,0,0,46.827,3.645L43.4.346a1.256,1.256,0,0,0-2.113.9V3.427a38.814,38.814,0,0,0-21.253,7.1,1.248,1.248,0,1,0,1.438,2.039A36.359,36.359,0,0,1,42.537,5.9a1.247,1.247,0,0,0,1.248-1.248V4.178l6.528,6.287L43.784,15.74V14.511a1.247,1.247,0,0,0-1.248-1.248A29.245,29.245,0,0,0,14.191,35.327l-2.674-3.309a1.256,1.256,0,0,0-1.869-.081l-2.93,3.043a36.551,36.551,0,0,1,11-19.376,1.248,1.248,0,0,0-1.692-1.833A39.013,39.013,0,0,0,3.691,38.122L.346,41.6a1.256,1.256,0,0,0,.9,2.113h2.22a39.093,39.093,0,0,0,34.7,37.638l3.434,3.307a1.255,1.255,0,0,0,2.113-.9v-2.18a38.79,38.79,0,0,0,21.6-7.294,1.248,1.248,0,0,0-1.455-2.027A36.343,36.343,0,0,1,42.522,79.1H42.46a1.247,1.247,0,0,0-1.248,1.248v.478l-6.528-6.287,6.528-5.275v1.228a1.248,1.248,0,0,0,1.24,1.248h.085A29.245,29.245,0,0,0,70.864,49.745l2.615,3.237a1.255,1.255,0,0,0,1.869.081l3.027-3.143a36.572,36.572,0,0,1-10.8,19.265A1.248,1.248,0,1,0,69.288,71a39.037,39.037,0,0,0,12.1-24.216L84.651,43.4a1.247,1.247,0,0,0,.25-1.353ZM32.016,73.482a1.255,1.255,0,0,0-.081,1.869l3.083,2.97A36.607,36.607,0,0,1,5.941,42.5v-.043a1.247,1.247,0,0,0-1.248-1.248H4.178l6.287-6.528,5.274,6.528h-1.19A1.244,1.244,0,0,0,13.3,42.457V42.5a29.245,29.245,0,0,0,22,28.33ZM59.983,62.766a26.727,26.727,0,0,1-16.276,6.45V66.648a1.256,1.256,0,0,0-2.032-.971l-3.888,3.142a26.749,26.749,0,0,1-21.964-25.11h2.528a1.256,1.256,0,0,0,.971-2.032L16.205,37.82A26.748,26.748,0,0,1,41.289,15.787v2.564a1.256,1.256,0,0,0,2.032.971l3.9-3.153A26.749,26.749,0,0,1,69.25,41.291h-2.6a1.256,1.256,0,0,0-.971,2.032l3.179,3.934a26.755,26.755,0,0,1-8.87,15.509ZM74.532,50.314l-5.274-6.528h1.267a1.244,1.244,0,0,0,1.248-1.243V42.5A29.246,29.246,0,0,0,49.717,14.155l3.264-2.637a1.255,1.255,0,0,0,.081-1.869l-3.1-2.989A36.606,36.606,0,0,1,79.133,42.5v.043a1.247,1.247,0,0,0,1.248,1.248h.439Z" transform="translate(0 0)"/>
    </g>
  </g>
</svg>
