<svg xmlns="http://www.w3.org/2000/svg" width="85" height="85" viewBox="0 0 85 85">
  <g id="c5" transform="translate(-104 -416)">
    <rect id="Rectangle_90084" data-name="Rectangle 90084" width="85" height="85" transform="translate(104 416)" fill="none"/>
    <g id="planificacion" transform="translate(104 407.889)">
      <g id="Group_149758" data-name="Group 149758" transform="translate(25.095 40.015)">
        <g id="Group_149756" data-name="Group 149756">
          <path id="Path_215042" data-name="Path 215042" d="M179.987,213.426H157.026a5.864,5.864,0,0,1-5.864-5.864v-9.529a5.864,5.864,0,0,1,5.864-5.864h22.962a5.864,5.864,0,0,1,5.864,5.864v9.529a5.864,5.864,0,0,1-5.864,5.864Z" transform="translate(-151.162 -192.169)" fill="#fff59d"/>
        </g>
        <g id="Group_149757" data-name="Group 149757" transform="translate(0 28.566)">
          <path id="Path_215043" data-name="Path 215043" d="M179.987,385.49H157.026a5.864,5.864,0,0,1-5.864-5.864V370.1a5.864,5.864,0,0,1,5.864-5.864h22.962a5.864,5.864,0,0,1,5.864,5.864v9.529a5.864,5.864,0,0,1-5.864,5.864Z" transform="translate(-151.162 -364.234)" fill="#d84318"/>
        </g>
      </g>
      <g id="Group_149760" data-name="Group 149760" transform="translate(25.095 11.387)">
        <g id="Group_149759" data-name="Group 149759">
          <path id="Path_215044" data-name="Path 215044" d="M157.026,19.727a5.864,5.864,0,0,0-5.864,5.864V35.12a5.864,5.864,0,0,0,5.864,5.864h22.962a5.864,5.864,0,0,0,5.864-5.864V25.591a5.864,5.864,0,0,0-5.864-5.864Z" transform="translate(-151.162 -19.727)" fill="#f0f8ff"/>
        </g>
      </g>
      <g id="Group_149761" data-name="Group 149761" transform="translate(0 9.727)">
        <path id="Path_215045" data-name="Path 215045" d="M171.647,182.17H148.686a7.532,7.532,0,0,0-7.524,7.524v9.529a7.532,7.532,0,0,0,7.524,7.524h22.962a7.532,7.532,0,0,0,7.524-7.524v-9.529A7.532,7.532,0,0,0,171.647,182.17Zm4.2,17.053a4.208,4.208,0,0,1-4.2,4.2H148.686a4.208,4.208,0,0,1-4.2-4.2v-9.529a4.208,4.208,0,0,1,4.2-4.2h22.962a4.208,4.208,0,0,1,4.2,4.2Z" transform="translate(-117.727 -153.542)"/>
        <path id="Path_215046" data-name="Path 215046" d="M171.647,354.234H148.686a7.532,7.532,0,0,0-7.524,7.524v9.529a7.532,7.532,0,0,0,7.524,7.524h22.962a7.532,7.532,0,0,0,7.524-7.524v-9.529A7.532,7.532,0,0,0,171.647,354.234Zm4.2,17.053a4.208,4.208,0,0,1-4.2,4.2H148.686a4.208,4.208,0,0,1-4.2-4.2v-9.529a4.208,4.208,0,0,1,4.2-4.2h22.962a4.208,4.208,0,0,1,4.2,4.2Z" transform="translate(-117.727 -297.04)"/>
        <path id="Path_215047" data-name="Path 215047" d="M171.647,9.727H167.7a1.66,1.66,0,0,0,0,3.32h3.95a4.208,4.208,0,0,1,4.2,4.2V26.78a4.208,4.208,0,0,1-4.2,4.2H148.686a4.208,4.208,0,0,1-4.2-4.2V17.251a4.208,4.208,0,0,1,4.2-4.2h4.384a1.66,1.66,0,0,0,0-3.32h-4.384a7.532,7.532,0,0,0-7.524,7.524V26.78a7.532,7.532,0,0,0,7.524,7.524h22.962a7.532,7.532,0,0,0,7.524-7.524V17.251A7.532,7.532,0,0,0,171.647,9.727Z" transform="translate(-117.727 -9.727)"/>
        <path id="Path_215048" data-name="Path 215048" d="M398.636,246.188h-5.174a1.66,1.66,0,0,0,0,3.32h5.174a9.811,9.811,0,0,1,9.8,9.8v5.645a9.811,9.811,0,0,1-9.8,9.8H397.47l1.732-1.733a1.66,1.66,0,1,0-2.348-2.348l-4.566,4.567a1.679,1.679,0,0,0,0,2.348l4.566,4.566a1.66,1.66,0,0,0,2.348-2.348l-1.732-1.732h1.166a13.135,13.135,0,0,0,13.121-13.12v-5.645A13.135,13.135,0,0,0,398.636,246.188Z" transform="translate(-326.757 -206.932)"/>
        <path id="Path_215049" data-name="Path 215049" d="M13.121,107.26h1.166l-1.732,1.733a1.66,1.66,0,0,0,0,2.348,1.685,1.685,0,0,0,2.348,0l4.566-4.567a1.683,1.683,0,0,0,0-2.348L14.9,99.859a1.66,1.66,0,0,0-2.348,2.348l1.732,1.733H13.121a9.811,9.811,0,0,1-9.8-9.8V88.494a9.811,9.811,0,0,1,9.8-9.8h5.174a1.66,1.66,0,1,0,0-3.32H13.121A13.135,13.135,0,0,0,0,88.494v5.645A13.135,13.135,0,0,0,13.121,107.26Z" transform="translate(0 -64.476)"/>
        <path id="Path_215050" data-name="Path 215050" d="M34.914,395.314H25.547l1.733-1.733a1.66,1.66,0,1,0-2.348-2.348L20.366,395.8a1.683,1.683,0,0,0,0,2.348l4.566,4.567a1.685,1.685,0,0,0,2.348,0,1.66,1.66,0,0,0,0-2.348l-1.733-1.733h9.366a1.66,1.66,0,1,0,0-3.32Z" transform="translate(-16.586 -327.492)"/>
        <path id="Path_215051" data-name="Path 215051" d="M391.981,46.241a1.676,1.676,0,0,0,.143,2.182l4.567,4.567a1.66,1.66,0,0,0,2.348-2.348l-1.732-1.733h9.366a1.66,1.66,0,1,0,0-3.32h-9.366l1.732-1.732a1.66,1.66,0,0,0-2.348-2.348l-4.567,4.566a1.714,1.714,0,0,0-.143.166Z" transform="translate(-326.624 -35.827)"/>
        <path id="Path_215052" data-name="Path 215052" d="M190.722,75.406a1.66,1.66,0,0,0,1.66,1.66h18.425a1.66,1.66,0,0,0,0-3.32H192.382a1.66,1.66,0,0,0-1.66,1.66Z" transform="translate(-159.059 -63.118)"/>
        <path id="Path_215053" data-name="Path 215053" d="M203.533,246.188H192.382a1.66,1.66,0,0,0,0,3.32h11.151a1.66,1.66,0,0,0,0-3.32Z" transform="translate(-159.059 -206.932)"/>
        <path id="Path_215054" data-name="Path 215054" d="M210.808,418.632H192.382a1.66,1.66,0,0,0,0,3.32h18.425a1.66,1.66,0,0,0,0-3.32Z" transform="translate(-159.059 -350.747)"/>
        <path id="Path_215055" data-name="Path 215055" d="M304.913,247.26a1.659,1.659,0,1,0-.672,2.054A1.673,1.673,0,0,0,304.913,247.26Z" transform="translate(-251.632 -206.991)"/>
        <path id="Path_215056" data-name="Path 215056" d="M247.658,12.04a1.659,1.659,0,1,0,.9-2.168A1.675,1.675,0,0,0,247.658,12.04Z" transform="translate(-206.439 -9.745)"/>
      </g>
    </g>
  </g>
</svg>
