<svg xmlns="http://www.w3.org/2000/svg" width="85.817" height="85" viewBox="0 0 85.817 85">
  <g id="c6" transform="translate(-57 -525)">
    <rect id="Rectangle_90085" data-name="Rectangle 90085" width="85" height="85" transform="translate(57 525)" fill="none"/>
    <g id="presupuesto" transform="translate(57.451 525)">
      <path id="Path_215057" data-name="Path 215057" d="M155.881,22.435V72.593c0,.1,0,.2-.007.3a6.476,6.476,0,0,1-6.469,6.174H113a6.475,6.475,0,0,1-6.476-6.474V14.52A6.466,6.466,0,0,1,113,8.044h28.919a6.455,6.455,0,0,1,2.812.644c1.749.842,2.242,1.906,5.386,5.121,3.617,3.927,4.48,4.33,5.218,6.03A6.4,6.4,0,0,1,155.881,22.435Z" transform="translate(-88.381 -6.709)" fill="#dee4f0"/>
      <path id="Path_215058" data-name="Path 215058" d="M181.036,22.434V72.592c0,.1,0,.2-.007.3a6.5,6.5,0,0,1-1.462.165H143.161a6.475,6.475,0,0,1-6.476-6.474V8.51c0-.1,0-.2.007-.3a6.505,6.505,0,0,1,1.462-.165h28.919A6.486,6.486,0,0,1,171.8,10.1l3.467,3.709,3.969,4.153a6.517,6.517,0,0,1,1.8,4.473Z" transform="translate(-113.535 -6.708)" fill="#f3f9ff"/>
      <path id="Path_215059" data-name="Path 215059" d="M292.5,184.048v36.41a9.152,9.152,0,0,1-9.152,9.152H259.566a9.152,9.152,0,0,1-9.152-9.152v-36.41a9.148,9.148,0,0,1,9.152-9.152h23.781A9.151,9.151,0,0,1,292.5,184.048Z" transform="translate(-208.383 -145.861)" fill="#727997"/>
      <path id="Path_215060" data-name="Path 215060" d="M311.506,184.048v36.41a9.1,9.1,0,0,1-1.773,5.413,9.114,9.114,0,0,1-3.6.734H282.358a9.152,9.152,0,0,1-9.152-9.152v-36.41a9.1,9.1,0,0,1,1.773-5.413,9.113,9.113,0,0,1,3.6-.734h23.781A9.151,9.151,0,0,1,311.506,184.048Z" transform="translate(-227.392 -145.861)" fill="#b0c0d2"/>
      <path id="Path_215061" data-name="Path 215061" d="M363.052,367.338v4.276a1.368,1.368,0,0,1-1.367,1.369h-4.278a1.368,1.368,0,0,1-1.369-1.369v-4.276a1.368,1.368,0,0,1,1.369-1.369h4.278A1.368,1.368,0,0,1,363.052,367.338Z" transform="translate(-296.473 -305.212)" fill="#e8e8e8"/>
      <path id="Path_215062" data-name="Path 215062" d="M317.8,210.029v4.582a2.951,2.951,0,0,1-2.951,2.951h-23.6a2.952,2.952,0,0,1-2.951-2.951v-4.582a2.952,2.952,0,0,1,2.951-2.951h23.6A2.951,2.951,0,0,1,317.8,210.029Z" transform="translate(-239.977 -172.7)" fill="#ccc47d"/>
      <path id="Path_215063" data-name="Path 215063" d="M342.957,210.029v4.582a2.951,2.951,0,0,1-2.951,2.951h-18.6a2.952,2.952,0,0,1-2.951-2.951v-4.582a2.952,2.952,0,0,1,2.951-2.951h18.6A2.951,2.951,0,0,1,342.957,210.029Z" transform="translate(-265.131 -172.7)" fill="#fff59d"/>
      <g id="Group_149762" data-name="Group 149762" transform="translate(48.32 49.574)">
        <path id="Path_215064" data-name="Path 215064" d="M295.312,367.338v4.276a1.368,1.368,0,0,1-1.369,1.369h-4.278a1.369,1.369,0,0,1-1.369-1.369v-4.276a1.369,1.369,0,0,1,1.369-1.369h4.278A1.368,1.368,0,0,1,295.312,367.338Z" transform="translate(-288.297 -354.786)" fill="#e8e8e8"/>
        <path id="Path_215065" data-name="Path 215065" d="M363.052,299.977v4.276a1.368,1.368,0,0,1-1.367,1.369h-4.278a1.368,1.368,0,0,1-1.369-1.369v-4.276a1.368,1.368,0,0,1,1.369-1.369h4.278A1.368,1.368,0,0,1,363.052,299.977Z" transform="translate(-344.793 -298.608)" fill="#e8e8e8"/>
      </g>
      <path id="Path_215066" data-name="Path 215066" d="M431.609,299.977v4.276a1.368,1.368,0,0,1-1.369,1.369h-4.276a1.368,1.368,0,0,1-1.369-1.369v-4.276a1.368,1.368,0,0,1,1.369-1.369h4.276A1.368,1.368,0,0,1,431.609,299.977Z" transform="translate(-353.648 -249.034)" fill="#d84318"/>
      <g id="Group_149763" data-name="Group 149763" transform="translate(48.32 49.574)">
        <path id="Path_215067" data-name="Path 215067" d="M295.312,299.977v4.276a1.368,1.368,0,0,1-1.369,1.369h-4.278a1.369,1.369,0,0,1-1.369-1.369v-4.276a1.369,1.369,0,0,1,1.369-1.369h4.278A1.368,1.368,0,0,1,295.312,299.977Z" transform="translate(-288.297 -298.608)" fill="#e8e8e8"/>
        <path id="Path_215068" data-name="Path 215068" d="M363.052,431.4v4.278a1.368,1.368,0,0,1-1.367,1.369h-4.278a1.368,1.368,0,0,1-1.369-1.369V431.4a1.368,1.368,0,0,1,1.369-1.367h4.278A1.368,1.368,0,0,1,363.052,431.4Z" transform="translate(-344.793 -408.213)" fill="#e8e8e8"/>
        <path id="Path_215069" data-name="Path 215069" d="M295.312,431.4v4.278a1.368,1.368,0,0,1-1.369,1.369h-4.278a1.369,1.369,0,0,1-1.369-1.369V431.4a1.369,1.369,0,0,1,1.369-1.367h4.278A1.368,1.368,0,0,1,295.312,431.4Z" transform="translate(-288.297 -408.213)" fill="#e8e8e8"/>
      </g>
      <path id="Path_215070" data-name="Path 215070" d="M431.61,368v13.281a2.334,2.334,0,0,1-2.333,2.335h-2.347a2.334,2.334,0,0,1-2.333-2.335V368a2.033,2.033,0,0,1,2.033-2.033h2.948A2.032,2.032,0,0,1,431.61,368Z" transform="translate(-353.649 -305.212)" fill="#d84318"/>
      <path id="Path_215074" data-name="Path 215074" d="M431.609,299.977v1.272a1.368,1.368,0,0,1-1.369,1.369h-4.276a1.368,1.368,0,0,1-1.369-1.369v-1.272a1.368,1.368,0,0,1,1.369-1.369h4.276A1.368,1.368,0,0,1,431.609,299.977Z" transform="translate(-353.648 -249.034)" fill="#d84318"/>
      <path id="Path_215078" data-name="Path 215078" d="M431.61,368v10.277a2.334,2.334,0,0,1-2.333,2.335h-2.347a2.334,2.334,0,0,1-2.333-2.335V368a2.033,2.033,0,0,1,2.033-2.033h2.948A2.032,2.032,0,0,1,431.61,368Z" transform="translate(-353.649 -305.212)" fill="#d84318"/>
      <path id="Path_215079" data-name="Path 215079" d="M347.266,23.075h-8.115a2.49,2.49,0,0,1-2.49-2.49V11.924a6.467,6.467,0,0,1,1.919,1.411l3.468,3.709,3.969,4.153A6.411,6.411,0,0,1,347.266,23.075Z" transform="translate(-280.312 -9.944)" fill="#dee4f0"/>
      <path id="Path_215080" data-name="Path 215080" d="M95.227,464.822a3.18,3.18,0,0,1-3.171,3.171H72.627a3.171,3.171,0,0,1,0-6.342H92.055A3.181,3.181,0,0,1,95.227,464.822Z" transform="translate(-57.467 -385.01)" fill="#99935e"/>
      <path id="Path_215081" data-name="Path 215081" d="M95.227,426.617a3.18,3.18,0,0,1-3.171,3.171H72.627a3.171,3.171,0,0,1,0-6.342H92.055A3.181,3.181,0,0,1,95.227,426.617Z" transform="translate(-57.467 -353.147)" fill="#ccc47d"/>
      <path id="Path_215082" data-name="Path 215082" d="M95.227,388.413a3.18,3.18,0,0,1-3.171,3.171H72.627a3.171,3.171,0,0,1,0-6.342H92.055A3.181,3.181,0,0,1,95.227,388.413Z" transform="translate(-57.467 -321.286)" fill="#ccc47d"/>
      <path id="Path_215083" data-name="Path 215083" d="M95.227,350.207a3.18,3.18,0,0,1-3.171,3.171H72.627a3.181,3.181,0,0,1-3.171-3.171,3.18,3.18,0,0,1,3.171-3.171H92.055A3.181,3.181,0,0,1,95.227,350.207Z" transform="translate(-57.467 -289.423)" fill="#fff59d"/>
      <path id="Path_215084" data-name="Path 215084" d="M92.055,315.176H72.627a3.181,3.181,0,0,1-3.171-3.171h0a3.181,3.181,0,0,1,3.171-3.171H92.055a3.181,3.181,0,0,1,3.171,3.171h0A3.181,3.181,0,0,1,92.055,315.176Z" transform="translate(-57.467 -257.563)" fill="#fff59d"/>
      <path id="Path_215085" data-name="Path 215085" d="M33.336,387.509a10.318,10.318,0,0,0-10.753-9.881H18.539a10.332,10.332,0,0,0,.884,20.646h3.159v0c.288.012.579.014.873,0a10.5,10.5,0,0,0,1.919-.262,10.333,10.333,0,0,0,7.963-9.686v-.012C33.347,388.047,33.347,387.78,33.336,387.509Z" transform="translate(-6.733 -314.928)" fill="#ccc47d"/>
      <path id="Path_215086" data-name="Path 215086" d="M77.486,389.677v.012a10.332,10.332,0,0,1-7.963,9.686,10.337,10.337,0,0,1-7.953-9.617c0-.023,0-.045,0-.068v-.012a10.336,10.336,0,0,1,7.962-10.422,10.335,10.335,0,0,1,7.956,9.619C77.5,389.144,77.5,389.411,77.486,389.677Z" transform="translate(-50.882 -316.293)" fill="#fff59d"/>
      <path id="Path_215087" data-name="Path 215087" d="M74.963,27.784H68.836V15.726a7.831,7.831,0,0,0-2.165-5.4L62.712,6.187c-3.36-3.462-3.784-4.44-5.785-5.411A7.829,7.829,0,0,0,53.537,0H24.619a7.82,7.82,0,0,0-7.811,7.811V49.936H15.16a4.5,4.5,0,0,0-3.2,7.678,4.49,4.49,0,0,0-1.309,3.171,4.623,4.623,0,0,0,.088.891,11.36,11.36,0,0,0,1.624,22.651l22.222-.008a4.5,4.5,0,0,0,3.2-7.678,4.483,4.483,0,0,0,1.3-2.948h1.691v.9A10.415,10.415,0,0,0,51.182,85H74.963a10.415,10.415,0,0,0,10.4-10.4V38.187A10.415,10.415,0,0,0,74.963,27.784ZM57.685,4.722c5.244,5.543,6.426,6.793,6.648,7.029,0,0,0,0,0,0h0a.036.036,0,0,0,.007.008l0,0a.028.028,0,0,0,.01.01.023.023,0,0,1,0,.007s0,0,0,0,0,0,0,0,0,0,.007.007H57.685V4.722ZM15.16,52.606H34.588a1.836,1.836,0,1,1,0,3.672H15.16a1.836,1.836,0,1,1,0-3.672Zm0,6.342H34.588a1.836,1.836,0,1,1,0,3.672H21.169a10.875,10.875,0,0,0-1.691-.611,11.256,11.256,0,0,0-2.671-.392c-.262-.007-.524,0-.786.007H13.529a1.8,1.8,0,0,1-.205-.84A1.839,1.839,0,0,1,15.16,58.949Zm21.264,8.179a1.838,1.838,0,0,1-1.836,1.836H27.116a11.232,11.232,0,0,0-2.267-3.672h9.739A1.839,1.839,0,0,1,36.424,67.127Zm-27.76-2.4a11.522,11.522,0,0,0-2.1,2.7H5.005A8.818,8.818,0,0,1,8.664,64.731Zm-5.079,5.2H5.529a11.527,11.527,0,0,0-.364,2H3.111A8.774,8.774,0,0,1,3.585,69.931ZM3.8,76.549a8.759,8.759,0,0,1-.628-2.113h2.04a10.076,10.076,0,0,0,.477,2.113Zm1.666,2.5c.819,0,1.3,0,1.407,0a11.276,11.276,0,0,0,1.8,2.173A8.821,8.821,0,0,1,5.466,79.053Zm11.393,2.772A8.858,8.858,0,1,1,22.47,66.451,8.85,8.85,0,0,1,16.859,81.825Zm17.729-.177H23.811a11.438,11.438,0,0,0,2.869-3.672h7.908a1.836,1.836,0,0,1,0,3.672Zm1.821-7.955a1.837,1.837,0,0,1-1.821,1.612H27.6a11.472,11.472,0,0,0,.162-3.672h6.825A1.838,1.838,0,0,1,36.409,73.694Zm4.37-2.671h-2.41a4.43,4.43,0,0,0-.583-.724,4.5,4.5,0,0,0,0-6.342,4.5,4.5,0,0,0,0-6.342,4.51,4.51,0,0,0-3.2-7.678H19.478V7.811a5.147,5.147,0,0,1,5.141-5.141h30.4v10.46a1.335,1.335,0,0,0,1.335,1.335h9.657c.279,1.082.107.724.159,13.318H51.182a10.415,10.415,0,0,0-10.4,10.4V71.023ZM82.863,74.6a7.908,7.908,0,0,1-7.9,7.9H51.182a7.909,7.909,0,0,1-7.9-7.9V38.187a7.909,7.909,0,0,1,7.9-7.9H74.963a7.908,7.908,0,0,1,7.9,7.9V74.6Z" transform="translate(0)"/>
      <path id="Path_215088" data-name="Path 215088" d="M289.5,210.022H284.96a1.7,1.7,0,0,1-1.7-1.7v-4.582a1.7,1.7,0,0,1,1.7-1.7h23.6a1.7,1.7,0,0,1,1.7,1.7v4.582a1.7,1.7,0,0,1-1.7,1.7H294.9a1.252,1.252,0,0,0,0,2.5h13.665a4.207,4.207,0,0,0,4.2-4.2v-4.582a4.207,4.207,0,0,0-4.2-4.2h-23.6a4.2,4.2,0,0,0-4.2,4.2v4.582a4.2,4.2,0,0,0,4.2,4.2H289.5a1.252,1.252,0,1,0,0-2.5Z" transform="translate(-233.689 -166.412)"/>
      <path id="Path_215089" data-name="Path 215089" d="M283.377,367.946h4.278a2.623,2.623,0,0,0,2.62-2.62v-4.276a2.623,2.623,0,0,0-2.62-2.62h-4.278a2.624,2.624,0,0,0-2.62,2.62v4.276A2.624,2.624,0,0,0,283.377,367.946Zm-.117-6.9a.117.117,0,0,1,.117-.117h4.278a.117.117,0,0,1,.117.117v4.276a.117.117,0,0,1-.117.117h-4.278a.117.117,0,0,1-.117-.117Z" transform="translate(-233.689 -298.924)"/>
      <path id="Path_215090" data-name="Path 215090" d="M423.953,291.068h-4.276a2.623,2.623,0,0,0-2.62,2.62v4.276a2.623,2.623,0,0,0,2.62,2.62h4.276a2.623,2.623,0,0,0,2.62-2.62v-4.276A2.623,2.623,0,0,0,423.953,291.068Zm.117,6.9a.116.116,0,0,1-.117.117h-4.276a.117.117,0,0,1-.117-.117c.052-4.231-.109-4.393.117-4.393h4.276a.116.116,0,0,1,.117.117Z" transform="translate(-347.36 -242.746)"/>
      <path id="Path_215091" data-name="Path 215091" d="M283.377,300.585h4.278a2.623,2.623,0,0,0,2.62-2.62v-4.276a2.623,2.623,0,0,0-2.62-2.62h-4.278a2.624,2.624,0,0,0-2.62,2.62v4.276A2.623,2.623,0,0,0,283.377,300.585Zm-.117-6.9a.117.117,0,0,1,.117-.117h4.278a.117.117,0,0,1,.117.117v4.276a.117.117,0,0,1-.117.117h-4.278a.117.117,0,0,1-.117-.117Z" transform="translate(-233.689 -242.746)"/>
      <path id="Path_215092" data-name="Path 215092" d="M289.594,423.374a2.619,2.619,0,0,0-1.961-.883h-4.278a2.613,2.613,0,0,0-1.959.883,3.58,3.58,0,0,0-.661,2.671v3.343a2.624,2.624,0,0,0,2.62,2.62h4.278a2.623,2.623,0,0,0,2.62-2.62v-3.343A3.61,3.61,0,0,0,289.594,423.374Zm-1.961,6.131c-4.226-.052-4.395.108-4.395-.117,0-4.528-.05-4.393.117-4.393h4.278c.205,0,.079.285.117,1.05C287.75,426.045,287.858,429.5,287.633,429.5Z" transform="translate(-233.667 -352.351)"/>
      <path id="Path_215093" data-name="Path 215093" d="M423.287,358.428H420.34a3.289,3.289,0,0,0-3.285,3.285v13.281a3.59,3.59,0,0,0,3.585,3.587h2.347a3.589,3.589,0,0,0,3.585-3.587V361.713A3.288,3.288,0,0,0,423.287,358.428Zm.781,16.566a1.083,1.083,0,0,1-1.082,1.083H420.64a1.084,1.084,0,0,1-1.082-1.083V361.713a.782.782,0,0,1,.781-.781h2.948a.782.782,0,0,1,.781.781v13.281Z" transform="translate(-347.359 -298.923)"/>
      <path id="Path_215094" data-name="Path 215094" d="M168.01,175.878h0c-1.526-.561-2.629-.966-2.629-2.38,0-1.289.856-1.942,2.544-1.942,1.792,0,2.274.789,2.905.789a1.2,1.2,0,0,0,1.067-1.233c0-1.043-1.7-1.56-3.222-1.7v-.94a1.186,1.186,0,0,0-2.372,0v1.09a3.88,3.88,0,0,0-3.222,4.058c0,2.914,2.145,3.72,3.869,4.368,1.688.634,3.021,1.135,3.021,3.062,0,1.592-.884,2.4-2.627,2.4-2.551,0-2.575-1.723-3.548-1.723a1.252,1.252,0,0,0-1.088,1.233c0,.986,1.469,2.283,3.6,2.62v.909a1.186,1.186,0,1,0,2.372,0v-.933c2.287-.43,3.6-2.11,3.6-4.629C172.27,177.443,169.908,176.575,168.01,175.878Z" transform="translate(-135.237 -139.516)"/>
      <path id="Path_215095" data-name="Path 215095" d="M355.377,422.491H351.1a2.619,2.619,0,0,0-1.961.883,3.594,3.594,0,0,0-.659,2.671v3.343a2.623,2.623,0,0,0,2.62,2.62h4.278a2.622,2.622,0,0,0,2.619-2.62V425.11a2.623,2.623,0,0,0-2.619-2.619Zm0,7.013c-4.226-.052-4.395.108-4.395-.117V425.11a.117.117,0,0,1,.117-.115h4.278a.115.115,0,0,1,.115.115C355.442,429.346,355.6,429.5,355.377,429.5Z" transform="translate(-290.164 -352.351)"/>
      <path id="Path_215096" data-name="Path 215096" d="M355.4,291.068h-4.278a2.623,2.623,0,0,0-2.62,2.62v4.276a2.623,2.623,0,0,0,2.62,2.62H355.4a2.581,2.581,0,0,0,.953-.18,2.624,2.624,0,0,0,1.666-2.44v-4.276A2.624,2.624,0,0,0,355.4,291.068Zm.115,6.9a.116.116,0,0,1-.115.117h-4.278a.117.117,0,0,1-.117-.117v-4.276c0-.225.155-.067,4.395-.117a.116.116,0,0,1,.115.117v4.276Z" transform="translate(-290.185 -242.746)"/>
      <path id="Path_215097" data-name="Path 215097" d="M356.35,358.608a2.581,2.581,0,0,0-.953-.18h-4.278a2.623,2.623,0,0,0-2.62,2.62v4.276a2.623,2.623,0,0,0,2.62,2.62H355.4a2.622,2.622,0,0,0,2.619-2.62v-4.276A2.623,2.623,0,0,0,356.35,358.608Zm-.838,6.716a.116.116,0,0,1-.115.117h-4.278a.117.117,0,0,1-.117-.117v-4.276a.117.117,0,0,1,.117-.117H355.4a.116.116,0,0,1,.115.117Z" transform="translate(-290.185 -298.923)"/>
      <path id="Path_215098" data-name="Path 215098" d="M321.3,105.546h3.145a1.252,1.252,0,0,0,0-2.5H321.3a1.252,1.252,0,1,0,0,2.5Z" transform="translate(-266.456 -85.935)"/>
      <path id="Path_215099" data-name="Path 215099" d="M157.422,105.546h22.2a1.252,1.252,0,0,0,0-2.5h-22.2a1.252,1.252,0,0,0,0,2.5Z" transform="translate(-129.785 -85.935)"/>
      <path id="Path_215100" data-name="Path 215100" d="M161.4,142.976a1.252,1.252,0,1,0,0-2.5h-3.979a1.252,1.252,0,1,0,0,2.5Z" transform="translate(-129.785 -117.151)"/>
      <path id="Path_215101" data-name="Path 215101" d="M234.167,141.724a1.252,1.252,0,0,0-1.252-1.252H211.551a1.252,1.252,0,0,0,0,2.5h21.364A1.252,1.252,0,0,0,234.167,141.724Z" transform="translate(-174.928 -117.151)"/>
      <path id="Path_215102" data-name="Path 215102" d="M80.087,402.627c0-.315.116-.4.224-.465a2.151,2.151,0,0,1,1.815.123,1.431,1.431,0,0,0,.678.206c1.235,0,2.211-2.294-.738-2.8v-.079a1.269,1.269,0,0,0-2.537,0v.241a2.846,2.846,0,0,0-1.935,2.851c0,2.135,1.551,2.718,2.684,3.143,1.08.406,1.454.584,1.454,1.318,0,.459-.124.885-1.022.885-1.309,0-1.152-1.034-2.131-1.034a1.308,1.308,0,0,0-1.21,1.3c0,.867.9,1.69,2.16,2.024v.095a1.269,1.269,0,0,0,2.537,0V410.3a3.136,3.136,0,0,0,2.159-3.212C84.225,403.285,80.087,403.856,80.087,402.627Z" transform="translate(-64.067 -332.211)"/>
    </g>
  </g>
</svg>
