<svg xmlns="http://www.w3.org/2000/svg" width="85" height="85" viewBox="0 0 85 85">
  <g id="c9" transform="translate(-2 -2)">
    <path id="Path_215143" data-name="Path 215143" d="M53,23h5.667V65.5H53Z" transform="translate(21.25 8.75)" fill="#dee4f0"/>
    <path id="Path_215144" data-name="Path 215144" d="M58.667,19.833V25.5H53V19.833a2.833,2.833,0,0,1,5.667,0Z" transform="translate(21.25 6.25)" fill="#1b3f5e"/>
    <path id="Path_215145" data-name="Path 215145" d="M58.667,53,55.833,64.333,53,53Z" transform="translate(21.25 21.25)" fill="#d84318"/>
    <path id="Path_215146" data-name="Path 215146" d="M55,23h2.833V65.5H55Z" transform="translate(22.083 8.75)" fill="#b0c0d2"/>
    <path id="Path_215147" data-name="Path 215147" d="M57.833,19.833V25.5H55V17a2.855,2.855,0,0,1,2.833,2.833Z" transform="translate(22.083 6.25)" fill="#1b3f5e"/>
    <path id="Path_215148" data-name="Path 215148" d="M57.833,53,55,64.333V53Z" transform="translate(22.083 21.25)" fill="#d84318"/>
    <rect id="Rectangle_90113" data-name="Rectangle 90113" width="51" height="82.167" rx="2" transform="translate(17.583 3.417)" fill="#f3f9ff"/>
    <path id="Path_215149" data-name="Path 215149" d="M47.5,12.667v9.081a11.348,11.348,0,0,1-3.811,8.472L34.75,38.167l-8.939-7.948A11.347,11.347,0,0,1,22,21.748V12.667L34.75,7Z" transform="translate(8.333 2.083)" fill="#fff59d"/>
    <path id="Path_215150" data-name="Path 215150" d="M31.333,31.25a4.25,4.25,0,0,1-4.25,4.25H17.167v17h-9.9L3,49.667V29.833L10.083,27h17A4.25,4.25,0,0,1,31.333,31.25Z" transform="translate(0.417 10.417)" fill="#ffc477"/>
    <path id="Path_215151" data-name="Path 215151" d="M31.333,31.25a4.287,4.287,0,0,1-.567,2.125,4.675,4.675,0,0,0-.68-.878,4.24,4.24,0,0,0-3-1.247h-17L3,34.083v-4.25L10.083,27h17A4.25,4.25,0,0,1,31.333,31.25Z" transform="translate(0.417 10.417)" fill="#ffa733"/>
    <path id="Path_215152" data-name="Path 215152" d="M44.583,12.667v9.081a11.348,11.348,0,0,1-3.811,8.472l-8.939,7.947L29,35.645l6.106-5.426a11.348,11.348,0,0,0,3.811-8.472V12.667L29,8.261,31.833,7Z" transform="translate(11.25 2.083)" fill="#ccc47d"/>
    <path id="Path_215153" data-name="Path 215153" d="M51.5,5.833v76.5a2.842,2.842,0,0,1-2.833,2.833H43a2.842,2.842,0,0,0,2.833-2.833V5.833A2.842,2.842,0,0,0,43,3h5.667A2.842,2.842,0,0,1,51.5,5.833Z" transform="translate(17.083 0.417)" fill="#dee4f0"/>
    <path id="Path_215154" data-name="Path 215154" d="M65.75,2H20.417a4.263,4.263,0,0,0-4.25,4.25V36H10.5a1.327,1.327,0,0,0-.524.1L2.893,38.933A1.417,1.417,0,0,0,2,40.25V60.083a1.417,1.417,0,0,0,.638,1.176L6.9,64.093a1.37,1.37,0,0,0,.779.241h8.486V82.75A4.263,4.263,0,0,0,20.417,87H65.75A4.263,4.263,0,0,0,70,82.75V6.25A4.263,4.263,0,0,0,65.75,2ZM16.025,47.333h.142V61.5H8.106L4.833,59.318v-18.1l5.936-2.38H27.5a2.833,2.833,0,1,1,0,5.667H14.75a1.417,1.417,0,0,0-1.417,1.417,4.263,4.263,0,0,1-4.25,4.25V53a7.1,7.1,0,0,0,6.942-5.667ZM67.167,82.75a1.417,1.417,0,0,1-1.417,1.417H20.417A1.417,1.417,0,0,1,19,82.75V47.333h8.5A5.667,5.667,0,1,0,27.5,36H19V6.25a1.417,1.417,0,0,1,1.417-1.417H65.75A1.417,1.417,0,0,1,67.167,6.25Z"/>
    <path id="Path_215155" data-name="Path 215155" d="M32.473,23.068a1.416,1.416,0,0,0,1-.415l8.014-8.014-2-2-7.013,7.013-3.006-3.006-2,2,4.008,4.008a1.417,1.417,0,0,0,1,.415Z" transform="translate(10.61 4.432)"/>
    <path id="Path_215156" data-name="Path 215156" d="M48.5,11.794,35.748,6.127a1.387,1.387,0,0,0-1.162,0l-12.75,5.667A1.4,1.4,0,0,0,21,13.083v9.081a12.72,12.72,0,0,0,4.278,9.52l8.953,7.962a1.417,1.417,0,0,0,1.87,0l8.953-7.962a12.72,12.72,0,0,0,4.278-9.52V13.083a1.4,1.4,0,0,0-.836-1.289Zm-2,10.37a9.936,9.936,0,0,1-3.329,7.409l-8,7.112-8-7.112a9.936,9.936,0,0,1-3.329-7.409V14L35.167,8.961,46.5,14Z" transform="translate(7.917 1.667)"/>
    <path id="Path_215157" data-name="Path 215157" d="M64.75,24.5H60.5V20.25a4.25,4.25,0,0,0-8.5,0V68.417a1.4,1.4,0,0,0,.042.34L54.876,80.09a1.417,1.417,0,0,0,2.748,0l2.833-11.333a1.4,1.4,0,0,0,.042-.34V27.333h2.833v12.75h2.833V25.917A1.417,1.417,0,0,0,64.75,24.5Zm-8.5,49.413-1.02-4.08h2.04ZM57.667,67H54.833V27.333h2.833Zm0-42.5H54.833V20.25a1.417,1.417,0,1,1,2.833,0Z" transform="translate(20.833 5.833)"/>
    <path id="Path_215158" data-name="Path 215158" d="M18,38h5.667v2.833H18Z" transform="translate(6.667 15)"/>
    <path id="Path_215159" data-name="Path 215159" d="M24,38H52.333v2.833H24Z" transform="translate(9.167 15)"/>
    <path id="Path_215160" data-name="Path 215160" d="M18,44h5.667v2.833H18Z" transform="translate(6.667 17.5)"/>
    <path id="Path_215161" data-name="Path 215161" d="M24,44H52.333v2.833H24Z" transform="translate(9.167 17.5)"/>
    <path id="Path_215162" data-name="Path 215162" d="M18,50h5.667v2.833H18Z" transform="translate(6.667 20)"/>
    <path id="Path_215163" data-name="Path 215163" d="M24,50H52.333v2.833H24Z" transform="translate(9.167 20)"/>
    <path id="Path_215164" data-name="Path 215164" d="M18,56h5.667v2.833H18Z" transform="translate(6.667 22.5)"/>
    <path id="Path_215165" data-name="Path 215165" d="M24,56H52.333v2.833H24Z" transform="translate(9.167 22.5)"/>
  </g>
</svg>
