<svg xmlns="http://www.w3.org/2000/svg" xmlns:xlink="http://www.w3.org/1999/xlink" width="190" height="121" viewBox="0 0 190 121">
  <defs>
    <clipPath id="clip-path">
      <rect id="Rectángulo_43019" data-name="Rectángulo 43019" width="120.91" height="83.482" fill="none"/>
    </clipPath>
  </defs>
  <g id="Grupo_149670" data-name="Grupo 149670" transform="translate(-180 -2434)">
    <g id="Grupo_144263" data-name="Grupo 144263" transform="translate(0 -6)">
      <g id="Grupo_144262" data-name="Grupo 144262" transform="translate(163.813 2044.309)" opacity="0.2">
        <g id="Grupo_129451" data-name="Grupo 129451" transform="translate(206.187 467.446) rotate(180)">
          <path id="Trazado_114977" data-name="Trazado 114977" d="M14.431,0H0L10.937,23.245,0,46.489H14.431L25.368,23.245Z" transform="translate(0 0)" fill="#d84318"/>
          <path id="Trazado_114978" data-name="Trazado 114978" d="M14.431,0H0L10.937,23.245,0,46.489H14.431L25.368,23.245Z" transform="translate(25.368 0)" fill="#d84318"/>
          <path id="Trazado_114979" data-name="Trazado 114979" d="M14.431,0H0L10.937,23.245,0,46.489H14.431L25.368,23.245Z" transform="translate(50.736 0)" fill="#d84318"/>
        </g>
        <g id="Grupo_129486" data-name="Grupo 129486" transform="translate(16.187 444.202)">
          <path id="Trazado_114977-2" data-name="Trazado 114977" d="M14.431,0H0L10.937,23.245,0,46.489H14.431L25.368,23.245Z" transform="translate(0 0)" fill="#1b3f5e"/>
          <path id="Trazado_114978-2" data-name="Trazado 114978" d="M14.431,0H0L10.937,23.245,0,46.489H14.431L25.368,23.245Z" transform="translate(25.368 0)" fill="#1b3f5e"/>
          <path id="Trazado_114979-2" data-name="Trazado 114979" d="M14.431,0H0L10.937,23.245,0,46.489H14.431L25.368,23.245Z" transform="translate(50.736 0)" fill="#1b3f5e"/>
        </g>
      </g>
      <g id="Grupo_144261" data-name="Grupo 144261" transform="translate(41 11.09)">
        <g id="Grupo_144260" data-name="Grupo 144260" transform="translate(180 2448.071)">
          <g id="Grupo_144259" data-name="Grupo 144259" clip-path="url(#clip-path)">
            <path id="Trazado_195559" data-name="Trazado 195559" d="M11.778,8H79.79a3.778,3.778,0,0,1,3.778,3.778V76.012A3.778,3.778,0,0,1,79.79,79.79H11.778A3.778,3.778,0,0,1,8,76.012V11.778A3.778,3.778,0,0,1,11.778,8" transform="translate(-6.111 -6.111)" fill="#f97878"/>
            <path id="Trazado_195560" data-name="Trazado 195560" d="M77.9,74.123A64.234,64.234,0,0,1,13.668,9.889V8H11.778A3.778,3.778,0,0,0,8,11.778V76.012a3.778,3.778,0,0,0,3.778,3.778H79.79a3.778,3.778,0,0,0,3.778-3.778V74.123Z" transform="translate(-6.111 -6.111)" fill="#ed5d5d"/>
            <path id="Trazado_195561" data-name="Trazado 195561" d="M345.558,47.7l10.893,19.366a15.131,15.131,0,0,0,4.8,5.165l1.593,1.062a15.114,15.114,0,0,1,6.72,12.575v14.583a3.778,3.778,0,0,1-3.778,3.778H331.778A3.778,3.778,0,0,1,328,100.455V40h4.385A15.114,15.114,0,0,1,345.558,47.7Z" transform="translate(-250.542 -30.554)" fill="#f8c460"/>
            <path id="Trazado_195562" data-name="Trazado 195562" d="M367.674,98.566A34.006,34.006,0,0,1,333.668,64.56V40.087c-.427-.038-.85-.087-1.283-.087H328v60.455a3.778,3.778,0,0,0,3.778,3.778h34.006a3.778,3.778,0,0,0,3.778-3.778V98.566Z" transform="translate(-250.542 -30.554)" fill="#eaac47"/>
            <path id="Trazado_195563" data-name="Trazado 195563" d="M67.335,248A11.335,11.335,0,1,1,56,259.335,11.335,11.335,0,0,1,67.335,248" transform="translate(-42.775 -189.434)" fill="#7a838b"/>
            <path id="Trazado_195564" data-name="Trazado 195564" d="M72.951,268.266a11.322,11.322,0,0,1-10.326-15.994A11.335,11.335,0,1,0,77.61,267.257a11.286,11.286,0,0,1-4.659,1.009" transform="translate(-42.724 -192.697)" fill="#5d6972"/>
            <path id="Trazado_195565" data-name="Trazado 195565" d="M91.778,280A3.778,3.778,0,1,1,88,283.778,3.778,3.778,0,0,1,91.778,280" transform="translate(-67.219 -213.877)" fill="#a7d0e1"/>
            <path id="Trazado_195566" data-name="Trazado 195566" d="M350.671,94.671H328V72h5.1a7.557,7.557,0,0,1,6.527,3.75Z" transform="translate(-250.542 -54.997)" fill="#a7d0e1"/>
            <path id="Trazado_195567" data-name="Trazado 195567" d="M333.668,81.446V72.038L333.63,72H328V94.671h22.671L347.364,89h-6.14a7.557,7.557,0,0,1-7.557-7.557" transform="translate(-250.542 -54.997)" fill="#80bbce"/>
            <path id="Trazado_195568" data-name="Trazado 195568" d="M107.778,96h22.671a3.778,3.778,0,0,1,3.778,3.778v22.671a3.778,3.778,0,0,1-3.778,3.778H107.778A3.778,3.778,0,0,1,104,122.449V99.778A3.778,3.778,0,0,1,107.778,96" transform="translate(-79.44 -73.329)" fill="#f8c460"/>
            <rect id="Rectángulo_43017" data-name="Rectángulo 43017" width="7.514" height="11.613" transform="translate(36.205 22.337)" fill="#f97878"/>
            <path id="Trazado_195569" data-name="Trazado 195569" d="M371.335,248A11.335,11.335,0,1,1,360,259.335,11.335,11.335,0,0,1,371.335,248" transform="translate(-274.985 -189.434)" fill="#7a838b"/>
            <path id="Trazado_195570" data-name="Trazado 195570" d="M376.951,268.266a11.322,11.322,0,0,1-10.326-15.994,11.335,11.335,0,1,0,14.985,14.985,11.286,11.286,0,0,1-4.659,1.009" transform="translate(-274.934 -192.697)" fill="#5d6972"/>
            <path id="Trazado_195571" data-name="Trazado 195571" d="M395.778,280A3.778,3.778,0,1,1,392,283.778,3.778,3.778,0,0,1,395.778,280" transform="translate(-299.428 -213.877)" fill="#a7d0e1"/>
            <path id="Trazado_195572" data-name="Trazado 195572" d="M385.024,81.113a1.889,1.889,0,0,1-1.649-.964l-2.737-4.867a1.889,1.889,0,1,1,3.293-1.853L386.67,78.3a1.889,1.889,0,0,1-.722,2.571A1.863,1.863,0,0,1,385.024,81.113Z" transform="translate(-290.563 -55.353)" fill="#fff"/>
            <path id="Trazado_195573" data-name="Trazado 195573" d="M389.668,283.335A5.668,5.668,0,1,0,384,277.668a5.668,5.668,0,0,0,5.668,5.668m0-7.557a1.889,1.889,0,1,1-1.889,1.889,1.889,1.889,0,0,1,1.889-1.889" transform="translate(-293.318 -207.767)"/>
            <path id="Trazado_195574" data-name="Trazado 195574" d="M85.668,283.335A5.668,5.668,0,1,0,80,277.668a5.668,5.668,0,0,0,5.668,5.668m0-7.557a1.889,1.889,0,1,1-1.889,1.889,1.889,1.889,0,0,1,1.889-1.889" transform="translate(-61.108 -207.767)"/>
            <path id="Trazado_195575" data-name="Trazado 195575" d="M113.338,41.172l-1.591-1.062a13.28,13.28,0,0,1-4.19-4.519L96.664,16.225A17.025,17.025,0,0,0,81.843,7.557h-2.5V5.668A5.668,5.668,0,0,0,73.679,0H5.668A5.668,5.668,0,0,0,0,5.668V69.9a5.668,5.668,0,0,0,5.668,5.668h6.962A13.693,13.693,0,1,0,11.5,71.79H5.668A1.889,1.889,0,0,1,3.778,69.9V5.668A1.889,1.889,0,0,1,5.668,3.778H73.679a1.889,1.889,0,0,1,1.889,1.889V69.9a1.889,1.889,0,0,1-1.889,1.889H43.452a1.889,1.889,0,1,0,0,3.778H84.42a13.693,13.693,0,1,0-1.143-3.778h-3.93V41.563h20.781a1.889,1.889,0,0,0,1.632-2.834L90.722,19.8a9.446,9.446,0,0,0-5.1-4.173,1.889,1.889,0,0,0-1.34,3.533q.057.022.116.04A5.678,5.678,0,0,1,87.454,21.7l9.386,16.081H79.347V11.335h2.5a13.24,13.24,0,0,1,11.524,6.741L104.26,37.442a17.082,17.082,0,0,0,5.392,5.821l1.591,1.06a13.2,13.2,0,0,1,5.889,11V69.9a1.889,1.889,0,0,1-1.889,1.889,1.889,1.889,0,0,0,0,3.778A5.668,5.668,0,0,0,120.91,69.9V55.318a16.969,16.969,0,0,0-7.572-14.146M24.56,60.455A9.446,9.446,0,1,1,15.114,69.9a9.446,9.446,0,0,1,9.446-9.446m71.79,0A9.446,9.446,0,1,1,86.9,69.9a9.446,9.446,0,0,1,9.446-9.446"/>
            <path id="Trazado_195576" data-name="Trazado 195576" d="M353.889,192a1.889,1.889,0,1,0,0,3.778h3.778a1.889,1.889,0,1,0,0-3.778Z" transform="translate(-268.874 -146.659)"/>
            <path id="Trazado_195577" data-name="Trazado 195577" d="M130.006,116.338V93.668A5.668,5.668,0,0,0,124.338,88H101.668A5.668,5.668,0,0,0,96,93.668v22.671a5.668,5.668,0,0,0,5.668,5.668h22.671a5.668,5.668,0,0,0,5.668-5.668m-15.114-17h-3.778V91.778h3.778Zm-15.114,17V93.668a1.889,1.889,0,0,1,1.889-1.889h5.668v9.446a1.889,1.889,0,0,0,1.889,1.889h7.557a1.889,1.889,0,0,0,1.889-1.889V91.778h5.668a1.889,1.889,0,0,1,1.889,1.889v22.671a1.889,1.889,0,0,1-1.889,1.889H101.668a1.889,1.889,0,0,1-1.889-1.889" transform="translate(-73.329 -67.219)"/>
            <path id="Trazado_195578" data-name="Trazado 195578" d="M181.668,184h-3.778a1.889,1.889,0,1,0,0,3.778h3.778a1.889,1.889,0,1,0,0-3.778" transform="translate(-134.437 -140.548)"/>
            <rect id="Rectángulo_43018" data-name="Rectángulo 43018" width="10.542" height="3.778" transform="translate(36.358 71.79)"/>
            <path id="Trazado_195579" data-name="Trazado 195579" d="M458.267,307.778h6.848V304H458.04Z" transform="translate(-349.873 -232.21)"/>
            <path id="Trazado_195580" data-name="Trazado 195580" d="M336,62.92a23.42,23.42,0,0,1,6.274.767L341.05,67.26a15.236,15.236,0,0,0-5.05-.7Z" transform="translate(-256.653 -48.061)"/>
          </g>
        </g>
        <rect id="Rectángulo_43020" data-name="Rectángulo 43020" width="121" height="121" transform="translate(180 2428.91)" fill="none"/>
      </g>
    </g>
  </g>
</svg>
