<svg xmlns="http://www.w3.org/2000/svg" xmlns:xlink="http://www.w3.org/1999/xlink" width="78" height="78" viewBox="0 0 78 78">
  <defs>
    <clipPath id="clip-path">
      <rect id="Rectángulo_42168" data-name="Rectángulo 42168" width="78" height="78" transform="translate(0 -0.226)" fill="none"/>
    </clipPath>
  </defs>
  <g id="Grupo_149666" data-name="Grupo 149666" transform="translate(-646 -792)">
    <g id="Grupo_142048" data-name="Grupo 142048" transform="translate(-27 -222)">
      <rect id="Rectángulo_42170" data-name="Rectángulo 42170" width="78" height="78" transform="translate(673 1014)" fill="none"/>
      <g id="Grupo_142047" data-name="Grupo 142047" transform="translate(673 1014.227)">
        <g id="Grupo_142046" data-name="Grupo 142046" clip-path="url(#clip-path)">
          <path id="Trazado_190951" data-name="Trazado 190951" d="M11.763,136H36.851a3.763,3.763,0,0,1,3.763,3.763v47.668a3.763,3.763,0,0,1-3.763,3.763H11.763A3.763,3.763,0,0,1,8,187.431V139.763A3.763,3.763,0,0,1,11.763,136" transform="translate(-6.746 -114.675)" fill="#c6dcf8"/>
          <path id="Trazado_190952" data-name="Trazado 190952" d="M50.343,152H45.879l-.97,2.905a1.254,1.254,0,0,1-1.189.858H31.876a1.254,1.254,0,0,1-1.189-.858L29.718,152H25.254A1.254,1.254,0,0,0,24,153.254v47.668a1.254,1.254,0,0,0,1.254,1.254H50.343a1.254,1.254,0,0,0,1.254-1.254V153.254A1.254,1.254,0,0,0,50.343,152Z" transform="translate(-20.237 -128.166)" fill="#dfeaf8"/>
          <path id="Trazado_190953" data-name="Trazado 190953" d="M116.544,364.544v-8.781A3.763,3.763,0,0,0,112.781,352h-5.018A3.763,3.763,0,0,0,104,355.763v8.781Z" transform="translate(-87.693 -296.806)" fill="#7cb2f8"/>
          <path id="Trazado_190954" data-name="Trazado 190954" d="M123.763,296A3.763,3.763,0,1,1,120,299.763,3.763,3.763,0,0,1,123.763,296" transform="translate(-101.184 -249.587)" fill="#ffd9a6"/>
          <path id="Trazado_190955" data-name="Trazado 190955" d="M40,215.526h5.018l3.763,3.763v-3.763H51.29V208H40Z" transform="translate(-33.728 -175.385)" fill="#f2f2f2"/>
          <path id="Trazado_190956" data-name="Trazado 190956" d="M72,136l1.254,3.763H83.29L84.544,136Z" transform="translate(-60.71 -114.675)" fill="#7d97b3"/>
          <path id="Trazado_190957" data-name="Trazado 190957" d="M264.781,8A8.781,8.781,0,1,1,256,16.781,8.781,8.781,0,0,1,264.781,8" transform="translate(-215.859 -6.746)" fill="#ffd98c"/>
          <path id="Trazado_190958" data-name="Trazado 190958" d="M440.386,50.112l-8.61-5.156L440.592,40Z" transform="translate(-364.073 -33.728)" fill="#86a1bf"/>
          <rect id="Rectángulo_42164" data-name="Rectángulo 42164" width="6" height="20" transform="translate(55 51.774)" fill="#cc8585"/>
          <rect id="Rectángulo_42165" data-name="Rectángulo 42165" width="6" height="9" transform="translate(43 62.774)" fill="#bf7c7d"/>
          <rect id="Rectángulo_42166" data-name="Rectángulo 42166" width="6" height="34" transform="translate(68 37.774)" fill="#d98d8e"/>
          <path id="Trazado_190959" data-name="Trazado 190959" d="M5.018,185.7H30.106a5.018,5.018,0,0,0,5.018-5.018V133.018A5.018,5.018,0,0,0,30.106,128H5.018A5.018,5.018,0,0,0,0,133.018v47.668A5.018,5.018,0,0,0,5.018,185.7m17.076-55.194-.419,1.254H13.449l-.419-1.254ZM2.509,133.018a2.509,2.509,0,0,1,2.509-2.509h5.368l.968,2.905a1.254,1.254,0,0,0,1.19.858H22.579a1.254,1.254,0,0,0,1.19-.858l.968-2.905h5.368a2.509,2.509,0,0,1,2.509,2.509v47.668a2.509,2.509,0,0,1-2.509,2.509H5.018a2.509,2.509,0,0,1-2.509-2.509Z" transform="translate(0 -107.929)"/>
          <path id="Trazado_190960" data-name="Trazado 190960" d="M100.328,296.676A5.009,5.009,0,0,0,96,301.624V310.4a1.254,1.254,0,0,0,1.254,1.254H109.8a1.254,1.254,0,0,0,1.254-1.254v-8.781a5.009,5.009,0,0,0-4.328-4.947,5.018,5.018,0,1,0-6.4,0Zm3.2-6.342a2.509,2.509,0,1,1-2.509,2.509,2.509,2.509,0,0,1,2.509-2.509m2.509,8.781a2.509,2.509,0,0,1,2.509,2.509v7.526H98.509v-7.526a2.509,2.509,0,0,1,2.509-2.509Z" transform="translate(-80.947 -242.667)"/>
          <path id="Trazado_190961" data-name="Trazado 190961" d="M33.254,210.035h4.5l3.4,3.4a1.254,1.254,0,0,0,2.141-.887v-2.509h1.254a1.254,1.254,0,0,0,1.254-1.254v-7.526A1.254,1.254,0,0,0,44.544,200H33.254A1.254,1.254,0,0,0,32,201.254v7.526a1.254,1.254,0,0,0,1.254,1.254m1.254-7.526H43.29v5.018H42.035a1.254,1.254,0,0,0-1.254,1.254v.735l-1.622-1.622a1.254,1.254,0,0,0-.887-.368H34.509Z" transform="translate(-26.982 -168.64)"/>
          <path id="Trazado_190962" data-name="Trazado 190962" d="M268.071,10.035a10.035,10.035,0,1,0-10.035,10.035,10.035,10.035,0,0,0,10.035-10.035m-17.562,0a7.526,7.526,0,1,1,7.526,7.526,7.526,7.526,0,0,1-7.526-7.526" transform="translate(-209.113)"/>
          <path id="Trazado_190963" data-name="Trazado 190963" d="M293.018,36.544V35.226a3.136,3.136,0,0,0-.627-6.208h-1.254a.627.627,0,0,1,0-1.254h1.254a.627.627,0,0,1,.627.627h2.509a3.136,3.136,0,0,0-2.509-3.072V24h-2.509v1.318a3.136,3.136,0,0,0,.627,6.208h1.254a.627.627,0,0,1,0,1.254h-1.254a.627.627,0,0,1-.627-.627H288a3.136,3.136,0,0,0,2.509,3.072v1.318Z" transform="translate(-242.841 -20.237)"/>
          <path id="Trazado_190964" data-name="Trazado 190964" d="M280.739,32.184a1.254,1.254,0,0,0-1.254-.018l-8.821,4.957a1.255,1.255,0,0,0-.03,2.169l3.314,1.986L264.6,56.654l-7.716-4.412a1.254,1.254,0,0,0-1.657.376l-13.8,20.167L243.5,74.2l13.146-19.213,7.777,4.443A1.254,1.254,0,0,0,266.119,59l9.99-16.433,3.136,1.882a1.254,1.254,0,0,0,1.9-1.05l.2-10.108A1.254,1.254,0,0,0,280.739,32.184Zm-2.061,9-4.9-2.933,5.018-2.822Z" transform="translate(-203.575 -26.988)"/>
          <path id="Trazado_190965" data-name="Trazado 190965" d="M351.526,342.579a1.254,1.254,0,0,0,1.254-1.254V321.254A1.254,1.254,0,0,0,351.526,320h-6.272A1.254,1.254,0,0,0,344,321.254v20.071a1.254,1.254,0,0,0,1.254,1.254Zm-5.018-20.071h3.763v17.562h-3.763Z" transform="translate(-290.06 -269.824)"/>
          <path id="Trazado_190966" data-name="Trazado 190966" d="M271.526,403.29a1.254,1.254,0,0,0,1.254-1.254v-8.781A1.254,1.254,0,0,0,271.526,392h-6.272A1.254,1.254,0,0,0,264,393.254v8.781a1.254,1.254,0,0,0,1.254,1.254Zm-5.018-8.781h3.763v6.272h-3.763Z" transform="translate(-222.604 -330.534)"/>
          <path id="Trazado_190967" data-name="Trazado 190967" d="M431.526,268.378a1.254,1.254,0,0,0,1.254-1.254V233.254A1.254,1.254,0,0,0,431.526,232h-6.272A1.254,1.254,0,0,0,424,233.254v33.869a1.254,1.254,0,0,0,1.254,1.254Zm-5.018-33.869h3.763v31.36h-3.763Z" transform="translate(-357.516 -195.622)"/>
          <rect id="Rectángulo_42167" data-name="Rectángulo 42167" width="39" height="3" transform="translate(39 74.774)"/>
        </g>
      </g>
    </g>
  </g>
</svg>
