<svg xmlns="http://www.w3.org/2000/svg" xmlns:xlink="http://www.w3.org/1999/xlink" width="1240" height="721" viewBox="0 0 1240 721">
  <defs>
    <clipPath id="clip-path">
      <rect id="Rectangle_90120" data-name="Rectangle 90120" width="1240" height="721" transform="translate(180 979)" fill="none"/>
    </clipPath>
    <clipPath id="clip-path-2">
      <rect id="Rectangle_42136" data-name="Rectangle 42136" width="96.625" height="71.165" fill="none"/>
    </clipPath>
    <clipPath id="clip-path-3">
      <rect id="Rectangle_42145" data-name="Rectangle 42145" width="80.841" height="80.841" fill="none"/>
    </clipPath>
    <clipPath id="clip-path-4">
      <rect id="Rectangle_42155" data-name="Rectangle 42155" width="87.36" height="87.36" fill="none"/>
    </clipPath>
  </defs>
  <g id="img3" transform="translate(-180 -979)" clip-path="url(#clip-path)">
    <g id="img3-2" data-name="img3">
      <circle id="Ellipse_5127" data-name="Ellipse 5127" cx="99.5" cy="99.5" r="99.5" transform="translate(701 1284)" fill="#fff59d"/>
      <path id="Path_215270" data-name="Path 215270" d="M8.235-2.391H4.008L3.27,0h-3.3L4.667-12.8h2.9L12.3,0H8.982ZM4.746-4.772H7.5L6.117-9.211ZM21.5-4.685a5.735,5.735,0,0,1-1,3.538A3.2,3.2,0,0,1,17.807.176a2.742,2.742,0,0,1-2.153-.958V3.656H12.691V-9.51H15.46l.088.879a2.742,2.742,0,0,1,2.241-1.055,3.224,3.224,0,0,1,2.733,1.3A5.805,5.805,0,0,1,21.5-4.825Zm-2.962-.185q0-2.531-1.477-2.531a1.394,1.394,0,0,0-1.406.756V-2.9a1.439,1.439,0,0,0,1.424.791q1.415,0,1.459-2.443Zm10.02-1.96L27.58-6.9a1.752,1.752,0,0,0-1.793.879V0H22.825V-9.51H25.6l.1,1.222a2.294,2.294,0,0,1,2.083-1.4,2.888,2.888,0,0,1,.826.105Zm.378,1.986a5.613,5.613,0,0,1,.554-2.536,3.96,3.96,0,0,1,1.591-1.709,4.791,4.791,0,0,1,2.435-.6,4.373,4.373,0,0,1,3.366,1.323,5.076,5.076,0,0,1,1.23,3.6v.105a4.925,4.925,0,0,1-1.235,3.529A4.384,4.384,0,0,1,33.53.176,4.434,4.434,0,0,1,30.27-1.042a4.761,4.761,0,0,1-1.327-3.3Zm2.962.185a3.538,3.538,0,0,0,.413,1.934,1.376,1.376,0,0,0,1.222.615q1.582,0,1.617-2.435v-.3q0-2.558-1.635-2.558-1.485,0-1.608,2.206Zm11.18,1.134,1.5-5.985H47.7L44.6,0H41.572l-3.1-9.51H41.6ZM51.706,0H48.735V-9.51h2.971ZM48.56-11.962A1.322,1.322,0,0,1,49.017-13a1.724,1.724,0,0,1,1.187-.4,1.724,1.724,0,0,1,1.187.4,1.322,1.322,0,0,1,.457,1.037,1.322,1.322,0,0,1-.457,1.037,1.724,1.724,0,0,1-1.187.4,1.724,1.724,0,0,1-1.187-.4A1.322,1.322,0,0,1,48.56-11.962Zm8.991,9.853a1.317,1.317,0,0,0,.967-.338,1.241,1.241,0,0,0,.334-.945h2.777A3.288,3.288,0,0,1,60.508-.826a4.168,4.168,0,0,1-2.887,1,4.22,4.22,0,0,1-3.27-1.3,5.125,5.125,0,0,1-1.2-3.6v-.123A5.792,5.792,0,0,1,53.688-7.4a3.872,3.872,0,0,1,1.534-1.7,4.573,4.573,0,0,1,2.373-.593,4.116,4.116,0,0,1,2.944,1.028,3.647,3.647,0,0,1,1.09,2.786H58.852A1.626,1.626,0,0,0,58.491-7a1.244,1.244,0,0,0-.967-.4q-1.151,0-1.345,1.468a10.357,10.357,0,0,0-.062,1.283,4.068,4.068,0,0,0,.343,1.986A1.187,1.187,0,0,0,57.551-2.109ZM66.006,0H63.035V-9.51h2.971ZM62.859-11.962A1.322,1.322,0,0,1,63.316-13a1.724,1.724,0,0,1,1.187-.4,1.724,1.724,0,0,1,1.187.4,1.322,1.322,0,0,1,.457,1.037,1.322,1.322,0,0,1-.457,1.037,1.724,1.724,0,0,1-1.187.4,1.724,1.724,0,0,1-1.187-.4A1.322,1.322,0,0,1,62.859-11.962Zm4.6,7.119a5.613,5.613,0,0,1,.554-2.536A3.96,3.96,0,0,1,69.6-9.088a4.791,4.791,0,0,1,2.435-.6A4.373,4.373,0,0,1,75.4-8.363a5.076,5.076,0,0,1,1.23,3.6v.105A4.925,4.925,0,0,1,75.4-1.129,4.384,4.384,0,0,1,72.053.176a4.434,4.434,0,0,1-3.261-1.217,4.761,4.761,0,0,1-1.327-3.3Zm2.962.185a3.538,3.538,0,0,0,.413,1.934,1.376,1.376,0,0,0,1.222.615q1.582,0,1.617-2.435v-.3q0-2.558-1.635-2.558-1.485,0-1.608,2.206ZM80.657-9.51l.1,1.116A3.225,3.225,0,0,1,83.47-9.686a2.713,2.713,0,0,1,2.219.888,4.226,4.226,0,0,1,.76,2.672V0H83.479V-6a1.6,1.6,0,0,0-.29-1.059A1.342,1.342,0,0,0,82.134-7.4a1.413,1.413,0,0,0-1.292.686V0H77.88V-9.51ZM93.445,0a3.344,3.344,0,0,1-.281-.853A2.754,2.754,0,0,1,90.879.176a3.374,3.374,0,0,1-2.285-.813,2.588,2.588,0,0,1-.94-2.043A2.66,2.66,0,0,1,88.8-5.019a5.821,5.821,0,0,1,3.322-.791h.914v-.5q0-1.316-1.134-1.316a.927.927,0,0,0-1.055,1.042H87.882a2.655,2.655,0,0,1,1.173-2.239,4.931,4.931,0,0,1,2.993-.86,4.323,4.323,0,0,1,2.874.888A3.086,3.086,0,0,1,96-6.363v4.21a4.311,4.311,0,0,0,.4,2V0ZM91.591-1.934a1.652,1.652,0,0,0,.918-.237,1.487,1.487,0,0,0,.523-.536V-4.228h-.861q-1.547,0-1.547,1.389a.848.848,0,0,0,.272.655A.986.986,0,0,0,91.591-1.934Zm8.851-7.576.1,1.116a3.27,3.27,0,0,1,2.716-1.292,2.407,2.407,0,0,1,2.435,1.433,3.165,3.165,0,0,1,2.795-1.433q2.892,0,2.971,3.5V0h-2.971V-6a1.813,1.813,0,0,0-.246-1.063,1.048,1.048,0,0,0-.9-.334,1.4,1.4,0,0,0-1.31.782l.009.123V0h-2.971V-5.985a1.906,1.906,0,0,0-.237-1.081,1.045,1.045,0,0,0-.905-.334,1.42,1.42,0,0,0-1.3.782V0H97.664V-9.51ZM116.271,0H113.3V-9.51h2.971Zm-3.146-11.962A1.322,1.322,0,0,1,113.581-13a1.724,1.724,0,0,1,1.187-.4,1.724,1.724,0,0,1,1.187.4,1.322,1.322,0,0,1,.457,1.037,1.322,1.322,0,0,1-.457,1.037,1.724,1.724,0,0,1-1.187.4,1.724,1.724,0,0,1-1.187-.4A1.322,1.322,0,0,1,113.124-11.962ZM122.7.176a4.889,4.889,0,0,1-3.542-1.305,4.507,4.507,0,0,1-1.354-3.4v-.246a5.84,5.84,0,0,1,.541-2.575,3.955,3.955,0,0,1,1.578-1.727,4.763,4.763,0,0,1,2.461-.611,4.117,4.117,0,0,1,3.164,1.244,4.887,4.887,0,0,1,1.16,3.467v1.151h-5.889a2.135,2.135,0,0,0,.694,1.257,2.066,2.066,0,0,0,1.389.457,2.662,2.662,0,0,0,2.2-.984l1.354,1.6a3.784,3.784,0,0,1-1.569,1.217A5.3,5.3,0,0,1,122.7.176ZM122.361-7.4q-1.3,0-1.547,1.723H123.8v-.229a1.467,1.467,0,0,0-.36-1.1A1.434,1.434,0,0,0,122.361-7.4Zm8.253-2.109.1,1.116a3.225,3.225,0,0,1,2.716-1.292,2.713,2.713,0,0,1,2.219.888,4.226,4.226,0,0,1,.76,2.672V0h-2.971V-6a1.6,1.6,0,0,0-.29-1.059,1.342,1.342,0,0,0-1.055-.338,1.413,1.413,0,0,0-1.292.686V0h-2.962V-9.51ZM141.5-11.874V-9.51h1.564v2.057H141.5V-3.1a1.111,1.111,0,0,0,.193.747,1.037,1.037,0,0,0,.765.211,4.345,4.345,0,0,0,.738-.053V-.079a5.466,5.466,0,0,1-1.67.255,3.1,3.1,0,0,1-2.259-.721,2.954,2.954,0,0,1-.729-2.188v-4.72H137.32V-9.51h1.213v-2.364Zm2.092,7.031a5.613,5.613,0,0,1,.554-2.536,3.96,3.96,0,0,1,1.591-1.709,4.791,4.791,0,0,1,2.435-.6,4.373,4.373,0,0,1,3.366,1.323,5.076,5.076,0,0,1,1.23,3.6v.105a4.925,4.925,0,0,1-1.235,3.529A4.384,4.384,0,0,1,148.184.176a4.434,4.434,0,0,1-3.261-1.217,4.761,4.761,0,0,1-1.327-3.3Zm2.962.185a3.538,3.538,0,0,0,.413,1.934,1.376,1.376,0,0,0,1.222.615q1.582,0,1.617-2.435v-.3q0-2.558-1.635-2.558-1.485,0-1.608,2.206Z" transform="translate(723 1390)" fill="#12263f"/>
      <g id="Group_142028" data-name="Group 142028" transform="translate(649.046 1022.461)">
        <path id="Path_189781" data-name="Path 189781" d="M268,42.012A317.142,317.142,0,0,0,115.365,80.906l69.1,119.688L196.835,222a155.963,155.963,0,0,1,142.329,0l12.368-21.406,69.1-119.688A317.142,317.142,0,0,0,268,42.012" transform="translate(-115.365 28.538)" fill="#fff59d"/>
        <path id="Path_189782" data-name="Path 189782" d="M240.047,124.253a179.554,179.554,0,0,0-83.532,20.477l12.368,21.407a155.963,155.963,0,0,1,142.329,0L323.58,144.73a179.554,179.554,0,0,0-83.532-20.477" transform="translate(-87.413 84.402)" fill="#1b3f5e"/>
        <path id="Path_189783" data-name="Path 189783" d="M234.794,141.087a70.544,70.544,0,1,1,70.543-70.545,70.624,70.624,0,0,1-70.543,70.545" transform="translate(-82.159 0)" fill="#d84318"/>
        <g id="Group_142025" data-name="Group 142025" transform="translate(87.503 5.411)">
          <path id="Path_189784" data-name="Path 189784" d="M297.737,68.354A65.132,65.132,0,1,1,232.6,3.222a65.132,65.132,0,0,1,65.132,65.132" transform="translate(-167.472 -3.222)" fill="#f0f8ff"/>
          <g id="Group_142020" data-name="Group 142020" transform="translate(16.819 29.791)">
            <path id="Path_190878" data-name="Path 190878" d="M127.272,125.318h65.5v34.018H124.528l2.744-24.517Z" transform="translate(-101.027 -101.668)" fill="#80b4fb" fill-rule="evenodd"/>
            <g id="Group_142019" data-name="Group 142019" transform="translate(0 0)">
              <g id="Group_142018" data-name="Group 142018" clip-path="url(#clip-path-2)">
                <path id="Path_190879" data-name="Path 190879" d="M32.339,204.554H8.978c-1.07,0-1.466-.514-1.466-1.466V192.726a2.057,2.057,0,0,1,1.359-2.011l6.264-2.536L26.68,175.661h5.66Z" transform="translate(-6.094 -142.51)" fill="#d57080" fill-rule="evenodd"/>
                <path id="Path_190880" data-name="Path 190880" d="M32.339,204.554H8.978c-1.07,0-1.466-.514-1.466-1.466v-3.113H24.1a3.674,3.674,0,0,0,3.665-3.665V175.661h4.579Z" transform="translate(-6.094 -142.51)" fill="#cb5769" fill-rule="evenodd"/>
                <path id="Path_190881" data-name="Path 190881" d="M199.985,132.773h4.585v31.21h-65.5V159.4h56.337a4.6,4.6,0,0,0,4.579-4.585V132.773Z" transform="translate(-112.824 -107.716)" fill="#61a2f9" fill-rule="evenodd"/>
                <path id="Path_190882" data-name="Path 190882" d="M206.571,298.148a1.472,1.472,0,0,1,1.466,1.466v2.846a1.472,1.472,0,0,1-1.466,1.466h-67.5v-5.777Z" transform="translate(-112.824 -241.882)" fill="#5490f9" fill-rule="evenodd"/>
                <path id="Path_190883" data-name="Path 190883" d="M164.61,27.526l18.472,1.648,18.681-1.648-17.52-16.851a1.35,1.35,0,0,0-2.113,0Z" transform="translate(-133.545 -8.247)" fill="#fff3be" fill-rule="evenodd"/>
                <path id="Path_190884" data-name="Path 190884" d="M303.283,49.9l14.192,1.557L329.624,49.9,317.513,38.245a1.357,1.357,0,0,0-2.113,0Z" transform="translate(-246.047 -30.617)" fill="#ffe07d" fill-rule="evenodd"/>
                <path id="Path_190885" data-name="Path 190885" d="M110.545,102.158h71.7a1.472,1.472,0,0,1,1.466,1.466v2.846a1.472,1.472,0,0,1-1.466,1.466h-71.7a1.468,1.468,0,0,1-1.466-1.466v-2.846a1.468,1.468,0,0,1,1.466-1.466" transform="translate(-88.494 -82.879)" fill="#5490f9" fill-rule="evenodd"/>
                <path id="Path_190886" data-name="Path 190886" d="M236.142,183.187l6.441-11.159a2.89,2.89,0,0,1,5.007,2.889l-6.447,11.159a2.888,2.888,0,1,1-5-2.889Zm-26.973,0,6.446-11.159a2.888,2.888,0,1,1,5,2.889l-6.441,11.159a2.89,2.89,0,1,1-5.007-2.889Zm13.486,0,6.441-11.159a2.89,2.89,0,0,1,5.007,2.889l-6.441,11.159a2.89,2.89,0,1,1-5.007-2.889Z" transform="translate(-169.384 -138.39)" fill="#61a2f9" fill-rule="evenodd"/>
                <path id="Path_190887" data-name="Path 190887" d="M47.906,188.179H57.985a1.292,1.292,0,0,0,1.466-1.466V175.661h-4.2a2.116,2.116,0,0,0-2.086,1.327Z" transform="translate(-38.865 -142.51)" fill="#b1e4f9" fill-rule="evenodd"/>
                <path id="Path_190888" data-name="Path 190888" d="M40.166,303.349a7.7,7.7,0,1,0-7.709-7.7,7.719,7.719,0,0,0,7.709,7.7" transform="translate(-26.332 -233.602)" fill="#0c5e7f" fill-rule="evenodd"/>
                <path id="Path_190889" data-name="Path 190889" d="M398.782,303.349a7.7,7.7,0,1,0-7.709-7.7A7.719,7.719,0,0,0,398.782,303.349Z" transform="translate(-317.27 -233.602)" fill="#0c5e7f" fill-rule="evenodd"/>
                <path id="Path_190890" data-name="Path 190890" d="M406.137,316.63a7.706,7.706,0,1,1-14.717,0,7.708,7.708,0,0,0,14.717,0" transform="translate(-317.27 -256.876)" fill="#174b67" fill-rule="evenodd"/>
                <path id="Path_190891" data-name="Path 190891" d="M286.5,303.349a7.7,7.7,0,1,0-7.709-7.7,7.719,7.719,0,0,0,7.709,7.7" transform="translate(-226.177 -233.602)" fill="#0c5e7f" fill-rule="evenodd"/>
                <path id="Path_190892" data-name="Path 190892" d="M293.855,316.63a7.706,7.706,0,1,1-14.717,0,7.708,7.708,0,0,0,14.717,0Z" transform="translate(-226.177 -256.876)" fill="#174b67" fill-rule="evenodd"/>
                <path id="Path_190893" data-name="Path 190893" d="M47.522,316.63a7.706,7.706,0,1,1-14.717,0,7.708,7.708,0,0,0,14.717,0" transform="translate(-26.333 -256.876)" fill="#174b67" fill-rule="evenodd"/>
                <path id="Path_190894" data-name="Path 190894" d="M61.806,319.939a2.675,2.675,0,1,0-2.675-2.675,2.678,2.678,0,0,0,2.675,2.675" transform="translate(-47.972 -255.221)" fill="#e0dbee" fill-rule="evenodd"/>
                <path id="Path_190895" data-name="Path 190895" d="M420.422,319.939a2.675,2.675,0,1,0-2.675-2.675,2.678,2.678,0,0,0,2.675,2.675" transform="translate(-338.91 -255.221)" fill="#e0dbee" fill-rule="evenodd"/>
                <path id="Path_190896" data-name="Path 190896" d="M308.141,319.939a2.675,2.675,0,1,0-2.675-2.675,2.678,2.678,0,0,0,2.675,2.675" transform="translate(-247.818 -255.221)" fill="#e0dbee" fill-rule="evenodd"/>
                <path id="Path_190897" data-name="Path 190897" d="M308.05,77.893l-4.766,4.579h26.341l-4.761-4.579H308.05Z" transform="translate(-246.047 -63.193)" fill="#ffd064" fill-rule="evenodd"/>
                <path id="Path_190898" data-name="Path 190898" d="M190.781,82.472l4.766-4.579H169.371l-4.761,4.579Z" transform="translate(-133.545 -63.193)" fill="#fff0af" fill-rule="evenodd"/>
                <path id="Path_190899" data-name="Path 190899" d="M60.692,14l-3.172-3.055a1.409,1.409,0,1,1,1.953-2.033l3.258,3.13,6.7-6.446a1.41,1.41,0,0,1,1.958,0L75.66,9.7A1.413,1.413,0,0,1,73.7,11.742l-3.3-3.172-9.661,9.293H80.068l-1.744-1.675a1.413,1.413,0,0,1,1.958-2.038l3.862,3.713H95.213a1.415,1.415,0,0,1,1.412,1.418v5.778a1.415,1.415,0,0,1-1.412,1.418H93.158V37.458a1.415,1.415,0,0,1-2.83,0V26.475H27.663V54.849H54.71a9.131,9.131,0,0,1,11.218,0h9.977a9.123,9.123,0,0,1,11.213,0h3.21V43.866a1.415,1.415,0,0,1,2.83,0V54.849h2.054a1.415,1.415,0,0,1,1.412,1.418v5.777a1.415,1.415,0,0,1-1.412,1.418H90.521a9.122,9.122,0,0,1-18.023,0H69.331a9.122,9.122,0,0,1-18.023,0H22.843a9.122,9.122,0,0,1-18.023,0h-3.4A1.42,1.42,0,0,1,0,62.044V58.6a1.415,1.415,0,1,1,2.83,0v2.022H4.82a9.122,9.122,0,0,1,18.023,0h1.99V34.563H22V45.669a1.416,1.416,0,0,1-1.412,1.418H9.3L2.83,49.7v2.488a1.415,1.415,0,1,1-2.83,0v-3.44A1.413,1.413,0,0,1,.984,47.4L8,44.567l5.644-12.015a1.42,1.42,0,0,1,1.279-.818h9.913V26.475H20.585a1.42,1.42,0,0,1-1.418-1.418V19.28a1.42,1.42,0,0,1,1.418-1.418H30.5L48.66.4a1.41,1.41,0,0,1,1.958,0l4.237,4.071A1.411,1.411,0,0,1,52.9,6.5L49.639,3.37,34.569,17.862h22.1Zm-.369,43.958a4.092,4.092,0,1,1-2.894,1.2,4.053,4.053,0,0,1,2.894-1.2m.888,3.2a1.253,1.253,0,1,0,.369.888,1.254,1.254,0,0,0-.369-.888m20.3-3.2a4.092,4.092,0,1,1-2.894,1.2,4.053,4.053,0,0,1,2.894-1.2m.888,3.2a1.257,1.257,0,1,0,0,1.776,1.252,1.252,0,0,0,0-1.776m-68.566-3.2a4.092,4.092,0,1,1-2.894,1.2,4.053,4.053,0,0,1,2.894-1.2m.888,3.2a1.252,1.252,0,1,0,.369.888,1.254,1.254,0,0,0-.369-.888m39.309.888a6.289,6.289,0,1,0,6.291-6.291,6.248,6.248,0,0,0-6.291,6.291m-1.723-4.365H27.663v2.948H51.308a9.113,9.113,0,0,1,1-2.948m16.022,0a9.11,9.11,0,0,1,1,2.948H72.5a9.111,9.111,0,0,1,1-2.948Zm21.19,0a9.111,9.111,0,0,1,1,2.948h3.274V57.679H89.52Zm-8.008-1.926A6.291,6.291,0,1,0,87.8,62.044a6.291,6.291,0,0,0-6.286-6.291M18.28,57.593a6.3,6.3,0,1,0,1.84,4.451,6.289,6.289,0,0,0-1.84-4.451M11.261,44.257h7.907V34.563H15.814Zm54.283-.182,6.382-11.057a4.376,4.376,0,0,1,2.664-2.092,4.305,4.305,0,0,1,4.825,6.329l-6.43,11.138a4.3,4.3,0,0,1-7.88-1.038A4.336,4.336,0,0,1,65.544,44.075Zm8.88-9.731L67.983,45.5a1.494,1.494,0,0,0,.535,2.022,1.484,1.484,0,0,0,1.123.145,1.508,1.508,0,0,0,.9-.685l6.441-11.159a1.469,1.469,0,0,0-1.658-2.161A1.453,1.453,0,0,0,74.424,34.344ZM38.565,44.086l6.441-11.159a4.311,4.311,0,0,1,5.906-1.557,4.3,4.3,0,0,1,1.974,2.6,4.345,4.345,0,0,1-.433,3.274L46.012,48.392a4.3,4.3,0,0,1-7.875-1.038,4.331,4.331,0,0,1,.428-3.269m8.886-9.742L41.01,45.5a1.494,1.494,0,0,0,.535,2.022,1.486,1.486,0,0,0,2.022-.54l6.446-11.159a1.479,1.479,0,1,0-2.562-1.477Zm4.611,9.72,6.43-11.138a4.344,4.344,0,0,1,2.611-2,4.3,4.3,0,0,1,4.836,6.3L59.5,48.392a4.3,4.3,0,1,1-7.436-4.328Zm8.827-9.635L54.5,45.5a1.444,1.444,0,0,0-.145,1.123,1.467,1.467,0,0,0,.706.915,1.484,1.484,0,0,0,1.1.129c.551-.15.674-.385.968-.8L63.5,35.826a1.494,1.494,0,0,0,.139-1.129,1.479,1.479,0,0,0-2.75-.268ZM93.795,20.692H22v2.953h71.8Z" transform="translate(0 0)"/>
                <path id="Path_190900" data-name="Path 190900" d="M481.465,183.144v13.035l-2.83.117V183.144Z" transform="translate(-388.307 -148.581)"/>
                <path id="Path_190901" data-name="Path 190901" d="M2.83,278.45v-8.143H0v8.742Z" transform="translate(0 -219.295)"/>
                <path id="Path_190902" data-name="Path 190902" d="M381.882,46.438l7.091,6.82,3.065-.973-7.883-7.579Z" transform="translate(-309.813 -36.268)"/>
                <path id="Path_190903" data-name="Path 190903" d="M282.759,23.342l-7.474-7.191-1.759,2.224,7.527,7.24Z" transform="translate(-221.905 -13.103)"/>
              </g>
            </g>
          </g>
        </g>
      </g>
      <g id="Group_142029" data-name="Group 142029" transform="translate(484.5 1370.5)">
        <path id="Path_189759" data-name="Path 189759" d="M179.582,236.174H16.675A318.251,318.251,0,0,0,169.259,500.5l69.1-119.688,12.351-21.406a155.511,155.511,0,0,1-71.131-123.237" transform="translate(11.327 -236.174)" fill="#fff59d"/>
        <path id="Path_189760" data-name="Path 189760" d="M123.684,236.174H98.965a180.151,180.151,0,0,0,83.5,144.643l12.351-21.406a155.511,155.511,0,0,1-71.131-123.237" transform="translate(67.225 -236.174)" fill="#1b3f5e"/>
        <path id="Path_189761" data-name="Path 189761" d="M70.635,425.559A70.8,70.8,0,0,1,9.481,390.276,70.563,70.563,0,0,1,70.514,284.45a70.8,70.8,0,0,1,61.153,35.283A70.562,70.562,0,0,1,70.635,425.559" transform="translate(0 -203.382)" fill="#d84318"/>
        <g id="Group_142027" data-name="Group 142027" transform="translate(5.43 86.48)">
          <path id="Path_189762" data-name="Path 189762" d="M35.811,296.41A65.133,65.133,0,1,1,11.97,385.383,65.133,65.133,0,0,1,35.811,296.41" transform="translate(-3.233 -287.673)" fill="#f0f8ff"/>
          <g id="Group_142022" data-name="Group 142022" transform="translate(24.879 24.131)">
            <g id="Group_142021" data-name="Group 142021" transform="translate(0 0)" clip-path="url(#clip-path-3)">
              <path id="Path_190904" data-name="Path 190904" d="M17.368,99.351v60.316h-6.7V99.351a3.351,3.351,0,0,1,6.7,0" transform="translate(-8.477 -80.992)" fill="#374f68"/>
              <path id="Path_190905" data-name="Path 190905" d="M35.351,99.351c0,58.942-.168,56.965,0,56.965A3.351,3.351,0,0,1,32,152.965V96a3.351,3.351,0,0,1,3.351,3.351" transform="translate(-26.46 -80.992)" fill="#425b72"/>
              <rect id="Rectangle_42137" data-name="Rectangle 42137" width="63.667" height="6.702" transform="translate(8.891 25.06)" fill="#7c7d7d"/>
              <path id="Path_190906" data-name="Path 190906" d="M131.631,160v3.351H78.017A3.351,3.351,0,0,1,74.666,160Z" transform="translate(-62.424 -134.94)" fill="#919191"/>
              <rect id="Rectangle_42138" data-name="Rectangle 42138" width="63.667" height="6.702" transform="translate(8.891 61.92)" fill="#7c7d7d"/>
              <path id="Path_190907" data-name="Path 190907" d="M131.631,394.667v3.351H78.017a3.351,3.351,0,0,1-3.351-3.351Z" transform="translate(-62.424 -332.747)" fill="#919191"/>
              <path id="Path_190908" data-name="Path 190908" d="M465.368,99.351v60.316h-6.7V99.351a3.351,3.351,0,0,1,6.7,0" transform="translate(-386.108 -80.992)" fill="#374f68"/>
              <path id="Path_190909" data-name="Path 190909" d="M482.937,99.98v56.664a4.76,4.76,0,0,1-1.876-1.173c-2.061-2.078-1.474.922-1.474-58.389a2.834,2.834,0,0,1,.838-.335A3.351,3.351,0,0,1,482.937,99.98Z" transform="translate(-403.677 -81.621)" fill="#425b72"/>
              <rect id="Rectangle_42139" data-name="Rectangle 42139" width="40.211" height="20.105" transform="translate(20.619 41.815)" fill="#a87e6b"/>
              <path id="Path_190910" data-name="Path 190910" d="M186.193,266.667v16.754H159.386a10.053,10.053,0,0,1-10.053-10.053v-6.7Z" transform="translate(-125.363 -224.852)" fill="#be927c"/>
              <rect id="Rectangle_42140" data-name="Rectangle 42140" width="23.456" height="23.456" transform="translate(15.593 1.604)" fill="#a87e6b"/>
              <path id="Path_190911" data-name="Path 190911" d="M137.438,10.667V30.772H127.386A10.053,10.053,0,0,1,117.333,20.72V10.667Z" transform="translate(-98.39 -9.063)" fill="#be927c"/>
              <rect id="Rectangle_42141" data-name="Rectangle 42141" width="19.558" height="19.558" transform="translate(45.636 5.216)" fill="#a87e6b"/>
              <path id="Path_190912" data-name="Path 190912" d="M326.088,32V48.755h-6.7A10.053,10.053,0,0,1,309.333,38.7V32Z" transform="translate(-260.232 -27.045)" fill="#be927c"/>
              <rect id="Rectangle_42142" data-name="Rectangle 42142" width="6.702" height="6.702" transform="translate(37.373 41.815)" fill="#f6ccaf"/>
              <path id="Path_190913" data-name="Path 190913" d="M250.359,266.667v5.026a5.026,5.026,0,0,1-5.026-5.026Z" transform="translate(-206.284 -224.852)" fill="#ffdec7"/>
              <rect id="Rectangle_42143" data-name="Rectangle 42143" width="6.702" height="6.702" transform="translate(23.97 1.604)" fill="#f6ccaf"/>
              <path id="Path_190914" data-name="Path 190914" d="M165.026,10.667v5.026A5.026,5.026,0,0,1,160,10.667Z" transform="translate(-134.355 -9.063)" fill="#ffdec7"/>
              <rect id="Rectangle_42144" data-name="Rectangle 42144" width="6.702" height="6.702" transform="translate(52.452 4.955)" fill="#f6ccaf"/>
              <path id="Path_190915" data-name="Path 190915" d="M346.359,32v5.026A5.026,5.026,0,0,1,341.333,32Z" transform="translate(-287.205 -27.045)" fill="#ffdec7"/>
              <path id="Path_190916" data-name="Path 190916" d="M75.4,13.4a5.026,5.026,0,0,0-5.026,5.026v5.026H67.018V5.026a1.675,1.675,0,0,0-1.676-1.675H45.237a1.675,1.675,0,0,0-1.675,1.675v18.43H40.211V1.675A1.675,1.675,0,0,0,38.535,0H15.079A1.675,1.675,0,0,0,13.4,1.675V23.456H10.053V18.43A5.026,5.026,0,0,0,0,18.43V78.746a1.675,1.675,0,0,0,1.676,1.675h6.7a1.675,1.675,0,0,0,1.675-1.675V70.369H70.369v8.377a1.675,1.675,0,0,0,1.675,1.675h6.7a1.675,1.675,0,0,0,1.675-1.675V18.43A5.026,5.026,0,0,0,75.4,13.4M38.535,43.562h3.351v3.351H38.535Zm-1.676,6.7h6.7a1.675,1.675,0,0,0,1.675-1.675V43.562h13.4V60.316H21.781V43.562h13.4v5.026a1.675,1.675,0,0,0,1.676,1.675M60.316,40.211H20.105a1.675,1.675,0,0,0-1.675,1.675v18.43H10.053V33.509H70.369V60.316H61.992V41.886a1.676,1.676,0,0,0-1.676-1.675M56.965,10.053H53.615V6.7h3.351ZM46.913,6.7h3.351v5.026A1.676,1.676,0,0,0,51.939,13.4h6.7a1.675,1.675,0,0,0,1.675-1.675V6.7h3.351V23.456H46.913Zm-18.43,0H25.132V3.351h3.351ZM16.755,3.351h5.026V8.377a1.675,1.675,0,0,0,1.676,1.675h6.7a1.675,1.675,0,0,0,1.676-1.675V3.351H36.86V23.456H16.755ZM70.369,30.158H10.053V26.807H70.369ZM6.7,77.071H3.351V18.43a1.675,1.675,0,1,1,3.351,0Zm3.351-13.4H70.369v3.351H10.053Zm67.018,13.4H73.72V18.43a1.675,1.675,0,1,1,3.351,0Z" transform="translate(0.513 -0.071)"/>
              <path id="Path_190917" data-name="Path 190917" d="M165.026,341.333h-3.351a1.675,1.675,0,1,0,0,3.351h3.351a1.675,1.675,0,1,0,0-3.351" transform="translate(-134.355 -287.79)"/>
              <path id="Path_190918" data-name="Path 190918" d="M133.026,106.667h-3.351a1.675,1.675,0,1,0,0,3.351h3.351a1.675,1.675,0,1,0,0-3.351" transform="translate(-107.381 -89.984)"/>
            </g>
          </g>
        </g>
      </g>
      <g id="Group_142030" data-name="Group 142030" transform="translate(855.005 1370.5)">
        <path id="Path_189770" data-name="Path 189770" d="M327.6,236.174a155.51,155.51,0,0,1-71.131,123.237l12.351,21.406,69.1,119.688A318.251,318.251,0,0,0,490.51,236.174Z" transform="translate(-256.473 -236.174)" fill="#fff59d"/>
        <path id="Path_189771" data-name="Path 189771" d="M327.6,236.174a155.51,155.51,0,0,1-71.131,123.237l12.351,21.406a180.15,180.15,0,0,0,83.5-144.643Z" transform="translate(-256.473 -236.174)" fill="#1b3f5e"/>
        <path id="Path_189772" data-name="Path 189772" d="M398.958,425.559a70.552,70.552,0,1,1,61.152-35.283,70.517,70.517,0,0,1-61.152,35.283" transform="translate(-207.554 -203.382)" fill="#d84318"/>
        <g id="Group_142026" data-name="Group 142026" transform="translate(126.321 86.481)">
          <path id="Path_189773" data-name="Path 189773" d="M364.274,409.223a65.133,65.133,0,1,1,88.973-23.841,65.134,65.134,0,0,1-88.973,23.841" transform="translate(-331.696 -287.673)" fill="#f0f8ff"/>
          <g id="Group_142024" data-name="Group 142024" transform="translate(20.932 20.217)">
            <g id="Group_142023" data-name="Group 142023" transform="translate(0 0)" clip-path="url(#clip-path-4)">
              <path id="Path_190919" data-name="Path 190919" d="M13.373,56H61.731A5.373,5.373,0,0,1,67.1,61.373v61.791a5.373,5.373,0,0,1-5.373,5.373H13.373A5.373,5.373,0,0,1,8,123.164V61.373A5.373,5.373,0,0,1,13.373,56" transform="translate(-6.516 -44.762)" fill="#bc6857"/>
              <path id="Path_190920" data-name="Path 190920" d="M286.776,272v30.9a5.373,5.373,0,0,1-5.373,5.373H272V272Z" transform="translate(-226.188 -224.494)" fill="#a14939"/>
              <path id="Path_190921" data-name="Path 190921" d="M61.731,437.373H13.373A5.373,5.373,0,0,1,8,432v4.03a5.373,5.373,0,0,0,5.373,5.373H61.731A5.373,5.373,0,0,0,67.1,436.03V432a5.373,5.373,0,0,1-5.373,5.373" transform="translate(-6.516 -357.628)" fill="#a14939"/>
              <path id="Path_190922" data-name="Path 190922" d="M44.328,123.223H6.716A6.716,6.716,0,0,1,0,116.507V54.716A6.716,6.716,0,0,1,6.716,48H55.074a6.716,6.716,0,0,1,6.716,6.716V84.268a1.343,1.343,0,0,1-2.687,0V54.716a4.03,4.03,0,0,0-4.03-4.03H6.716a4.03,4.03,0,0,0-4.03,4.03v61.791a4.03,4.03,0,0,0,4.03,4.03H44.328a1.343,1.343,0,0,1,0,2.687" transform="translate(0.141 -38.105)"/>
              <path id="Path_190923" data-name="Path 190923" d="M294.716,322.925h-5.373a1.343,1.343,0,0,1,0-2.687h5.373a4.03,4.03,0,0,0,4.03-4.03V289.343a1.343,1.343,0,1,1,2.687,0v26.865a6.717,6.717,0,0,1-6.716,6.716" transform="translate(-239.501 -237.807)"/>
              <rect id="Rectangle_42146" data-name="Rectangle 42146" width="49.548" height="62.586" transform="translate(6.519 15.647)" fill="#eaf2ff"/>
              <path id="Path_190924" data-name="Path 190924" d="M281.4,272v30.9H272V273.343A1.343,1.343,0,0,1,273.343,272Z" transform="translate(-226.188 -224.494)" fill="#c1d1f7"/>
              <rect id="Rectangle_42147" data-name="Rectangle 42147" width="49.548" height="3.912" transform="translate(6.519 74.321)" fill="#c1d1f7"/>
              <path id="Path_190925" data-name="Path 190925" d="M81.7,144.477H33.343A1.343,1.343,0,0,1,32,143.134V81.343A1.343,1.343,0,0,1,33.343,80H81.7a1.343,1.343,0,0,1,1.343,1.343v61.791a1.343,1.343,0,0,1-1.343,1.343m-47.015-2.687H80.358v-59.1H34.687Z" transform="translate(-26.486 -64.732)"/>
              <rect id="Rectangle_42148" data-name="Rectangle 42148" width="26.078" height="11.735" transform="translate(18.254 7.823)" fill="#e9a648"/>
              <rect id="Rectangle_42149" data-name="Rectangle 42149" width="26.078" height="3.912" transform="translate(18.254 15.647)" fill="#d08840"/>
              <path id="Path_190926" data-name="Path 190926" d="M124.209,45.433H97.343A1.343,1.343,0,0,1,96,44.089V33.343A1.343,1.343,0,0,1,97.343,32h26.866a1.343,1.343,0,0,1,1.343,1.343V44.089a1.343,1.343,0,0,1-1.343,1.343M98.687,42.746h24.179v-8.06H98.687Z" transform="translate(-79.74 -24.792)"/>
              <path id="Path_190927" data-name="Path 190927" d="M156.089,8.06H145.343A1.343,1.343,0,0,1,144,6.716a6.716,6.716,0,0,1,13.433,0,1.343,1.343,0,0,1-1.343,1.343m-9.173-2.687h7.6a4.03,4.03,0,0,0-7.6,0" transform="translate(-119.68 1.835)"/>
              <rect id="Rectangle_42150" data-name="Rectangle 42150" width="35.205" height="35.205" transform="translate(50.852 50.852)" fill="#e0c3aa"/>
              <rect id="Rectangle_42151" data-name="Rectangle 42151" width="35.205" height="3.912" transform="translate(50.852 82.145)" fill="#d0a37f"/>
              <path id="Path_190928" data-name="Path 190928" d="M324.268,325.612H289.343A1.343,1.343,0,0,1,288,324.268V289.343A1.343,1.343,0,0,1,289.343,288h34.925a1.343,1.343,0,0,1,1.343,1.343v34.925a1.343,1.343,0,0,1-1.343,1.343m-33.582-2.686h32.239V290.687H290.687Z" transform="translate(-239.501 -237.807)"/>
              <rect id="Rectangle_42152" data-name="Rectangle 42152" width="9.127" height="11.735" transform="translate(62.587 50.852)" fill="#f6edc8"/>
              <path id="Path_190929" data-name="Path 190929" d="M372.089,301.433H361.343A1.343,1.343,0,0,1,360,300.089V289.343A1.343,1.343,0,0,1,361.343,288h10.746a1.343,1.343,0,0,1,1.343,1.343v10.746a1.343,1.343,0,0,1-1.343,1.343m-9.4-2.687h8.06v-8.06h-8.06Z" transform="translate(-299.412 -237.807)"/>
              <rect id="Rectangle_42153" data-name="Rectangle 42153" width="7.823" height="6.519" transform="translate(57.371 73.018)" fill="#f6f6f6"/>
              <path id="Path_190930" data-name="Path 190930" d="M337.4,425.4h-8.06A1.343,1.343,0,0,1,328,424.06v-6.716A1.343,1.343,0,0,1,329.343,416h8.06a1.343,1.343,0,0,1,1.343,1.343v6.716A1.343,1.343,0,0,1,337.4,425.4m-6.716-2.686h5.373v-4.03h-5.373Z" transform="translate(-272.785 -344.314)"/>
              <path id="Path_190931" data-name="Path 190931" d="M437.373,458.686h-4.03a1.343,1.343,0,1,1,0-2.686h4.03a1.343,1.343,0,1,1,0,2.686" transform="translate(-359.322 -377.598)"/>
              <path id="Path_190932" data-name="Path 190932" d="M437.373,426.686h-4.03a1.343,1.343,0,1,1,0-2.686h4.03a1.343,1.343,0,1,1,0,2.686" transform="translate(-359.322 -350.971)"/>
              <path id="Path_190933" data-name="Path 190933" d="M83.076,159.663l-2.687-2.687a1.344,1.344,0,0,1,1.9-1.9l1.736,1.738,4.423-4.424a1.344,1.344,0,1,1,1.9,1.9l-5.373,5.373a1.343,1.343,0,0,1-1.9,0h0" transform="translate(-66.423 -124.639)"/>
              <path id="Path_190934" data-name="Path 190934" d="M186.806,178.687H169.343a1.343,1.343,0,1,1,0-2.687h17.463a1.343,1.343,0,1,1,0,2.687" transform="translate(-139.65 -144.613)"/>
              <path id="Path_190935" data-name="Path 190935" d="M83.076,231.663l-2.687-2.687a1.344,1.344,0,0,1,1.9-1.9l1.736,1.738,4.423-4.424a1.344,1.344,0,0,1,1.9,1.9l-5.373,5.373a1.343,1.343,0,0,1-1.9,0h0" transform="translate(-66.423 -184.549)"/>
              <path id="Path_190936" data-name="Path 190936" d="M186.806,250.687H169.343a1.343,1.343,0,1,1,0-2.687h17.463a1.343,1.343,0,1,1,0,2.687" transform="translate(-139.65 -204.523)"/>
              <path id="Path_190937" data-name="Path 190937" d="M83.076,303.663l-2.687-2.687a1.344,1.344,0,0,1,1.9-1.9l1.736,1.738,4.423-4.424a1.344,1.344,0,1,1,1.9,1.9l-5.373,5.373a1.343,1.343,0,0,1-1.9,0h0" transform="translate(-66.423 -244.46)"/>
              <path id="Path_190938" data-name="Path 190938" d="M182.776,322.686H169.343a1.343,1.343,0,1,1,0-2.687h13.433a1.343,1.343,0,1,1,0,2.687" transform="translate(-139.65 -264.434)"/>
              <path id="Path_190939" data-name="Path 190939" d="M83.076,375.663l-2.687-2.687a1.344,1.344,0,0,1,1.9-1.9l1.736,1.738,4.423-4.424a1.344,1.344,0,0,1,1.9,1.9l-5.373,5.373a1.343,1.343,0,0,1-1.9,0h0" transform="translate(-66.423 -304.37)"/>
              <path id="Path_190940" data-name="Path 190940" d="M182.776,394.687H169.343a1.343,1.343,0,1,1,0-2.687h13.433a1.343,1.343,0,1,1,0,2.687" transform="translate(-139.65 -324.344)"/>
              <path id="Path_190941" data-name="Path 190941" d="M354.686,240.84V249.4H352V240Z" transform="translate(-292.755 -197.867)"/>
              <rect id="Rectangle_42154" data-name="Rectangle 42154" width="10.431" height="2.608" transform="translate(40.421 82.145)"/>
            </g>
          </g>
        </g>
      </g>
      <path id="Path_215271" data-name="Path 215271" d="M7.438-2.344H3.328L2.547,0H.055L4.289-11.375H6.461L10.719,0H8.227Zm-3.477-1.9H6.8L5.375-8.5ZM14.016,0H11.75V-12h2.266Zm3.977-8.453.07.945a2.971,2.971,0,0,1,2.43-1.1A2.255,2.255,0,0,1,22.734-7.32a2.9,2.9,0,0,1,2.539-1.289,2.521,2.521,0,0,1,2.047.8,3.681,3.681,0,0,1,.672,2.41V0H25.727V-5.391a1.61,1.61,0,0,0-.281-1.051,1.246,1.246,0,0,0-.992-.332,1.409,1.409,0,0,0-1.406.969L23.055,0H20.8V-5.383a1.59,1.59,0,0,0-.289-1.062,1.259,1.259,0,0,0-.984-.328,1.463,1.463,0,0,0-1.391.8V0H15.875V-8.453ZM34.625,0A2.507,2.507,0,0,1,34.4-.758a2.732,2.732,0,0,1-2.133.914,3,3,0,0,1-2.059-.719,2.312,2.312,0,0,1-.816-1.812,2.389,2.389,0,0,1,1-2.062,4.915,4.915,0,0,1,2.879-.727H34.3v-.484a1.393,1.393,0,0,0-.3-.937,1.183,1.183,0,0,0-.949-.352,1.345,1.345,0,0,0-.895.273.929.929,0,0,0-.324.75H29.578a2.268,2.268,0,0,1,.453-1.359,3,3,0,0,1,1.281-.98,4.669,4.669,0,0,1,1.859-.355,3.689,3.689,0,0,1,2.48.785,2.747,2.747,0,0,1,.918,2.207v3.664a4.041,4.041,0,0,0,.336,1.82V0ZM32.758-1.57a1.945,1.945,0,0,0,.922-.223,1.462,1.462,0,0,0,.625-.6V-3.844h-.844q-1.7,0-1.8,1.172l-.008.133a.9.9,0,0,0,.3.7A1.153,1.153,0,0,0,32.758-1.57Zm9.063-.094a1.481,1.481,0,0,0,1.016-.344,1.2,1.2,0,0,0,.406-.914h2.117a2.9,2.9,0,0,1-.469,1.574A3.093,3.093,0,0,1,43.629-.238a3.949,3.949,0,0,1-1.77.395A3.67,3.67,0,0,1,39-1,4.56,4.56,0,0,1,37.953-4.18v-.148a4.508,4.508,0,0,1,1.039-3.117,3.627,3.627,0,0,1,2.852-1.164,3.555,3.555,0,0,1,2.543.9,3.2,3.2,0,0,1,.973,2.4H43.242a1.551,1.551,0,0,0-.406-1.072A1.354,1.354,0,0,0,41.8-6.789a1.36,1.36,0,0,0-1.191.575,3.333,3.333,0,0,0-.4,1.866v.235a3.375,3.375,0,0,0,.4,1.878A1.377,1.377,0,0,0,41.82-1.664ZM50.539.156A4.15,4.15,0,0,1,47.512-.984a4.054,4.054,0,0,1-1.168-3.039v-.219a5.106,5.106,0,0,1,.492-2.277A3.612,3.612,0,0,1,48.23-8.066a3.914,3.914,0,0,1,2.059-.543,3.508,3.508,0,0,1,2.73,1.094,4.444,4.444,0,0,1,1,3.1v.922H48.633a2.1,2.1,0,0,0,.66,1.328,2,2,0,0,0,1.395.5,2.437,2.437,0,0,0,2.039-.945l1.109,1.242A3.389,3.389,0,0,1,52.461-.246,4.511,4.511,0,0,1,50.539.156Zm-.258-6.945a1.411,1.411,0,0,0-1.09.455,2.357,2.357,0,0,0-.535,1.3H51.8v-.181a1.681,1.681,0,0,0-.406-1.165A1.456,1.456,0,0,0,50.281-6.789Zm7.094-1.664.07.977a2.951,2.951,0,0,1,2.43-1.133,2.453,2.453,0,0,1,2,.789,3.682,3.682,0,0,1,.672,2.359V0H60.289V-5.406a1.465,1.465,0,0,0-.312-1.043,1.4,1.4,0,0,0-1.039-.324,1.553,1.553,0,0,0-1.43.813V0H55.25V-8.453ZM69.156,0a2.507,2.507,0,0,1-.227-.758A2.732,2.732,0,0,1,66.8.156a3,3,0,0,1-2.059-.719,2.312,2.312,0,0,1-.816-1.812,2.389,2.389,0,0,1,1-2.062A4.915,4.915,0,0,1,67.8-5.164h1.039v-.484a1.393,1.393,0,0,0-.3-.937,1.183,1.183,0,0,0-.949-.352,1.345,1.345,0,0,0-.895.273.929.929,0,0,0-.324.75H64.109a2.268,2.268,0,0,1,.453-1.359,3,3,0,0,1,1.281-.98A4.669,4.669,0,0,1,67.7-8.609a3.689,3.689,0,0,1,2.48.785A2.747,2.747,0,0,1,71.1-5.617v3.664a4.041,4.041,0,0,0,.336,1.82V0ZM67.289-1.57a1.945,1.945,0,0,0,.922-.223,1.462,1.462,0,0,0,.625-.6V-3.844h-.844q-1.7,0-1.8,1.172l-.008.133a.9.9,0,0,0,.3.7A1.153,1.153,0,0,0,67.289-1.57Zm7.664-6.883.07.945a2.971,2.971,0,0,1,2.43-1.1A2.255,2.255,0,0,1,79.7-7.32a2.9,2.9,0,0,1,2.539-1.289,2.521,2.521,0,0,1,2.047.8,3.681,3.681,0,0,1,.672,2.41V0H82.688V-5.391a1.61,1.61,0,0,0-.281-1.051,1.246,1.246,0,0,0-.992-.332,1.409,1.409,0,0,0-1.406.969L80.016,0H77.758V-5.383a1.59,1.59,0,0,0-.289-1.062,1.259,1.259,0,0,0-.984-.328,1.463,1.463,0,0,0-1.391.8V0H72.836V-8.453ZM89.07,0H86.8V-8.453H89.07Zm-2.4-10.641a1.112,1.112,0,0,1,.34-.836,1.277,1.277,0,0,1,.926-.328,1.28,1.28,0,0,1,.922.328,1.105,1.105,0,0,1,.344.836,1.108,1.108,0,0,1-.348.844,1.283,1.283,0,0,1-.918.328A1.283,1.283,0,0,1,87.02-9.8,1.108,1.108,0,0,1,86.672-10.641ZM94.82.156A4.15,4.15,0,0,1,91.793-.984a4.054,4.054,0,0,1-1.168-3.039v-.219a5.106,5.106,0,0,1,.492-2.277,3.612,3.612,0,0,1,1.395-1.547,3.914,3.914,0,0,1,2.059-.543A3.508,3.508,0,0,1,97.3-7.516a4.444,4.444,0,0,1,1,3.1v.922H92.914a2.1,2.1,0,0,0,.66,1.328,2,2,0,0,0,1.395.5,2.437,2.437,0,0,0,2.039-.945l1.109,1.242A3.389,3.389,0,0,1,96.742-.246,4.511,4.511,0,0,1,94.82.156Zm-.258-6.945a1.411,1.411,0,0,0-1.09.455,2.357,2.357,0,0,0-.535,1.3h3.141v-.181a1.681,1.681,0,0,0-.406-1.165A1.456,1.456,0,0,0,94.563-6.789Zm7.094-1.664.07.977a2.951,2.951,0,0,1,2.43-1.133,2.453,2.453,0,0,1,2,.789,3.682,3.682,0,0,1,.672,2.359V0H104.57V-5.406a1.465,1.465,0,0,0-.312-1.043,1.4,1.4,0,0,0-1.039-.324,1.553,1.553,0,0,0-1.43.813V0H99.531V-8.453Zm9.586-2.078v2.078h1.445V-6.8h-1.445v4.219a1.007,1.007,0,0,0,.18.672.9.9,0,0,0,.688.2,3.6,3.6,0,0,0,.664-.055V-.047a4.648,4.648,0,0,1-1.367.2,2.156,2.156,0,0,1-2.422-2.4V-6.8H107.75V-8.453h1.234v-2.078ZM113.359-4.3a5.013,5.013,0,0,1,.484-2.242,3.546,3.546,0,0,1,1.395-1.523,4.069,4.069,0,0,1,2.113-.539,3.849,3.849,0,0,1,2.793,1.047,4.2,4.2,0,0,1,1.207,2.844l.016.578a4.418,4.418,0,0,1-1.086,3.121A3.775,3.775,0,0,1,117.367.156a3.793,3.793,0,0,1-2.918-1.172,4.5,4.5,0,0,1-1.09-3.187Zm2.258.16A3.16,3.16,0,0,0,116.07-2.3a1.5,1.5,0,0,0,1.3.638,1.5,1.5,0,0,0,1.281-.63,3.457,3.457,0,0,0,.461-2.015,3.128,3.128,0,0,0-.461-1.831,1.5,1.5,0,0,0-1.3-.649,1.474,1.474,0,0,0-1.281.646A3.516,3.516,0,0,0,115.617-4.144Z" transform="translate(955 1412)" fill="#12263f"/>
      <path id="Path_215272" data-name="Path 215272" d="M3.508,0H1.164V-11.375H3.508Zm4.1-8.453.07.977a2.951,2.951,0,0,1,2.43-1.133,2.453,2.453,0,0,1,2,.789,3.682,3.682,0,0,1,.672,2.359V0H10.523V-5.406a1.465,1.465,0,0,0-.312-1.043,1.4,1.4,0,0,0-1.039-.324,1.553,1.553,0,0,0-1.43.813V0H5.484V-8.453Zm10.047,5.7,1.57-5.7h2.359L18.734,0H16.578L13.727-8.453h2.359ZM26.367.156A4.15,4.15,0,0,1,23.34-.984a4.054,4.054,0,0,1-1.168-3.039v-.219a5.106,5.106,0,0,1,.492-2.277,3.612,3.612,0,0,1,1.395-1.547,3.914,3.914,0,0,1,2.059-.543,3.508,3.508,0,0,1,2.73,1.094,4.444,4.444,0,0,1,1,3.1v.922H24.461a2.1,2.1,0,0,0,.66,1.328,2,2,0,0,0,1.395.5,2.437,2.437,0,0,0,2.039-.945l1.109,1.242A3.389,3.389,0,0,1,28.289-.246,4.511,4.511,0,0,1,26.367.156Zm-.258-6.945a1.411,1.411,0,0,0-1.09.455,2.357,2.357,0,0,0-.535,1.3h3.141v-.181a1.681,1.681,0,0,0-.406-1.165A1.456,1.456,0,0,0,26.109-6.789ZM33.2-8.453l.07.977A2.951,2.951,0,0,1,35.7-8.609a2.453,2.453,0,0,1,2,.789,3.682,3.682,0,0,1,.672,2.359V0H36.117V-5.406A1.465,1.465,0,0,0,35.8-6.449a1.4,1.4,0,0,0-1.039-.324,1.553,1.553,0,0,0-1.43.813V0H31.078V-8.453Zm9.586-2.078v2.078h1.445V-6.8H42.789v4.219a1.007,1.007,0,0,0,.18.672.9.9,0,0,0,.688.2,3.6,3.6,0,0,0,.664-.055V-.047a4.648,4.648,0,0,1-1.367.2,2.156,2.156,0,0,1-2.422-2.4V-6.8H39.3V-8.453h1.234v-2.078ZM50.391,0a2.507,2.507,0,0,1-.227-.758,2.732,2.732,0,0,1-2.133.914,3,3,0,0,1-2.059-.719,2.312,2.312,0,0,1-.816-1.812,2.389,2.389,0,0,1,1-2.062,4.915,4.915,0,0,1,2.879-.727H50.07v-.484a1.393,1.393,0,0,0-.3-.937,1.183,1.183,0,0,0-.949-.352,1.345,1.345,0,0,0-.895.273.929.929,0,0,0-.324.75H45.344A2.268,2.268,0,0,1,45.8-7.273a3,3,0,0,1,1.281-.98,4.669,4.669,0,0,1,1.859-.355,3.689,3.689,0,0,1,2.48.785,2.747,2.747,0,0,1,.918,2.207v3.664a4.041,4.041,0,0,0,.336,1.82V0ZM48.523-1.57a1.945,1.945,0,0,0,.922-.223,1.462,1.462,0,0,0,.625-.6V-3.844h-.844q-1.7,0-1.8,1.172l-.008.133a.9.9,0,0,0,.3.7A1.153,1.153,0,0,0,48.523-1.57Zm10.3-4.766a6.134,6.134,0,0,0-.812-.062,1.654,1.654,0,0,0-1.68.867V0H54.07V-8.453H56.2l.063,1.008a2.092,2.092,0,0,1,1.883-1.164,2.366,2.366,0,0,1,.7.1ZM62.289,0H60.023V-8.453h2.266Zm-2.4-10.641a1.112,1.112,0,0,1,.34-.836,1.277,1.277,0,0,1,.926-.328,1.28,1.28,0,0,1,.922.328,1.105,1.105,0,0,1,.344.836,1.108,1.108,0,0,1-.348.844,1.283,1.283,0,0,1-.918.328,1.283,1.283,0,0,1-.918-.328A1.108,1.108,0,0,1,59.891-10.641ZM63.8-4.3a5.013,5.013,0,0,1,.484-2.242A3.546,3.546,0,0,1,65.676-8.07a4.069,4.069,0,0,1,2.113-.539,3.849,3.849,0,0,1,2.793,1.047,4.2,4.2,0,0,1,1.207,2.844l.016.578A4.418,4.418,0,0,1,70.719-1.02,3.775,3.775,0,0,1,67.8.156a3.793,3.793,0,0,1-2.918-1.172A4.5,4.5,0,0,1,63.8-4.2Zm2.258.16A3.16,3.16,0,0,0,66.508-2.3a1.5,1.5,0,0,0,1.3.638,1.5,1.5,0,0,0,1.281-.63,3.457,3.457,0,0,0,.461-2.015,3.128,3.128,0,0,0-.461-1.831,1.5,1.5,0,0,0-1.3-.649,1.474,1.474,0,0,0-1.281.646A3.516,3.516,0,0,0,66.055-4.144ZM77.773-2.336a.727.727,0,0,0-.41-.652,4.659,4.659,0,0,0-1.316-.426q-3.016-.633-3.016-2.562a2.323,2.323,0,0,1,.934-1.879,3.766,3.766,0,0,1,2.441-.754,4.053,4.053,0,0,1,2.574.758,2.388,2.388,0,0,1,.965,1.969H77.688a1.092,1.092,0,0,0-.312-.8A1.322,1.322,0,0,0,76.4-7a1.351,1.351,0,0,0-.883.258.814.814,0,0,0-.312.656.7.7,0,0,0,.355.605,3.657,3.657,0,0,0,1.2.4A9.8,9.8,0,0,1,78.18-4.7,2.336,2.336,0,0,1,79.969-2.43a2.2,2.2,0,0,1-.992,1.871,4.28,4.28,0,0,1-2.562.715,4.47,4.47,0,0,1-1.887-.379,3.166,3.166,0,0,1-1.293-1.039,2.414,2.414,0,0,1-.469-1.426h2.141a1.179,1.179,0,0,0,.445.922,1.766,1.766,0,0,0,1.109.32,1.635,1.635,0,0,0,.98-.246A.766.766,0,0,0,77.773-2.336Z" transform="translate(546 1412)" fill="#12263f"/>
      <path id="Path_215269" data-name="Path 215269" d="M7.438-2.344H3.328L2.547,0H.055L4.289-11.375H6.461L10.719,0H8.227Zm-3.477-1.9H6.8L5.375-8.5Zm7.32-.047a5.094,5.094,0,0,1,.887-3.148,2.877,2.877,0,0,1,2.426-1.172,2.589,2.589,0,0,1,2.039.922V-12H18.9V0H16.859L16.75-.9A2.657,2.657,0,0,1,14.578.156,2.869,2.869,0,0,1,12.184-1.02,5.258,5.258,0,0,1,11.281-4.289Zm2.258.168A3.337,3.337,0,0,0,13.953-2.3a1.349,1.349,0,0,0,1.2.634,1.511,1.511,0,0,0,1.477-.884V-5.889a1.489,1.489,0,0,0-1.461-.884Q13.539-6.773,13.539-4.121ZM20.3-4.3a5.053,5.053,0,0,1,.887-3.148,2.9,2.9,0,0,1,2.434-1.156A2.6,2.6,0,0,1,25.781-7.57l.148-.883h1.984V3.25H25.648V-.727A2.6,2.6,0,0,1,23.6.156,2.878,2.878,0,0,1,21.2-1.016,5.3,5.3,0,0,1,20.3-4.3Zm2.258.16A3.315,3.315,0,0,0,22.98-2.3a1.363,1.363,0,0,0,1.2.634,1.518,1.518,0,0,0,1.469-.829v-3.5a1.506,1.506,0,0,0-1.453-.8,1.38,1.38,0,0,0-1.211.634A3.661,3.661,0,0,0,22.555-4.144ZM34.75-.859A2.831,2.831,0,0,1,32.438.156a2.67,2.67,0,0,1-2.074-.781,3.335,3.335,0,0,1-.73-2.289V-8.453h2.258v5.467q0,1.322,1.2,1.322a1.63,1.63,0,0,0,1.578-.8V-8.453h2.266V0H34.813ZM41.023,0H38.758V-8.453h2.266Zm-2.4-10.641a1.112,1.112,0,0,1,.34-.836,1.277,1.277,0,0,1,.926-.328,1.28,1.28,0,0,1,.922.328,1.105,1.105,0,0,1,.344.836,1.108,1.108,0,0,1-.348.844,1.283,1.283,0,0,1-.918.328,1.283,1.283,0,0,1-.918-.328A1.108,1.108,0,0,1,38.625-10.641Zm8.836,8.3a.727.727,0,0,0-.41-.652,4.659,4.659,0,0,0-1.316-.426q-3.016-.633-3.016-2.562a2.323,2.323,0,0,1,.934-1.879,3.766,3.766,0,0,1,2.441-.754,4.053,4.053,0,0,1,2.574.758,2.388,2.388,0,0,1,.965,1.969H47.375a1.092,1.092,0,0,0-.312-.8A1.322,1.322,0,0,0,46.086-7a1.351,1.351,0,0,0-.883.258.814.814,0,0,0-.312.656.7.7,0,0,0,.355.605,3.657,3.657,0,0,0,1.2.4,9.8,9.8,0,0,1,1.422.379A2.336,2.336,0,0,1,49.656-2.43a2.2,2.2,0,0,1-.992,1.871A4.28,4.28,0,0,1,46.1.156a4.47,4.47,0,0,1-1.887-.379,3.166,3.166,0,0,1-1.293-1.039,2.414,2.414,0,0,1-.469-1.426h2.141a1.179,1.179,0,0,0,.445.922,1.766,1.766,0,0,0,1.109.32,1.635,1.635,0,0,0,.98-.246A.766.766,0,0,0,47.461-2.336ZM53.492,0H51.227V-8.453h2.266Zm-2.4-10.641a1.112,1.112,0,0,1,.34-.836,1.277,1.277,0,0,1,.926-.328,1.28,1.28,0,0,1,.922.328,1.105,1.105,0,0,1,.344.836,1.108,1.108,0,0,1-.348.844,1.283,1.283,0,0,1-.918.328,1.283,1.283,0,0,1-.918-.328A1.108,1.108,0,0,1,51.094-10.641Zm7.773,8.977a1.481,1.481,0,0,0,1.016-.344,1.2,1.2,0,0,0,.406-.914h2.117a2.9,2.9,0,0,1-.469,1.574A3.093,3.093,0,0,1,60.676-.238a3.949,3.949,0,0,1-1.77.395A3.67,3.67,0,0,1,56.047-1,4.56,4.56,0,0,1,55-4.18v-.148a4.508,4.508,0,0,1,1.039-3.117,3.627,3.627,0,0,1,2.852-1.164,3.555,3.555,0,0,1,2.543.9,3.2,3.2,0,0,1,.973,2.4H60.289a1.551,1.551,0,0,0-.406-1.072,1.354,1.354,0,0,0-1.031-.412,1.36,1.36,0,0,0-1.191.575,3.333,3.333,0,0,0-.4,1.866v.235a3.375,3.375,0,0,0,.4,1.878A1.377,1.377,0,0,0,58.867-1.664ZM66.078,0H63.813V-8.453h2.266Zm-2.4-10.641a1.112,1.112,0,0,1,.34-.836,1.277,1.277,0,0,1,.926-.328,1.28,1.28,0,0,1,.922.328,1.105,1.105,0,0,1,.344.836,1.108,1.108,0,0,1-.348.844,1.283,1.283,0,0,1-.918.328,1.283,1.283,0,0,1-.918-.328A1.108,1.108,0,0,1,63.68-10.641ZM67.586-4.3a5.013,5.013,0,0,1,.484-2.242A3.546,3.546,0,0,1,69.465-8.07a4.069,4.069,0,0,1,2.113-.539,3.849,3.849,0,0,1,2.793,1.047,4.2,4.2,0,0,1,1.207,2.844l.016.578A4.418,4.418,0,0,1,74.508-1.02,3.775,3.775,0,0,1,71.594.156a3.793,3.793,0,0,1-2.918-1.172A4.5,4.5,0,0,1,67.586-4.2Zm2.258.16A3.16,3.16,0,0,0,70.3-2.3a1.5,1.5,0,0,0,1.3.638,1.5,1.5,0,0,0,1.281-.63,3.457,3.457,0,0,0,.461-2.015,3.128,3.128,0,0,0-.461-1.831,1.5,1.5,0,0,0-1.3-.649,1.474,1.474,0,0,0-1.281.646A3.516,3.516,0,0,0,69.844-4.144ZM72.023-12h2.461L72.32-9.578H70.484Zm7.039,3.547.07.977a2.951,2.951,0,0,1,2.43-1.133,2.453,2.453,0,0,1,2,.789,3.682,3.682,0,0,1,.672,2.359V0H81.977V-5.406a1.465,1.465,0,0,0-.312-1.043,1.4,1.4,0,0,0-1.039-.324,1.553,1.553,0,0,0-1.43.813V0H76.938V-8.453ZM86.656.977h-1.68l4.188-12.352h1.68Zm8.781-2.641a1.481,1.481,0,0,0,1.016-.344,1.2,1.2,0,0,0,.406-.914h2.117a2.9,2.9,0,0,1-.469,1.574A3.093,3.093,0,0,1,97.246-.238a3.949,3.949,0,0,1-1.77.395A3.67,3.67,0,0,1,92.617-1,4.56,4.56,0,0,1,91.57-4.18v-.148a4.508,4.508,0,0,1,1.039-3.117,3.627,3.627,0,0,1,2.852-1.164,3.555,3.555,0,0,1,2.543.9,3.2,3.2,0,0,1,.973,2.4H96.859a1.551,1.551,0,0,0-.406-1.072,1.354,1.354,0,0,0-1.031-.412,1.36,1.36,0,0,0-1.191.575,3.333,3.333,0,0,0-.4,1.866v.235a3.375,3.375,0,0,0,.4,1.878A1.377,1.377,0,0,0,95.438-1.664ZM99.914-4.3a5.013,5.013,0,0,1,.484-2.242,3.546,3.546,0,0,1,1.395-1.523,4.069,4.069,0,0,1,2.113-.539A3.849,3.849,0,0,1,106.7-7.562a4.2,4.2,0,0,1,1.207,2.844l.016.578a4.418,4.418,0,0,1-1.086,3.121A3.775,3.775,0,0,1,103.922.156,3.793,3.793,0,0,1,101-1.016,4.5,4.5,0,0,1,99.914-4.2Zm2.258.16a3.16,3.16,0,0,0,.453,1.843,1.5,1.5,0,0,0,1.3.638,1.5,1.5,0,0,0,1.281-.63,3.457,3.457,0,0,0,.461-2.015A3.128,3.128,0,0,0,105.2-6.14a1.5,1.5,0,0,0-1.3-.649,1.474,1.474,0,0,0-1.281.646A3.516,3.516,0,0,0,102.172-4.144Zm9.258-4.309.07.945a2.971,2.971,0,0,1,2.43-1.1,2.255,2.255,0,0,1,2.242,1.289,2.9,2.9,0,0,1,2.539-1.289,2.521,2.521,0,0,1,2.047.8,3.681,3.681,0,0,1,.672,2.41V0h-2.266V-5.391a1.61,1.61,0,0,0-.281-1.051,1.246,1.246,0,0,0-.992-.332,1.409,1.409,0,0,0-1.406.969l.008,5.8h-2.258V-5.383a1.59,1.59,0,0,0-.289-1.062,1.259,1.259,0,0,0-.984-.328,1.463,1.463,0,0,0-1.391.8V0h-2.258V-8.453Zm19.344,4.3a5.07,5.07,0,0,1-.887,3.129A2.843,2.843,0,0,1,127.492.156a2.633,2.633,0,0,1-2.07-.891V3.25h-2.258v-11.7h2.094l.078.828a2.654,2.654,0,0,1,2.141-.984,2.862,2.862,0,0,1,2.43,1.156,5.207,5.207,0,0,1,.867,3.188Zm-2.258-.164a3.327,3.327,0,0,0-.418-1.82,1.361,1.361,0,0,0-1.215-.641,1.478,1.478,0,0,0-1.461.813V-2.5a1.5,1.5,0,0,0,1.477.836Q128.516-1.664,128.516-4.312Zm8.406-2.023a6.134,6.134,0,0,0-.812-.062,1.654,1.654,0,0,0-1.68.867V0h-2.258V-8.453H134.3l.063,1.008a2.092,2.092,0,0,1,1.883-1.164,2.366,2.366,0,0,1,.7.1ZM142.672,0a2.507,2.507,0,0,1-.227-.758,2.732,2.732,0,0,1-2.133.914,3,3,0,0,1-2.059-.719,2.312,2.312,0,0,1-.816-1.812,2.389,2.389,0,0,1,1-2.062,4.915,4.915,0,0,1,2.879-.727h1.039v-.484a1.393,1.393,0,0,0-.3-.937,1.183,1.183,0,0,0-.949-.352,1.345,1.345,0,0,0-.895.273.929.929,0,0,0-.324.75h-2.258a2.268,2.268,0,0,1,.453-1.359,3,3,0,0,1,1.281-.98,4.669,4.669,0,0,1,1.859-.355,3.689,3.689,0,0,1,2.48.785,2.747,2.747,0,0,1,.918,2.207v3.664a4.041,4.041,0,0,0,.336,1.82V0ZM140.8-1.57a1.945,1.945,0,0,0,.922-.223,1.462,1.462,0,0,0,.625-.6V-3.844h-.844q-1.7,0-1.8,1.172l-.008.133a.9.9,0,0,0,.3.7A1.153,1.153,0,0,0,140.8-1.57Zm10.125-.766a.727.727,0,0,0-.41-.652,4.659,4.659,0,0,0-1.316-.426q-3.016-.633-3.016-2.562a2.323,2.323,0,0,1,.934-1.879,3.766,3.766,0,0,1,2.441-.754,4.053,4.053,0,0,1,2.574.758,2.388,2.388,0,0,1,.965,1.969h-2.258a1.092,1.092,0,0,0-.312-.8A1.322,1.322,0,0,0,149.555-7a1.351,1.351,0,0,0-.883.258.814.814,0,0,0-.312.656.7.7,0,0,0,.355.605,3.657,3.657,0,0,0,1.2.4,9.8,9.8,0,0,1,1.422.379,2.336,2.336,0,0,1,1.789,2.273,2.205,2.205,0,0,1-.992,1.871,4.28,4.28,0,0,1-2.562.715,4.47,4.47,0,0,1-1.887-.379,3.166,3.166,0,0,1-1.293-1.039,2.414,2.414,0,0,1-.469-1.426h2.141a1.179,1.179,0,0,0,.445.922,1.766,1.766,0,0,0,1.109.32,1.635,1.635,0,0,0,.98-.246A.766.766,0,0,0,150.93-2.336Z" transform="translate(726 1206)" fill="#12263f"/>
      <g id="Group_142034" data-name="Group 142034" transform="translate(-130 35)">
        <g id="Group_142031" data-name="Group 142031">
          <circle id="Ellipse_5128" data-name="Ellipse 5128" cx="26" cy="26" r="26" transform="translate(1001 1090)" fill="#d84318"/>
          <circle id="Ellipse_5129" data-name="Ellipse 5129" cx="22.5" cy="22.5" r="22.5" transform="translate(1005 1094)" fill="#f0f8ff"/>
        </g>
      </g>
      <g id="Group_142035" data-name="Group 142035" transform="translate(-164 446)">
        <g id="Group_142032" data-name="Group 142032" transform="translate(78)">
          <circle id="Ellipse_5128-2" data-name="Ellipse 5128" cx="26" cy="26" r="26" transform="translate(1001 1090)" fill="#d84318"/>
          <circle id="Ellipse_5129-2" data-name="Ellipse 5129" cx="22.5" cy="22.5" r="22.5" transform="translate(1005 1094)" fill="#f0f8ff"/>
        </g>
      </g>
      <g id="Group_142036" data-name="Group 142036" transform="translate(-519 446)">
        <g id="Group_142033" data-name="Group 142033" transform="translate(151)">
          <circle id="Ellipse_5128-3" data-name="Ellipse 5128" cx="26" cy="26" r="26" transform="translate(1001 1090)" fill="#d84318"/>
          <circle id="Ellipse_5129-3" data-name="Ellipse 5129" cx="22.5" cy="22.5" r="22.5" transform="translate(1005 1094)" fill="#f0f8ff"/>
        </g>
      </g>
    </g>
  </g>
</svg>
