<svg xmlns="http://www.w3.org/2000/svg" xmlns:xlink="http://www.w3.org/1999/xlink" width="78" height="78.001" viewBox="0 0 78 78.001">
  <defs>
    <clipPath id="clip-path">
      <rect id="Rect치ngulo_42181" data-name="Rect치ngulo 42181" width="78" height="78" transform="translate(0 0)" fill="none"/>
    </clipPath>
  </defs>
  <g id="Grupo_149667" data-name="Grupo 149667" transform="translate(4096 10853.001)">
    <g id="Grupo_142059" data-name="Grupo 142059" transform="translate(-4773 -11970)">
      <rect id="Rect치ngulo_42170" data-name="Rect치ngulo 42170" width="78" height="78" transform="translate(677 1117)" fill="none"/>
      <g id="Grupo_142058" data-name="Grupo 142058" transform="translate(677 1116.944)">
        <g id="Grupo_142057" data-name="Grupo 142057" transform="translate(0 0.055)" clip-path="url(#clip-path)">
          <path id="Trazado_190968" data-name="Trazado 190968" d="M314.218,169.295v42.614H286.947l-5.427-10.977h27.82a1.1,1.1,0,0,0,.561-.146,1.206,1.206,0,0,0,.659-1.073V168h2.366a1.285,1.285,0,0,1,1.293,1.278v.015" transform="translate(-238.601 -142.444)" fill="#dad4d4"/>
          <path id="Trazado_190969" data-name="Trazado 190969" d="M63.5,225.469a3.666,3.666,0,0,0-3.45-2.439H33.22a1.22,1.22,0,0,1-1.22-1.22V185.222A1.22,1.22,0,0,1,33.22,184H99.08a1.22,1.22,0,0,1,1.22,1.22v36.589a1.22,1.22,0,0,1-1.22,1.22H72.248a3.666,3.666,0,0,0-3.45,2.439Z" transform="translate(-27.121 -156.005)" fill="#eaeaea"/>
          <path id="Trazado_190970" data-name="Trazado 190970" d="M284.052,9.415V32.393l-2.439-2.439-2.439,2.439V8.427A49.921,49.921,0,0,0,272.465,8C263.367,8,256,10.183,256,12.879v8.83c.281.451.537.915.781,1.4A19.22,19.22,0,0,1,256,41.6v10a.731.731,0,0,1,.2.268l.915,1.829a.967.967,0,0,1-.439,1.293l-.671.329v2.134l1.634,3.305C260.305,59.127,265.94,58,272.465,58c9.1,0,16.465,2.183,16.465,4.879v-50C288.93,11.525,287.064,10.293,284.052,9.415Z" transform="translate(-216.972 -6.834)" fill="#eaeaea"/>
          <path id="Trazado_190971" data-name="Trazado 190971" d="M16,212.451v-42.6a1.322,1.322,0,0,1,.8-1.207h.085a19.186,19.186,0,0,0,1.976,7.684c.244.5.512.976.793,1.439v22.49a1.206,1.206,0,0,0,.659,1.073,1.1,1.1,0,0,0,.561.146h28.2l6.635,13.416H48.93a1.22,1.22,0,0,1-1.22-1.22,1.22,1.22,0,0,0-1.22-1.22Z" transform="translate(-13.561 -142.986)" fill="#dad4d4"/>
          <path id="Trazado_190972" data-name="Trazado 190972" d="M56.465,8C47.367,8,40,10.185,40,12.881v8.794a19.232,19.232,0,0,1,32.93.037v-8.83C72.93,10.185,65.563,8,56.465,8" transform="translate(-33.902 -6.836)" fill="#f4f4f4"/>
          <path id="Trazado_190973" data-name="Trazado 190973" d="M62.856,242.739l1.512-.756-2.476-5A19.27,19.27,0,0,1,40,228.482v21.27c0-2.7,7.367-4.879,16.465-4.879a52.412,52.412,0,0,1,6.574.4l-.622-1.244A.976.976,0,0,1,62.856,242.739Z" transform="translate(-33.902 -193.703)" fill="#f4f4f4"/>
          <path id="Trazado_190974" data-name="Trazado 190974" d="M222.56,233.951l.012.012,2.476,5.013,1.512-.744a.945.945,0,0,1,1.1.171v-10A19.027,19.027,0,0,1,222.56,233.951Z" transform="translate(-188.63 -193.636)" fill="#f4f4f4"/>
          <path id="Trazado_190975" data-name="Trazado 190975" d="M166.08,71.556a18.089,18.089,0,0,1-2.842,1.744,20.152,20.152,0,0,1-3.1,1.22,19.183,19.183,0,0,1-4.2.744,19.3,19.3,0,0,0,6.635-.744,20.152,20.152,0,0,0,3.1-1.22,18.088,18.088,0,0,0,2.842-1.744,19.527,19.527,0,0,0,2.659-2.342V66.006a19.027,19.027,0,0,1-5.1,5.549M155.92,36.833a19.223,19.223,0,0,1,15.258,9.281V42.882a19.27,19.27,0,0,0-15.258-6.049" transform="translate(-132.149 -31.24)" fill="#e2e0e0"/>
          <path id="Trazado_190976" data-name="Trazado 190976" d="M258.439,99.846A19.358,19.358,0,0,1,256,103.054V99.846a19.22,19.22,0,0,0,.781-18.49c-.244-.488-.5-.951-.781-1.4V76.722a18.42,18.42,0,0,1,2.439,3.232c.281.451.537.915.781,1.4a19.22,19.22,0,0,1-.781,18.49" transform="translate(-216.972 -65.08)" fill="#dad4d4"/>
          <path id="Trazado_190977" data-name="Trazado 190977" d="M205.552,264.814l2.476,5.013-5.952,2.939-2.476-5a20.153,20.153,0,0,0,3.1-1.22,18.088,18.088,0,0,0,2.842-1.744Z" transform="translate(-169.17 -224.486)" fill="#e2e0e0"/>
          <path id="Trazado_190978" data-name="Trazado 190978" d="M286.787,24.242c1.268,21.651-6.164,45.891-30.787,46.337v.643l1.634,3.305c2.671-1.634,8.306-2.756,14.831-2.756,9.1,0,16.465,2.183,16.465,4.879v-50c0-.873-.784-1.693-2.143-2.4" transform="translate(-216.972 -20.601)" fill="#dad4d4"/>
          <path id="Trazado_190979" data-name="Trazado 190979" d="M276.24,361.953a37.9,37.9,0,0,1,13.379-2.037c7.489,0,13.818,1.488,15.806,3.513a1.1,1.1,0,0,1-.561.146h-27.82Z" transform="translate(-234.126 -305.087)" fill="#afafaf"/>
          <path id="Trazado_190980" data-name="Trazado 190980" d="M297.357,343.173c-1.988-2.025-8.318-3.513-15.806-3.513a37.9,37.9,0,0,0-13.379,2.037l-1.451-2.939c2.671-1.634,8.306-2.756,14.831-2.756,9.1,0,16.465,2.183,16.465,4.879v1.22a1.206,1.206,0,0,1-.659,1.073" transform="translate(-226.057 -284.832)" fill="#c4c4c4"/>
          <path id="Trazado_190981" data-name="Trazado 190981" d="M211.92,292.3a.945.945,0,0,1,1.1.171.731.731,0,0,1,.2.268l.915,1.829a.967.967,0,0,1-.439,1.293l-.671.329-.842.427-5.952,2.939-1.512.744a.956.956,0,0,1-1.287-.415l-.006-.012-.293-.6-.622-1.244a.976.976,0,0,1,.439-1.293l1.512-.756,5.952-2.939Z" transform="translate(-171.55 -247.706)" fill="#dad4d4"/>
          <path id="Trazado_190982" data-name="Trazado 190982" d="M289.387,394.979h-2.439L281.52,384h2.439Z" transform="translate(-238.601 -325.514)" fill="#dad4d4"/>
          <path id="Trazado_190983" data-name="Trazado 190983" d="M279.484,371.051h-2.439l-.8-1.622a19.751,19.751,0,0,1,2.086-.707l.354.707Z" transform="translate(-234.126 -312.563)" fill="#4d4d4d"/>
          <path id="Trazado_190984" data-name="Trazado 190984" d="M270.257,351.161c-.39.11-.756.22-1.1.341q-.274.092-.512.183l-.476.183-1.451-2.939A11.538,11.538,0,0,1,268.7,348l.464.927Z" transform="translate(-226.057 -295.002)" fill="gray"/>
          <path id="Trazado_190985" data-name="Trazado 190985" d="M257.962,330.644c-.293.11-.573.22-.842.341-.171.073-.329.146-.488.232a6.4,6.4,0,0,0-.646.354l-1.634-3.305-.3-.6c.707-.012,1.7-.1,2.37-.144l.366.744Z" transform="translate(-215.324 -277.644)" fill="#c4c4c4"/>
          <path id="Trazado_190986" data-name="Trazado 190986" d="M256.06,322.145c-.671.049-1.662.132-2.37.144l-.066-.135,1.96-.976Z" transform="translate(-214.958 -272.268)" fill="#dad4d4"/>
          <path id="Trazado_190987" data-name="Trazado 190987" d="M52.5,462.527v.793H12.879c-2.683,0-4.879-2.878-4.879-6.4V456H39.71a1.22,1.22,0,0,1,1.22,1.22,1.22,1.22,0,0,0,1.22,1.22h6.781l1.342,2.7a2.486,2.486,0,0,0,2.232,1.39" transform="translate(-6.78 -386.537)" fill="#666"/>
          <path id="Trazado_190988" data-name="Trazado 190988" d="M331.033,456v.915c0,3.525-2.2,6.4-4.879,6.4H299.92v-.793a2.474,2.474,0,0,0,1.11-.268l1.476-.72a2.5,2.5,0,0,0,1.122-3.342l-1.085-2.2Z" transform="translate(-254.196 -386.537)" fill="#666"/>
          <path id="Trazado_190989" data-name="Trazado 190989" d="M311.725,461.539l-1.476.72a2.469,2.469,0,0,1-2.33-.049l1.366-.671a2.5,2.5,0,0,0,1.122-3.342l-1.085-2.2h2.439l1.085,2.2a2.5,2.5,0,0,1-1.122,3.342" transform="translate(-260.976 -386.537)" fill="#4d4d4d"/>
          <path id="Trazado_190990" data-name="Trazado 190990" d="M85.312,456v.915c0,3.525-2.2,6.4-4.879,6.4H14.574c-2.1,0-3.9-1.768-4.574-4.22a4.308,4.308,0,0,0,3.354,1.781h65.86c2.281,0,4.22-2.086,4.732-4.879Z" transform="translate(-8.475 -386.537)" fill="#4d4d4d"/>
          <path id="Trazado_190991" data-name="Trazado 190991" d="M412.879,11.79V34.768l-2.439-2.439L408,34.768V10.8a31.226,31.226,0,0,1,4.879.988" transform="translate(-345.799 -9.21)" fill="#ed1c24"/>
          <path id="Trazado_190992" data-name="Trazado 190992" d="M426.439,14.027V37.005L424,34.566V13.442c.878.171,1.7.366,2.439.585" transform="translate(-359.36 -11.447)" fill="#c1272d"/>
          <path id="Trazado_190993" data-name="Trazado 190993" d="M60.126,359.969a42.241,42.241,0,0,1,11.891,1.5l1.061,2.159h-28.2a1.1,1.1,0,0,1-.561-.146c1.988-2.025,8.318-3.513,15.806-3.513" transform="translate(-37.563 -305.139)" fill="#afafaf"/>
          <path id="Trazado_190994" data-name="Trazado 190994" d="M68.356,341.161a42.241,42.241,0,0,0-11.891-1.5c-7.489,0-13.818,1.488-15.806,3.513A1.206,1.206,0,0,1,40,342.1v-1.22c0-2.7,7.367-4.879,16.465-4.879a52.412,52.412,0,0,1,6.574.4l.293.6a.956.956,0,0,0,1.281.433l.012-.006,1.512-.744Z" transform="translate(-33.902 -284.831)" fill="#c4c4c4"/>
          <path id="Trazado_190995" data-name="Trazado 190995" d="M93.988,68.511C90.536,68.181,86.645,68,82.548,68a118.57,118.57,0,0,0-12.148.585,15.054,15.054,0,0,1,5.061-4.037,15.237,15.237,0,0,1,18.526,3.964" transform="translate(-59.667 -53.417)" fill="#f4f2f2"/>
          <path id="Trazado_190996" data-name="Trazado 190996" d="M77.528,99.462a15.517,15.517,0,0,1,1.451,4.757,111.829,111.829,0,0,0-14.806-.9,111,111,0,0,0-15.453.988,15.152,15.152,0,0,1,3.293-7.72h.012A118.57,118.57,0,0,1,64.173,96c4.1,0,7.989.183,11.44.512a15.135,15.135,0,0,1,1.915,2.952" transform="translate(-41.292 -81.417)" fill="#f4f2f2"/>
          <path id="Trazado_190997" data-name="Trazado 190997" d="M78.228,144.894a15.191,15.191,0,0,1-.781,7.208,116.349,116.349,0,0,0-14.026-.793,114.247,114.247,0,0,0-14.636.878,15.131,15.131,0,0,1-.829-7.208h.012a111,111,0,0,1,15.453-.988A111.829,111.829,0,0,1,78.228,144.894Z" transform="translate(-40.541 -122.092)" fill="#f4f2f2"/>
          <path id="Trazado_190998" data-name="Trazado 190998" d="M54.714,194.35a14.129,14.129,0,0,1-.634-1.476A114.219,114.219,0,0,1,68.716,192a116.352,116.352,0,0,1,14.026.793,15.186,15.186,0,0,1-4.964,6.842h-.012c-2.817-.207-5.866-.317-9.05-.317-3.415,0-6.659.122-9.635.354h-.012A15.171,15.171,0,0,1,54.714,194.35Z" transform="translate(-45.835 -162.779)" fill="#f4f2f2"/>
          <path id="Trazado_190999" data-name="Trazado 190999" d="M105.565,240.319a14.838,14.838,0,0,1-2.6,1.634,15.245,15.245,0,0,1-16.087-1.6c2.976-.232,6.22-.354,9.635-.354,3.183,0,6.232.11,9.05.317" transform="translate(-73.635 -203.467)" fill="#f4f2f2"/>
          <path id="Trazado_191000" data-name="Trazado 191000" d="M46.338,74.51a19.27,19.27,0,0,1-21.892-8.5c-.281-.463-.549-.939-.793-1.439A19.24,19.24,0,0,1,57.375,46.1c.281.451.537.915.781,1.4a19.188,19.188,0,0,1-5.879,24.039,18.089,18.089,0,0,1-2.842,1.744,20.153,20.153,0,0,1-3.1,1.22m6.33-28.186a15.237,15.237,0,0,0-18.526-3.964A15.054,15.054,0,0,0,29.08,46.4h-.012a15.152,15.152,0,0,0-3.293,7.72h-.012a15.131,15.131,0,0,0,.829,7.208,14.13,14.13,0,0,0,.634,1.476,15.171,15.171,0,0,0,4.354,5.318h.012a15.245,15.245,0,0,0,16.087,1.6,14.839,14.839,0,0,0,2.6-1.634h.012a15.281,15.281,0,0,0,5.744-14.05,15.517,15.517,0,0,0-1.451-4.757,15.134,15.134,0,0,0-1.915-2.952" transform="translate(-18.347 -31.231)" fill="#7070f2"/>
          <path id="Trazado_191001" data-name="Trazado 191001" d="M189.552,264.814l2.476,5.013-5.952,2.939-2.476-5a20.153,20.153,0,0,0,3.1-1.22,18.088,18.088,0,0,0,2.842-1.744Z" transform="translate(-155.609 -224.486)" fill="#5e5eea"/>
          <path id="Trazado_191002" data-name="Trazado 191002" d="M195.92,292.3a.945.945,0,0,1,1.1.171.731.731,0,0,1,.2.268l.915,1.829a.967.967,0,0,1-.439,1.293l-.671.329-.842.427-5.952,2.939-1.512.744a.956.956,0,0,1-1.287-.415l-.006-.012-.293-.6-.622-1.244a.976.976,0,0,1,.439-1.293l1.512-.756,5.952-2.939Z" transform="translate(-157.99 -247.706)" fill="#7070f2"/>
          <path id="Trazado_191003" data-name="Trazado 191003" d="M222.124,330.776l5.427,10.977,1.085,2.2a2.5,2.5,0,0,1-1.122,3.342l-1.476.72a2.471,2.471,0,0,1-3.322-1.083l-.019-.039-1.342-2.7-6.635-13.416-1.061-2.159-2.22-4.476,5.952-2.939.842,1.707,1.634,3.305,1.451,2.939Z" transform="translate(-179.205 -272.288)" fill="#5e5eea"/>
          <path id="Trazado_191004" data-name="Trazado 191004" d="M109.815,66.036a19.027,19.027,0,0,1-5.1,5.549,17.307,17.307,0,0,1-2.317,1.464l-.11-.232-.012-.012a19.025,19.025,0,0,0,5.1-5.549,19.22,19.22,0,0,0,.781-18.49c-.244-.488-.5-.951-.781-1.4A19.232,19.232,0,0,0,83.52,39.522c.415-.244.854-.476,1.293-.7a19.234,19.234,0,0,1,25,7.318c.281.451.537.915.781,1.4A19.22,19.22,0,0,1,109.815,66.036Z" transform="translate(-70.787 -31.27)" fill="#5858dd"/>
          <path id="Trazado_191005" data-name="Trazado 191005" d="M212.165,269.827l-2.439,1.207-2.366-4.769a17.3,17.3,0,0,0,2.317-1.464l.012.012Z" transform="translate(-175.747 -224.486)" fill="#5b52d8"/>
          <path id="Trazado_191006" data-name="Trazado 191006" d="M228.6,295.864l-.671.329-.842.427-.866.415a.95.95,0,0,0,.378-1.244l-.915-1.829a.731.731,0,0,0-.2-.268.945.945,0,0,0-1.1-.171l-1.512.744v-.012l2.439-1.207,1.512-.744a.945.945,0,0,1,1.1.171.731.731,0,0,1,.2.268l.915,1.829a.967.967,0,0,1-.439,1.293" transform="translate(-188.901 -247.706)" fill="#5858dd"/>
          <path id="Trazado_191007" data-name="Trazado 191007" d="M247.042,347.29l-1.476.72a1.824,1.824,0,0,1-.488.183,2.481,2.481,0,0,0,.646-3.025l-1.085-2.2L239.212,332l-.8-1.622-1.451-2.939-1.634-3.305-.842-1.707.842-.427.671-.329c.012,0,.012-.012.024-.024l.9-.439.842,1.707,1.634,3.305,1.451,2.939.8,1.622,5.427,10.977,1.085,2.2A2.5,2.5,0,0,1,247.042,347.29Z" transform="translate(-198.733 -272.288)" fill="#5b52d8"/>
          <path id="Trazado_191008" data-name="Trazado 191008" d="M21.719,469.533c.09,1.444,1.972,2.355,1.882.91s-1.972-2.359-1.882-.91" transform="translate(-18.405 -397.385)" fill="gray"/>
          <path id="Trazado_191009" data-name="Trazado 191009" d="M41.557,78.65a16.321,16.321,0,0,0,4.7,5.744c.018.013.04.018.059.032a16.349,16.349,0,0,0,17.327,1.7,15.952,15.952,0,0,0,2.766-1.738c.017-.012.038-.016.055-.029a16.51,16.51,0,0,0,6.2-15.186,16.777,16.777,0,0,0-1.576-5.132,16.483,16.483,0,0,0-2.031-3.134.965.965,0,0,0-.084-.1,16.376,16.376,0,0,0-19.952-4.226A16.19,16.19,0,0,0,43.66,60.83c-.018.017-.033.037-.051.056l-.015.016c-.013.015-.032.021-.044.037A16.321,16.321,0,0,0,40,69.209c-.008.021-.016.043-.022.065a16.45,16.45,0,0,0,.894,7.784A15.4,15.4,0,0,0,41.557,78.65Zm3.6-15.776c3.539-.349,7.395-.532,11.493-.532,3.76,0,7.345.165,10.793.467a13.255,13.255,0,0,1,2.487,5.111,117.984,117.984,0,0,0-13.279-.7A116.711,116.711,0,0,0,42.717,68,13.863,13.863,0,0,1,45.16,62.874ZM56.653,74.538a117.231,117.231,0,0,0-13.766.773,13.989,13.989,0,0,1-.55-4.8,111.978,111.978,0,0,1,14.316-.854,113.138,113.138,0,0,1,13.66.768,14,14,0,0,1-.518,4.8,119.787,119.787,0,0,0-13.142-.694M51.164,84.41c1.779-.073,3.61-.115,5.488-.115,1.657,0,3.282.034,4.879.094a13.892,13.892,0,0,1-10.371.021Zm14.125-2.266c-2.745-.189-5.642-.288-8.636-.288-3.253,0-6.373.112-9.228.326A13.853,13.853,0,0,1,43.8,77.669a116.247,116.247,0,0,1,12.855-.692,118.825,118.825,0,0,1,12.238.61,13.929,13.929,0,0,1-3.605,4.557ZM50.115,58.764a13.939,13.939,0,0,1,14.692,1.394q-3.926-.249-8.154-.255c-3.106,0-6.076.1-8.847.3a14.02,14.02,0,0,1,2.31-1.44" transform="translate(-33.772 -46.541)"/>
          <path id="Trazado_191010" data-name="Trazado 191010" d="M76.837,68.3V26.9a2.515,2.515,0,0,0-2.512-2.512H73.178V6.1c0-1.349-1-3.248-5.753-4.635A32.3,32.3,0,0,0,62.367.438,51.078,51.078,0,0,0,55.493,0C48.844,0,41.8,1.163,39.028,3.666,36.258,1.163,29.213,0,22.563,0,14.046,0,4.879,1.907,4.879,6.1v8.479A20.392,20.392,0,0,0,2.106,25a2.523,2.523,0,0,0-.887,1.915V68.3A1.22,1.22,0,0,0,0,69.519v.915c0,4.208,2.736,7.623,6.1,7.623h65.86c3.363,0,6.1-3.415,6.1-7.623v-.915a1.22,1.22,0,0,0-1.22-1.22M74.4,26.9V68.3H49.1l-4.222-8.537H70.739a2.258,2.258,0,0,0,.992-.229l.041-.017c.022-.011.051-.016.072-.028a2.439,2.439,0,0,0,1.334-2.165V26.868ZM47.775,73.96l-1.486.724a1.256,1.256,0,0,1-1.692-.543l-.016-.032L35.54,55.837l-.018-.038-1.655-3.342L37.631,50.6l.273.554,3.076,6.234,7.349,14.866A1.283,1.283,0,0,1,47.775,73.96Zm-14.314-31.8,1.325,2.683-3.764,1.867L29.7,44.029a20.151,20.151,0,0,0,1.932-.823,19.656,19.656,0,0,0,1.833-1.044M70.739,56.482c-3.017-1.742-8.678-2.819-15.245-2.819A41.715,41.715,0,0,0,42.726,55.4l-.439-.888c2.847-1.272,7.83-2.067,13.206-2.067,10.058,0,15.245,2.561,15.245,3.659Zm-4.5.84H44.8a43.208,43.208,0,0,1,10.7-1.22,42.655,42.655,0,0,1,10.741,1.22M38.243,45.858l.688,1.375L30.408,51.45l-.177-.357v-.009l-.506-1.012ZM7.318,56.1c0-1.1,5.187-3.659,15.245-3.659a51.318,51.318,0,0,1,5.782.333A2.152,2.152,0,0,0,29.6,53.865a2.208,2.208,0,0,0,.7.113,2.123,2.123,0,0,0,.968-.233l.42-.207.5,1.014a48.76,48.76,0,0,0-9.619-.888c-6.568,0-12.228,1.077-15.245,2.819ZM27.334,44.76l1.5,3.03L28.421,48a2.174,2.174,0,0,0-1.2,2.231C25.7,50.094,24.149,50,22.563,50c-5.824,0-11.952.893-15.245,2.8V38.513A20.368,20.368,0,0,0,27.334,44.76ZM22.563,56.1a43.454,43.454,0,0,1,10.718,1.22H11.822A42.655,42.655,0,0,1,22.563,56.1ZM63.421,3.079q1.288.216,2.439.51V22.668l-.357-.357a1.22,1.22,0,0,0-1.725,0l-.357.357Zm-40.858-.64C32.621,2.439,37.809,5,37.809,6.1V9.757a1.22,1.22,0,1,0,2.439,0V6.1c0-1.1,5.187-3.659,15.245-3.659a49.415,49.415,0,0,1,5.488.312v10.94a53.088,53.088,0,0,0-5.488-.276,46.472,46.472,0,0,0-10.664,1.132,1.22,1.22,0,1,0,.536,2.38l.036-.009a44.683,44.683,0,0,1,10.092-1.064,50.078,50.078,0,0,1,5.488.291v4.863a53.088,53.088,0,0,0-5.488-.276,46.472,46.472,0,0,0-10.664,1.132,1.22,1.22,0,1,0,.536,2.38l.036-.009a44.683,44.683,0,0,1,10.092-1.064,50.078,50.078,0,0,1,5.488.291v2.148a1.22,1.22,0,0,0,2.082.862L64.64,24.9l1.577,1.577a1.22,1.22,0,0,0,2.082-.862V4.347c1.929.776,2.439,1.514,2.439,1.751V52.8C67.446,50.9,61.317,50,55.493,50c-5.8,0-11.086.874-14.287,2.317l-.959-1.936V49.3a2.2,2.2,0,0,0,.976-2.927l-.892-1.778c-.026-.059-.061-.1-.09-.16V40.248a1.22,1.22,0,0,0-2.439,0v3.171a1.952,1.952,0,0,0-.417.14l-.418.207-1.512-3.061a20.137,20.137,0,0,0,4.611-5.252,20.431,20.431,0,0,0,.828-19.664c-.271-.542-.544-1.033-.826-1.484A20.429,20.429,0,0,0,7.318,11.221V6.1c0-1.1,5.187-3.659,15.245-3.659M7.142,15.521A18.035,18.035,0,0,1,38,15.575c.261.417.5.854.722,1.3a17.863,17.863,0,0,1,1.817,6.586A18.2,18.2,0,0,1,37.992,34.19a17.734,17.734,0,0,1-4.792,5.2,16.925,16.925,0,0,1-2.651,1.626,18.856,18.856,0,0,1-2.9,1.143A18.035,18.035,0,0,1,7.14,34.2c-.261-.433-.511-.876-.74-1.342a18.025,18.025,0,0,1,.743-17.338ZM3.72,32.793c.16.379.306.762.488,1.134.206.423.438.821.67,1.22V57.323a2.409,2.409,0,0,0,1.272,2.132c.033.018.072.026.106.043a1,1,0,0,0,.1.041,2.317,2.317,0,0,0,.964.223H34.759l5.432,10.977H35.369A2.439,2.439,0,0,0,32.93,68.3H3.659ZM2.447,70.739H32.93a2.439,2.439,0,0,0,2.439,2.439H41.4l1,2.02a3.562,3.562,0,0,0,.244.42H6.1c-1.911,0-3.537-2.2-3.652-4.879m69.512,4.879H49.621a3.725,3.725,0,0,0,.9-4.444l-.216-.434h25.3c-.115,2.675-1.74,4.879-3.652,4.879" transform="translate(0 -0.054)"/>
          <path id="Trazado_191011" data-name="Trazado 191011" d="M289.527,187.481a44.682,44.682,0,0,1,10.092-1.064,42.169,42.169,0,0,1,11.189,1.342,1.2,1.2,0,0,0,.337.049,1.22,1.22,0,0,0,.338-2.393,44.647,44.647,0,0,0-11.863-1.437,46.471,46.471,0,0,0-10.664,1.132,1.22,1.22,0,0,0,.572,2.371Z" transform="translate(-244.126 -155.981)"/>
          <path id="Trazado_191012" data-name="Trazado 191012" d="M289.527,235.481a44.682,44.682,0,0,1,10.092-1.064,42.168,42.168,0,0,1,11.189,1.342,1.2,1.2,0,0,0,.337.049,1.22,1.22,0,0,0,.338-2.393,44.647,44.647,0,0,0-11.863-1.437,46.472,46.472,0,0,0-10.664,1.132,1.22,1.22,0,0,0,.572,2.371Z" transform="translate(-244.126 -196.663)"/>
        </g>
      </g>
    </g>
  </g>
</svg>
