<svg xmlns="http://www.w3.org/2000/svg" xmlns:xlink="http://www.w3.org/1999/xlink" width="78" height="78" viewBox="0 0 78 78">
  <defs>
    <clipPath id="clip-path">
      <rect id="Rect치ngulo_42182" data-name="Rect치ngulo 42182" width="78" height="78" fill="none"/>
    </clipPath>
  </defs>
  <g id="Grupo_149668" data-name="Grupo 149668" transform="translate(4096 10560)">
    <g id="Grupo_142064" data-name="Grupo 142064" transform="translate(-4721 -11818)">
      <rect id="Rect치ngulo_42170" data-name="Rect치ngulo 42170" width="78" height="78" transform="translate(625 1258)" fill="none"/>
      <g id="Grupo_142063" data-name="Grupo 142063" transform="translate(625 1258)">
        <g id="Grupo_142062" data-name="Grupo 142062" clip-path="url(#clip-path)">
          <path id="Trazado_191013" data-name="Trazado 191013" d="M20.561,218.386l4.481,9.4-.011.019a38.048,38.048,0,0,1-19.012-31.8C6,195.625,6,195.235,6,194.845v-.008h.006l5.862-8.766a3.526,3.526,0,0,1,5.861,0l5.862,8.766h.031v.047c0,.378.012.755.034,1.126a20.465,20.465,0,0,0,10.19,16.526l-10.382.82a3.524,3.524,0,0,0-2.9,5.03Z" transform="translate(-5.068 -155.837)" fill="#f5d367"/>
          <path id="Trazado_191014" data-name="Trazado 191014" d="M317.711,251a38.044,38.044,0,0,1-18.882,32.883l-.129.078-.022.011-10.5-.763a3.525,3.525,0,0,1-2.913-5.058l4.595-9.452s.131-.076.132-.078A20.449,20.449,0,0,0,300.087,251l5.884,8.692a3.525,3.525,0,0,0,5.836,0Z" transform="translate(-240.644 -212)" fill="#f17b89"/>
          <path id="Trazado_191015" data-name="Trazado 191015" d="M344.61,71.754l-5.9,8.695a3.525,3.525,0,0,1-5.836,0l-5.884-8.692c0-.012,0-.267,0-.267A20.453,20.453,0,0,0,316.76,54.052l10.418-.782a3.526,3.526,0,0,0,2.918-5.034l-4.518-9.456a38.047,38.047,0,0,1,19.029,32.707s0,.244,0,.267" transform="translate(-267.542 -32.754)" fill="#cfdce5"/>
          <path id="Trazado_191016" data-name="Trazado 191016" d="M140.384,380.182a38.1,38.1,0,0,1-38.072,0l.011-.019-4.481-9.4a3.524,3.524,0,0,1,2.9-5.03l10.382-.82h0l.071.04a20.4,20.4,0,0,0,20.367-.04l-4.595,9.452a3.525,3.525,0,0,0,2.913,5.058Z" transform="translate(-82.349 -308.211)" fill="#74d1d1"/>
          <path id="Trazado_191017" data-name="Trazado 191017" d="M38.449,44.686l-4.6,9.366-.115.07a20.454,20.454,0,0,0-10.11,17.632h-.031l-5.862-8.766a3.526,3.526,0,0,0-5.861,0L6.006,71.754H6a37.881,37.881,0,0,1,5.148-19.129A38.266,38.266,0,0,1,24.684,38.984l.292-.172h0l.053-.031.022.036,10.5.8a3.525,3.525,0,0,1,2.9,5.068" transform="translate(-5.067 -32.754)" fill="#a9defc"/>
          <path id="Trazado_191018" data-name="Trazado 191018" d="M168.153,25.584l-10.418.782-.045-.026s-.284-.16-.4-.222a20.407,20.407,0,0,0-19.994.249L141.9,17a3.525,3.525,0,0,0-2.9-5.068l-10.5-.8-.022-.036a38.119,38.119,0,0,1,37.589-.273c.014.006.028.016.042.023.126.068.418.238.441.25l4.518,9.456a3.526,3.526,0,0,1-2.918,5.034" transform="translate(-108.517 -5.068)" fill="#e9986b"/>
          <path id="Trazado_191019" data-name="Trazado 191019" d="M188.9,174.4h-1.722a10.669,10.669,0,0,0-1.448-3.495l1.218-1.218a1.462,1.462,0,0,0,0-2.068h0l-1.179-1.179a1.462,1.462,0,0,0-2.068,0l-1.218,1.218a10.671,10.671,0,0,0-3.495-1.448v-1.722a1.462,1.462,0,0,0-1.462-1.462h-1.668a1.462,1.462,0,0,0-1.462,1.462v1.722a10.669,10.669,0,0,0-3.495,1.448l-1.218-1.218a1.462,1.462,0,0,0-2.068,0l-1.179,1.179a1.462,1.462,0,0,0,0,2.068l1.218,1.218a10.672,10.672,0,0,0-1.448,3.495h-1.722a1.462,1.462,0,0,0-1.462,1.462v1.668a1.462,1.462,0,0,0,1.462,1.462h1.722a10.671,10.671,0,0,0,1.448,3.495l-1.218,1.218a1.462,1.462,0,0,0,0,2.068l1.179,1.179a1.462,1.462,0,0,0,2.068,0l1.218-1.218a10.67,10.67,0,0,0,3.495,1.448V188.9a1.462,1.462,0,0,0,1.462,1.462h1.668a1.462,1.462,0,0,0,1.462-1.462v-1.722a10.669,10.669,0,0,0,3.495-1.448l1.218,1.218a1.462,1.462,0,0,0,2.068,0l1.179-1.179a1.462,1.462,0,0,0,0-2.068h0l-1.218-1.218a10.669,10.669,0,0,0,1.448-3.495H188.9a1.462,1.462,0,0,0,1.462-1.462v-1.668A1.462,1.462,0,0,0,188.9,174.4Z" transform="translate(-137.692 -137.692)" fill="#cfdce5"/>
          <path id="Trazado_191020" data-name="Trazado 191020" d="M212.845,205.8a7.024,7.024,0,1,1-7.019,7.024,7.021,7.021,0,0,1,7.019-7.024" transform="translate(-173.845 -173.819)" fill="#f7f5fb"/>
          <path id="Trazado_191021" data-name="Trazado 191021" d="M20.565,218.75l4.481,9.4-.011.019a38.048,38.048,0,0,1-19.012-31.8C6.009,195.989,6,195.6,6,195.209V195.2H6.01l5.862-8.766a3.471,3.471,0,0,1,2.25-1.5,77.507,77.507,0,0,0,14.893,28.346l-5.547.438a3.524,3.524,0,0,0-2.9,5.03Z" transform="translate(-5.071 -156.202)" fill="#e2c061"/>
          <path id="Trazado_191022" data-name="Trazado 191022" d="M129.642,386.448a38.184,38.184,0,0,1-27.326-4.191l.011-.019-4.481-9.4a3.524,3.524,0,0,1,2.9-5.03l5.547-.438a78.016,78.016,0,0,0,23.346,19.081" transform="translate(-82.352 -310.286)" fill="#6cbcba"/>
          <path id="Trazado_191023" data-name="Trazado 191023" d="M14.122,129.437a3.472,3.472,0,0,0-2.25,1.5L6.01,139.7H6a37.881,37.881,0,0,1,5.148-19.129q.4-.683.822-1.346a77.3,77.3,0,0,0,2.149,10.21" transform="translate(-5.071 -100.702)" fill="#a2d4ea"/>
          <path id="Trazado_191024" data-name="Trazado 191024" d="M19.962,223.672a.928.928,0,0,1-.466-.126A38.98,38.98,0,0,1,.019,190.97c-.013-.352-.019-.745-.019-1.193a.939.939,0,0,1,.2-.577l5.828-8.715a4.458,4.458,0,0,1,7.411,0l5.751,8.6a.929.929,0,0,1,.3.685v.047c0,.367.012.729.033,1.072a19.473,19.473,0,0,0,9.727,15.774.932.932,0,0,1-.394,1.736l-10.382.82a2.592,2.592,0,0,0-2.136,3.7l4.481,9.4a.933.933,0,0,1-.036.87l-.011.019A.932.932,0,0,1,19.962,223.672Zm-18.1-33.613c0,.312.008.591.017.848a36.877,36.877,0,0,0,15.873,29.326l-3.1-6.516h0a4.456,4.456,0,0,1,3.672-6.36l7.7-.609a21.3,21.3,0,0,1-8.368-15.755c-.017-.287-.028-.586-.033-.892l-5.739-8.582a2.594,2.594,0,0,0-4.311,0Z" transform="translate(0 -150.768)"/>
          <path id="Trazado_191025" data-name="Trazado 191025" d="M293.611,279.835l-.068,0-10.5-.763a4.457,4.457,0,0,1-3.684-6.4l4.594-9.452a.94.94,0,0,1,.179-.252,1.138,1.138,0,0,1,.274-.2l.033-.019.011-.007a19.611,19.611,0,0,0,9.633-16.818.932.932,0,0,1,1.7-.523l5.884,8.692a2.555,2.555,0,0,0,2.145,1.139h0a2.557,2.557,0,0,0,2.146-1.137l5.9-8.695a.932.932,0,0,1,1.7.524,38.976,38.976,0,0,1-19.344,33.688l-.025.015-.081.049c-.025.016-.05.03-.077.043l-.01,0A.931.931,0,0,1,293.611,279.835Zm.559-.186h0Zm0,0h0Zm-8.661-15.357-4.472,9.2a2.593,2.593,0,0,0,2.143,3.72l10.207.742a37.316,37.316,0,0,0,18.178-28.777l-4.057,5.975a4.454,4.454,0,0,1-3.689,1.954h0a4.452,4.452,0,0,1-3.688-1.958l-4.363-6.445A21.516,21.516,0,0,1,285.511,264.29Z" transform="translate(-235.576 -206.931)"/>
          <path id="Trazado_191026" data-name="Trazado 191026" d="M330.72,77.86h0a4.451,4.451,0,0,1-3.688-1.958l-5.884-8.692a.932.932,0,0,1-.16-.523l0-.256a19.624,19.624,0,0,0-9.758-16.64.932.932,0,0,1,.4-1.736l10.418-.782a2.594,2.594,0,0,0,2.146-3.7l-4.518-9.456a.932.932,0,0,1,1.308-1.209,38.98,38.98,0,0,1,19.495,33.508s0,.249,0,.273a.932.932,0,0,1-.161.524l-5.9,8.7A4.454,4.454,0,0,1,330.72,77.86ZM322.846,66.4l5.727,8.46A2.556,2.556,0,0,0,330.718,76h0a2.558,2.558,0,0,0,2.146-1.137l5.74-8.453a37.317,37.317,0,0,0-15.85-30.154l3.113,6.515a4.458,4.458,0,0,1-3.69,6.366l-7.728.58a21.567,21.567,0,0,1,5.38,6.033A21.311,21.311,0,0,1,322.846,66.4Z" transform="translate(-262.474 -27.687)"/>
          <path id="Trazado_191027" data-name="Trazado 191027" d="M116.28,381.142a38.978,38.978,0,0,1-19.5-5.222.933.933,0,0,1-.434-.567l0-.01-4.408-9.251a4.457,4.457,0,0,1,3.672-6.36l10.382-.82a.938.938,0,0,1,.534.118l.071.04a19.467,19.467,0,0,0,19.44-.035.932.932,0,0,1,1.306,1.214l-4.595,9.452a2.593,2.593,0,0,0,2.143,3.72l10.5.763a.932.932,0,0,1,.4,1.737A38.973,38.973,0,0,1,116.28,381.142Zm-18.293-6.677a37.185,37.185,0,0,0,33.986,1.34l-7.222-.525a4.457,4.457,0,0,1-3.684-6.4l3.4-7a21.337,21.337,0,0,1-18.621-1.091l-10.1.8a2.592,2.592,0,0,0-2.136,3.7Z" transform="translate(-77.28 -303.142)"/>
          <path id="Trazado_191028" data-name="Trazado 191028" d="M18.559,67.616h-.031a.933.933,0,0,1-.775-.414l-5.862-8.766a2.594,2.594,0,0,0-4.311,0L1.717,67.2A.936.936,0,0,1,0,66.684,38.86,38.86,0,0,1,8.147,42.831a.932.932,0,1,1,1.474,1.142A36.968,36.968,0,0,0,2.013,63.406L6.03,57.4a4.458,4.458,0,0,1,7.41,0l4.368,6.531A21.519,21.519,0,0,1,28.069,48.324l4.48-9.12a2.593,2.593,0,0,0-2.13-3.728l-10.283-.785-.041.024a36.829,36.829,0,0,0-3.241,2.161.932.932,0,1,1-1.116-1.494,38.654,38.654,0,0,1,3.408-2.272l.293-.173.024-.014.058-.033a.931.931,0,0,1,.764-.059l10.276.785a4.457,4.457,0,0,1,3.662,6.409l-4.6,9.367a.933.933,0,0,1-.36.39l-.106.065a19.622,19.622,0,0,0-9.664,16.836A.932.932,0,0,1,18.559,67.616Z" transform="translate(-0.003 -27.684)"/>
          <path id="Trazado_191029" data-name="Trazado 191029" d="M68.316,70.52a.932.932,0,0,1-.676-1.574c.463-.488.945-.971,1.434-1.434a.932.932,0,1,1,1.283,1.353c-.464.44-.923.9-1.363,1.363a.93.93,0,0,1-.677.291" transform="translate(-56.914 -56.807)"/>
          <path id="Trazado_191030" data-name="Trazado 191030" d="M132.23,22.231a.932.932,0,0,1-.837-1.343l4.6-9.366a2.593,2.593,0,0,0-2.13-3.728l-10.5-.8a.933.933,0,0,1-.725-.444l-.022-.036a.932.932,0,0,1,.311-1.281l.018-.011a39.052,39.052,0,0,1,38.494-.29l.062.034c.091.05.247.139.35.2l.083.047a.894.894,0,0,1,.392.415l4.518,9.456a4.458,4.458,0,0,1-3.69,6.366l-10.418.782a.932.932,0,0,1-.549-.13l-.027-.016c-.034-.019-.281-.158-.384-.215A19.476,19.476,0,0,0,132.7,22.1.928.928,0,0,1,132.23,22.231Zm10.219-4.607a21.348,21.348,0,0,1,10.223,2.608l.208.116,10.136-.76h0a2.593,2.593,0,0,0,2.146-3.7l-4.393-9.193-.171-.1-.028-.016-.024-.013a37.2,37.2,0,0,0-33.875-1.192l7.334.56a4.458,4.458,0,0,1,3.662,6.409l-3.393,6.907A21.363,21.363,0,0,1,142.449,17.624ZM160.609,6.6l.015.007Zm0,0h0Z" transform="translate(-103.449 -0.001)"/>
          <path id="Trazado_191031" data-name="Trazado 191031" d="M172.459,186.226h-1.668a2.4,2.4,0,0,1-2.394-2.395v-1a11.55,11.55,0,0,1-2.417-1l-.7.7a2.4,2.4,0,0,1-3.386,0l-1.179-1.179a2.4,2.4,0,0,1,0-3.386l.7-.7a11.566,11.566,0,0,1-1-2.417h-1a2.4,2.4,0,0,1-2.395-2.395V170.79a2.4,2.4,0,0,1,2.395-2.395h1a11.561,11.561,0,0,1,1-2.417l-.7-.7a2.4,2.4,0,0,1,0-3.386l1.179-1.179a2.394,2.394,0,0,1,3.386,0h0l.7.7a11.551,11.551,0,0,1,2.417-1v-1a2.4,2.4,0,0,1,2.394-2.394h1.668a2.4,2.4,0,0,1,2.395,2.394v1a11.549,11.549,0,0,1,2.417,1l.7-.7a2.4,2.4,0,0,1,3.386,0l1.179,1.179a2.394,2.394,0,0,1,0,3.386h0l-.7.7a11.537,11.537,0,0,1,1,2.417h1a2.4,2.4,0,0,1,2.395,2.395v1.668a2.4,2.4,0,0,1-2.395,2.394h-1a11.541,11.541,0,0,1-1,2.417l.7.7a2.394,2.394,0,0,1,0,3.386h0l-1.179,1.179a2.4,2.4,0,0,1-3.386,0l-.7-.7a11.547,11.547,0,0,1-2.417,1v1a2.4,2.4,0,0,1-2.395,2.395m-6.625-6.5a.931.931,0,0,1,.5.148,9.713,9.713,0,0,0,3.19,1.321.932.932,0,0,1,.734.911v1.722a.531.531,0,0,0,.53.53h1.668a.531.531,0,0,0,.53-.53V182.11a.932.932,0,0,1,.734-.911,9.712,9.712,0,0,0,3.19-1.321.932.932,0,0,1,1.163.125l1.218,1.218a.531.531,0,0,0,.75,0l1.179-1.179a.53.53,0,0,0,0-.749h0L180,178.074a.932.932,0,0,1-.125-1.163,9.715,9.715,0,0,0,1.321-3.19.932.932,0,0,1,.911-.734h1.722a.531.531,0,0,0,.53-.53V170.79a.531.531,0,0,0-.53-.53h-1.722a.932.932,0,0,1-.911-.734,9.715,9.715,0,0,0-1.321-3.19.932.932,0,0,1,.125-1.163l1.218-1.218a.53.53,0,0,0,0-.749h0l-1.179-1.179a.543.543,0,0,0-.749,0l-1.218,1.218a.932.932,0,0,1-1.163.125,9.715,9.715,0,0,0-3.19-1.321.932.932,0,0,1-.734-.911v-1.722a.531.531,0,0,0-.53-.53h-1.668a.53.53,0,0,0-.53.53v1.722a.932.932,0,0,1-.734.911,9.716,9.716,0,0,0-3.19,1.321.932.932,0,0,1-1.163-.125l-1.218-1.218a.542.542,0,0,0-.749,0l-1.179,1.179a.53.53,0,0,0,0,.749l1.218,1.218a.933.933,0,0,1,.125,1.163,9.713,9.713,0,0,0-1.321,3.19.932.932,0,0,1-.911.734h-1.722a.531.531,0,0,0-.53.53v1.668a.53.53,0,0,0,.53.53h1.722a.933.933,0,0,1,.911.734,9.713,9.713,0,0,0,1.321,3.19.932.932,0,0,1-.125,1.163l-1.218,1.218a.53.53,0,0,0,0,.749l1.179,1.179a.53.53,0,0,0,.749,0L165.175,180A.931.931,0,0,1,165.834,179.73Z" transform="translate(-132.625 -132.624)"/>
          <path id="Trazado_191032" data-name="Trazado 191032" d="M207.725,215.707a7.956,7.956,0,1,1,7.951-7.961v0a7.963,7.963,0,0,1-7.951,7.956m0-14.048a6.092,6.092,0,1,0,6.087,6.1v0A6.1,6.1,0,0,0,207.725,201.66Z" transform="translate(-168.725 -168.751)"/>
          <path id="Trazado_191033" data-name="Trazado 191033" d="M42.6,56.2s4.434-6.743,10.138-10.421L51.65,44.265A40.788,40.788,0,0,0,41.168,54.979Z" transform="translate(-34.771 -37.387)"/>
        </g>
      </g>
    </g>
  </g>
</svg>
