<svg xmlns="http://www.w3.org/2000/svg" xmlns:xlink="http://www.w3.org/1999/xlink" width="692.89" height="274.764" viewBox="0 0 692.89 274.764">
  <defs>
    <clipPath id="clip-path">
      <rect id="Rectángulo_42204" data-name="Rectángulo 42204" width="44.104" height="47.41" fill="none"/>
    </clipPath>
    <clipPath id="clip-path-2">
      <rect id="Rectángulo_42211" data-name="Rectángulo 42211" width="39.651" height="47.41" fill="none"/>
    </clipPath>
    <clipPath id="clip-path-4">
      <rect id="Rectángulo_42209" data-name="Rectángulo 42209" width="33.184" height="46.304" fill="none"/>
    </clipPath>
    <clipPath id="clip-path-5">
      <rect id="Rectángulo_42219" data-name="Rectángulo 42219" width="42.482" height="47.41" fill="none"/>
    </clipPath>
    <clipPath id="clip-path-6">
      <rect id="Rectángulo_42225" data-name="Rectángulo 42225" width="47.41" height="47.41" fill="none"/>
    </clipPath>
  </defs>
  <g id="Grupo_149718" data-name="Grupo 149718" transform="translate(-312.315 7517)">
    <g id="Grupo_142132" data-name="Grupo 142132" transform="translate(312.315 -7517)">
      <path id="Trazado_190805" data-name="Trazado 190805" d="M51.042,75.054,0,163.461l51.041,88.407H153.125l51.043-88.407L153.125,75.054Z" transform="translate(0 -75.054)" fill="#fff59d"/>
      <text id="Estandar" transform="translate(53.71 96.861)" fill="#12263f" font-size="24" font-family="Roboto-Black, Roboto" font-weight="800"><tspan x="0" y="0">Estandar</tspan></text>
      <g id="Grupo_142115" data-name="Grupo 142115" transform="translate(78.769 109.773)">
        <rect id="Rectángulo_42205" data-name="Rectángulo 42205" width="47.41" height="47.41" fill="none"/>
        <g id="Grupo_142114" data-name="Grupo 142114" transform="translate(1.183)">
          <g id="Grupo_142113" data-name="Grupo 142113" clip-path="url(#clip-path)">
            <path id="Trazado_191072" data-name="Trazado 191072" d="M36.911,43.432a1.782,1.782,0,0,1,1.778,1.778V77.935a1.782,1.782,0,0,1-1.778,1.778H9.522a1.782,1.782,0,0,1-1.778-1.778V45.211a1.782,1.782,0,0,1,1.778-1.778H36.911Z" transform="translate(-7.004 -39.281)" fill="#a79ba7" fill-rule="evenodd"/>
            <path id="Trazado_191073" data-name="Trazado 191073" d="M281.608,43.432a1.782,1.782,0,0,1,1.778,1.778V77.935a1.782,1.782,0,0,1-1.778,1.778H278.3V43.432Z" transform="translate(-251.701 -39.281)" fill="#837683" fill-rule="evenodd"/>
            <path id="Trazado_191074" data-name="Trazado 191074" d="M58.8,69.316H34.453a.828.828,0,0,0-.826.826v29.68a.828.828,0,0,0,.826.826H58.8a.828.828,0,0,0,.826-.826V70.142a.828.828,0,0,0-.826-.826" transform="translate(-30.413 -62.69)" fill="#eceff1" fill-rule="evenodd"/>
            <path id="Trazado_191075" data-name="Trazado 191075" d="M280.086,69.316H278.3v31.333h1.784a.828.828,0,0,0,.826-.826V70.142A.828.828,0,0,0,280.086,69.316Z" transform="translate(-251.701 -62.69)" fill="#d1d1d6" fill-rule="evenodd"/>
            <path id="Trazado_191076" data-name="Trazado 191076" d="M98.81,10.31h3.082a3.024,3.024,0,0,1,5.878,0h3.082a.828.828,0,0,1,.826.826v2.971a.828.828,0,0,1-.826.826H98.81a.828.828,0,0,1-.826-.826V11.136A.828.828,0,0,1,98.81,10.31Z" transform="translate(-88.618 -7.234)" fill="#ecba78" fill-rule="evenodd"/>
            <path id="Trazado_191077" data-name="Trazado 191077" d="M110.852,32.186a.828.828,0,0,1,.826.826v2.971a.828.828,0,0,1-.826.826H98.81a.828.828,0,0,1-.826-.826h12.041a.828.828,0,0,0,.826-.826V32.186Z" transform="translate(-88.618 -29.11)" fill="#e3a76f" fill-rule="evenodd"/>
            <path id="Trazado_191078" data-name="Trazado 191078" d="M242.449,386.411a59.881,59.881,0,0,0,5.391,2.885l-3.05,6.611a.369.369,0,0,1-.655.031l-1.519-2.613-2.981.521a.369.369,0,0,1-.4-.519Z" transform="translate(-216.337 -349.476)" fill="#fe646f" fill-rule="evenodd"/>
            <path id="Trazado_191079" data-name="Trazado 191079" d="M242.449,386.411q.377.22.728.422l-3.016,6.493a.361.361,0,0,0,.042.38.366.366,0,0,0,.03.035l-.6.1a.369.369,0,0,1-.4-.519Zm2.452,9.255-1.446-2.488-.838.146,1.519,2.613a.369.369,0,0,0,.655-.031Z" transform="translate(-216.338 -349.476)" fill="#fd4755" fill-rule="evenodd"/>
            <path id="Trazado_191080" data-name="Trazado 191080" d="M359.207,374.982a59.842,59.842,0,0,1-5.391,2.885l3.05,6.611a.369.369,0,0,0,.655.031l1.519-2.613,2.981.521a.369.369,0,0,0,.4-.519Z" transform="translate(-319.997 -339.139)" fill="#fe646f" fill-rule="evenodd"/>
            <path id="Trazado_191081" data-name="Trazado 191081" d="M387.012,374.982q-.377.22-.728.422L389.3,381.9a.361.361,0,0,1-.042.38.382.382,0,0,1-.03.035l.6.1a.369.369,0,0,0,.4-.519Zm-2.452,9.255,1.446-2.488.838.146-1.519,2.613a.369.369,0,0,1-.655-.031Z" transform="translate(-347.802 -339.139)" fill="#fd4755" fill-rule="evenodd"/>
            <path id="Trazado_191082" data-name="Trazado 191082" d="M250.924,218.029c-.094-.532-.684-1.042-.784-1.611-.109-.619.349-1.368.151-1.916s-1.04-.845-1.344-1.372-.139-1.4-.516-1.85-1.264-.434-1.734-.827-.608-1.268-1.117-1.563-1.333.024-1.912-.188-1-.985-1.584-1.087-1.244.48-1.86.48-1.27-.582-1.861-.477-1.016.879-1.585,1.085-1.409-.106-1.912.185-.648,1.17-1.116,1.563-1.356.381-1.732.83-.208,1.319-.515,1.851-1.144.816-1.346,1.371.255,1.3.148,1.915c-.115.649-.9,1.225-.781,1.887.094.532.684,1.041.784,1.611.109.619-.349,1.368-.151,1.916s1.04.845,1.344,1.372.139,1.4.516,1.85,1.264.433,1.734.827.608,1.268,1.117,1.563,1.333-.024,1.912.188,1,.984,1.584,1.088,1.244-.48,1.86-.48,1.27.582,1.861.478,1.016-.879,1.585-1.085,1.409.106,1.912-.185.648-1.17,1.116-1.563,1.356-.381,1.732-.83.208-1.319.515-1.851,1.144-.816,1.346-1.37-.256-1.3-.148-1.915C250.257,219.267,251.04,218.69,250.924,218.029Z" transform="translate(-207.572 -187.759)" fill="#ffe177" fill-rule="evenodd"/>
            <path id="Trazado_191083" data-name="Trazado 191083" d="M304.668,218.029c-.094-.532-.684-1.041-.784-1.611-.109-.619.349-1.369.151-1.916s-1.04-.845-1.344-1.372-.139-1.4-.516-1.85-1.264-.434-1.734-.827-.608-1.268-1.117-1.563a2.5,2.5,0,0,0-1.254-.111.958.958,0,0,1,.331.111c.509.294.646,1.168,1.117,1.563s1.354.376,1.734.827.206,1.313.516,1.85,1.141.812,1.344,1.372-.26,1.3-.151,1.916c.1.569.69,1.079.784,1.611.117.661-.667,1.238-.781,1.887-.108.611.349,1.364.148,1.915s-1.039.84-1.346,1.37-.137,1.4-.515,1.851-1.261.434-1.732.83-.6,1.267-1.116,1.563a.943.943,0,0,1-.324.109,2.5,2.5,0,0,0,1.248-.109c.514-.3.648-1.17,1.116-1.563s1.356-.381,1.732-.83.207-1.319.515-1.851,1.144-.816,1.346-1.37-.256-1.3-.148-1.915c.114-.649.9-1.226.781-1.887m-7.031-9.27a1.192,1.192,0,0,1-.226-.056c-.574-.21-1-.985-1.584-1.087a1.285,1.285,0,0,0-.651.1c.453.241.83.814,1.311.99A3.271,3.271,0,0,0,297.637,208.758Zm-4.129-.751a3.232,3.232,0,0,0-1.4-.39.927.927,0,0,0-.267.094,4.006,4.006,0,0,0,1.2.384A1.5,1.5,0,0,0,293.509,208.007Zm-4.134.751a2.362,2.362,0,0,0-.44.02,2.483,2.483,0,0,0,.44-.02m-.433,18.8a2.359,2.359,0,0,0,.432.02,2.455,2.455,0,0,0-.432-.02m2.893,1.067a.916.916,0,0,0,.272.1c.431.076.918-.234,1.4-.393a1.455,1.455,0,0,0-.459-.088,3.958,3.958,0,0,0-1.209.383m3.337,0a1.3,1.3,0,0,0,.656.094c.591-.1,1.016-.879,1.585-1.085a1.2,1.2,0,0,1,.224-.056,3.271,3.271,0,0,0-1.148.056c-.48.174-.858.752-1.318.991" transform="translate(-261.316 -187.759)" fill="#ffd064" fill-rule="evenodd"/>
            <path id="Trazado_191084" data-name="Trazado 191084" d="M275.849,244.92a6.871,6.871,0,1,1-3.716,8.978,6.871,6.871,0,0,1,3.716-8.978" transform="translate(-245.646 -221.034)" fill="#ffc338" fill-rule="evenodd"/>
            <path id="Trazado_191085" data-name="Trazado 191085" d="M338.839,244.507c-.161,0-.32.006-.478.017a6.869,6.869,0,0,1,0,13.7c.158.011.317.017.478.017a6.869,6.869,0,0,0,0-13.739Z" transform="translate(-306.019 -221.136)" fill="#f5b829" fill-rule="evenodd"/>
            <path id="Trazado_191086" data-name="Trazado 191086" d="M296.027,290.833a1.1,1.1,0,1,1,1.554-1.554l1.578,1.578,3.782-3.837a1.1,1.1,0,0,1,1.555,1.546c-2.1,2.12-2.449,2.516-4.558,4.625a1.1,1.1,0,0,1-1.554,0Z" transform="translate(-267.44 -259.292)" fill="#eceff1" fill-rule="evenodd"/>
            <path id="Trazado_191087" data-name="Trazado 191087" d="M36.068,28.266,32.289,32.1a.768.768,0,0,1-.54.227h0a.765.765,0,0,1-.54-.223l-1.579-1.579a.335.335,0,0,0-.472,0,.337.337,0,0,0-.1.237.333.333,0,0,0,.1.236l2.357,2.358a.335.335,0,0,0,.472,0c1.2-1.2,1.813-1.829,2.528-2.562.526-.536,1.12-1.144,2.029-2.061a.346.346,0,0,0,.094-.236.34.34,0,0,0-.094-.234A.336.336,0,0,0,36.068,28.266Zm1.547-1.086a1.83,1.83,0,0,1,.549,1.314,1.852,1.852,0,0,1-.54,1.317c-.9.911-1.471,1.491-2.02,2.052-.715.736-1.336,1.372-2.542,2.574a1.867,1.867,0,0,1-2.636,0L28.07,32.081a1.864,1.864,0,0,1,2.636-2.636l1.035,1.034,3.243-3.289a1.86,1.86,0,0,1,2.632-.009m1.336,3.06a6.1,6.1,0,1,1-6.1-6.1,6.112,6.112,0,0,1,6.1,6.1m1.529,0a7.634,7.634,0,1,1-7.634-7.634,7.645,7.645,0,0,1,7.634,7.634m2.2-.011a1.683,1.683,0,0,1-.279.549,2.893,2.893,0,0,0-.495,1.059,2.986,2.986,0,0,0,.1,1.18,1.857,1.857,0,0,1,.081.584,1.815,1.815,0,0,1-.441.4,2.885,2.885,0,0,0-.832.833,3.035,3.035,0,0,0-.31,1.139,1.772,1.772,0,0,1-.126.582,1.84,1.84,0,0,1-.549.226,2.906,2.906,0,0,0-1.066.5,2.876,2.876,0,0,0-.675.96,1.8,1.8,0,0,1-.324.508,1.87,1.87,0,0,1-.589.022,2.95,2.95,0,0,0-1.179.107,2.825,2.825,0,0,0-.954.665,1.752,1.752,0,0,1-.486.371,1.8,1.8,0,0,1-.585-.182,2.844,2.844,0,0,0-1.12-.3h0a2.963,2.963,0,0,0-1.143.3,1.871,1.871,0,0,1-.562.182,1.809,1.809,0,0,1-.477-.368,2.9,2.9,0,0,0-.963-.67,2.25,2.25,0,0,0-.787-.12c-.135,0-.261.007-.387.012a1.849,1.849,0,0,1-.594-.024,1.868,1.868,0,0,1-.319-.5,2.833,2.833,0,0,0-.679-.963,2.91,2.91,0,0,0-1.062-.5,1.731,1.731,0,0,1-.553-.227,1.728,1.728,0,0,1-.126-.576,2.3,2.3,0,0,0-1.134-1.97,1.772,1.772,0,0,1-.45-.409.722.722,0,0,1,.013-.249.78.78,0,0,0,.117-.407.815.815,0,0,0,0-.105,2.65,2.65,0,0,0,.054-1,2.912,2.912,0,0,0-.5-1.085,2.373,2.373,0,0,1-.261-.468.743.743,0,0,0,.108-.328c.054-.09.113-.183.162-.254a2.958,2.958,0,0,0,.49-1.059,2.98,2.98,0,0,0-.1-1.179,1.87,1.87,0,0,1-.081-.585,1.851,1.851,0,0,1,.445-.4,2.924,2.924,0,0,0,.828-.834,2.16,2.16,0,0,0,.229-.636.767.767,0,0,0,.108-.39.758.758,0,0,0-.022-.176,1.544,1.544,0,0,1,.121-.518,1.815,1.815,0,0,1,.549-.225,2.979,2.979,0,0,0,1.071-.5,2.926,2.926,0,0,0,.67-.96,1.805,1.805,0,0,1,.324-.508,1.871,1.871,0,0,1,.589-.022c.162.008.333.015.5.009a.739.739,0,0,0,.211.031.775.775,0,0,0,.445-.14s.013,0,.018-.007a2.892,2.892,0,0,0,.958-.665,1.752,1.752,0,0,1,.481-.371.312.312,0,0,1,.1.008.76.76,0,0,0,.454.163c.009,0,.022.008.031.012a2.862,2.862,0,0,0,1.125.3,2.942,2.942,0,0,0,1.143-.3,1.846,1.846,0,0,1,.562-.182,1.741,1.741,0,0,1,.477.368,2.874,2.874,0,0,0,.963.67,2.914,2.914,0,0,0,1.174.108,1.848,1.848,0,0,1,.594.024,1.869,1.869,0,0,1,.319.5,2.9,2.9,0,0,0,.679.963,2.909,2.909,0,0,0,1.062.5,1.833,1.833,0,0,1,.558.227,1.848,1.848,0,0,1,.126.576,2.9,2.9,0,0,0,.31,1.142,2.845,2.845,0,0,0,.823.828,1.819,1.819,0,0,1,.445.409,1.907,1.907,0,0,1-.081.574,2.953,2.953,0,0,0-.1,1.191,2.984,2.984,0,0,0,.5,1.085A2.09,2.09,0,0,1,42.676,30.229ZM41.453,42.088,39.82,38.3a.709.709,0,0,0-.144.083,2,2,0,0,0-.319.514,2.446,2.446,0,0,1-.882,1.1A2.407,2.407,0,0,1,37.1,40.2a1.99,1.99,0,0,0-.616.023,1.967,1.967,0,0,0-.472.368l-.067.065,1.381,3.208,1.165-1.877a.757.757,0,0,1,.8-.346ZM30.193,41.026a4.865,4.865,0,0,1-.5-.425,2,2,0,0,0-.481-.374A1.964,1.964,0,0,0,28.6,40.2a2.413,2.413,0,0,1-1.381-.214,2.4,2.4,0,0,1-.873-1.091c-.022-.04-.045-.081-.063-.121L24.269,43.1l2.173-.381a.772.772,0,0,1,.8.37l1.107,1.91Zm-6.019-1.358.441-.944H3.239a.765.765,0,0,1-.765-.765V6.626a.764.764,0,0,1,.765-.765H8.628V4.916H2.546A1.016,1.016,0,0,0,1.529,5.93V38.653a1.015,1.015,0,0,0,1.017,1.014H24.174ZM10.157,6.936V3.842H13.3a.769.769,0,0,0,.747-.586,2.259,2.259,0,0,1,4.39,0,.763.763,0,0,0,.742.586h3.144V6.936ZM26.145,21.552a.764.764,0,0,1-.459.7,1.1,1.1,0,0,0,.328-.154,1.886,1.886,0,0,0,.319-.514,2.477,2.477,0,0,1,.882-1.1,2.219,2.219,0,0,1,1.255-.218V7.391H23.85V7.7a.764.764,0,0,1-.765.765H9.393A.764.764,0,0,1,8.628,7.7v-.31H4v29.8H24.03a3.134,3.134,0,0,1-.261-1.034,2.054,2.054,0,0,0-.126-.605,2.034,2.034,0,0,0-.45-.4,2.451,2.451,0,0,1-.927-1.062,1.459,1.459,0,0,1-.085-.38H15.263a.765.765,0,1,1,0-1.529h7.125a.33.33,0,0,0-.009-.1,1.831,1.831,0,0,0-.292-.554,3.289,3.289,0,0,1-.445-.883H15.263a.765.765,0,1,1,0-1.529h6.712q.061-.1.121-.2a1.95,1.95,0,0,0,.283-.529,2.127,2.127,0,0,0-.085-.613,2.358,2.358,0,0,1-.027-1.393,2.279,2.279,0,0,1,.864-1.008H15.263a.765.765,0,1,1,0-1.529h8.583A1.791,1.791,0,0,1,24.224,23a2.393,2.393,0,0,1,1.219-.673l.108-.033a.77.77,0,0,1-.171.019H15.263a.765.765,0,1,1,0-1.53H25.38A.765.765,0,0,1,26.145,21.552ZM23.85,4.916h6.082A1.015,1.015,0,0,1,30.944,5.93V19.146c-.018,0-.036,0-.054.009A1.953,1.953,0,0,0,30,19.6V6.626a.764.764,0,0,0-.765-.765H23.85Zm19.46,27.17a2.023,2.023,0,0,0,.085.613,2.4,2.4,0,0,1,.031,1.394,2.41,2.41,0,0,1-.927,1.053,2.043,2.043,0,0,0-.454.408,2,2,0,0,0-.126.6,2.416,2.416,0,0,1-.45,1.323,1.649,1.649,0,0,1-.238.228l2.2,5.123a.764.764,0,0,1-.855,1.052L39.5,43.249l-1.655,2.67a.766.766,0,0,1-.652.361l-.054,0a.77.77,0,0,1-.648-.461L34.57,41.349a2.831,2.831,0,0,1-1.156-.3,2.037,2.037,0,0,0-.567-.185,2.094,2.094,0,0,0-.594.19c-.148.064-.306.13-.472.184l-2.668,5.727a.763.763,0,0,1-.657.441h-.036a.77.77,0,0,1-.661-.38l-1.579-2.716-3.095.541a.764.764,0,0,1-.823-1.076l1.2-2.581H2.546A2.548,2.548,0,0,1,0,38.653V5.93A2.548,2.548,0,0,1,2.546,3.387H8.628v-.31a.764.764,0,0,1,.765-.765h3.356a3.791,3.791,0,0,1,6.981,0h3.356a.764.764,0,0,1,.765.765v.31h6.082A2.544,2.544,0,0,1,32.474,5.93V19.509a1.214,1.214,0,0,0,.373.1,2.078,2.078,0,0,0,.589-.19,2.381,2.381,0,0,1,1.363-.271,2.455,2.455,0,0,1,1.206.728,1.911,1.911,0,0,0,.477.374,2,2,0,0,0,.612.024,2.4,2.4,0,0,1,1.381.214,2.434,2.434,0,0,1,.877,1.09,2.021,2.021,0,0,0,.324.519,2.038,2.038,0,0,0,.567.228A2.4,2.4,0,0,1,41.471,23a2.4,2.4,0,0,1,.45,1.319,1.906,1.906,0,0,0,.13.6,2,2,0,0,0,.445.4,2.459,2.459,0,0,1,.931,1.062,2.4,2.4,0,0,1-.031,1.383,1.926,1.926,0,0,0-.085.622,1.938,1.938,0,0,0,.292.554,2.816,2.816,0,0,1,.477,1.03,2.146,2.146,0,0,1-.486,1.577,2.078,2.078,0,0,0-.284.529M11.349,29.317a.764.764,0,1,1,1.026,1.133L9,33.513a.772.772,0,0,1-.517.2.763.763,0,0,1-.54-.224L6.554,32.1a.766.766,0,1,1,1.084-1.081l.873.875Zm0-8.33a.764.764,0,1,1,1.026,1.133L9,25.183a.772.772,0,0,1-.517.2.763.763,0,0,1-.54-.224l-1.39-1.39a.766.766,0,0,1,1.084-1.081l.873.875ZM25.38,15.521a.765.765,0,1,1,0,1.529H15.263a.765.765,0,1,1,0-1.529ZM15.263,13.987a.765.765,0,1,1,0-1.529H25.38a.765.765,0,1,1,0,1.529ZM11.349,12.73a.764.764,0,1,1,1.026,1.132L9,16.925a.773.773,0,0,1-.517.2.764.764,0,0,1-.54-.225l-1.39-1.39a.766.766,0,0,1,1.084-1.081l.873.875Zm4.089-9.487a.8.8,0,1,0,.8-.8.8.8,0,0,0-.8.8" fill-rule="evenodd"/>
          </g>
        </g>
      </g>
    </g>
    <circle id="Elipse_5131" data-name="Elipse 5131" cx="17.609" cy="17.609" r="17.609" transform="translate(359.929 -7510.174)" fill="#fff"/>
    <rect id="Rectángulo_42011" data-name="Rectángulo 42011" width="8.763" height="2.889" transform="translate(593.911 -7334.027)"/>
    <rect id="Rectángulo_42010" data-name="Rectángulo 42010" width="8.763" height="2.889" transform="translate(553.37 -7334.027)"/>
    <g id="Grupo_142138" data-name="Grupo 142138" transform="translate(474.586 -7419.053)">
      <path id="Trazado_190807" data-name="Trazado 190807" d="M170.837,180.105,119.8,91.7,170.837,3.289H272.92L323.964,91.7,272.92,180.105Z" transform="translate(-119.795 -3.289)" fill="#fff59d"/>
      <text id="Planificada" transform="translate(40.442 96.235)" fill="#12263f" font-size="24" font-family="Roboto-Black, Roboto" font-weight="800"><tspan x="0" y="0">Planificada</tspan></text>
      <g id="Grupo_142123" data-name="Grupo 142123" transform="translate(77.692 109.454)">
        <rect id="Rectángulo_42206" data-name="Rectángulo 42206" width="47.41" height="47.41" transform="translate(0 0)" fill="none"/>
        <g id="Grupo_142122" data-name="Grupo 142122" transform="translate(4.064 0)">
          <g id="Grupo_142121" data-name="Grupo 142121" clip-path="url(#clip-path-2)">
            <g id="Grupo_142120" data-name="Grupo 142120">
              <g id="Grupo_142119" data-name="Grupo 142119" clip-path="url(#clip-path-2)">
                <path id="Trazado_191088" data-name="Trazado 191088" d="M294.349,185.088h9.158a.4.4,0,0,1,.4.4v3.452a.4.4,0,0,1-.4.4h-9.158Z" transform="translate(-264.771 -166.489)" fill="#39b54a"/>
                <path id="Trazado_191089" data-name="Trazado 191089" d="M298.9,185.247h-9.672v-5.279H298.9a.916.916,0,0,1,.916.911v3.452A.916.916,0,0,1,298.9,185.247Zm-8.643-1.029h8.53V181h-8.53Z" transform="translate(-260.166 -161.884)"/>
                <path id="Trazado_191090" data-name="Trazado 191090" d="M294.349,87.808h9.559v3.848a.4.4,0,0,1-.4.4h-9.163Z" transform="translate(-264.771 -78.985)" fill="#f7931e"/>
                <path id="Trazado_191091" data-name="Trazado 191091" d="M298.9,87.967h-9.672V82.688h10.588v4.363A.916.916,0,0,1,298.9,87.967Zm-8.643-1.029h8.53V83.717h-8.53Z" transform="translate(-260.166 -74.379)"/>
                <path id="Trazado_191092" data-name="Trazado 191092" d="M294.349,57.088h9.158a.4.4,0,0,1,.4.4v3.848h-9.554Z" transform="translate(-264.771 -51.351)" fill="#5abde0"/>
                <path id="Trazado_191093" data-name="Trazado 191093" d="M299.817,57.247H289.229V51.968H298.9a.916.916,0,0,1,.916.911Zm-9.559-1.029h8.53V53h-8.53Z" transform="translate(-260.166 -46.746)"/>
                <path id="Trazado_191094" data-name="Trazado 191094" d="M6.786,5.12H37.953a1.41,1.41,0,0,1,1.41,1.41V50.014a1.41,1.41,0,0,1-1.41,1.41H6.786a1.41,1.41,0,0,1-1.41-1.41V6.53a1.41,1.41,0,0,1,1.41-1.41" transform="translate(-4.836 -4.606)" fill="#ea4e5a"/>
                <path id="Trazado_191095" data-name="Trazado 191095" d="M33.358,47.333H2.18A1.924,1.924,0,0,1,.256,45.409V1.929A1.929,1.929,0,0,1,2.18,0H33.358a1.924,1.924,0,0,1,1.914,1.929V45.409A1.919,1.919,0,0,1,33.358,47.333ZM2.18,1.029a.9.9,0,0,0-.9.9V45.409a.9.9,0,0,0,.9.9H33.358a.9.9,0,0,0,.9-.9V1.929a.9.9,0,0,0-.9-.9Z" transform="translate(-0.23)"/>
                <path id="Trazado_191096" data-name="Trazado 191096" d="M99.324,337.2h20.564a.355.355,0,0,1,.355.355v6.426a.355.355,0,0,1-.355.355H99.324a.355.355,0,0,1-.355-.355v-6.426a.355.355,0,0,1,.355-.355" transform="translate(-89.024 -303.319)" fill="#e6e6e6"/>
                <path id="Trazado_191097" data-name="Trazado 191097" d="M115.192,340.249H94.612a.864.864,0,0,1-.864-.864v-6.431a.869.869,0,0,1,.864-.869h20.579a.869.869,0,0,1,.87.869v6.431a.87.87,0,0,1-.87.864m-20.4-1.029h20.245v-6.107H94.787Z" transform="translate(-84.328 -298.714)"/>
                <path id="Trazado_191098" data-name="Trazado 191098" d="M99.324,43.878h20.564a.355.355,0,0,1,.355.355V54.409a.355.355,0,0,1-.355.355H99.324a.355.355,0,0,1-.355-.355V44.233a.355.355,0,0,1,.355-.355" transform="translate(-89.024 -39.469)" fill="#e6e6e6"/>
                <path id="Trazado_191099" data-name="Trazado 191099" d="M115.192,50.674H94.612a.864.864,0,0,1-.864-.864V39.623a.864.864,0,0,1,.864-.864h20.579a.869.869,0,0,1,.87.864V49.81a.87.87,0,0,1-.87.864m-20.4-1.029h20.245V39.788H94.787Z" transform="translate(-84.328 -34.864)"/>
                <path id="Trazado_191100" data-name="Trazado 191100" d="M6.53,5.888h5.093v46.3H6.53a1.41,1.41,0,0,1-1.41-1.41V7.3A1.41,1.41,0,0,1,6.53,5.888Z" transform="translate(-4.606 -5.296)" fill="#736357"/>
                <path id="Trazado_191101" data-name="Trazado 191101" d="M7.537,48.1H1.924A1.929,1.929,0,0,1,0,46.177V2.692A1.929,1.929,0,0,1,1.924.768H7.537ZM1.924,1.8a.9.9,0,0,0-.9.9V46.177a.9.9,0,0,0,.9.9H6.508V1.8Z" transform="translate(0 -0.691)"/>
                <g id="Grupo_142118" data-name="Grupo 142118" transform="translate(0.54 0.514)" opacity="0.1">
                  <g id="Grupo_142117" data-name="Grupo 142117">
                    <g id="Grupo_142116" data-name="Grupo 142116" clip-path="url(#clip-path-4)">
                      <path id="Trazado_191102" data-name="Trazado 191102" d="M38.56,51.285a1.42,1.42,0,0,1-.607.139H6.786a1.41,1.41,0,0,1-1.41-1.41V6.535A1.415,1.415,0,0,1,6.786,5.12h3.6a1.415,1.415,0,0,0-1.41,1.415V18.847A32.577,32.577,0,0,0,38.56,51.285" transform="translate(-5.376 -5.12)"/>
                    </g>
                  </g>
                </g>
              </g>
            </g>
          </g>
        </g>
      </g>
    </g>
    <circle id="Elipse_5132" data-name="Elipse 5132" cx="17.609" cy="17.609" r="17.609" transform="translate(522.478 -7412.546)" fill="#fff"/>
    <g id="Grupo_142136" data-name="Grupo 142136" transform="translate(636.837 -7517)">
      <path id="Trazado_190810" data-name="Trazado 190810" d="M292.709,249.07l-51.041-88.407,51.041-88.409H394.792l51.044,88.409L394.792,249.07Z" transform="translate(-241.667 -72.255)" fill="#fff59d"/>
      <text id="Abierta" transform="translate(61.493 96.863)" fill="#12263f" font-size="24" font-family="Roboto-Black, Roboto" font-weight="800"><tspan x="0" y="0">Abierta</tspan></text>
      <g id="Grupo_142127" data-name="Grupo 142127" transform="translate(80.575 110.709)">
        <rect id="Rectángulo_42208" data-name="Rectángulo 42208" width="47.41" height="47.41" fill="none"/>
        <g id="Grupo_142126" data-name="Grupo 142126" transform="translate(2.57)">
          <rect id="Rectángulo_42212" data-name="Rectángulo 42212" width="25.901" height="28.781" transform="translate(12.19 6.421)" fill="#edba94"/>
          <g id="Grupo_142125" data-name="Grupo 142125">
            <g id="Grupo_142124" data-name="Grupo 142124" clip-path="url(#clip-path-5)">
              <path id="Trazado_191103" data-name="Trazado 191103" d="M140.043,70.973a9.067,9.067,0,0,0-.114-1.439H132.01V79.965a9.062,9.062,0,0,0,8.033-8.992" transform="translate(-119.82 -63.113)" fill="#e5a87f"/>
              <rect id="Rectángulo_42213" data-name="Rectángulo 42213" width="5.756" height="15.83" transform="translate(0.695 30.885)" fill="#9dc6fb"/>
              <rect id="Rectángulo_42214" data-name="Rectángulo 42214" width="1.853" height="15.83" transform="translate(0.695 30.885)" fill="#80b4fb"/>
              <rect id="Rectángulo_42215" data-name="Rectángulo 42215" width="1.853" height="28.781" transform="translate(12.19 6.421)" fill="#e5a87f"/>
              <rect id="Rectángulo_42216" data-name="Rectángulo 42216" width="2.891" height="14.391" transform="translate(6.451 32.324)" fill="#f1f6f7"/>
              <path id="Trazado_191104" data-name="Trazado 191104" d="M246.813,77.217,243.932,75.9l-2.881,1.322V69.535h5.762Z" transform="translate(-218.791 -63.113)" fill="#fd6930"/>
              <path id="Trazado_191105" data-name="Trazado 191105" d="M173.072,215.2l-3.674-3.674-3.674,3.674h2.235v6.239h2.878V215.2Z" transform="translate(-150.421 -191.989)" fill="#f1f6f7"/>
              <rect id="Rectángulo_42217" data-name="Rectángulo 42217" width="5.756" height="2.942" transform="translate(29.476 26.536)" fill="#e5a87f"/>
              <path id="Trazado_191106" data-name="Trazado 191106" d="M101.027,332.534s2.76-2.8,8.336-2.8a8.634,8.634,0,0,1,3.112.58l2.208.853h4.37a1.85,1.85,0,0,1,1.85,1.85,3.546,3.546,0,0,1-.081.542h0l3.512-2.027,6.408-3.7a1.85,1.85,0,0,1,2.527.678,1.915,1.915,0,0,1-.676,2.527L120.88,340.19a4.6,4.6,0,0,1-2.839.978H101.027v-8.634Z" transform="translate(-91.698 -297.332)" fill="#ffcebf"/>
              <path id="Trazado_191107" data-name="Trazado 191107" d="M110.145,350.9q-.389-.035-.78-.035c-5.576,0-8.336,2.8-8.336,2.8V362.3h1.853v-8.634a11.67,11.67,0,0,1,7.264-2.767" transform="translate(-91.699 -318.463)" fill="#ffb09e"/>
              <path id="Trazado_191108" data-name="Trazado 191108" d="M32.241,375.075a.695.695,0,1,1,.695-.695.695.695,0,0,1-.695.695" transform="translate(-28.633 -339.178)"/>
              <path id="Trazado_191109" data-name="Trazado 191109" d="M50.286,7.2a7.2,7.2,0,1,1-7.2,7.2,7.2,7.2,0,0,1,7.2-7.2" transform="translate(-39.112 -6.534)" fill="#ade194"/>
              <path id="Trazado_191110" data-name="Trazado 191110" d="M44.943,14.4a7.2,7.2,0,0,1,6.269-7.136,7.2,7.2,0,1,0,0,14.272A7.2,7.2,0,0,1,44.943,14.4" transform="translate(-39.111 -6.535)" fill="#7dce6f"/>
              <path id="Trazado_191111" data-name="Trazado 191111" d="M161.3,215.3h2.878a.7.7,0,0,0,.695-.695v-5.544h1.54c.68,0,1.1-.613.491-1.186l-3.674-3.674a.7.7,0,0,0-.983,0l-3.674,3.674c-.365.614-.189,1.054.491,1.186h1.54v5.544a.7.7,0,0,0,.695.695m1.439-9.625,2,2h-.557a.7.7,0,0,0-.695.695v5.544H162v-5.544a.7.7,0,0,0-.695-.695h-.557Z" transform="translate(-143.765 -185.16)"/>
              <path id="Trazado_191112" data-name="Trazado 191112" d="M318.127,279.837h-5.756a.7.7,0,0,0-.695.695v2.942a.7.7,0,0,0,.695.695h5.756a.7.7,0,0,0,.695-.695v-2.942a.7.7,0,0,0-.695-.695m-.695,2.942h-4.366v-1.552h4.366Z" transform="translate(-282.895 -253.996)"/>
              <path id="Trazado_191113" data-name="Trazado 191113" d="M318.127,249.014h-5.756a.695.695,0,0,0,0,1.39h5.756a.695.695,0,0,0,0-1.39" transform="translate(-282.895 -226.019)"/>
              <path id="Trazado_191114" data-name="Trazado 191114" d="M42.174,32.105a2.6,2.6,0,0,0-3.388-.981v-10.8a.695.695,0,0,0-1.39,0v11.6l-6.684,3.859h-1.1a2.545,2.545,0,0,0-2.254-1.369H23.115a14.231,14.231,0,0,0-5.449-1.434,15.222,15.222,0,0,0-4.78.735V16.837a7.983,7.983,0,0,0,6.143-8.445h2.536V15.38a.7.7,0,0,0,.985.632l2.591-1.189,2.591,1.189a.709.709,0,0,0,.985-.632V8.392H37.4v8.9a.695.695,0,1,0,1.39,0V7.7A.7.7,0,0,0,38.091,7H18.768a8.041,8.041,0,0,0-5.934-5.581.695.695,0,1,0-.291,1.359,6.5,6.5,0,1,1-2.738,0,.695.695,0,1,0-.291-1.359A8.011,8.011,0,0,0,3.285,9.136,8.009,8.009,0,0,0,11.5,17.018V34.26a11.69,11.69,0,0,0-1.459.8V33.6a.7.7,0,0,0-.695-.695h-2.2v-.744a.7.7,0,0,0-.695-.695H.695A.7.7,0,0,0,0,32.161v15.83a.7.7,0,0,0,.695.695H9.342a.7.7,0,0,0,.695-.695V45.808h7.426a.695.695,0,0,0,0-1.39H10.037V36.78a11.992,11.992,0,0,1,7.629-2.409c1.9,0,5.126,1.413,5.319,1.434h4.371c1.3,0,1.7,2.31.013,2.31H18.978a.695.695,0,0,0,0,1.39h8.391A2.529,2.529,0,0,0,29.7,37.972l9.69-5.6a1.156,1.156,0,0,1,1.156,2c-.028.016-11.795,9.21-11.795,9.21a3.928,3.928,0,0,1-2.411.831H20.492a.695.695,0,1,0,0,1.39h5.851a5.323,5.323,0,0,0,3.267-1.126l11.679-9.128a2.612,2.612,0,0,0,.885-3.449ZM27.327,14.3l-1.9-.87a.7.7,0,0,0-.579,0l-1.9.87v-5.9h4.372ZM1.39,32.856H5.756V47.3H1.39ZM7.146,47.3v-13h1.5v13h-1.5Z" transform="translate(0 -1.276)"/>
              <path id="Trazado_191115" data-name="Trazado 191115" d="M76.193,53.615a.695.695,0,1,0-1.058.9L77.3,57.055a.7.7,0,0,0,.529.244h.012a.7.7,0,0,0,.532-.263l4.273-5.377a.695.695,0,0,0-1.088-.865l-3.747,4.715Z" transform="translate(-68.046 -45.866)"/>
              <rect id="Rectángulo_42218" data-name="Rectángulo 42218" width="1.39" height="5.756" transform="translate(37.396 15.056)"/>
              <path id="Trazado_191116" data-name="Trazado 191116" d="M165.724,468.583h6.956v-1.39h-6.053Z" transform="translate(-150.421 -424.051)"/>
              <path id="Trazado_191117" data-name="Trazado 191117" d="M91.283,1.656A6.969,6.969,0,0,0,87,1.8L86.119.665A8.153,8.153,0,0,1,92.21.515Z" transform="translate(-78.166 0)"/>
            </g>
          </g>
        </g>
      </g>
    </g>
    <circle id="Elipse_5133" data-name="Elipse 5133" cx="17.609" cy="17.609" r="17.609" transform="translate(684.901 -7510.593)" fill="#fff"/>
    <g id="Grupo_142137" data-name="Grupo 142137" transform="translate(801.037 -7419.053)">
      <path id="Trazado_190812" data-name="Trazado 190812" d="M412.617,176.816,361.576,88.408,412.617,0H514.7l51.044,88.409L514.7,176.816Z" transform="translate(-361.576 0)" fill="#fff59d"/>
      <text id="Por_contrato" data-name="Por contrato" transform="translate(33.679 96.48)" fill="#12263f" font-size="24" font-family="Roboto-Black, Roboto" font-weight="800"><tspan x="0" y="0">Por contrato</tspan></text>
      <g id="Grupo_142130" data-name="Grupo 142130" transform="translate(77.99 109.699)">
        <rect id="Rectángulo_42207" data-name="Rectángulo 42207" width="47.41" height="47.41" transform="translate(0)" fill="none"/>
        <g id="Grupo_142129" data-name="Grupo 142129" transform="translate(0)">
          <g id="Grupo_142128" data-name="Grupo 142128" transform="translate(0 0)" clip-path="url(#clip-path-6)">
            <path id="Trazado_191118" data-name="Trazado 191118" d="M9.477,8H39.009a1.477,1.477,0,0,1,1.477,1.477V52.3a1.477,1.477,0,0,1-1.477,1.477H9.477A1.477,1.477,0,0,1,8,52.3V9.477A1.477,1.477,0,0,1,9.477,8" transform="translate(-7.262 -7.103)" fill="#f6f6f6"/>
            <path id="Trazado_191119" data-name="Trazado 191119" d="M39.009,465.477H9.477A1.477,1.477,0,0,1,8,464v2.215a1.477,1.477,0,0,0,1.477,1.477H39.009a1.477,1.477,0,0,0,1.477-1.477V464a1.477,1.477,0,0,1-1.477,1.477" transform="translate(-7.262 -421.02)" fill="#dcdcdc"/>
            <path id="Trazado_191120" data-name="Trazado 191120" d="M31.747,47.252H2.215A2.215,2.215,0,0,1,0,45.037V2.215A2.215,2.215,0,0,1,2.215,0H31.747a2.215,2.215,0,0,1,2.215,2.215v9.6a.738.738,0,1,1-1.477,0v-9.6a.738.738,0,0,0-.738-.738H2.215a.738.738,0,0,0-.738.738V45.037a.738.738,0,0,0,.738.738H31.747a.738.738,0,0,0,.738-.738V39.13a.738.738,0,0,1,1.477,0v5.906a2.215,2.215,0,0,1-2.215,2.215" transform="translate(0 0.158)"/>
            <path id="Trazado_191121" data-name="Trazado 191121" d="M352.738,188.673a.738.738,0,0,1-.738-.738v-19.2a.738.738,0,0,1,1.477,0v19.2a.738.738,0,0,1-.738.738" transform="translate(-319.515 -152.337)"/>
            <path id="Trazado_191122" data-name="Trazado 191122" d="M72.364,193.477H48.738a.738.738,0,1,1,0-1.477H72.364a.738.738,0,1,1,0,1.477" transform="translate(-43.57 -174.122)"/>
            <path id="Trazado_191123" data-name="Trazado 191123" d="M72.364,233.477H48.738a.738.738,0,1,1,0-1.477H72.364a.738.738,0,1,1,0,1.477" transform="translate(-43.57 -210.431)"/>
            <path id="Trazado_191124" data-name="Trazado 191124" d="M72.364,273.477H48.738a.738.738,0,0,1,0-1.477H72.364a.738.738,0,0,1,0,1.477" transform="translate(-43.57 -246.739)"/>
            <path id="Trazado_191125" data-name="Trazado 191125" d="M72.364,313.477H48.738a.738.738,0,1,1,0-1.477H72.364a.738.738,0,1,1,0,1.477" transform="translate(-43.57 -283.048)"/>
            <path id="Trazado_191126" data-name="Trazado 191126" d="M72.364,353.477H48.738a.738.738,0,0,1,0-1.477H72.364a.738.738,0,0,1,0,1.477" transform="translate(-43.57 -319.356)"/>
            <rect id="Rectángulo_42220" data-name="Rectángulo 42220" width="4.064" height="12.191" transform="translate(41.992 24.382)" fill="#a8edfd"/>
            <rect id="Rectángulo_42221" data-name="Rectángulo 42221" width="4.064" height="2.709" transform="translate(41.992 33.864)" fill="#8bd4de"/>
            <path id="Trazado_191127" data-name="Trazado 191127" d="M460.43,262.028h-3.692a.738.738,0,0,1-.738-.738V248.738a.738.738,0,0,1,.738-.738h3.692a.738.738,0,0,1,.738.738v12.551a.738.738,0,0,1-.738.738m-2.953-1.477h2.215V249.477h-2.215Z" transform="translate(-413.917 -224.954)"/>
            <path id="Trazado_191128" data-name="Trazado 191128" d="M211.975,242.556c-4.077,8.737-3.966,8.518-3.975,8.518a3.13,3.13,0,0,0,3.554-1.175l1.712-2.446a7.124,7.124,0,0,1,5.809-3.024,2.215,2.215,0,0,1,0,4.43h-2.953a3.692,3.692,0,0,0-3.692,3.692h7.078a2.521,2.521,0,0,1,1.782.738,2.521,2.521,0,0,0,1.782.738h5.006a2.533,2.533,0,0,0,1.128-.266l2.421-1.211v-9.6h-.865a5.043,5.043,0,0,1-3.565-1.477A5.042,5.042,0,0,0,223.631,240h-7.641a4.43,4.43,0,0,0-4.015,2.556" transform="translate(-188.804 -217.692)" fill="#e0c3aa"/>
            <path id="Trazado_191129" data-name="Trazado 191129" d="M200.492,244.513a.738.738,0,0,1-.468-.933.747.747,0,0,1,.033-.082l3.975-8.518a5.187,5.187,0,0,1,4.684-2.98h7.641a5.743,5.743,0,0,1,4.087,1.693,4.273,4.273,0,0,0,3.046,1.261h.862a.738.738,0,0,1,.738.738v4.43a.738.738,0,1,1-1.477,0V236.43h-.126a5.743,5.743,0,0,1-4.087-1.693,4.272,4.272,0,0,0-3.046-1.261h-7.641a3.705,3.705,0,0,0-3.345,2.13l-3.555,7.625a2.4,2.4,0,0,0,1.862-1.015l1.713-2.447a7.836,7.836,0,0,1,6.413-3.34,2.953,2.953,0,0,1,2.953,2.953.738.738,0,0,1-1.477,0,1.477,1.477,0,0,0-1.477-1.477,6.353,6.353,0,0,0-5.2,2.71l-1.713,2.446A3.892,3.892,0,0,1,200.492,244.513Z" transform="translate(-181.53 -210.431)"/>
            <rect id="Rectángulo_42222" data-name="Rectángulo 42222" width="22.157" height="4.431" transform="translate(19.613 36.537) rotate(-58.948)" fill="#6fc3e2"/>
            <path id="Trazado_191130" data-name="Trazado 191130" d="M208.768,203.007l-3.8-2.284a.738.738,0,0,1-.253-1.013v0l11.421-18.975a.738.738,0,0,1,1.013-.253h0l3.8,2.284a.738.738,0,0,1,.253,1.013v0l-11.423,18.975A.738.738,0,0,1,208.768,203.007Zm-2.4-3.168,2.526,1.523,10.659-17.713-2.531-1.523Z" transform="translate(-185.731 -163.569)"/>
            <path id="Trazado_191131" data-name="Trazado 191131" d="M208.826,394.01l-.386,4.938,4.182-2.654Z" transform="translate(-189.203 -357.489)" fill="#a6806f"/>
            <path id="Trazado_191132" data-name="Trazado 191132" d="M200.438,391.632l.387-4.937a.738.738,0,0,1,1.117-.575l3.8,2.284a.738.738,0,0,1,.015,1.256l-4.183,2.653a.738.738,0,0,1-1.131-.681ZM202.2,388l-.178,2.275,1.926-1.217Z" transform="translate(-181.938 -350.231)"/>
            <path id="Trazado_191133" data-name="Trazado 191133" d="M264.86,312a2.215,2.215,0,0,1-2.215,2.215h-2.953A3.692,3.692,0,0,0,256,317.906h7.078a2.521,2.521,0,0,1,1.782.738,2.521,2.521,0,0,0,1.782.738h5.006a2.533,2.533,0,0,0,1.128-.266l2.421-1.211v-5.168" transform="translate(-232.374 -283.048)" fill="#e0c3aa"/>
            <path id="Trazado_191134" data-name="Trazado 191134" d="M271.647,353.477h-5.006a2.522,2.522,0,0,1-1.782-.738,2.521,2.521,0,0,0-1.782-.738h-6.339a3.679,3.679,0,0,0-.738,2.215h7.078a2.521,2.521,0,0,1,1.782.738,2.521,2.521,0,0,0,1.782.738h5.006a2.532,2.532,0,0,0,1.128-.266l2.421-1.211V352l-2.421,1.211a2.533,2.533,0,0,1-1.128.266" transform="translate(-232.374 -319.356)" fill="#d0a37f"/>
            <path id="Trazado_191135" data-name="Trazado 191135" d="M264.386,312.86H259.38a3.237,3.237,0,0,1-2.307-.954,1.768,1.768,0,0,0-1.257-.522h-7.078a.738.738,0,0,1-.738-.738,4.434,4.434,0,0,1,4.43-4.43h2.953a1.477,1.477,0,0,0,1.477-1.477.738.738,0,0,1,1.477,0,2.953,2.953,0,0,1-2.953,2.953H252.43a2.959,2.959,0,0,0-2.861,2.215h6.246a3.237,3.237,0,0,1,2.307.954,1.768,1.768,0,0,0,1.258.522h5.006a1.8,1.8,0,0,0,.8-.185l2.013-1.01v-4.712a.738.738,0,1,1,1.477,0v5.168a.738.738,0,0,1-.408.661l-2.422,1.21a3.269,3.269,0,0,1-1.457.344" transform="translate(-225.113 -275.786)"/>
            <path id="Trazado_191136" data-name="Trazado 191136" d="M340.171,163.357a2.215,2.215,0,0,0-3.04.756h0l-.761,1.265,3.8,2.284.761-1.265a2.215,2.215,0,0,0-.756-3.04h0" transform="translate(-305.327 -147.835)" fill="#5f79a5"/>
            <path id="Trazado_191137" data-name="Trazado 191137" d="M332.518,161.029l-3.8-2.284a.738.738,0,0,1-.253-1.013v0l.761-1.265a2.953,2.953,0,0,1,4.053-1.008h0a2.953,2.953,0,0,1,1.008,4.053h0l-.761,1.265a.738.738,0,0,1-1.013.254h0m-2.4-3.168,2.531,1.523.381-.632a1.477,1.477,0,0,0-.5-2.028l0,0a1.477,1.477,0,0,0-2.028.5l0,0Z" transform="translate(-298.06 -140.567)"/>
            <path id="Trazado_191138" data-name="Trazado 191138" d="M112.747,442.94a.738.738,0,0,1-.59-1.181l.612-.816a2.391,2.391,0,0,1,3.826,0,2.4,2.4,0,0,1,3.2.521h9.934a.738.738,0,0,1,0,1.477H119.392a.738.738,0,0,1-.661-.408.911.911,0,0,0-1.632,0,.738.738,0,0,1-1.322,0l-.281-.564a.912.912,0,0,0-1.55-.136l-.612.816A.738.738,0,0,1,112.747,442.94Z" transform="translate(-101.673 -399.222)"/>
            <rect id="Rectángulo_42223" data-name="Rectángulo 42223" width="24.382" height="5.418" transform="translate(5.418 5.418)" fill="#ead590"/>
            <rect id="Rectángulo_42224" data-name="Rectángulo 42224" width="24.382" height="2.709" transform="translate(5.418 8.127)" fill="#f1cb66"/>
            <path id="Trazado_191139" data-name="Trazado 191139" d="M72.364,55.383H48.738A.738.738,0,0,1,48,54.645V48.738A.738.738,0,0,1,48.738,48H72.364a.738.738,0,0,1,.738.738v5.906a.738.738,0,0,1-.738.738M49.477,53.906H71.626v-4.43H49.477Z" transform="translate(-43.57 -43.412)"/>
            <path id="Trazado_191140" data-name="Trazado 191140" d="M59.075,153.477H48.738a.738.738,0,0,1,0-1.477H59.075a.738.738,0,1,1,0,1.477" transform="translate(-43.57 -137.814)"/>
            <path id="Trazado_191141" data-name="Trazado 191141" d="M352,96.369v5.818h1.477V96Z" transform="translate(-319.515 -86.982)"/>
            <path id="Trazado_191142" data-name="Trazado 191142" d="M352,390.645V384l1.43.738.046,5.124Z" transform="translate(-319.515 -348.403)"/>
          </g>
        </g>
      </g>
    </g>
    <circle id="Elipse_5134" data-name="Elipse 5134" cx="17.609" cy="17.609" r="17.609" transform="translate(847.871 -7412.301)" fill="#fff"/>
  </g>
</svg>
