<svg xmlns="http://www.w3.org/2000/svg" xmlns:xlink="http://www.w3.org/1999/xlink" width="1241" height="2128" viewBox="0 0 1241 2128">
  <defs>
    <linearGradient id="linear-gradient" x1="0.5" y1="1" x2="0.5" gradientUnits="objectBoundingBox">
      <stop offset="0" stop-color="#f0f8ff"/>
      <stop offset="1" stop-color="#fff"/>
    </linearGradient>
  </defs>
  <g id="Grupo_149951" data-name="Grupo 149951" transform="translate(5364 4039)">
    <rect id="Rect치ngulo_90245" data-name="Rect치ngulo 90245" width="1273.902" height="295" transform="translate(-4418 -1911) rotate(-90)" opacity="0.798" fill="url(#linear-gradient)"/>
    <g id="Grupo_149932" data-name="Grupo 149932" transform="translate(-4523 -2951)">
      <path id="Trazado_114975" data-name="Trazado 114975" d="M802.111,386.057h43.4l-32.891,69.9,32.891,69.9h-43.4l-32.891-69.9Z" transform="translate(-445.509 -386.057)" fill="#f0f8ff"/>
      <path id="Trazado_114976" data-name="Trazado 114976" d="M818.4,386.057h43.4l-32.89,69.9,32.89,69.9H818.4l-32.89-69.9Z" transform="translate(-542.722 -386.057)" fill="#f0f8ff"/>
      <path id="Trazado_114977" data-name="Trazado 114977" d="M834.681,386.057h43.4l-32.89,69.9,32.89,69.9h-43.4l-32.89-69.9Z" transform="translate(-639.935 -386.057)" fill="#f0f8ff"/>
      <path id="Trazado_114978" data-name="Trazado 114978" d="M850.967,386.058h43.4l-32.89,69.9,32.89,69.9h-43.4l-32.89-69.9Z" transform="translate(-737.149 -386.058)" fill="#f0f8ff"/>
      <path id="Trazado_114979" data-name="Trazado 114979" d="M867.251,386.058h43.4l-32.89,69.9,32.89,69.9h-43.4l-32.89-69.9Z" transform="translate(-834.362 -386.058)" fill="#f0f8ff"/>
    </g>
    <g id="Grupo_149933" data-name="Grupo 149933" transform="translate(-4964 -3313.195) rotate(180)">
      <path id="Trazado_114975-2" data-name="Trazado 114975" d="M802.111,386.057h43.4l-32.891,69.9,32.891,69.9h-43.4l-32.891-69.9Z" transform="translate(-445.509 -386.057)" fill="#f0f8ff"/>
      <path id="Trazado_114976-2" data-name="Trazado 114976" d="M818.4,386.057h43.4l-32.89,69.9,32.89,69.9H818.4l-32.89-69.9Z" transform="translate(-542.722 -386.057)" fill="#f0f8ff"/>
      <path id="Trazado_114977-2" data-name="Trazado 114977" d="M834.681,386.057h43.4l-32.89,69.9,32.89,69.9h-43.4l-32.89-69.9Z" transform="translate(-639.935 -386.057)" fill="#f0f8ff"/>
      <path id="Trazado_114978-2" data-name="Trazado 114978" d="M850.967,386.058h43.4l-32.89,69.9,32.89,69.9h-43.4l-32.89-69.9Z" transform="translate(-737.149 -386.058)" fill="#f0f8ff"/>
      <path id="Trazado_114979-2" data-name="Trazado 114979" d="M867.251,386.058h43.4l-32.89,69.9,32.89,69.9h-43.4l-32.89-69.9Z" transform="translate(-834.362 -386.058)" fill="#f0f8ff"/>
    </g>
    <rect id="Rect치ngulo_90246" data-name="Rect치ngulo 90246" width="1855" height="295" transform="translate(-5068 -4039) rotate(90)" opacity="0.798" fill="url(#linear-gradient)"/>
    <g id="Grupo_149949" data-name="Grupo 149949" transform="translate(-4523 -2951)">
      <path id="Trazado_114975-3" data-name="Trazado 114975" d="M802.111,386.057h43.4l-32.891,69.9,32.891,69.9h-43.4l-32.891-69.9Z" transform="translate(-445.509 -386.057)" fill="#f0f8ff"/>
      <path id="Trazado_114976-3" data-name="Trazado 114976" d="M818.4,386.057h43.4l-32.89,69.9,32.89,69.9H818.4l-32.89-69.9Z" transform="translate(-542.722 -386.057)" fill="#f0f8ff"/>
      <path id="Trazado_114977-3" data-name="Trazado 114977" d="M834.681,386.057h43.4l-32.89,69.9,32.89,69.9h-43.4l-32.89-69.9Z" transform="translate(-639.935 -386.057)" fill="#f0f8ff"/>
      <path id="Trazado_114978-3" data-name="Trazado 114978" d="M850.967,386.058h43.4l-32.89,69.9,32.89,69.9h-43.4l-32.89-69.9Z" transform="translate(-737.149 -386.058)" fill="#f0f8ff"/>
      <path id="Trazado_114979-3" data-name="Trazado 114979" d="M867.251,386.058h43.4l-32.89,69.9,32.89,69.9h-43.4l-32.89-69.9Z" transform="translate(-834.362 -386.058)" fill="#f0f8ff"/>
    </g>
    <g id="Grupo_149950" data-name="Grupo 149950" transform="translate(-4964 -3313.195) rotate(180)">
      <path id="Trazado_114975-4" data-name="Trazado 114975" d="M802.111,386.057h43.4l-32.891,69.9,32.891,69.9h-43.4l-32.891-69.9Z" transform="translate(-445.509 -386.057)" fill="#f0f8ff"/>
      <path id="Trazado_114976-4" data-name="Trazado 114976" d="M818.4,386.057h43.4l-32.89,69.9,32.89,69.9H818.4l-32.89-69.9Z" transform="translate(-542.722 -386.057)" fill="#f0f8ff"/>
      <path id="Trazado_114977-4" data-name="Trazado 114977" d="M834.681,386.057h43.4l-32.89,69.9,32.89,69.9h-43.4l-32.89-69.9Z" transform="translate(-639.935 -386.057)" fill="#f0f8ff"/>
      <path id="Trazado_114978-4" data-name="Trazado 114978" d="M850.967,386.058h43.4l-32.89,69.9,32.89,69.9h-43.4l-32.89-69.9Z" transform="translate(-737.149 -386.058)" fill="#f0f8ff"/>
      <path id="Trazado_114979-4" data-name="Trazado 114979" d="M867.251,386.058h43.4l-32.89,69.9,32.89,69.9h-43.4l-32.89-69.9Z" transform="translate(-834.362 -386.058)" fill="#f0f8ff"/>
    </g>
  </g>
</svg>
